<svg width="45" height="46" viewBox="0 0 45 46" fill="none" xmlns="http://www.w3.org/2000/svg">
<path fill-rule="evenodd" clip-rule="evenodd" d="M1.02165 6.89058C3.91202 5.17585 6.9377 3.83292 10.1203 2.86179C14.4559 1.54106 18.8564 0.919538 23.376 1.00833C25.4761 1.05272 28.9727 1.40233 29.5627 1.6354C29.5843 1.67979 29.541 1.70754 29.4923 1.70754C29.292 1.80188 29.0647 1.86847 28.859 1.96281C25.1351 3.561 22.4937 6.91833 21.7251 10.9915C21.6114 11.663 21.5465 12.3344 21.5248 13.0059C21.5032 14.027 21.4112 15.0425 21.1189 16.0358C20.123 19.6262 17.2597 22.4231 13.7144 23.261C9.05946 24.3431 4.36127 21.9847 2.33152 17.5619C2.21785 17.3066 2.13125 17.0513 2.08253 16.7961C1.74154 15.2922 1.49797 13.7884 1.31393 12.2568C1.11367 10.5698 1 8.87723 1 7.19025C1.02165 7.07371 1.02165 7.00712 1.02165 6.89058Z" stroke="#F2C94C"/>
<path fill-rule="evenodd" clip-rule="evenodd" d="M34.2565 34.6413C34.2998 34.2029 34.3485 33.8089 34.3701 33.3927C34.4838 31.1009 34.0075 28.9255 32.9466 26.9112C31.929 24.9911 30.5055 23.4595 28.6814 22.3052C28.5245 22.1887 28.3404 22.0999 28.1835 21.9834C25.6774 20.363 24.1402 18.0711 23.5989 15.0856C22.6301 9.71388 25.9264 4.53083 31.0955 3.25449C32.925 2.8161 34.7057 2.86049 36.4919 3.43762C37.9587 3.90376 39.3606 4.52528 40.7571 5.19675C41.726 5.66289 42.6515 6.16788 43.5825 6.70061C43.6962 6.77275 43.7828 6.81714 43.9235 6.90593C43.9235 7.00027 43.9451 7.06686 43.9451 7.1612C43.9451 8.3876 43.8748 9.63619 43.7882 10.8626C43.6312 12.6661 43.3606 14.4752 42.9979 16.2343C41.8883 21.4673 39.9289 26.3063 37.0819 30.7957C36.2916 32.0443 35.4364 33.2485 34.5325 34.4083C34.4405 34.4804 34.3918 34.5692 34.2565 34.6413V34.6413Z" stroke="#F2C94C"/>
<path fill-rule="evenodd" clip-rule="evenodd" d="M22.4758 45.0001C22.1348 44.8614 21.101 44.2121 19.9914 43.4519C17.5286 41.7649 15.2499 39.8171 13.1714 37.6418C11.0984 35.4609 9.24726 33.0802 7.66135 30.5109C6.17286 28.1247 4.93336 25.6275 3.93743 22.9861C3.91578 22.9139 3.89413 22.8695 3.86707 22.753C3.98073 22.8251 4.02403 22.8473 4.0944 22.8917C4.88465 23.5188 5.7182 24.0515 6.62211 24.44C7.77501 24.9505 8.97121 25.3001 10.2324 25.4111C12.7817 25.6664 15.1741 25.1336 17.4366 23.8351C18.6112 23.1636 19.8777 22.7252 21.2093 22.5366C25.9291 21.9372 30.6273 24.8062 32.0941 29.8061C32.8411 32.3755 32.6138 34.8727 31.4609 37.3088C31.3039 37.6307 31.1686 37.9359 31.0062 38.2355C30.9142 38.4187 30.8059 38.6073 30.6435 38.7461C28.2566 41.0657 25.6368 43.1023 22.7952 44.817C22.6815 44.8836 22.5678 44.9557 22.4758 45.0001V45.0001Z" stroke="#F2C94C"/>
</svg>
