<svg width="144" height="144" viewBox="0 0 144 144" fill="none" xmlns="http://www.w3.org/2000/svg">
<path d="M72 136.5C36.42 136.5 7.5 107.58 7.5 72C7.5 36.42 36.42 7.5 72 7.5C107.58 7.5 136.5 36.42 136.5 72C136.5 74.46 134.46 76.5 132 76.5C129.54 76.5 127.5 74.46 127.5 72C127.5 41.4 102.6 16.5 72 16.5C41.4 16.5 16.5 41.4 16.5 72C16.5 102.6 41.4 127.5 72 127.5C74.46 127.5 76.5 129.54 76.5 132C76.5 134.46 74.46 136.5 72 136.5Z" fill="#FCD435"/>
<path d="M54.0013 130.5H48.0013C45.5413 130.5 43.5013 128.46 43.5013 126C43.5013 123.54 45.4214 121.56 47.8814 121.5C38.4614 89.34 38.4614 54.66 47.8814 22.5C45.4814 22.44 43.5013 20.46 43.5013 18C43.5013 15.54 45.5413 13.5 48.0013 13.5H54.0013C55.4413 13.5 56.8213 14.22 57.6613 15.36C58.5013 16.56 58.7413 18.0599 58.2613 19.4399C46.9813 53.3399 46.9813 90.7201 58.2613 124.62C58.7413 126 58.5013 127.5 57.6613 128.7C56.8213 129.9 55.4413 130.5 54.0013 130.5Z" fill="#FCD435"/>
<path d="M98.7596 76.5002C96.2996 76.5002 94.2596 74.4602 94.2596 72.0002C94.2596 54.1202 91.3797 36.4201 85.7397 19.4401C84.9597 17.1001 86.2197 14.52 88.5597 13.74C90.8997 12.96 93.4796 14.2202 94.2596 16.5602C100.2 34.4402 103.26 53.1002 103.26 72.0002C103.26 74.4602 101.22 76.5002 98.7596 76.5002Z" fill="#FCD435"/>
<path d="M72 103.26C55.2 103.26 38.58 100.86 22.5 96.1201C22.44 98.5201 20.46 100.5 18 100.5C15.54 100.5 13.5 98.46 13.5 96V90C13.5 88.56 14.22 87.18 15.36 86.34C16.5 85.5 18.0599 85.2598 19.4399 85.7398C36.4199 91.3798 54.12 94.2601 72 94.2601C74.46 94.2601 76.5 96.3001 76.5 98.7601C76.5 101.22 74.46 103.26 72 103.26Z" fill="#FCD435"/>
<path d="M126.001 58.5C125.521 58.5 125.041 58.4402 124.561 58.2602C90.6611 46.9802 53.2812 46.9802 19.3812 58.2602C17.0412 59.0402 14.4611 57.78 13.6811 55.44C12.9011 53.1 14.1611 50.5199 16.5011 49.7399C52.2611 37.7999 91.6211 37.7999 127.321 49.7399C129.661 50.5199 130.921 53.1 130.141 55.44C129.661 57.3 127.861 58.5 126.001 58.5Z" fill="#FCD435"/>
<path d="M109.56 136.5C94.6802 136.5 82.6201 124.38 82.6201 109.56C82.6201 94.7401 94.7402 82.5601 109.56 82.5601C112.56 82.5601 115.56 82.9799 118.38 83.8799C120.78 84.5999 122.1 87.1199 121.38 89.5199C120.66 91.9199 118.14 93.2399 115.74 92.5199C113.76 91.9199 111.66 91.6201 109.56 91.6201C99.6602 91.6201 91.6201 99.6601 91.6201 109.62C91.6201 119.58 99.6602 127.56 109.56 127.56C119.46 127.56 127.5 119.52 127.5 109.62C127.5 106.02 126.48 102.6 124.5 99.6599C123.12 97.6199 123.66 94.8 125.76 93.42C127.8 92.04 130.62 92.5802 132 94.6802C135 99.1202 136.56 104.34 136.56 109.68C136.5 124.38 124.38 136.5 109.56 136.5Z" fill="#FCD435"/>
<path d="M120.242 93.3001C118.982 93.3001 117.721 92.76 116.821 91.74L109.321 83.1601C107.701 81.3001 107.882 78.4201 109.742 76.8001C111.602 75.1801 114.421 75.3601 116.101 77.2201L123.601 85.8001C125.221 87.6601 125.041 90.5401 123.181 92.1601C122.341 92.9401 121.322 93.3001 120.242 93.3001Z" fill="#FCD435"/>
<path d="M111.48 99.6599C110.1 99.6599 108.72 99 107.82 97.8C106.38 95.82 106.8 93 108.78 91.5L117.54 85.14C119.52 83.64 122.34 84.1199 123.84 86.0999C125.28 88.0799 124.86 90.9002 122.88 92.4002L114.12 98.7602C113.34 99.3602 112.44 99.6599 111.48 99.6599Z" fill="#FCD435"/>
</svg>
