<svg width="572" height="527" viewBox="0 0 572 527" fill="none" xmlns="http://www.w3.org/2000/svg">
<rect y="54" width="141" height="141" rx="15" fill="url(#paint0_linear_292_1448)"/>
<rect x="19" y="335" width="102" height="102" rx="15" fill="url(#paint1_linear_292_1448)"/>
<rect x="284" width="102" height="102" rx="15" fill="url(#paint2_linear_292_1448)"/>
<rect x="193" y="425" width="102" height="102" rx="15" fill="url(#paint3_linear_292_1448)"/>
<circle cx="538" cy="111" r="21" fill="url(#paint4_radial_292_1448)"/>
<g filter="url(#filter0_d_292_1448)">
<rect x="75" y="129" width="439" height="262" rx="20" fill="#020D1F"/>
</g>
<path d="M134.875 308V293.723H137.219V308H134.875ZM144.889 296.984C146.106 296.984 147.053 297.3 147.73 297.932C148.414 298.557 148.756 299.562 148.756 300.949V308H146.461V301.379C146.461 300.539 146.288 299.911 145.943 299.494C145.598 299.071 145.064 298.859 144.342 298.859C143.294 298.859 142.564 299.182 142.154 299.826C141.751 300.471 141.549 301.405 141.549 302.629V308H139.254V297.189H141.041L141.363 298.654H141.49C141.725 298.277 142.014 297.967 142.359 297.727C142.711 297.479 143.102 297.294 143.531 297.17C143.967 297.046 144.42 296.984 144.889 296.984ZM159.35 308H156.996V295.715H152.816V293.723H163.52V295.715H159.35V308ZM166.268 292.805V296.623C166.268 297.02 166.255 297.408 166.229 297.785C166.209 298.163 166.186 298.456 166.16 298.664H166.287C166.515 298.286 166.795 297.977 167.127 297.736C167.459 297.489 167.83 297.303 168.24 297.18C168.657 297.056 169.1 296.994 169.568 296.994C170.395 296.994 171.098 297.134 171.678 297.414C172.257 297.688 172.7 298.114 173.006 298.693C173.318 299.273 173.475 300.025 173.475 300.949V308H171.18V301.379C171.18 300.539 171.007 299.911 170.662 299.494C170.317 299.071 169.783 298.859 169.061 298.859C168.364 298.859 167.811 299.006 167.4 299.299C166.997 299.585 166.707 300.012 166.531 300.578C166.355 301.138 166.268 301.822 166.268 302.629V308H163.973V292.805H166.268ZM179.494 296.984C180.458 296.984 181.285 297.183 181.975 297.58C182.665 297.977 183.195 298.54 183.566 299.27C183.938 299.999 184.123 300.871 184.123 301.887V303.117H176.906C176.932 304.165 177.212 304.973 177.746 305.539C178.286 306.105 179.042 306.389 180.012 306.389C180.702 306.389 181.32 306.324 181.867 306.193C182.421 306.057 182.99 305.858 183.576 305.598V307.463C183.036 307.717 182.486 307.902 181.926 308.02C181.366 308.137 180.695 308.195 179.914 308.195C178.853 308.195 177.919 307.99 177.111 307.58C176.311 307.163 175.682 306.545 175.227 305.725C174.777 304.904 174.553 303.885 174.553 302.668C174.553 301.457 174.758 300.428 175.168 299.582C175.578 298.736 176.154 298.091 176.896 297.648C177.639 297.206 178.505 296.984 179.494 296.984ZM179.494 298.713C178.771 298.713 178.186 298.947 177.736 299.416C177.294 299.885 177.033 300.572 176.955 301.477H181.877C181.87 300.936 181.779 300.458 181.604 300.041C181.434 299.624 181.174 299.299 180.822 299.064C180.477 298.83 180.035 298.713 179.494 298.713ZM194.902 300.246H200.234V307.414C199.486 307.661 198.711 307.854 197.91 307.99C197.109 308.127 196.211 308.195 195.215 308.195C193.763 308.195 192.533 307.909 191.523 307.336C190.521 306.757 189.759 305.92 189.238 304.826C188.717 303.726 188.457 302.401 188.457 300.852C188.457 299.361 188.747 298.068 189.326 296.975C189.906 295.874 190.749 295.025 191.855 294.426C192.962 293.82 194.303 293.518 195.879 293.518C196.654 293.518 197.402 293.596 198.125 293.752C198.854 293.902 199.521 294.11 200.127 294.377L199.307 296.311C198.825 296.083 198.285 295.891 197.686 295.734C197.087 295.578 196.465 295.5 195.82 295.5C194.798 295.5 193.916 295.721 193.174 296.164C192.438 296.607 191.872 297.232 191.475 298.039C191.077 298.84 190.879 299.787 190.879 300.881C190.879 301.942 191.038 302.873 191.357 303.674C191.676 304.475 192.174 305.1 192.852 305.549C193.535 305.992 194.417 306.213 195.498 306.213C196.038 306.213 196.497 306.184 196.875 306.125C197.253 306.066 197.601 306.001 197.92 305.93V302.248H194.902V300.246ZM206.156 296.984C207.523 296.984 208.555 297.287 209.252 297.893C209.955 298.498 210.307 299.442 210.307 300.725V308H208.676L208.236 306.467H208.158C207.852 306.857 207.536 307.18 207.211 307.434C206.885 307.688 206.508 307.876 206.078 308C205.655 308.13 205.137 308.195 204.525 308.195C203.881 308.195 203.305 308.078 202.797 307.844C202.289 307.603 201.889 307.238 201.596 306.75C201.303 306.262 201.156 305.643 201.156 304.895C201.156 303.781 201.57 302.945 202.396 302.385C203.23 301.825 204.486 301.516 206.166 301.457L208.041 301.389V300.822C208.041 300.074 207.865 299.54 207.514 299.221C207.169 298.902 206.68 298.742 206.049 298.742C205.508 298.742 204.984 298.82 204.477 298.977C203.969 299.133 203.474 299.325 202.992 299.553L202.25 297.932C202.777 297.652 203.376 297.424 204.047 297.248C204.724 297.072 205.427 296.984 206.156 296.984ZM208.031 302.834L206.635 302.883C205.489 302.922 204.685 303.117 204.223 303.469C203.76 303.82 203.529 304.302 203.529 304.914C203.529 305.448 203.689 305.839 204.008 306.086C204.327 306.327 204.747 306.447 205.268 306.447C206.062 306.447 206.719 306.223 207.24 305.773C207.768 305.318 208.031 304.65 208.031 303.771V302.834ZM224.236 296.984C225.447 296.984 226.359 297.297 226.971 297.922C227.589 298.547 227.898 299.549 227.898 300.93V308H225.604V301.34C225.604 300.52 225.444 299.901 225.125 299.484C224.806 299.068 224.321 298.859 223.67 298.859C222.758 298.859 222.101 299.152 221.697 299.738C221.3 300.318 221.102 301.161 221.102 302.268V308H218.807V301.34C218.807 300.793 218.735 300.337 218.592 299.973C218.455 299.602 218.243 299.325 217.957 299.143C217.671 298.954 217.309 298.859 216.873 298.859C216.242 298.859 215.737 299.003 215.359 299.289C214.988 299.576 214.721 299.999 214.559 300.559C214.396 301.112 214.314 301.792 214.314 302.6V308H212.02V297.189H213.807L214.129 298.645H214.256C214.477 298.267 214.751 297.958 215.076 297.717C215.408 297.469 215.776 297.287 216.18 297.17C216.583 297.046 217.003 296.984 217.439 296.984C218.247 296.984 218.927 297.128 219.48 297.414C220.034 297.694 220.447 298.124 220.721 298.703H220.896C221.235 298.117 221.707 297.684 222.312 297.404C222.918 297.124 223.559 296.984 224.236 296.984ZM233.908 296.984C234.872 296.984 235.699 297.183 236.389 297.58C237.079 297.977 237.609 298.54 237.98 299.27C238.352 299.999 238.537 300.871 238.537 301.887V303.117H231.32C231.346 304.165 231.626 304.973 232.16 305.539C232.701 306.105 233.456 306.389 234.426 306.389C235.116 306.389 235.734 306.324 236.281 306.193C236.835 306.057 237.404 305.858 237.99 305.598V307.463C237.45 307.717 236.9 307.902 236.34 308.02C235.78 308.137 235.109 308.195 234.328 308.195C233.267 308.195 232.333 307.99 231.525 307.58C230.725 307.163 230.096 306.545 229.641 305.725C229.191 304.904 228.967 303.885 228.967 302.668C228.967 301.457 229.172 300.428 229.582 299.582C229.992 298.736 230.568 298.091 231.311 297.648C232.053 297.206 232.919 296.984 233.908 296.984ZM233.908 298.713C233.186 298.713 232.6 298.947 232.15 299.416C231.708 299.885 231.447 300.572 231.369 301.477H236.291C236.285 300.936 236.193 300.458 236.018 300.041C235.848 299.624 235.588 299.299 235.236 299.064C234.891 298.83 234.449 298.713 233.908 298.713Z" fill="white"/>
<path d="M136.035 344L142.762 329.281H133.867V326.867H145.727V328.754L139 344H136.035ZM159.414 335.422C159.414 336.805 159.305 338.043 159.086 339.137C158.875 340.223 158.539 341.145 158.078 341.902C157.617 342.66 157.016 343.238 156.273 343.637C155.531 344.035 154.633 344.234 153.578 344.234C152.258 344.234 151.168 343.887 150.309 343.191C149.449 342.488 148.812 341.48 148.398 340.168C147.984 338.848 147.777 337.266 147.777 335.422C147.777 333.578 147.965 332 148.34 330.688C148.723 329.367 149.34 328.355 150.191 327.652C151.043 326.949 152.172 326.598 153.578 326.598C154.906 326.598 156 326.949 156.859 327.652C157.727 328.348 158.367 329.355 158.781 330.676C159.203 331.988 159.414 333.57 159.414 335.422ZM150.555 335.422C150.555 336.867 150.648 338.074 150.836 339.043C151.031 340.012 151.352 340.738 151.797 341.223C152.242 341.699 152.836 341.938 153.578 341.938C154.32 341.938 154.914 341.699 155.359 341.223C155.805 340.746 156.125 340.023 156.32 339.055C156.523 338.086 156.625 336.875 156.625 335.422C156.625 333.984 156.527 332.781 156.332 331.812C156.137 330.844 155.816 330.117 155.371 329.633C154.926 329.141 154.328 328.895 153.578 328.895C152.828 328.895 152.23 329.141 151.785 329.633C151.348 330.117 151.031 330.844 150.836 331.812C150.648 332.781 150.555 333.984 150.555 335.422ZM162.039 342.547C162.039 341.906 162.203 341.457 162.531 341.199C162.867 340.934 163.273 340.801 163.75 340.801C164.227 340.801 164.633 340.934 164.969 341.199C165.312 341.457 165.484 341.906 165.484 342.547C165.484 343.172 165.312 343.625 164.969 343.906C164.633 344.18 164.227 344.316 163.75 344.316C163.273 344.316 162.867 344.18 162.531 343.906C162.203 343.625 162.039 343.172 162.039 342.547ZM180.355 340.238H178.035V344H175.316V340.238H167.523V338.152L175.352 326.82H178.035V337.953H180.355V340.238ZM175.316 337.953V333.699C175.316 333.348 175.32 332.992 175.328 332.633C175.344 332.266 175.359 331.914 175.375 331.578C175.391 331.242 175.406 330.934 175.422 330.652C175.438 330.363 175.449 330.125 175.457 329.938H175.363C175.215 330.25 175.051 330.57 174.871 330.898C174.691 331.219 174.5 331.531 174.297 331.836L170.078 337.953H175.316ZM193.445 334.168C193.445 335.184 193.371 336.18 193.223 337.156C193.082 338.133 192.832 339.047 192.473 339.898C192.121 340.75 191.633 341.504 191.008 342.16C190.391 342.809 189.609 343.316 188.664 343.684C187.719 344.051 186.578 344.234 185.242 344.234C184.906 344.234 184.516 344.215 184.07 344.176C183.633 344.145 183.273 344.098 182.992 344.035V341.738C183.289 341.824 183.621 341.895 183.988 341.949C184.363 341.996 184.734 342.02 185.102 342.02C186.547 342.02 187.672 341.75 188.477 341.211C189.289 340.672 189.863 339.93 190.199 338.984C190.543 338.039 190.738 336.965 190.785 335.762H190.645C190.418 336.137 190.133 336.48 189.789 336.793C189.445 337.098 189.02 337.344 188.512 337.531C188.004 337.711 187.387 337.801 186.66 337.801C185.676 337.801 184.816 337.594 184.082 337.18C183.355 336.766 182.789 336.164 182.383 335.375C181.984 334.578 181.785 333.621 181.785 332.504C181.785 331.293 182.016 330.25 182.477 329.375C182.938 328.5 183.59 327.828 184.434 327.359C185.277 326.883 186.27 326.645 187.41 326.645C188.27 326.645 189.062 326.801 189.789 327.113C190.523 327.418 191.164 327.887 191.711 328.52C192.258 329.145 192.684 329.93 192.988 330.875C193.293 331.812 193.445 332.91 193.445 334.168ZM187.445 328.918C186.578 328.918 185.871 329.211 185.324 329.797C184.777 330.375 184.504 331.266 184.504 332.469C184.504 333.445 184.738 334.219 185.207 334.789C185.676 335.359 186.395 335.645 187.363 335.645C188.035 335.645 188.613 335.508 189.098 335.234C189.59 334.953 189.969 334.598 190.234 334.168C190.508 333.738 190.645 333.301 190.645 332.855C190.645 332.395 190.578 331.934 190.445 331.473C190.32 331.012 190.125 330.59 189.859 330.207C189.594 329.824 189.258 329.516 188.852 329.281C188.453 329.039 187.984 328.918 187.445 328.918ZM199.258 326.621C200.516 326.621 201.469 327.09 202.117 328.027C202.766 328.957 203.09 330.273 203.09 331.977C203.09 333.672 202.777 334.996 202.152 335.949C201.535 336.902 200.57 337.379 199.258 337.379C198.031 337.379 197.098 336.902 196.457 335.949C195.816 334.996 195.496 333.672 195.496 331.977C195.496 330.273 195.797 328.957 196.398 328.027C197.008 327.09 197.961 326.621 199.258 326.621ZM199.27 328.543C198.762 328.543 198.387 328.828 198.145 329.398C197.91 329.969 197.793 330.832 197.793 331.988C197.793 333.137 197.91 334.004 198.145 334.59C198.387 335.168 198.762 335.457 199.27 335.457C199.785 335.457 200.168 335.168 200.418 334.59C200.676 334.012 200.805 333.145 200.805 331.988C200.805 330.84 200.68 329.98 200.43 329.41C200.18 328.832 199.793 328.543 199.27 328.543ZM210.766 326.867L201.262 344H199L208.504 326.867H210.766ZM210.449 333.477C211.707 333.477 212.66 333.945 213.309 334.883C213.965 335.812 214.293 337.129 214.293 338.832C214.293 340.52 213.98 341.84 213.355 342.793C212.738 343.746 211.77 344.223 210.449 344.223C209.223 344.223 208.289 343.746 207.648 342.793C207.008 341.84 206.688 340.52 206.688 338.832C206.688 337.129 206.988 335.812 207.59 334.883C208.199 333.945 209.152 333.477 210.449 333.477ZM210.461 335.398C209.953 335.398 209.578 335.684 209.336 336.254C209.102 336.824 208.984 337.688 208.984 338.844C208.984 339.992 209.102 340.859 209.336 341.445C209.578 342.023 209.953 342.312 210.461 342.312C210.984 342.312 211.371 342.027 211.621 341.457C211.871 340.879 211.996 340.008 211.996 338.844C211.996 337.695 211.871 336.836 211.621 336.266C211.371 335.688 210.984 335.398 210.461 335.398Z" fill="#FCD435"/>
<rect x="431" y="302" width="141" height="141" rx="15" fill="url(#paint5_linear_292_1448)"/>
<defs>
<filter id="filter0_d_292_1448" x="59" y="117" width="471" height="294" filterUnits="userSpaceOnUse" color-interpolation-filters="sRGB">
<feFlood flood-opacity="0" result="BackgroundImageFix"/>
<feColorMatrix in="SourceAlpha" type="matrix" values="0 0 0 0 0 0 0 0 0 0 0 0 0 0 0 0 0 0 127 0" result="hardAlpha"/>
<feOffset dy="4"/>
<feGaussianBlur stdDeviation="8"/>
<feComposite in2="hardAlpha" operator="out"/>
<feColorMatrix type="matrix" values="0 0 0 0 0 0 0 0 0 0 0 0 0 0 0 0 0 0 0.08 0"/>
<feBlend mode="normal" in2="BackgroundImageFix" result="effect1_dropShadow_292_1448"/>
<feBlend mode="normal" in="SourceGraphic" in2="effect1_dropShadow_292_1448" result="shape"/>
</filter>
<linearGradient id="paint0_linear_292_1448" x1="90" y1="156" x2="24.5" y2="54" gradientUnits="userSpaceOnUse">
<stop stop-color="#F9226F"/>
<stop offset="1" stop-color="#FF42A8"/>
</linearGradient>
<linearGradient id="paint1_linear_292_1448" x1="30.5" y1="319.5" x2="70" y2="437" gradientUnits="userSpaceOnUse">
<stop stop-color="#0E3D8B"/>
<stop offset="1" stop-color="#062455"/>
</linearGradient>
<linearGradient id="paint2_linear_292_1448" x1="284" y1="0" x2="335" y2="77.5" gradientUnits="userSpaceOnUse">
<stop stop-color="#B9F33E"/>
<stop offset="1" stop-color="#2FD840"/>
</linearGradient>
<linearGradient id="paint3_linear_292_1448" x1="222.5" y1="450" x2="313" y2="579" gradientUnits="userSpaceOnUse">
<stop stop-color="#F8F8F8"/>
<stop offset="1" stop-color="#F0F0F0"/>
</linearGradient>
<radialGradient id="paint4_radial_292_1448" cx="0" cy="0" r="1" gradientUnits="userSpaceOnUse" gradientTransform="translate(524.5 97.5) rotate(56.3099) scale(41.4638)">
<stop stop-color="#062455"/>
<stop offset="0.447917" stop-color="#FCD435"/>
<stop offset="0.6875" stop-color="#E5FF47"/>
<stop offset="1" stop-color="#FF7658"/>
</radialGradient>
<linearGradient id="paint5_linear_292_1448" x1="468.5" y1="319.5" x2="501.5" y2="443" gradientUnits="userSpaceOnUse">
<stop stop-color="#20D3FB"/>
<stop offset="1" stop-color="#2092FB"/>
</linearGradient>
</defs>
</svg>
