<svg width="144" height="144" viewBox="0 0 144 144" fill="none" xmlns="http://www.w3.org/2000/svg">
<path d="M72.0003 136.32C55.9804 136.32 39.9003 130.56 27.7203 118.98C14.9403 106.86 7.74035 90.5398 7.50035 73.0198C7.26035 55.4398 13.9803 38.9398 26.4003 26.5198C51.5403 1.37979 92.4604 1.37979 117.6 26.5198C130.02 38.9398 136.74 55.4398 136.5 73.0198C136.26 90.5998 129.06 106.92 116.28 118.98C104.1 130.56 88.0203 136.32 72.0003 136.32ZM72.0003 16.6801C57.7804 16.6801 43.5603 22.0798 32.7603 32.8798C22.0803 43.5598 16.3204 57.78 16.5004 72.9C16.6804 88.02 22.8603 102.06 33.9003 112.44C54.9003 132.36 89.1004 132.3 110.1 112.44C121.08 102.06 127.26 87.96 127.5 72.9C127.74 57.84 121.92 43.5598 111.24 32.8798C100.44 22.0798 86.2203 16.6801 72.0003 16.6801Z" fill="#FCD435"/>
<path d="M71.9985 109.92C62.5185 109.92 53.0985 106.5 45.8985 99.7201C44.0985 97.9801 44.0385 95.1601 45.7185 93.3601C47.4585 91.5601 50.2785 91.5003 52.0785 93.1803C63.0585 103.56 80.9386 103.56 91.9186 93.1803C93.7186 91.5003 96.5986 91.5601 98.2786 93.3601C99.9586 95.1601 99.8986 98.0401 98.0986 99.7201C90.8986 106.5 81.4785 109.92 71.9985 109.92Z" fill="#FCD435"/>
</svg>
