<svg width="144" height="144" viewBox="0 0 144 144" fill="none" xmlns="http://www.w3.org/2000/svg">
<path d="M71.9991 136.5C70.5591 136.5 69.1191 136.32 67.7391 135.9C36.5991 127.32 14.0391 98.2203 14.0391 66.6602V40.3202C14.0391 33.6002 18.8991 26.3405 25.1391 23.7605L58.5591 10.0803C67.2591 6.54029 76.799 6.54029 85.439 10.0803L118.859 23.7605C125.099 26.3405 129.959 33.6002 129.959 40.3202V66.6602C129.959 98.1602 107.339 127.26 76.259 135.9C74.879 136.32 73.4391 136.5 71.9991 136.5ZM71.9991 16.5003C68.5791 16.5003 65.219 17.1604 61.979 18.4804L28.5591 32.1602C25.6791 33.3602 23.0391 37.2602 23.0391 40.3802V66.7203C23.0391 94.2603 42.8391 119.7 70.1391 127.26C71.3391 127.62 72.6591 127.62 73.8591 127.26C101.159 119.7 120.959 94.2603 120.959 66.7203V40.3802C120.959 37.2602 118.319 33.3602 115.439 32.1602L82.0192 18.4804C78.7792 17.1604 75.4191 16.5003 71.9991 16.5003Z" fill="#FCD435"/>
<path d="M72 79.5C62.88 79.5 55.5 72.12 55.5 63C55.5 53.88 62.88 46.5 72 46.5C81.12 46.5 88.5 53.88 88.5 63C88.5 72.12 81.12 79.5 72 79.5ZM72 55.5C67.86 55.5 64.5 58.86 64.5 63C64.5 67.14 67.86 70.5 72 70.5C76.14 70.5 79.5 67.14 79.5 63C79.5 58.86 76.14 55.5 72 55.5Z" fill="#FCD435"/>
<path d="M72 97.5C69.54 97.5 67.5 95.46 67.5 93V75C67.5 72.54 69.54 70.5 72 70.5C74.46 70.5 76.5 72.54 76.5 75V93C76.5 95.46 74.46 97.5 72 97.5Z" fill="#FCD435"/>
</svg>
