<svg width="144" height="144" viewBox="0 0 144 144" fill="none" xmlns="http://www.w3.org/2000/svg">
<path d="M107.999 47.4601C107.819 47.4601 107.699 47.4601 107.519 47.4601H107.219C95.8789 47.1001 87.4189 38.3401 87.4189 27.5401C87.4189 16.5001 96.419 7.56006 107.399 7.56006C118.379 7.56006 127.379 16.5601 127.379 27.5401C127.319 38.4001 118.859 47.1601 108.059 47.5201C108.059 47.4601 108.059 47.4601 107.999 47.4601ZM107.399 16.5001C101.339 16.5001 96.4189 21.4201 96.4189 27.4801C96.4189 33.4201 101.039 38.2201 106.979 38.4601C107.039 38.4001 107.519 38.4001 108.059 38.4601C113.879 38.1601 118.379 33.3601 118.439 27.4801C118.439 21.4201 113.519 16.5001 107.399 16.5001Z" fill="#FCD435"/>
<path d="M108.06 91.6802C105.72 91.6802 103.38 91.5001 101.04 91.0801C98.58 90.6601 96.96 88.3202 97.38 85.8602C97.8 83.4002 100.14 81.7802 102.6 82.2002C109.98 83.4602 117.78 82.0802 123 78.6002C125.82 76.7402 127.32 74.4001 127.32 72.0601C127.32 69.7201 125.76 67.4401 123 65.5801C117.78 62.1001 109.86 60.7201 102.42 62.0401C99.96 62.5201 97.62 60.8401 97.2 58.3801C96.78 55.9201 98.4 53.5802 100.86 53.1602C110.64 51.4202 120.78 53.2801 127.98 58.0801C133.26 61.6201 136.32 66.6601 136.32 72.0601C136.32 77.4001 133.32 82.5002 127.98 86.1002C122.52 89.7002 115.44 91.6802 108.06 91.6802Z" fill="#FCD435"/>
<path d="M35.8199 47.46C35.7599 47.46 35.6999 47.46 35.6999 47.46C24.8999 47.1 16.4399 38.34 16.3799 27.54C16.3799 16.5 25.3799 7.5 36.3599 7.5C47.3399 7.5 56.3399 16.5 56.3399 27.48C56.3399 38.34 47.8799 47.1 37.0799 47.46L35.8199 42.96L36.2399 47.46C36.1199 47.46 35.9399 47.46 35.8199 47.46ZM36.4199 38.46C36.7799 38.46 37.0799 38.46 37.4399 38.52C42.7799 38.28 47.4599 33.48 47.4599 27.54C47.4599 21.48 42.5399 16.56 36.4799 16.56C30.4199 16.56 25.4999 21.48 25.4999 27.54C25.4999 33.42 30.0599 38.16 35.8799 38.52C35.9399 38.46 36.1799 38.46 36.4199 38.46Z" fill="#FCD435"/>
<path d="M35.76 91.6802C28.38 91.6802 21.3 89.7002 15.84 86.1002C10.56 82.5602 7.5 77.4601 7.5 72.0601C7.5 66.7201 10.56 61.6201 15.84 58.0801C23.04 53.2801 33.18 51.4202 42.96 53.1602C45.42 53.5802 47.04 55.9201 46.62 58.3801C46.2 60.8401 43.86 62.5201 41.4 62.0401C33.96 60.7201 26.1 62.1001 20.82 65.5801C18 67.4401 16.5 69.7201 16.5 72.0601C16.5 74.4001 18.06 76.7402 20.82 78.6002C26.04 82.0802 33.84 83.4602 41.22 82.2002C43.68 81.7802 46.02 83.4602 46.44 85.8602C46.86 88.3202 45.24 90.6601 42.78 91.0801C40.44 91.5001 38.1 91.6802 35.76 91.6802Z" fill="#FCD435"/>
<path d="M71.9989 92.2799C71.8189 92.2799 71.6989 92.2799 71.5189 92.2799H71.2189C59.8789 91.9199 51.4189 83.1599 51.4189 72.3599C51.4189 61.3199 60.419 52.3799 71.399 52.3799C82.379 52.3799 91.3789 61.3799 91.3789 72.3599C91.3189 83.2199 82.8589 91.9799 72.0589 92.3399C72.0589 92.2799 72.0589 92.2799 71.9989 92.2799ZM71.399 61.3199C65.339 61.3199 60.4189 66.2399 60.4189 72.2999C60.4189 78.2399 65.039 83.0399 70.979 83.2799C71.039 83.2199 71.5189 83.2199 72.0589 83.2799C77.8789 82.9799 82.379 78.1799 82.439 72.2999C82.439 66.2999 77.519 61.3199 71.399 61.3199Z" fill="#FCD435"/>
<path d="M71.9987 136.56C64.7987 136.56 57.5987 134.7 52.0187 130.92C46.7387 127.38 43.6787 122.34 43.6787 116.94C43.6787 111.6 46.6787 106.44 52.0187 102.9C63.2387 95.4598 80.8187 95.4598 91.9787 102.9C97.2587 106.44 100.319 111.48 100.319 116.88C100.319 122.22 97.3187 127.38 91.9787 130.92C86.3987 134.64 79.1987 136.56 71.9987 136.56ZM56.9987 110.46C54.1787 112.32 52.6787 114.66 52.6787 117C52.6787 119.34 54.2387 121.62 56.9987 123.48C65.0987 128.94 78.8387 128.94 86.9387 123.48C89.7587 121.62 91.2587 119.28 91.2587 116.94C91.2587 114.6 89.6987 112.32 86.9387 110.46C78.8987 105 65.1587 105.06 56.9987 110.46Z" fill="#FCD435"/>
</svg>
