<?xml version="1.0" encoding="UTF-8"?>
<svg width="103px" height="138px" viewBox="0 0 103 138" version="1.1" xmlns="http://www.w3.org/2000/svg" xmlns:xlink="http://www.w3.org/1999/xlink">
    <title>soccer-tema-lechia-color</title>
    <g id="soccer-tema-lechia-color" stroke="none" stroke-width="1" fill="none" fill-rule="evenodd">
        <rect id="Rectangle" fill="#FFFFFF" x="0" y="0" width="103.235294" height="138"></rect>
        <g id="Lechia_GdanÌsk_logo" transform="translate(4.000000, 35.000000)">
            <path d="M4.7239161,6.1512015 C11.3823206,3.59176645 19.8199941,1.39662427 28.0757207,1.37341837 C34.3076945,1.35584015 39.2983979,2.58336924 44.4926981,4.69639697 C53.9144565,8.52904461 63.3114314,14.7030879 77.0738579,17.5857172 C82.2555904,18.6710481 88.480208,19.2505996 95,19.375832 C87.5790699,32.728244 81.3371927,37.5653826 73.4941393,39.7907984 C65.0270239,42.1933701 56.0624452,40.2498017 47.1716305,39.6075512 C39.8393455,39.0778377 33.7710535,39.588235 27.5992705,42.1256725 C25.2737421,43.0816826 22.3169963,44.8296561 19.8590713,46.7297259 C18.7058082,47.6212991 17.6608956,48.5373362 16.7386438,49.4213948 C15.6357353,50.4785377 14.9003904,51.3807207 13.5785693,52.2935798 L16.5301874,67.6750181 L14.5794447,68 L2.74004494,5.90661267 C1.20547767,5.77864919 0,4.50762146 0,2.95865263 C0,1.32485482 1.34125918,0 2.99528669,0 C4.64941473,0 5.99067391,1.32485482 5.99067391,2.95865263 C5.99067391,4.01279956 5.43219854,4.93818852 4.59170382,5.46227435 L4.7239161,6.1512015 Z M12.9682647,49.1133622 C13.2607571,46.8663791 13.3978289,45.1879075 13.4543501,43.4860479 C13.6850094,36.5444886 12.9101014,32.8358154 12.0059303,27.9782848 C11.1064344,23.1454 9.93664896,17.6279413 7.83811005,13.0547078 C7.10237974,11.4512663 6.17856951,9.91370179 5.19108289,8.5853214 L12.9682647,49.1133622 Z" id="path2" fill="#CCA227" fill-rule="nonzero"></path>
            <path d="M5.54395059,7.10042534 C6.8968726,8.76257672 8.0584806,10.6810357 8.92439559,12.5683108 C11.0869795,17.2810281 12.2352993,22.6947223 13.1790168,27.7652275 C13.4191102,29.0551907 13.6659232,30.3441608 13.8834451,31.638113 C14.1787862,33.3952563 14.409345,35.1484105 14.5407362,36.9254824 C14.7030272,39.1224288 14.7195495,41.3237283 14.6464222,43.5246637 C14.5689884,45.8539101 14.3142158,48.1572527 13.9898852,50.4568711 C14.1586109,50.3062645 14.326683,50.1482922 14.4965984,49.9817295 C14.9710377,49.5167343 15.428033,49.0359651 15.9080524,48.575952 C16.929388,47.5968187 18.0031059,46.6684504 19.1239945,45.8018872 C21.4855839,43.9763345 24.3804965,42.172796 27.1410017,41.0379747 C33.7405056,38.3246557 40.1816563,37.9212836 47.2586158,38.4325913 C48.8863014,38.550127 50.5105183,38.7102675 52.1334449,38.8796441 C59.0428685,39.6004835 66.364429,40.588108 73.1648654,38.6584267 C74.0046228,38.4201773 74.8343931,38.1481121 75.6488475,37.8353622 C79.1767201,36.48078 82.0746657,34.4734202 84.7222291,31.8124717 C87.9644125,28.5540294 90.6727198,24.513588 92.9943942,20.5025926 C87.6042053,20.3265952 82.0639245,19.8352161 76.8264249,18.7381995 C70.4534413,17.4033639 64.5609463,15.248741 58.6573415,12.5677646 C53.7762788,10.3511545 49.0013546,7.80458033 44.0385347,5.78579965 C38.7503789,3.63453681 33.8433597,2.53533535 28.0791223,2.55137936 C20.5514849,2.57275941 12.6144921,4.42007796 5.54395059,7.10042534 L5.54395059,7.10042534 Z" id="path4" fill="#FFFFFF"></path>
            <path d="M75.771877,20.1808714 C69.5830355,18.8183112 63.7287966,16.6662207 57.9674917,14.0498634 C53.0978907,11.8385002 48.3677411,9.31104364 43.4096132,7.294183 C38.3504577,5.23607478 33.572601,4.16732899 28.0837975,4.18282166 C21.4275881,4.20157507 14.5052282,5.68231658 8.1716905,7.88369886 C9.0360471,9.15888114 9.79572308,10.5156482 10.4285993,11.8948763 C11.2286427,13.6383311 11.8903241,15.4522974 12.4549325,17.3030422 C19.1079413,14.4750841 23.2251053,13.1102562 30.6022654,13.4117674 C33.2033115,13.5179816 36.4895322,13.6040685 39.7222648,13.8771267 C43.1328052,14.1651315 46.5842662,14.7466858 49.900951,15.5722828 C54.6678822,16.7588457 58.9827781,18.2022294 64.932431,18.9970231 C68.2850762,19.444887 72.1388546,19.9532981 75.771877,20.1808714 Z M15.9704385,34.5505525 C16.0586973,35.3008379 16.1320927,36.052944 16.1877928,36.806755 C16.3542227,39.0596305 16.3720186,41.3211793 16.2969643,43.5782094 C16.2686115,44.4308192 16.2170504,45.2817077 16.1473248,46.1312223 C16.7833178,45.5736021 17.4364699,45.0350167 18.1061443,44.5172703 C20.6151613,42.5777075 23.5622885,40.7422733 26.5063827,39.5319583 C33.3437012,36.7208501 40.0699881,36.2776042 47.3790815,36.8056791 C49.0244791,36.9244893 50.6663076,37.0861526 52.3069295,37.2574492 C58.9602065,37.9515406 66.1686409,38.9464314 72.708976,37.0906051 C73.5003897,36.8660277 74.2829054,36.6097366 75.0504571,36.314929 C77.9950205,35.1842953 80.4737577,33.5591045 82.7315881,31.4559583 C74.7069565,32.4483994 64.9676708,31.6842434 57.3234219,30.612601 C51.0255932,29.7298169 44.8680369,28.1818412 38.5895457,28.3846528 C31.0254117,28.6290761 23.3690642,30.1948121 15.9704385,34.5505525 L15.9704385,34.5505525 Z" id="path6" fill="#2C743A" fill-rule="nonzero"></path>
            <path d="M32.6056249,8.64497479 L50.6355251,12.3743711 L50.2047209,28.0867334 C50.0727767,32.9033972 46.3127534,35.9309723 41.493859,35.0709803 C36.6967151,34.2148449 32.7053622,29.3408119 32.6816344,24.4156995 L32.6056249,8.64497479 Z" id="path8" fill="#CCA227" fill-rule="nonzero"></path>
            <path d="M33.3437849,9.6889588 L33.415622,24.4122567 C33.4372719,28.9051137 37.0705792,33.4238912 41.5989753,34.2319928 C43.4169527,34.556445 44.98061,34.2405998 46.2249806,33.5668012 C48.2312223,32.4802951 49.4083472,30.3419925 49.485228,27.5512598 L49.8852498,13.0602361 L33.3437849,9.6889588 Z" id="path10" fill="#AD2827" fill-rule="nonzero"></path>
            <g id="Layer1001" transform="translate(36.682572, 18.840971)" fill="#FEFEFE" fill-rule="nonzero">
                <path d="M0,0.484476906 L0.531949134,0.600572602 C0.660122986,2.16122715 2.65408183,3.02499303 4.51986681,3.3482535 C4.4411427,2.27143033 3.68468405,0.689473369 1.38318505,0.329152981 L1.38318505,0 L8.47344952,1.41339144 L8.47344952,1.73430153 C5.82250124,1.25053636 5.34476081,2.52636416 5.32202164,3.46516024 C6.76080622,3.67169604 9.29249534,4.05730788 9.30147706,2.32861748 L9.82508124,2.44317384 L9.82508124,6.79537206 L9.29725431,6.69006827 C8.97273937,4.84538148 6.82878914,4.25260487 5.34457649,3.94139425 C5.43705805,4.81085402 5.86305304,6.43015228 8.47344952,6.87838032 L8.47344952,7.26635909 L1.38318505,5.8529511 L1.38318505,5.52335121 C2.34682653,5.68493179 3.01226147,5.62195145 3.47247413,5.46634614 C4.39911629,5.1528679 4.4947314,4.38200837 4.5199506,3.77862193 C3.00446949,3.50222016 0.689950344,3.2616038 0.496541715,4.94072098 L0,4.83667513 L0,0.484476906 Z" id="path12"></path>
                <path d="M0,6.9188996 L0.531949134,7.03497875 C0.660122986,8.59564984 2.65408183,9.45939917 4.51986681,9.78265964 C4.4411427,8.70585303 3.68468405,7.12389607 1.38318505,6.76355913 L1.38318505,6.43440615 L8.47344952,7.84781414 L8.47344952,8.16870767 C5.82250124,7.68495906 5.34476081,8.96078686 5.32202164,9.89956639 C6.76080622,10.1061022 9.29249534,10.491714 9.30147706,8.76304017 L9.82508124,8.87757998 L9.82508124,13.2297948 L9.29725431,13.1244744 C8.97273937,11.2798042 6.82878914,10.687011 5.34457649,10.3758004 C5.43705805,11.2452767 5.86305304,12.864575 8.47344952,13.312803 L8.47344952,13.7007652 L1.38318505,12.2873738 L1.38318505,11.9577739 C2.34682653,12.1193545 3.01226147,12.0563741 3.47247413,11.9007688 C4.39911629,11.5872906 4.4947314,10.8164311 4.5199506,10.2130446 C3.00446949,9.93664286 0.689950344,9.6960265 0.496541715,11.3751437 L0,11.2710978 L0,6.9188996 Z" id="path14"></path>
            </g>
            <path d="M36.6824884,17.9250165 C40.6947037,18.0775266 43.8640447,18.7864155 46.4569134,19.8759009 L48.1790244,14.8729279 C47.2675975,14.9717102 45.8660636,15.5224447 45.013638,16.3239255 C45.7822119,16.8159335 46.1029565,17.2746886 45.9252491,17.6999922 L44.6575697,17.4474087 L44.2307536,16.3233793 L43.692839,17.2551076 L42.2992814,16.977332 C42.2863451,16.3179502 42.6346214,15.8176992 43.2298782,15.4259135 C42.3853451,14.6492608 41.9080738,13.3415373 41.5450179,12.255296 C41.0843528,13.5802336 40.5852473,14.4032981 39.9217227,14.7491355 C40.4716687,15.2205695 40.8526881,15.8176992 40.8619547,16.6908667 L39.4490428,16.4093007 L38.9781895,15.2764821 L38.5231212,16.2246963 L37.1383778,15.9486421 C37.2901286,15.406167 37.4165598,15.1646403 38.2778834,15.0237166 C37.4615187,14.0499461 36.2756801,13.1036355 34.9858815,12.1967516 L36.6824884,17.9250165 Z" id="path17" fill="#CCA227" fill-rule="nonzero"></path>
            <polygon id="path19" fill="#CCA227" fill-rule="nonzero" points="13.8418041 19.5755815 14.2976097 21.4765451 15.0066294 21.1763912 16.5766209 28.9555973 15.9688801 29.280844 16.3487097 31.58129 19.5647523 29.9810265 19.3113371 27.9299033 18.6530574 28.1800205 17.8973193 24.2737827 21.9955982 28.8802857 24.0973544 27.9301681 23.9200995 25.929247 23.1098846 26.329077 20.3244116 23.1024476 21.5652129 18.7754415 22.6287593 18.4753869 22.5780192 16.549314 19.6912673 17.4748685 17.7406251 23.4637777 17.1337054 20.3264131 17.5641913 20.1511441 17.1843449 18.3249459"></polygon>
            <path d="M30.1428068,15.4813792 L30.2189503,18.919179 L28.2420668,19.2955383 C28.2252764,18.2750912 27.7410342,17.5067807 26.8989644,17.5139312 C26.3760975,17.5183671 25.868647,17.9357091 25.8840467,18.6222859 C25.901122,19.378199 26.455827,19.7150486 27.3451347,20.0538018 C28.7326431,20.5823401 30.7682429,20.9123869 30.8018238,23.737018 C30.8177932,25.0769186 30.4083205,27.1687267 28.1660071,27.2250034 C27.3460564,27.2455776 26.7300544,27.166459 25.9104724,26.8736542 L25.8851526,27.1496919 L24.6940021,27.5511771 L24.4152671,23.4109437 L26.4427064,23.2854299 C26.5356404,24.682319 27.0535639,25.0667557 27.8365321,24.9917255 C28.4315208,24.9347204 28.7393291,24.3744684 28.7488805,23.8374224 C28.7592363,23.2510845 28.5037265,22.8290417 27.9831553,22.5358562 C27.2221053,22.1073747 26.0347921,21.8966844 25.1831875,21.3798483 C24.3412182,20.8688055 23.9770731,19.9846641 23.9083529,18.9944906 C23.7316509,16.4472709 25.4916493,15.5181743 26.8482244,15.4562864 C27.583033,15.4228348 28.0139713,15.5148308 28.8250241,15.8577551 L28.8504444,15.5566908 L30.1428068,15.4813792 Z" id="path21" fill="#CCA227" fill-rule="nonzero"></path>
            <polygon id="path23" fill="#CCA227" fill-rule="nonzero" points="52.736963 18.7004113 52.6364045 20.0976646 53.1355101 20.1856715 52.6777774 26.1210019 52.206656 26.047511 52.1039024 27.6548422 56.9912155 28.3050874 57.2443459 24.6281278 55.8769291 24.4402626 55.7503136 26.578946 54.3322741 26.4037596 54.7374235 20.4763908 55.2691883 20.5510734 55.3705846 19.1504435"></polygon>
            <polygon id="path25" fill="#CCA227" fill-rule="nonzero" points="58.5411991 19.9741867 58.4405402 21.2338266 58.8889224 21.317977 58.4058701 27.0185339 57.9347486 26.9483368 57.8319783 28.4600802 62.8967306 29.0818394 63.0971939 26.3930339 61.6050217 26.2393983 61.4784063 27.4312744 59.9336508 27.2637682 60.076688 25.0665901 61.6926438 25.3255958 61.8105289 24.0873575 60.1985278 23.8387466 60.4655161 21.5709246 62.0110089 21.8200652 61.8478801 23.3368239 63.3172963 23.4733116 63.6045606 20.9052199"></polygon>
            <path d="M69.1554821,21.7527648 L68.8394126,24.3796327 L67.3649358,24.1971138 L67.4176028,23.6254576 C67.4549373,23.2200826 67.1114367,22.9762055 66.765188,22.9124969 C66.3200231,22.8305811 65.835228,23.0463529 65.7848566,23.5988088 L65.4691559,27.0577124 C65.4224543,27.5705595 65.8066072,28.0081942 66.2306583,28.0215186 C66.7019641,28.0362829 67.0953836,27.8385528 67.1543848,27.0836329 L67.2071356,26.4083776 L68.6552706,26.5644464 L68.5498527,27.9685025 C68.4437142,29.3828871 67.2712645,29.6547702 66.0881741,29.516561 C65.5219067,29.4504192 65.0309618,29.3022458 64.6568296,29.0518472 C64.1100003,28.6857998 63.8035661,28.1000909 63.8924784,27.2337926 L64.3105641,23.1580954 C64.3736875,22.5423777 64.5725086,22.1175377 64.924086,21.8234584 C65.2544659,21.5472221 65.7201749,21.3816525 66.3352552,21.3766704 C66.9164697,21.371953 67.3052978,21.5126119 67.6019292,21.7264802 L67.8125807,21.5706101 L69.1554821,21.7527648 Z" id="path27" fill="#CCA227" fill-rule="nonzero"></path>
            <polygon id="path29" fill="#CCA227" fill-rule="nonzero" points="76.1480368 22.2270126 76.1603364 23.4138403 76.602284 23.4141713 76.5519126 28.6580421 76.0708711 28.6575455 76.0689608 29.8319758 78.810095 29.7928138 78.8087544 28.6448667 78.2633997 28.6448667 78.2087218 23.4141382 78.732326 23.4140389 78.7179318 22.2269464"></polygon>
            <polygon id="path31" fill="#CCA227" fill-rule="nonzero" points="69.8543304 21.9008389 69.7950611 23.2577881 70.1927871 23.2713773 69.8469908 28.4366757 69.3600844 28.4231693 69.2885155 29.7411385 71.709106 29.8316779 71.7760835 28.5146191 71.4005605 28.4884173 71.5316668 26.4183585 73.2552356 26.5170415 73.1388921 28.5620074 72.6514495 28.5486003 72.6271351 29.8472533 75.0905565 29.89729 75.1235006 28.5865706 74.6812681 28.5608322 74.8489884 23.4455539 75.2840489 23.4842525 75.3460663 22.1860464 73.0831083 22.0704141 73.0197168 23.4073188 73.4313008 23.4207259 73.3234028 25.3171542 71.6075422 25.2200933 71.7268014 23.3363604 72.1741782 23.3623636 72.231688 22.0182091"></polygon>
            <path d="M80.2147624,22.2205738 L79.688209,28.4893276 L79.3194892,28.4891621 L79.3721396,29.6334843 L81.6103308,29.5034518 L81.5049967,28.3591131 L80.9783763,28.3853976 L81.088838,27.2581902 L82.5628625,27.1224307 L82.8741562,28.1247534 L82.4002866,28.2031436 L82.5320297,29.3998529 L84.9806882,29.0095403 L84.8227875,27.8127317 L84.5069024,27.8649367 L82.7426812,21.9607737 L80.2147624,22.2205738 Z M81.168467,26.4456362 L81.4524302,23.5470673 L82.320909,26.3433118 L81.168467,26.4456362 Z" id="path33" fill="#CCA227" fill-rule="nonzero"></path>
        </g>
    </g>
</svg>