<?xml version="1.0" encoding="UTF-8"?>
<svg width="103px" height="138px" viewBox="0 0 103 138" version="1.1" xmlns="http://www.w3.org/2000/svg" xmlns:xlink="http://www.w3.org/1999/xlink">
    <title>soccer-tema-koln-color</title>
    <g id="soccer-tema-koln-color" stroke="none" stroke-width="1" fill="none" fill-rule="evenodd">
        <rect id="Rectangle" fill="#FFFFFF" x="0" y="0" width="103.235294" height="138"></rect>
        <g id="fc_koln" transform="translate(19.000000, 31.000000)" fill-rule="nonzero">
            <ellipse id="kreis_rot_hintergrund" fill="#E40521" cx="20.7635177" cy="54.9776071" rx="20.7635177" ry="21.0223929"></ellipse>
            <path d="M20.7607785,36.5034567 C13.3545375,36.4956313 6.67329993,40.9960839 3.83393324,47.9053163 C0.994566551,54.8145488 2.55655089,62.7711382 7.79120417,68.0632523 C13.0258575,73.3553664 20.9017227,74.9402257 27.7446261,72.0784768 C34.5875295,69.2167279 39.049118,62.4722613 39.0480157,54.9914413 C39.0501939,50.0903269 37.1247331,45.3890747 33.6952111,41.9219069 C30.2656891,38.454739 25.6130345,36.5056678 20.7607785,36.5034567 Z M20.7607785,37.9117846 C26.27383,37.909958 31.4403372,40.6276841 34.5994713,45.1913208 L3.88699626,53.9289776 C4.45848843,44.9285601 11.8454833,37.9198288 20.7744747,37.906251 L20.7607785,37.9117846 Z M20.7607785,72.2205069 C14.5686033,72.2183421 8.87251556,68.7987529 5.91130228,63.3057728 L37.6646925,54.2582307 C37.6646925,54.5349139 37.6838856,54.7949962 37.6838856,55.0661458 C37.6975032,64.5158856 30.1299904,72.1905535 20.7744747,72.2149732 L20.7607785,72.2205069 Z" id="kreis_weiß_mitte" fill="#FFFFFF"></path>
            <path d="M30.131754,69.3319338 C24.4840552,73.1724666 17.0973374,73.1801213 11.4418488,69.3513016 L12.0527016,61.5543678 L29.1264491,56.6875096 L30.131754,69.3319338 Z" id="dom_schwarz_unten" fill="#1D1D1B"></path>
            <polygon id="dom_schwarz_oben" fill="#1D1D1B" points="28.3731552 46.9648604 12.8251702 51.3862586 13.545593 42.8367464 14.7864734 44.5743171 16.8984355 34.7880308 19.0843573 44.5826176 20.2649742 42.8367464 20.7580392 48.8712079 21.2757576 42.8367464 22.4426782 44.5964518 24.6861242 34.5473164 26.8775245 44.5826176 28.0964909 42.8367464"></polygon>
            <polygon id="N" fill="#FFFFFF" points="24.2560619 65.8235903 24.6258607 60.4199665 26.0968382 59.9634392 27.2281486 62.6860023 27.2281486 59.6729218 28.7237793 59.2883321 28.359459 64.7334583 26.839175 65.1291153 25.8009991 62.6860023 25.7407356 65.4334669"></polygon>
            <polygon id="L" fill="#FFFFFF" points="21.5085938 61.2942856 23.1987113 60.7962557 22.768649 64.5425469 23.9958332 64.1828586 23.8862631 65.9702324 21.1442735 66.7117435"></polygon>
            <g id="Ö" transform="translate(16.321621, 60.262424)" fill="#FFFFFF">
                <path d="M3.57629314,1.80657505 C2.52442101,1.31131204 1.11096782,2.14689544 0.393284225,3.67142012 C-0.324399369,5.19594479 -0.0285603302,6.83667643 1.02605106,7.33470627 C2.08066245,7.83273611 3.49137638,6.99438588 4.20905998,5.4698612 C4.92674357,3.94533653 4.63090453,2.30183806 3.57629314,1.80657505 Z M2.92161231,4.85009074 C2.71342928,5.42559188 2.25323522,5.78804693 1.89439342,5.65523898 C1.53555163,5.52243102 1.41502461,4.9496967 1.62046839,4.37142872 C1.82591216,3.79316074 2.28884547,3.43347253 2.64768727,3.56628048 C3.00652907,3.69908844 3.12705609,4.28289009 2.92161231,4.86115807 L2.92161231,4.85009074 Z" id="Shape"></path>
                <path d="M1.52459462,0.885219848 C1.42872086,1.22554024 1.52459462,1.5547933 1.7519524,1.61843045 C1.97931018,1.68206759 2.23679972,1.460721 2.33267348,1.12040061 C2.42854724,0.780080216 2.33267348,0.453593988 2.1053157,0.387190009 C1.87795792,0.320786031 1.62320764,0.536598961 1.52459462,0.885219848 Z" id="Path"></path>
                <path d="M2.85313105,0.508930637 C2.75451804,0.849251027 2.85313105,1.17850409 3.08048883,1.24214123 C3.30784661,1.30577838 3.56533614,1.08443178 3.66120991,0.744111394 C3.75708367,0.403791004 3.66120991,0.0745379433 3.43385213,0.0109007972 C3.20649435,-0.0527363489 2.93804781,0.168610246 2.85313105,0.508930637 Z" id="Path"></path>
            </g>
            <polygon id="K" fill="#FFFFFF" points="12.2964949 69.2046595 12.6772507 63.7955021 14.1591851 63.4219797 14.0057871 65.6520467 15.0740947 63.1342292 16.728602 62.608531 15.2904955 65.696316 16.4327629 68.0730251 14.6823819 68.5655212 13.9181311 66.686842 13.7893863 68.8422045"></polygon>
            <path d="M31.7177799,51.7653147 L31.3260671,55.0108091 C31.3260671,55.0108091 29.2798471,56.2420495 27.1131001,55.987501 C27.1131001,55.987501 25.2394528,55.7799885 25.2394528,53.2206685 C25.2394528,53.2206685 25.4476358,47.432455 32.0656647,47.0949015 L31.8492639,50.2490905 C31.8492639,50.2490905 30.7891741,49.4937452 29.7208664,50.0775469 C29.7208664,50.0775469 27.4500279,51.3613571 28.7484325,52.9827209 C28.7484325,52.9827209 29.0908388,53.4945849 30.4905958,52.7475402 C30.9439361,52.4809162 31.3571835,52.1501573 31.7177799,51.7653147 L31.7177799,51.7653147 Z" id="C" fill="#E40521"></path>
            <polygon id="F" fill="#E40521" points="19.0323115 50.5064059 24.7436485 48.8850421 24.5025945 51.3862586 21.8866104 52.1333034 21.8866104 52.8720476 24.1136209 52.2633445 23.8862631 54.5072456 21.6373386 55.1519176 21.3825883 58.0404906 18.2844962 58.9065092"></polygon>
            <g id="_1." transform="translate(8.825865, 52.138837)" fill="#E40521">
                <polyline id="Path" points="4.59646211 0 3.84864676 8.37243497 0.750554599 9.27442234 1.24088041 3.63561783 0 4.00360654 0.128744767 1.38064939 4.53893785 0"></polyline>
                <path d="M8.20679408,5.151842 C8.59028913,5.6886075 8.20679408,6.63763103 7.33571247,7.26846882 C6.46463085,7.89930662 5.45658672,7.97401109 5.07035242,7.4372456 C4.68411812,6.90048011 5.07035242,5.94868975 5.94143403,5.31785195 C6.81251565,4.68701415 7.82055978,4.61230968 8.20679408,5.151842 Z" id="Path"></path>
            </g>
            <path d="M38.1878893,43.5339881 C34.4298093,37.6585837 28.0165945,34.0652314 21.0922278,33.9552142 C21.0922278,33.9552142 21.018268,33.8334736 19.5472906,34.5473164 C19.1978213,34.7503744 18.8072239,34.8705311 18.4050232,34.8987041 C18.4050232,34.8987041 17.5229846,35.0204447 17.5229846,34.3287366 C16.9072405,34.4257186 16.3179043,34.6498869 15.7917783,34.9872427 C15.7917783,34.9872427 15.5178533,35.8449608 13.9948301,36.1410119 C13.9948301,36.1410119 12.0253091,36.3734258 12.0581801,35.7564221 C12.0581801,35.7564221 11.7322093,34.1599598 15.9396978,32.605 C15.9396978,32.605 17.1750998,32.1069702 19.8294334,31.6366086 C19.8294334,31.6366086 20.1800574,31.5923393 21.1661875,30.8452946 C21.1661875,30.8452946 22.1523177,30.0982498 23.053531,29.5697848 C23.7555215,29.0146603 24.4241684,28.4178132 25.055923,27.7824111 C25.055923,27.7824111 25.9407009,26.9163925 26.4063735,26.7697504 C26.4063735,26.7697504 26.6994733,26.7088801 26.34611,26.4432642 C26.0915999,26.1708884 25.926161,25.8260538 25.8722197,25.455505 C25.8722197,25.455505 25.8448272,25.1345524 25.3243696,24.7997657 C25.1818787,24.6544494 25.1211644,24.4465659 25.1627538,24.2463992 C25.1627538,24.2463992 25.1901463,23.9005451 24.727213,23.9060788 C24.5666845,23.89731 24.4174801,23.8197977 24.3170522,23.6929988 C24.2166243,23.5661999 24.1745087,23.402154 24.2012769,23.242039 C24.2012769,23.242039 24.3053684,22.185109 24.0040509,22.0744357 C24.0040509,22.0744357 23.4890718,22.4230566 23.3274561,24.0665551 C23.3274561,24.0665551 23.1110553,27.5389298 21.6592526,28.8587089 C21.6592526,28.8587089 21.3387603,28.8172064 21.3551958,28.1116641 C21.3551958,28.1116641 21.4264163,26.6175746 20.9771793,25.9867368 C20.9771793,25.9867368 20.8621307,28.889144 19.333629,29.6223546 C19.333629,29.6223546 19.1884488,29.5780853 19.2185805,28.7923049 C19.2185805,28.7923049 19.3062365,26.5207355 19.103532,26.0808091 C19.103532,26.0808091 19.0021798,25.4361371 18.0434421,25.0543143 C18.0434421,25.0543143 16.7368197,24.5009478 16.4300237,23.3942148 C16.4300237,23.3942148 16.1122706,22.234912 16.6053357,20.5056417 C16.6053357,20.5056417 17.462721,17.6032345 17.4271108,16.5933407 C17.4351748,15.9903487 17.3670569,15.3887806 17.2244063,14.8032001 C17.2244063,14.8032001 16.8765215,13.616229 17.4983313,12.7059411 C17.4983313,12.7059411 16.1478809,11.79842 15.9588726,10.3901023 C15.9588726,10.3901023 15.9588726,9.07032326 15.5233318,8.57229342 C15.5233318,8.57229342 15.2713208,8.19877104 15.9807866,8.13236706 C16.5565765,8.10640755 17.1203,8.30445962 17.5558556,8.68573355 C17.9363636,9.01061894 18.275022,9.38243241 18.5638997,9.79246652 C18.6699341,9.54341573 18.8245865,9.31851158 19.0186153,9.13119357 C19.0186153,9.13119357 18.9227415,7.74777735 19.8595651,7.22761285 C19.8595651,7.22761285 19.7499951,5.91613427 20.897741,5.40150344 C20.897741,5.40150344 20.623816,4.41927792 22.2536699,3.37064843 C22.2536699,3.37064843 22.8864368,1.10737949 26.4502015,0.755991772 C26.4502015,0.755991772 27.6034259,0.542945675 26.6008603,1.5860415 C26.6008603,1.5860415 24.7189953,3.32637911 23.7821716,5.51494357 C24.1114392,5.10977856 24.5093305,4.76690075 24.95731,4.5022829 C24.95731,4.5022829 25.2504098,3.43705241 26.8747853,2.68724082 C26.8747853,2.68724082 27.3623719,1.47813504 28.9867473,1.082478 C29.7855144,0.371424729 30.8175317,-0.0141778227 31.8821349,0.000234426702 L33.3503731,0.000234426702 C33.3503731,0.000234426702 34.5035975,0.000234426702 33.1668434,1.07694434 C33.1668434,1.07694434 27.5157699,5.05841622 26.7104303,10.6640187 C26.7104303,10.6640187 28.2882385,9.32487184 29.4743339,9.43277831 C29.4743339,9.43277831 31.1178841,9.29166985 30.2166707,12.9743238 C30.2166707,12.9743238 32.660082,14.1612949 34.4022453,17.2103443 C35.4583868,18.7890292 37.0069452,19.9655514 38.8014814,20.5526779 C38.8014814,20.5526779 42.1104958,21.2858885 43.6472152,24.0444204 C43.6472152,24.0444204 45.9865351,27.7658101 46.4357721,28.1946691 C47.2561916,28.8937726 48.1188973,29.5406175 49.0188852,30.1314518 C49.0188852,30.1314518 54.8836202,34.0050172 58.0748469,39.4141746 C58.5404054,40.3947631 59.6422383,40.8884854 60.6743955,40.5790111 C60.6743955,40.5790111 61.6961359,40.1169501 62.7863575,38.5979591 L63.9505389,36.8742225 C63.9505389,36.8742225 64.224464,36.3678921 64.3641657,37.1509057 C64.3641657,37.1509057 64.5613917,37.3501176 64.7997065,36.8216526 C64.7997065,36.8216526 65.4105594,35.4382364 65.6817451,35.7979246 C65.6817451,35.7979246 65.9091029,35.9528673 65.4845191,37.2505117 C65.4845191,37.2505117 66.183028,36.9184918 65.7913152,37.756842 C65.7913152,37.756842 65.4215164,38.4596174 65.6927021,38.5149541 C65.6927021,38.5149541 66.2022027,38.6449952 65.9091029,39.2619989 C65.9091029,39.2619989 64.6134375,42.7039384 62.2193327,43.4122475 C61.4840541,43.6706442 60.6815319,43.6549424 59.9567119,43.3679782 C59.9567119,43.3679782 60.6305675,45.7446873 59.9567119,50.3182613 C59.9567119,50.3182613 59.0637163,55.442435 60.1731127,57.1136018 C60.5716073,57.6227712 61.0084477,58.1000864 61.4797351,58.5412873 C61.4797351,58.5412873 61.9371899,58.7404992 61.9371899,60.016009 C61.9371899,60.016009 61.6632649,64.9963074 62.5453035,66.9856599 C62.5453035,66.9856599 63.0931536,68.2943717 62.0138889,68.6789614 C62.0138889,68.6789614 62.1974187,71.4070581 59.8690559,72.0544969 C59.8690559,72.0544969 58.5186055,72.3311802 58.2885084,70.947764 C58.2885084,70.947764 58.0392366,70.3003252 59.2691601,68.2971385 C59.2691601,68.2971385 59.9457549,67.4670888 59.9649296,65.5718085 C59.9649296,65.5718085 59.9649296,62.6361993 56.5381274,59.1167884 C56.5381274,59.1167884 55.7957906,60.7436859 56.9298402,65.0986802 C56.9298402,65.0986802 57.5680856,66.6508732 56.7983562,67.9706523 C56.7983562,67.9706523 55.9765811,68.8643391 55.8396186,69.6307517 C55.5734908,70.4284548 54.7909889,70.9292218 53.9632321,70.831557 C53.9632321,70.831557 52.4100771,70.7734535 52.7880937,69.3651358 C52.7880937,69.3651358 52.6264779,69.3347007 53.8180518,67.810176 C53.8180518,67.810176 55.2698545,65.3476951 54.5713457,62.8630796 C54.0581404,60.8996713 53.186758,59.0502166 52.0019288,57.4096528 C52.0019288,57.4096528 51.5965198,56.7566804 51.292463,56.9475918 C51.292463,56.9475918 51.2185032,57.0361305 50.9445782,56.5740694 C50.9445782,56.5740694 50.6103897,55.4313676 49.8488781,55.1436171 C49.6088728,55.0841681 49.4416578,54.8647146 49.4462083,54.6151521 C49.4053524,54.30827 49.152586,54.0751088 48.8463124,54.0617856 C48.6376995,54.0394004 48.4600602,53.8986516 48.3888576,53.6993305 C48.2801276,53.4274928 48.2351266,53.1339347 48.2573736,52.8416125 C48.2573736,52.8416125 48.2381989,52.5234267 47.9423598,52.5649292 C47.9423598,52.5649292 47.605432,52.6424005 47.506819,52.1250029 C47.4293584,51.7702574 47.3753671,51.4106963 47.3452032,51.048705 C47.3089277,50.8003962 47.1854524,50.5735457 46.9973184,50.4095668 C46.7915886,50.1881307 46.6677528,49.9018088 46.6466944,49.5988848 C46.6466944,49.5988848 46.6686084,48.0245572 45.2441982,47.7727754 C45.2441982,47.7727754 44.2964176,47.8696146 44.0033178,47.3328491 C44.0033178,47.3328491 43.9047048,46.8707881 42.9897952,46.3976597 C42.9897952,46.3976597 42.6638244,46.1763131 42.5871254,46.3976597 C42.5871254,46.3976597 42.3898993,46.9510262 42.0940603,46.674343 C42.0940603,46.674343 41.1435404,45.56761 40.9545321,45.7723556 C40.9545321,45.7723556 40.5628193,46.1984478 40.4066821,45.9106972 C40.3174022,45.5575407 40.1780883,45.2192613 39.9930553,44.906337 C39.9930553,44.906337 39.7465227,44.5245142 39.4452052,44.6296538 C39.4452052,44.6296538 39.2698932,44.7375603 39.0452746,44.4913122 L38.1878893,43.5339881 Z" id="geißbock_weiß" fill="#FFFFFF"></path>
            <path d="M65.6927021,38.5177209 C65.4187771,38.4623843 65.7913152,37.7596088 65.7913152,37.7596088 C66.183028,36.9295591 65.4845191,37.2532785 65.4845191,37.2532785 C65.9091029,35.9556341 65.6817451,35.8006915 65.6817451,35.8006915 C65.4078201,35.4382364 64.7997065,36.8244195 64.7997065,36.8244195 C64.5613917,37.3528845 64.3641657,37.1536725 64.3641657,37.1536725 C64.2217247,36.3623585 63.9505389,36.8769893 63.9505389,36.8769893 L62.7863575,38.6007259 C61.6906574,40.1197169 60.6743955,40.5817779 60.6743955,40.5817779 C59.6422383,40.8912522 58.5404054,40.3975299 58.0748469,39.4169415 C54.8836202,34.0105509 49.0325815,30.1259181 49.0325815,30.1259181 C48.1325936,29.5350838 47.2698879,28.888239 46.4494684,28.1891354 C46.0002313,27.7630432 43.6609115,24.0388868 43.6609115,24.0388868 C42.124192,21.2720543 38.8151776,20.5471442 38.8151776,20.5471442 C37.0163936,19.9641786 35.4627711,18.7894207 34.4022453,17.2103443 C32.660082,14.1668286 30.2166707,12.9743238 30.2166707,12.9743238 C31.1069271,9.29166985 29.4743339,9.43277831 29.4743339,9.43277831 C28.2882385,9.32487184 26.7104303,10.6640187 26.7104303,10.6640187 C27.5157699,5.05841622 33.1668434,1.07694434 33.1668434,1.07694434 C34.5145545,0.000315235097 33.3503731,0.000315235097 33.3503731,0.000315235097 L31.8821349,0.000315235097 C30.8168077,-0.0126538595 29.7847019,0.374954324 28.9867473,1.08801167 C27.3623719,1.4836687 26.8747853,2.69277448 26.8747853,2.69277448 C25.2504098,3.44258607 24.95731,4.50781656 24.95731,4.50781656 C24.5082028,4.77656515 24.1102387,5.12419063 23.7821716,5.5343114 C24.7189953,3.32084545 26.6008603,1.59157517 26.6008603,1.59157517 C27.6034259,0.542945675 26.4502015,0.761525437 26.4502015,0.761525437 C22.889176,1.11291316 22.2536699,3.37618209 22.2536699,3.37618209 C20.6375122,4.42481159 20.897741,5.40703711 20.897741,5.40703711 C19.7499951,5.92166794 19.8595651,7.23314652 19.8595651,7.23314652 C18.9227415,7.74777735 19.0186153,9.13119357 19.0186153,9.13119357 C18.8176807,9.31668887 18.656415,9.54172122 18.5447249,9.79246652 C18.2558472,9.38243241 17.9171888,9.01061894 17.5366808,8.68573355 C17.1011252,8.30445962 16.5374018,8.10640755 15.9616119,8.13236706 C15.252146,8.19877104 15.504157,8.57229342 15.504157,8.57229342 C15.9260016,9.07032326 15.9396978,10.3901023 15.9396978,10.3901023 C16.1287061,11.79842 17.4791566,12.7059411 17.4791566,12.7059411 C16.871043,13.616229 17.2052315,14.8032001 17.2052315,14.8032001 C17.3478822,15.3887806 17.4160001,15.9903487 17.407936,16.5933407 C17.451764,17.6032345 16.5861609,20.5056417 16.5861609,20.5056417 C16.1150099,22.2238447 16.4355022,23.3831475 16.4355022,23.3831475 C16.7422982,24.4898804 18.0489206,25.0432469 18.0489206,25.0432469 C19.0076583,25.4250698 19.1090105,26.0697418 19.1090105,26.0697418 C19.311715,26.5096681 19.224059,28.7812376 19.224059,28.7812376 C19.1939273,29.5725516 19.3391075,29.6112873 19.3391075,29.6112873 C20.86487,28.8780767 20.9826578,25.9756695 20.9826578,25.9756695 C21.4318948,26.6065073 21.3606743,28.1005968 21.3606743,28.1005968 C21.3442388,28.8061391 21.6647311,28.8476415 21.6647311,28.8476415 C23.1110553,27.5306293 23.3274561,24.0720888 23.3274561,24.0720888 C23.4890718,22.4285903 24.0040509,22.0799694 24.0040509,22.0799694 C24.3053684,22.1906427 24.2012769,23.2475727 24.2012769,23.2475727 C24.1744739,23.4081418 24.2169437,23.5726233 24.317971,23.6995181 C24.4189984,23.826413 24.5689352,23.9036028 24.7299523,23.9116125 C25.1928856,23.9116125 25.1654931,24.2519329 25.1654931,24.2519329 C25.1239036,24.4520996 25.1846179,24.6599831 25.3271088,24.8052993 C25.8448272,25.1400861 25.8749589,25.4610386 25.8749589,25.4610386 C25.9267386,25.8355062 26.0923206,26.1845062 26.3488492,26.4598651 C26.7022125,26.7365484 26.4091127,26.7863514 26.4091127,26.7863514 C25.9434402,26.9329935 25.0586623,27.799012 25.0586623,27.799012 C24.4269077,28.4344142 23.7582607,29.0312613 23.0562703,29.5863858 C22.1550569,30.1148508 21.1689268,30.8618956 21.1689268,30.8618956 C20.1827967,31.6089403 19.8321726,31.6532096 19.8321726,31.6532096 C17.177839,32.1235712 15.9424371,32.621601 15.9424371,32.621601 C11.7322093,34.1599598 12.0527016,35.7564221 12.0527016,35.7564221 C12.0198306,36.3734258 13.9893516,36.1410119 13.9893516,36.1410119 C15.504157,35.8449608 15.7862998,34.9872427 15.7862998,34.9872427 C16.3165374,34.6481112 16.9107118,34.4238766 17.5312023,34.3287366 C17.5312023,35.0204447 18.4132409,34.8987041 18.4132409,34.8987041 C18.8154416,34.8705311 19.206039,34.7503744 19.5555083,34.5473164 C21.0264858,33.8334736 21.1004455,33.9552142 21.1004455,33.9552142 C28.0248122,34.0652314 34.4380271,37.6585837 38.196107,43.5339881 L39.0562316,44.4885453 C39.2808502,44.7347934 39.4561622,44.626887 39.4561622,44.626887 C39.760219,44.5245142 40.0040123,44.9035702 40.0040123,44.9035702 C40.1859421,45.2160999 40.3224733,45.5534104 40.4094213,45.9051635 C40.5628193,46.1818468 40.9572714,45.7668219 40.9572714,45.7668219 C41.1462797,45.5620763 42.0967995,46.6688093 42.0967995,46.6688093 C42.3926386,46.9454925 42.5898646,46.3921261 42.5898646,46.3921261 C42.6665636,46.1818468 42.9925344,46.3921261 42.9925344,46.3921261 C43.907444,46.8652544 44.006057,47.3273154 44.006057,47.3273154 C44.2991568,47.8640809 45.2469375,47.7672418 45.2469375,47.7672418 C46.6713476,48.0190235 46.6494336,49.5933512 46.6494336,49.5933512 C46.6704921,49.8962751 46.7943278,50.1825971 47.0000577,50.4040331 C47.1881916,50.5680121 47.311667,50.7948625 47.3479425,51.0431714 C47.3781063,51.4051626 47.4320977,51.7647237 47.5095583,52.1194692 C47.6081713,52.6368669 47.9450991,52.5593956 47.9450991,52.5593956 C48.2409381,52.5068257 48.2601129,52.8360788 48.2601129,52.8360788 C48.2378658,53.128401 48.2828669,53.4219591 48.3915969,53.6937969 C48.4627994,53.8931179 48.6404387,54.0338668 48.8490517,54.0562519 C49.1553252,54.0695751 49.4080917,54.3027364 49.4489475,54.6096184 C49.444397,54.8591809 49.6116121,55.0786344 49.8516173,55.1380834 C50.6240859,55.4147666 50.9473175,56.5685358 50.9473175,56.5685358 C51.2212425,57.0305968 51.2952023,56.9420581 51.2952023,56.9420581 C51.599259,56.7511467 52.0046681,57.4041192 52.0046681,57.4041192 C53.1894972,59.0446829 54.0608796,60.8941376 54.5740849,62.8575459 C55.2725938,65.3476951 53.8207911,67.8046423 53.8207911,67.8046423 C52.6292172,69.329167 52.7908329,69.3596021 52.7908329,69.3596021 C52.4128164,70.7679199 53.9659714,70.8260233 53.9659714,70.8260233 C54.7925498,70.920575 55.5721953,70.4190219 55.8368794,69.6224512 C55.9820596,68.8449713 56.795617,67.9623518 56.795617,67.9623518 C57.5653463,66.6425727 56.927101,65.0903797 56.927101,65.0903797 C55.7930513,60.7353854 56.5353882,59.1084879 56.5353882,59.1084879 C59.9567119,62.6306656 59.9649296,65.5745754 59.9649296,65.5745754 C59.9457549,67.4643219 59.2691601,68.2999053 59.2691601,68.2999053 C58.0392366,70.303092 58.2885084,70.9505308 58.2885084,70.9505308 C58.5186055,72.333947 59.8690559,72.0572638 59.8690559,72.0572638 C62.1974187,71.409825 62.0138889,68.6817282 62.0138889,68.6817282 C63.1095891,68.2971385 62.5453035,66.9884267 62.5453035,66.9884267 C61.6523079,65.0101415 61.9371899,60.0187758 61.9371899,60.0187758 C61.9371899,58.7432661 61.4797351,58.5440541 61.4797351,58.5440541 C61.0084477,58.1028532 60.5716073,57.6255381 60.1731127,57.1163686 C59.0774125,55.4562691 59.9567119,50.3210281 59.9567119,50.3210281 C60.6305675,45.7474541 59.9567119,43.370745 59.9567119,43.370745 C60.6815319,43.6577092 61.4840541,43.673411 62.2193327,43.4150143 C64.6134375,42.7122389 65.9091029,39.2647657 65.9091029,39.2647657 C66.2022027,38.647762 65.6927021,38.5177209 65.6927021,38.5177209 Z M16.4930264,10.2047246 C16.4930264,10.2047246 16.3314106,8.95688313 16.0437894,8.68019988 C16.0437894,8.68019988 17.2627558,8.81024101 18.1037056,10.1881236 C18.2570372,10.4398279 18.3507788,10.7238846 18.3776307,11.0181733 C18.3632507,11.2674405 18.4285499,11.5147783 18.5638997,11.7237156 C18.5638997,11.7237156 18.7693435,12.0003988 18.5638997,12.0446681 C18.5638997,12.0446681 17.9831786,12.426491 17.7969096,12.0446681 C17.8051273,12.0502018 16.7231235,11.3169912 16.4930264,10.2047246 Z M17.6106406,33.9109449 C17.0201155,34.0356012 16.4463344,34.230645 15.9013483,34.4919797 C15.2423238,34.7296107 14.542784,34.8312232 13.8441713,34.7907976 C13.8441713,34.7907976 13.7455583,34.3923738 14.8111267,33.8556083 C16.0181739,33.2321905 17.3108147,32.7947955 18.6460772,32.5579638 C18.6460772,32.5579638 17.6982966,33.4931532 17.6106406,33.9109449 Z M56.3409014,67.9429839 C56.3409014,67.9429839 55.5793898,68.5157182 55.4479058,69.163157 C55.4479058,69.163157 55.330118,69.8880671 54.3522057,69.6805547 C54.3522057,69.6805547 53.6564361,69.3513016 53.9933639,68.833904 C53.9933639,68.833904 55.2232873,67.0299292 55.2232873,64.8856341 C55.2232873,64.8856341 55.2232873,61.6401396 54.3385094,59.8223307 C54.3385094,59.8223307 54.1029339,59.2246949 54.4398617,59.091887 C54.4398617,59.091887 54.7000905,59.1361563 54.9877117,60.6191785 C54.9877117,60.6191785 54.9877117,61.0369702 55.110978,61.0480375 C55.110978,61.0480375 55.4999516,60.9844003 55.5656936,61.1697781 L55.5656936,62.5531943 C55.5656936,62.5531943 55.5328226,62.6721681 55.6862206,62.8160434 C55.6862206,62.8160434 55.8149653,63.0927267 55.6862206,63.7955021 C55.685497,63.9218389 55.7458161,64.0405938 55.8478364,64.1136878 L55.8478364,65.1816852 C55.9439594,65.2980867 56.0729774,65.3820689 56.2176352,65.4223996 C56.2176352,65.4223996 56.1875034,67.7327047 56.3409014,67.9512844 L56.3409014,67.9429839 Z M60.2826827,60.115615 C60.48706,60.434914 60.5831944,60.8126421 60.5566077,61.1919128 C60.5566077,61.1919128 60.2306369,62.0385635 60.4908657,62.4010186 C60.6761923,62.5044489 60.7633599,62.7257207 60.6990487,62.9294835 C60.5751425,63.181843 60.6223535,63.4857055 60.8168365,63.6875956 C60.9689796,63.9103447 61.0493371,64.1751024 61.0469335,64.4457077 C61.0466282,64.9947445 61.0933699,65.5427779 61.1866353,66.0836725 C61.1866353,66.0836725 61.5920444,67.7244042 61.3181193,68.3607756 C61.3181193,68.3607756 60.6552207,70.0208751 59.9484941,70.0651444 C59.9484941,70.0651444 59.4472113,70.1647504 59.5649991,69.4619749 C59.5649991,69.4619749 60.4689517,67.248509 60.4360807,65.8097561 C60.4467345,63.9327385 59.8126433,62.1100711 58.6418717,60.6523805 C57.5238053,58.9588867 56.2239049,57.3953622 54.7658325,55.9902678 C54.7658325,55.9902678 52.9250562,54.0534851 52.6319564,53.4171136 C52.4452204,53.1386629 52.2137676,52.8936579 51.9471438,52.6922035 C51.9471438,52.6922035 51.270549,52.138837 51.270549,51.8234181 C51.270549,51.8234181 51.226721,51.6159057 50.8459652,51.4498958 C50.8459652,51.4498958 50.4432954,51.2838858 50.3145506,50.2961266 C50.3145506,50.2961266 50.2049806,49.6569883 49.8242248,49.4937452 C49.4817189,49.0660267 49.2890757,48.5357881 49.2763747,47.9858215 L48.8737049,44.4359755 C48.8737049,44.4359755 48.7422209,42.6320008 48.1669783,42.6209334 C47.8482625,42.6739487 47.5577331,42.8373052 47.3452032,43.0829945 C47.3452032,43.0829945 46.9863614,43.5118535 46.4083796,43.0829945 C46.4083796,43.0829945 45.361986,41.8960233 45.1017572,42.5102601 C44.9828045,42.9736484 44.9941882,43.4613665 45.1346282,43.9185778 C45.1346282,43.9185778 44.6662164,43.2351702 43.0774512,43.2351702 C43.0774512,43.2351702 42.7733944,43.2351702 42.8035261,42.1920744 C42.8035261,42.1920744 42.7514804,41.5114336 42.2940256,41.3620247 C42.1224982,41.2574178 42.0183632,41.0691392 42.0201005,40.8667617 C42.0201005,40.8667617 41.9132698,40.4268353 41.6612587,40.3133952 C41.6612587,40.3133952 41.2805029,40.1612194 41.2914599,39.4446098 C41.2914599,39.4446098 41.2695459,39.1374914 40.8449621,39.1679265 C40.6675919,39.1849387 40.4983856,39.0890085 40.4203783,38.9272121 C40.4203783,38.9272121 40.0944075,38.3738456 39.7136517,38.4430164 C39.7136517,38.4430164 39.3986379,38.4098145 39.4095949,37.8370801 C39.4095949,37.8370801 39.4315089,37.4856924 39.1027989,37.4856924 C39.0323178,37.5050992 38.957082,37.4952653 38.8938132,37.4583765 C38.8305443,37.4214878 38.7844846,37.3606005 38.7658711,37.2892473 C38.6834144,37.1701158 38.5507965,37.0964927 38.4070293,37.0900354 C38.4070293,37.0900354 37.9605315,36.8133521 38.0372305,36.0192712 C38.0372305,36.0192712 38.0372305,35.4133349 37.6564747,35.3275631 C37.4648837,35.2968239 37.2928177,35.1915517 37.1771059,35.0342789 C37.1771059,35.0342789 37.1332779,34.7797303 36.6292558,34.7575956 C36.6292558,34.7575956 35.7170855,34.3398039 35.6623004,32.6437357 C35.6623004,32.6437357 35.5636874,31.8302869 35.1500606,31.8136859 C35.1500606,31.8136859 34.5501648,32.4306896 34.4734658,34.652456 C34.4734658,34.652456 34.399506,36.5422026 33.4407684,36.5892387 C33.4407684,36.5892387 33.0600126,36.7109793 32.6463858,36.2157163 C32.6463858,36.2157163 31.980748,35.0840819 31.5123361,35.4354696 C31.5123361,35.4354696 31.3178494,35.7121528 31.0357066,34.9623412 C31.0357066,34.9623412 30.7946526,34.5998862 30.7069965,34.9623412 C30.7069965,34.9623412 30.5563378,35.2390245 30.3919828,34.6220208 C30.3919828,34.6220208 30.175582,33.7200335 29.8441327,34.0492865 C29.8441327,34.0492865 29.5702076,34.1488925 29.4743339,33.7200335 C29.4743339,33.7200335 29.1374061,32.1152707 28.8114353,32.8512481 C28.8114353,32.8512481 28.5621635,33.0283254 28.4964215,32.6105337 C28.4964215,32.6105337 28.2882385,31.3792932 27.4500279,31.7417483 C27.4500279,31.7417483 27.2555411,31.7860176 27.0692721,31.4429304 C27.0692721,31.4429304 26.7323443,30.7954916 26.2310615,30.9393669 C26.2310615,30.9393669 25.6832114,31.036206 25.6530796,30.8950976 C25.6530796,30.8950976 25.2832808,30.4441039 24.3601535,30.9172322 C24.3601535,30.9172322 22.0947934,31.99353 20.667644,33.5318889 C20.667644,33.5318889 19.7993016,33.2552056 19.2541908,33.6314948 C19.2541908,33.6314948 18.3392812,33.8749761 18.730994,33.2579725 C18.730994,33.2579725 19.004919,32.7405748 20.4950712,31.9492607 C20.4950712,31.9492607 23.075445,30.3887672 24.0560967,29.5642511 C24.0560967,29.5642511 25.6558189,28.2776741 26.0721849,28.0452601 C26.0721849,28.0452601 26.6693415,27.6717378 26.9405273,27.8377477 C26.9405273,27.8377477 27.4198961,28.0258923 28.2142787,29.1464594 C28.2142787,29.1464594 30.098883,31.431863 31.1973224,31.498267 C31.5121378,31.5630205 31.8376837,31.4582995 32.057447,31.2215838 C32.2247448,30.9733121 32.3325897,30.6891445 32.3724608,30.391534 C32.3724608,30.391534 32.5149018,29.995877 32.6244718,30.2587261 C32.6810612,30.4706373 32.6922673,30.6923004 32.6573428,30.9089317 C32.6573428,30.9089317 32.6354288,31.3709927 33.0326201,31.3709927 C33.0326201,31.3709927 33.3065451,31.4678319 33.3969404,30.8176262 C33.7773101,29.7055885 34.3732923,28.6812763 35.1500606,27.8045457 C35.1500606,27.8045457 35.8567872,27.0353663 36.369027,27.3646194 C36.369027,27.3646194 36.8374388,27.8377477 37.0976676,27.419956 C37.0976676,27.419956 37.3168077,27.2096767 37.2291517,26.3408914 C37.1537086,25.945946 37.0019884,25.5698775 36.7826538,25.2341584 C36.7826538,25.2341584 36.6182988,25.0045113 36.5525568,24.1274254 C36.5525568,24.1274254 36.5525568,22.6195017 36.204672,22.2570467 C36.204672,22.2570467 36.0101852,21.9803634 35.6568219,22.3898546 C35.4288282,22.5930021 35.27537,22.8679138 35.2212811,23.1701014 C35.2248593,23.3992511 35.1135658,23.6147115 34.9254421,23.7428357 C34.9254421,23.7428357 34.2844575,24.0388868 34.2625435,25.0709153 C34.2625435,25.0709153 33.6736047,24.5894864 33.4407684,25.488707 C33.2694657,26.0239088 33.2097744,26.5891491 33.2654564,27.1488064 C33.2654564,27.1488064 32.6025578,26.8942578 32.7011708,27.8847839 C32.7011708,27.8847839 32.4272458,27.9290532 32.6025578,28.3025756 C32.6025578,28.3025756 31.8848742,27.9733225 31.8300892,28.8310405 C31.8300892,28.8310405 31.8520032,29.7219606 31.2301934,29.5559506 C31.2301934,29.5559506 31.0247496,29.6638571 31.0685776,29.1160243 C31.0685776,29.1160243 31.1425373,28.7757039 30.6439938,28.1697676 C30.6439938,28.1697676 29.9673989,27.1792416 29.8578289,26.5871394 C29.8584773,25.7341808 29.3341609,24.97068 28.5429888,24.6724914 C28.5429888,24.6724914 28.8580025,23.7179342 27.7814772,23.3527123 C27.7814772,23.3527123 28.0554022,22.3649531 26.5378575,22.1657412 C26.2990286,21.7499163 26.3203943,21.2319773 26.5926425,20.8376616 C26.8273988,20.3105673 26.6952982,19.690507 26.2666717,19.3076033 C26.1098002,19.1912723 25.9373208,19.0981086 25.7544319,19.03092 C25.7544319,19.03092 25.3627191,18.9091794 25.6996469,18.3032431 C25.6996469,18.3032431 26.5488145,17.182676 26.8336965,17.1273393 C26.8336965,17.1273393 27.5075521,16.5988743 26.8556105,16.2585539 C26.8556105,16.2585539 26.3543277,15.9071662 24.7984335,17.6226023 C24.1807591,18.4997507 23.61723,19.4145419 23.1110553,20.3617664 C23.1110553,20.3617664 22.1413607,22.1629744 21.8811319,22.351119 C21.8811319,22.351119 20.5936842,24.5286161 18.7227762,24.3294042 C18.7227762,24.3294042 17.1422288,24.398575 16.914871,22.351119 C16.9704532,21.4809217 17.1695033,20.6262069 17.5038098,19.8222341 C17.5038098,19.8222341 18.3091494,17.9518554 18.1557514,16.2253519 C18.1557514,16.2253519 18.0927486,14.8613036 18.0050926,14.3107039 C18.0050926,14.3107039 17.7640386,13.2039709 18.5693782,12.6506044 C19.1616035,12.4458093 19.7758694,12.3129882 20.3991974,12.2549474 C20.3991974,12.2549474 20.886784,12.3351855 20.5662917,11.8233215 C20.5662917,11.8233215 19.2158413,11.5134363 19.1446208,10.3845687 C19.1446208,10.3845687 19.245973,9.55451893 20.4211114,8.77150535 C20.4211114,8.77150535 19.4788093,9.18376339 19.6678176,8.53909143 C19.6678176,8.53909143 19.8842184,7.64263772 21.2209725,6.82365532 C21.2209725,6.82365532 20.5662917,6.89559296 20.579988,6.6604122 C20.579988,6.6604122 20.4074152,6.1485482 22.2947587,5.03351473 C22.2947587,5.03351473 21.3935453,5.25486132 21.7469086,4.71256216 C21.7469086,4.71256216 22.0208336,3.99318573 23.4452438,3.24614097 C23.4452438,3.24614097 22.9384825,3.23230681 23.097359,2.99712605 C23.097359,2.99712605 23.9191341,1.81015493 25.7982599,1.54453902 C25.7982599,1.54453902 24.2724974,2.53506503 24.4286347,3.30424445 C24.4286347,3.30424445 23.163101,3.97935157 23.2671926,5.32679896 C23.2671926,5.32679896 22.1906672,5.88016545 22.5412912,6.95369644 C21.8012898,7.47534582 21.4455321,8.39608592 21.6400778,9.28613619 C21.6400778,9.28613619 19.7828661,11.1343803 21.7578656,12.0529686 C21.7578656,12.0529686 22.5248557,12.4347915 22.626208,12.1415073 C22.626208,12.1415073 20.9004803,9.75096404 24.0506182,8.6386974 C24.0506182,8.6386974 24.0341827,8.36201415 23.7027334,8.38968248 C23.7027334,8.38968248 22.7878237,8.5197236 23.1055768,8.09639824 C23.1055768,8.09639824 23.3521093,7.39085597 25.3983293,6.20388485 C25.3983293,6.20388485 24.3026292,6.24815417 24.6450355,5.89676645 C25.3160474,5.1661975 26.131757,4.58643466 27.0391403,4.1951645 C27.0391403,4.1951645 25.7927814,4.26986897 26.2173652,3.91848125 C26.2173652,3.91848125 26.7652153,3.36511476 28.9182661,2.53506503 C28.9182661,2.53506503 27.5979474,2.63743783 28.2800207,2.13664116 C29.0745312,1.65497222 29.9414562,1.30732724 30.8466983,1.10737949 C30.8466983,1.10737949 29.5976001,1.00500669 30.613862,0.725556616 C31.3054474,0.577939317 32.0218944,0.598805036 32.7039101,0.786426929 C32.7039101,0.786426929 30.186539,2.12004017 30.1947567,2.96945773 C30.1947567,2.96945773 28.7566503,3.67223317 28.7292578,4.52441756 C28.7292578,4.52441756 27.5815119,5.07778404 27.5952081,6.12087988 C27.5952081,6.12087988 26.1598409,7.03116775 26.5789462,8.37861515 C26.5789462,8.37861515 25.5188564,9.23079954 25.6229479,10.4758741 C25.6229479,10.4758741 25.7818244,11.6766794 24.3163255,12.3241182 C24.3163255,12.3241182 23.8369566,12.6008015 24.6642102,12.5731331 C24.6642102,12.5731331 26.1297092,12.6893401 27.0583151,11.7071146 C27.0583151,11.7071146 28.8580025,9.91974082 29.6578637,10.2849627 C29.6578637,10.2849627 30.570034,12.3379524 28.0143134,14.7284956 C27.869992,15.2561384 27.937927,15.8200084 28.2033217,16.2972896 C28.6004285,16.0460587 28.8860341,15.6495207 29.0004436,15.1905566 C29.0004436,15.1905566 29.3209359,15.6000478 29.5674684,15.5419443 C29.5674684,15.5419443 29.9153532,15.5419443 29.8413934,14.3826415 C29.8413934,14.3826415 29.8578289,13.7988399 30.1153185,14.2083311 C30.1153185,14.2083311 30.4768995,14.4850143 30.0002699,16.3194243 C30.0002699,16.3194243 29.7811299,17.4261572 30.274195,17.4621261 C30.274195,17.4621261 30.7097358,17.478727 30.9562683,16.3553931 C30.9562683,16.3553931 31.3342849,15.2486601 32.1615385,15.7549904 C33.0265856,16.5140405 33.3382237,17.7335226 32.9449641,18.8206408 C32.9449641,18.8206408 32.9148323,19.0530547 32.123189,19.0115522 C31.781731,19.0462681 31.5038892,19.3043661 31.4411156,19.6451568 C31.4411156,19.6451568 31.3561989,20.7518898 30.4111575,20.9649359 C30.4111575,20.9649359 29.4524199,21.1696815 29.5893824,22.9598221 C29.5893824,22.9598221 29.7345627,24.249166 30.0687512,24.2187309 C30.0687512,24.2187309 30.372808,24.1744616 30.3865043,23.5297896 C30.3569484,23.2466738 30.4857614,22.9704566 30.7206928,22.81318 C30.7206928,22.81318 30.9946178,22.8408483 31.1562336,22.2598135 C31.2464854,22.1386811 31.3663693,22.0433338 31.5041184,21.9831303 C31.7251637,21.827306 31.862637,21.5771582 31.8766564,21.3052563 C31.9675461,21.0799659 32.1230346,20.8872614 32.3231543,20.7518898 C32.3231543,20.7518898 33.4188544,20.6937863 33.5859487,19.8277678 C33.6042435,19.6740504 33.6854568,19.5351044 33.8098692,19.4446676 C33.9342815,19.3542308 34.0905133,19.3205752 34.2406295,19.3518726 C34.8033828,19.5401459 35.3525475,19.7675706 35.8841797,20.0325134 C36.6293904,20.4335711 37.2503295,21.0349088 37.6783887,21.7700842 C37.6783887,21.7700842 38.349505,22.5503309 38.07558,25.2452257 C38.07558,25.2452257 37.7167382,26.6286419 38.3796368,27.3895208 C39.1004364,27.8719593 39.4617426,28.7460771 39.2945464,29.6029868 C39.2945464,29.6029868 39.2397614,30.1093171 38.4453788,30.65715 C38.4453788,30.65715 35.886919,32.2619128 36.8018286,34.2872341 C36.8018286,34.2872341 37.0620574,34.6828912 37.4318562,34.2097628 C37.5138316,34.0600438 37.5659474,33.895542 37.5852542,33.7255671 C37.5852542,33.7255671 37.7057812,33.2856408 37.933139,33.5927592 C37.933139,33.5927592 38.064623,34.1101568 38.4344218,33.8362404 C38.4344218,33.8362404 39.4260304,32.2840474 40.2943728,31.7583493 C40.9409477,31.3690841 41.362891,30.6896477 41.4284225,29.9322399 C41.4284225,29.9322399 41.3955514,29.2737337 41.7023475,29.0523871 C41.7023475,29.0523871 42.0283183,28.8448747 41.8886165,28.2832077 C41.8886165,28.2832077 41.2887207,27.1764747 41.7242615,26.6009736 C41.7242615,26.6009736 42.2474583,26.0725086 42.5186441,26.5345696 C42.6433466,26.9244395 42.6807709,27.3374171 42.6282141,27.7436754 C42.623944,27.8830768 42.7017002,28.0118344 42.8263652,28.0717964 C42.9510301,28.1317584 43.0990042,28.1115738 43.2034567,28.0203586 C43.2034567,28.0203586 43.9129225,27.2622466 43.9896215,27.8239135 C44.0290707,28.0736268 43.9826686,28.3294551 43.8581375,28.5488236 C43.8581375,28.5488236 43.4225967,29.3290704 44.1183663,29.4618783 C44.1183663,29.4618783 44.7511331,29.4397437 44.5867781,29.9018047 C44.5867781,29.9018047 44.0005785,30.7318544 44.5210361,30.903398 C45.6505744,30.8942495 46.7768476,31.027157 47.8738786,31.2990551 C47.8738786,31.2990551 52.3388566,32.4638915 53.470167,36.5090006 C53.470167,36.5090006 53.6975248,37.2366775 53.2208953,37.2366775 C53.2208953,37.2366775 52.3278996,37.2366775 52.2512006,37.5991326 C52.2512006,37.5991326 51.6403478,39.1817607 53.470167,41.2153826 C53.470167,41.2153826 53.7440921,41.5474024 53.8618798,41.0936419 C53.8755309,40.7867196 53.812412,40.4812695 53.6783501,40.2054887 C53.4652414,39.9024677 53.4775511,39.4932876 53.7084818,39.2038954 C53.7084818,39.2038954 54.1768936,38.7196997 55.0041472,39.0932221 C55.0041472,39.0932221 56.0067129,39.5442158 56.0724549,40.0284114 C56.0724549,40.0284114 56.1381969,40.5817779 56.4532107,40.7975909 C56.683612,40.9060045 56.9295233,40.9769723 57.1818513,41.0078701 C57.1818513,41.0078701 57.6612201,40.9857355 57.6283491,41.5612366 C57.5763227,42.0060091 57.3067419,42.3947054 56.9106655,42.5960319 C56.9106655,42.5960319 54.5795634,43.2766727 54.5247784,44.2561314 C54.5247784,44.2561314 54.5247784,44.5743171 55.1685023,44.6296538 C55.1685023,44.6296538 56.7243965,44.4553433 57.0284533,45.9162309 C57.0284533,45.9162309 57.0503673,47.3688179 56.6476975,48.2154686 C56.6476975,48.2154686 56.3545977,48.9625134 56.8558805,50.0498785 C56.8558805,50.0498785 57.9981479,52.5566287 57.9981479,53.1736324 C57.9981479,53.1736324 58.1405889,54.1503242 57.5735641,54.0424177 C57.5735641,54.0424177 57.3242923,53.9649464 56.9873645,53.4696834 C56.9873645,53.4696834 55.9300139,51.7542473 55.439688,51.6878433 C55.439688,51.6878433 55.0698892,51.8206513 55.6588281,52.8554466 L60.2826827,60.115615 Z M62.1645477,42.0924684 C62.1645477,42.0924684 61.2605951,42.3912863 60.9455813,41.9956293 C60.8417152,41.8919111 60.7910015,41.7456105 60.8081289,41.5991022 C60.8252564,41.4525938 60.9083112,41.3222478 61.0332373,41.2458177 C61.0332373,41.2458177 63.1013713,40.8501607 64.1888537,39.9924426 C64.1888537,39.9924426 64.5696095,39.6078529 64.6353515,40.2248565 C64.0320987,41.1014905 63.1659205,41.7591204 62.1645477,42.1007689 L62.1645477,42.0924684 Z" id="geißbock_kontur" fill="#1D1D1B"></path>
            <path d="M17.9146974,21.8945916 C18.5883713,22.019973 19.2683916,21.7101659 19.6212503,21.1171117 C19.6212503,21.1171117 19.9116109,21.9969644 18.8350855,22.5475641 C18.8350855,22.5475641 18.2132756,22.8491488 17.9146974,21.8945916 Z" id="Path" fill="#1D1D1B"></path>
            <path d="M21.9578309,17.6585712 C21.9578309,17.6585712 22.5741622,19.0668889 22.0509654,19.7115608 C22.0509654,19.7115608 21.7112984,20.2178912 21.3332818,19.8443688 C21.3332818,19.8443688 20.897741,19.3961419 21.2538435,18.9645161 C21.2538435,18.9645161 21.8920889,17.8633168 21.9578309,17.6585712 Z" id="Path" fill="#1D1D1B"></path>
            <path d="M22.6974285,14.6012213 C22.8533164,14.210601 23.2180268,13.945624 23.6342521,13.9205805 C23.6342521,13.9205805 24.540944,13.7877726 24.858697,14.9913447 C24.5472319,14.7234228 24.1773895,14.5337952 23.7794324,14.4379782 C23.7794324,14.4379782 23.5246821,14.3383722 22.6974285,14.6012213 Z" id="Path" fill="#1D1D1B"></path>
            <path d="M22.1523177,16.1866163 C22.1523177,16.1866163 22.3495437,15.0494482 23.4151121,14.9913447 C23.4151121,14.9913447 24.4669842,14.9166402 24.1136209,16.075943 C24.1136209,16.075943 23.9246126,16.4356312 23.2918458,16.4356312 C23.2918458,16.4356312 22.834391,16.4716 22.6892107,16.19215 C22.6892107,16.19215 22.5659445,15.8186276 22.3632399,16.142347 C22.3714577,16.142347 22.3851539,16.2806886 22.1523177,16.1866163 Z" id="Path" fill="#1D1D1B"></path>
            <path d="M19.9965276,18.5384239 C19.9965276,18.5384239 20.5717702,17.1384067 20.5443777,16.0897772 C20.5443777,16.0897772 20.4649394,14.573553 21.2428865,14.8668372 C21.2428865,14.8668372 21.7743011,15.1711888 21.1250988,16.9640962 C20.8755082,17.5705337 20.4890377,18.10965 19.9965276,18.5384239 L19.9965276,18.5384239 Z" id="Path" fill="#1D1D1B"></path>
            <path d="M29.4113311,10.9075 C29.341758,12.4640279 28.3283126,13.8156862 26.8638283,14.3051702 C26.8638283,14.3051702 26.6337313,13.0739298 27.9732247,12.0723365 C28.5551857,11.8346892 29.0552426,11.4296534 29.4113311,10.9075 L29.4113311,10.9075 Z" id="Path" fill="#1D1D1B"></path>
        </g>
    </g>
</svg>