<?xml version="1.0" encoding="UTF-8"?>
<svg width="103px" height="138px" viewBox="0 0 103 138" version="1.1" xmlns="http://www.w3.org/2000/svg" xmlns:xlink="http://www.w3.org/1999/xlink">
    <title>soccer-tema-arsenal-color</title>
    <g id="soccer-tema-arsenal-color" stroke="none" stroke-width="1" fill="none" fill-rule="evenodd">
        <rect id="Rectangle" fill="#FFFFFF" x="0" y="0" width="103.235294" height="138"></rect>
        <g id="arsenal-fc" transform="translate(13.076471, 23.460000)" fill-rule="nonzero">
            <path d="M38.8461538,0.393430056 C50.8127559,0.371945938 62.6483538,2.89046114 73.5745068,7.78346811 C75.8456833,17.0984681 77.284095,26.8067681 77.3255332,33.1685681 L77.3255332,33.5204681 C77.3386489,39.6919547 76.4363677,45.8311066 74.6481538,51.7364681 C72.9001768,57.4636045 70.2991141,62.8930842 66.9330362,67.8410681 C63.5152944,72.8306023 59.4171717,77.3154897 54.7581538,81.1649681 C49.9242555,85.2338167 44.5736417,88.6422101 38.8461538,91.3010681 C33.1195978,88.6404998 27.7692008,85.2322445 22.9341538,81.1649681 C18.275136,77.3154897 14.1770133,72.8306023 10.7592715,67.8410681 C7.39801922,62.892237 4.80161691,57.4627987 3.05791856,51.7364681 C1.26970473,45.8311066 0.367423541,39.6919547 0.380539221,33.5204681 L0.380539221,33.1685681 C0.421977379,26.8067681 1.86038914,17.0984681 4.13156561,7.78346811 C15.0534842,2.8923664 26.8841898,0.373894024 38.8461538,0.393430056" id="Path" fill="#FFFFFF"></path>
            <path d="M38.8461538,36.2114681 C41.4236758,36.2053102 43.9595118,36.8634669 46.2102715,38.1227681 L68.6329774,38.1227681 C68.6811538,36.5495681 68.6329774,34.7831681 68.6329774,33.1133681 C68.4953303,26.2133681 66.499448,14.6144681 64.5448597,6.55526811 C56.24631,3.84672633 47.5733896,2.46816877 38.8461538,2.47046524" id="Path" fill="#CA0538"></path>
            <path d="M38.8461538,2.49773726 C30.1333887,2.47328898 21.4723376,3.84052959 13.1887421,6.54836811 C11.1240362,14.8973681 9.41033032,25.9511681 9.15568326,31.2710681 C8.7840362,39.0473681 9.34150679,44.6639681 10.8969186,50.8049681 C11.7670959,54.2382005 12.9417745,57.5865364 14.4069186,60.8099681 C16.127963,59.8938651 17.773464,58.8417358 19.3278009,57.6635681 C21.0260433,56.3411524 22.545966,54.8034164 23.8495068,53.0888681 C23.6849794,51.6178241 23.7313319,50.1307425 23.9871538,48.6728681 C20.8832127,48.7832681 19.1213303,48.8177681 17.7379774,48.8177681 C15.9562216,48.723335 14.4059722,47.563791 13.8081538,45.8783681 L13.0373303,45.8783681 C12.445448,45.8783681 11.4475068,45.3746681 11.4475068,43.4771681 C11.4475068,41.5796681 12.445448,41.0828681 13.0373303,41.0828681 L13.8150362,41.0828681 C14.4068141,39.3908683 15.9589431,38.224468 17.7448597,38.1296681 L31.5095656,38.1296681 C33.7583299,36.8638139 36.2947053,36.2007642 38.8736833,36.2045681" id="Path" fill="#E40520"></path>
            <path d="M25.198448,78.2117681 C21.0621728,74.0935401 17.5264664,69.4105381 14.6959774,64.3013681 C11.8961401,59.183452 9.87780595,53.6734592 8.70833032,47.9552681 C7.49331805,42.0792091 7.09495391,36.0628832 7.52456561,30.0773681 C7.87556561,24.2330681 9.44474209,15.3734681 11.3167421,7.19006811 C9.49980091,7.83176811 7.68974209,8.57006811 5.90721267,9.30836811 C3.90444797,17.3606681 2.50733032,27.5795681 2.4660362,33.1616681 C2.41472557,39.2377244 3.28258793,45.286462 5.0400362,51.1016681 C6.69855558,56.636866 9.21121343,61.8776195 12.4867421,66.6335681 C15.7876054,71.4577801 19.7494193,75.7921079 24.2555656,79.5089681 C28.7384496,83.1895563 33.6352283,86.3319936 38.8461538,88.8722681 C38.8461538,88.8722681 38.8461538,88.8722681 38.8461538,88.8722681 C33.9020581,85.8583515 29.3223742,82.2810675 25.198448,78.2117681" id="Path" fill="#003671"></path>
            <path d="M52.4869774,78.2117681 C56.6153627,74.0917687 60.1502558,69.4144888 62.989448,64.3151681 C65.7864644,59.1903841 67.8067916,53.6766316 68.9839774,47.9552681 C70.1966855,42.078888 70.5927334,36.0625651 70.1608597,30.0773681 C69.8167421,24.2330681 68.2338009,15.3665681 66.3755656,7.19006811 C68.1925068,7.83176811 70.0025656,8.57006811 71.7919774,9.31526811 C73.7947421,17.3675681 75.1918597,27.5864681 75.2331538,33.1685681 C75.2878742,39.244854 74.4199382,45.2941052 72.6591538,51.1085681 C70.9725301,56.6327968 68.4618777,61.8693677 65.212448,66.6404681 C61.9102469,71.4676782 57.9486728,75.8063889 53.4436244,79.5296681 C48.9538674,83.1984076 44.0554107,86.3334933 38.8461538,88.8722681 L38.8461538,88.8722681 C43.7873181,85.857149 48.3645892,82.2799457 52.4869774,78.2117681" id="Path" fill="#003671"></path>
            <path d="M38.8461538,36.9635531 C33.0437781,36.9551946 27.8079677,40.452611 25.5810622,45.8243833 C23.3541568,51.1961556 24.5749054,57.3839271 28.6738676,61.5012984 C32.7728297,65.6186698 38.9424201,66.8544287 44.3047204,64.6321328 C49.6670206,62.4098369 53.1655401,57.1673271 53.168332,51.3500681 C53.172137,43.4138175 46.7620999,36.9749917 38.8461538,36.9635531" id="Path" fill="#AE9A64"></path>
            <path d="M38.8461538,66.4748681 C34.1560804,66.4789601 29.7316371,64.2929507 26.8777421,60.5615681 C23.6094793,62.4302788 20.1478818,63.9364642 16.5542127,65.0534681 C19.2858396,69.8479702 22.6417707,74.2566727 26.5336244,78.1634681 C30.2718024,81.9131831 34.3994778,85.2510859 38.8461538,88.1201681" id="Path" fill="#E40520"></path>
            <path d="M17.731095,48.0656681 C16.1756833,48.0656681 14.8542715,46.8443681 14.3243303,45.1262681 L13.0235656,45.1262681 C12.6863303,45.1262681 12.1839186,44.7122681 12.1839186,43.4840681 C12.1839186,42.2558681 12.6863303,41.8349681 13.0235656,41.8349681 L14.3243303,41.8349681 C14.8473891,40.1099681 16.1756833,38.8817681 17.731095,38.8817681 L30.2707421,38.8817681 C27.1795718,41.0204706 24.9915683,44.2346558 24.1316833,47.9000681 C21.3787421,47.9966681 19.2245656,48.0518681 17.731095,48.0518681" id="Path" fill="#AE9A64"></path>
            <path d="M65.1642715,66.5921681 C61.8637145,71.4206871 57.9019417,75.7596154 53.395448,79.4813681 C48.9246238,83.163832 44.042113,86.3129526 38.8461538,88.8653681 C33.648349,86.316234 28.7654706,83.1668763 24.2968597,79.4813681 C19.790366,75.7596154 15.8285932,71.4206871 12.5280362,66.5921681 L11.7778597,65.4674681 C16.9401208,64.4780901 21.8956792,62.6111987 26.4303891,59.9474681 C25.2100111,58.1943199 24.3791814,56.1989807 23.9940362,54.0962681 C22.7495607,55.6653131 21.3189512,57.0764199 19.7338597,58.2983681 C16.9407221,60.4759209 13.8021848,62.1670061 10.4495656,63.3008681 C8.19232424,59.4482559 6.39075308,55.3449614 5.08133032,51.0740681 C3.32440106,45.2587464 2.45655015,39.2100886 2.50733032,33.1340681 C2.50733032,27.5450681 3.93197738,17.3330681 5.94850679,9.28076811 C26.9584724,0.218458131 50.7613647,0.218458131 71.7713303,9.28076811 C73.774095,17.3330681 75.1712127,27.5450681 75.2125068,33.1340681 C75.2125068,35.0591681 75.1436833,36.9773681 74.9853891,38.8679681 L47.3871538,38.8679681 C50.8800033,41.2866408 53.1996996,45.0642482 53.7808597,49.2800681 L59.0389774,48.0311681 C59.9545107,47.8790514 60.669971,47.1561962 60.8146244,46.2371681 L74.0356244,45.3539681 C73.6565887,47.2856569 73.1811085,49.1970603 72.6109774,51.0809681 C70.921103,56.5996202 68.4106299,61.8311648 65.1642715,66.5990681 M73.8842127,7.48676811 C51.5865502,-2.49558937 26.1057575,-2.49558937 3.80809503,7.48676811 C1.35109503,17.4641681 0.0296832617,27.1241681 0.00215384996,33.1409681 C-0.0503413666,39.4655617 0.857036339,45.761367 2.69315385,51.8123681 C4.45439618,57.5731107 7.07155056,63.0348439 10.456448,68.0135681 C13.8933895,73.0315749 18.0146898,77.5420229 22.7001538,81.4133681 C27.2012127,85.1600681 33.292095,89.3000681 38.8461538,91.6667681 C44.4002127,89.2655681 50.491095,85.1600681 54.9921538,81.4064681 C59.6776179,77.5351229 63.7989182,73.0246749 67.2358597,68.0066681 C70.6207571,63.0279439 73.2379115,57.5662107 74.9991538,51.8054681 C76.8352714,45.754467 77.7426491,39.4586617 77.6901538,33.1340681 C77.6626244,27.1172681 76.3412127,17.4572681 73.8842127,7.47986811 L73.8842127,7.48676811 Z" id="Shape" fill="#AE9A64"></path>
            <path d="M39.7890362,55.3175681 L39.7890362,63.0800681 C43.2938144,62.7885204 46.4848854,60.9408503 48.4883303,58.0430681 L41.7986833,54.1652681 C41.2580751,54.744046 40.5589116,55.1497364 39.7890362,55.3313681" id="Path" fill="#FFFFFF"></path>
            <path d="M37.8895068,39.6200681 C34.3891849,39.9080559 31.2030495,41.757257 29.2108597,44.6570681 L35.8867421,48.5210681 C36.4416421,47.9321378 37.1614976,47.5255794 37.951448,47.3549681" id="Path" fill="#FFFFFF"></path>
            <path d="M38.8461538,49.2800681 C37.7058483,49.2800681 36.781448,50.2068387 36.781448,51.3500681 C36.781448,52.4932975 37.7058483,53.4200681 38.8461538,53.4200681 C39.9864594,53.4200681 40.9108597,52.4932975 40.9108597,51.3500681 C40.9108597,50.2068387 39.9864594,49.2800681 38.8461538,49.2800681" id="Path" fill="#FFFFFF"></path>
            <path d="M39.7890362,39.6200681 L39.7890362,47.3549681 C40.564628,47.5321008 41.2694391,47.9382862 41.812448,48.5210681 L48.4883303,44.6570681 C46.4916757,41.7519032 43.296799,39.9020297 39.7890362,39.6200681" id="Path" fill="#FFFFFF"></path>
            <path d="M37.8895068,55.3175681 C37.2616337,55.1721037 36.6783153,54.8761452 36.1895656,54.4550681 C36.0796099,54.3609965 35.9761377,54.2595642 35.8798597,54.1514681 L29.2108597,58.0292681 C29.3553891,58.2500681 29.5205656,58.4708681 29.6926244,58.6847681 C31.7022434,61.2218799 34.669024,62.8127154 37.8895068,63.0800681" id="Path" fill="#FFFFFF"></path>
            <path d="M42.7553303,52.5161681 L49.4449774,56.3801681 C50.9437943,53.1902732 50.9437943,49.496063 49.4449774,46.3061681 L42.7622127,50.1770681 C42.9864821,50.9405583 42.9864821,51.7526779 42.7622127,52.5161681" id="Path" fill="#FFFFFF"></path>
            <path d="M30.2913891,44.4500681 L35.749095,47.5964681 C36.157508,47.2490336 36.6233379,46.9758243 37.1255656,46.7891681 L37.1255656,40.4825681 C34.4151484,40.8895173 31.957505,42.3062857 30.2432127,44.4500681" id="Path" fill="#AE9A64"></path>
            <path d="M40.546095,40.4825681 L40.546095,46.8098681 C41.0481933,46.9841327 41.514575,47.2483141 41.9225656,47.5895681 L47.3802715,44.4431681 C45.685897,42.3049639 43.2463941,40.8897773 40.5529774,40.4825681" id="Path" fill="#AE9A64"></path>
            <path d="M49.768448,50.2046681 C49.665041,49.2397395 49.4335841,48.2929738 49.0802127,47.3894681 L43.5743303,50.5427681 C43.6293409,50.8084595 43.6592965,51.0787505 43.6638009,51.3500681 C43.6638009,51.4604681 43.6638009,51.5708681 43.6638009,51.6743681 C45.2123303,51.2465681 46.8365656,50.8463681 48.481448,50.5013681 L49.7546833,50.2253681" id="Path" fill="#AE9A64"></path>
            <path d="M38.8461538,88.1201681 C43.2820264,85.2554096 47.4023612,81.9270979 51.1380362,78.1910681 C55.2477838,74.0388691 58.7553511,69.3284425 61.5579186,64.1978681 C64.3334604,59.0545405 66.3261476,53.5239696 67.4698597,47.7896681 C67.552448,47.3549681 67.6419186,46.9271681 67.7176244,46.4993681 L61.3652127,46.9478681 C61.0053904,47.8821936 60.1868463,48.5617068 59.2041538,48.7418681 L59.2041538,48.7418681 C59.1628597,48.7418681 56.8366244,49.3283681 53.8290362,50.0252681 C53.8703303,50.4599681 53.8909774,50.9015681 53.8909774,51.3362681 C53.8986008,59.6787091 47.167231,66.4520365 38.8461538,66.4748681" id="Path" fill="#CA0538"></path>
            <path d="M40.174448,51.3500681 C40.1554281,50.6163018 39.5533287,50.0332158 38.8212194,50.0395727 C38.08911,50.0459295 37.4971742,50.6393831 37.4908336,51.3733697 C37.484493,52.1073562 38.0660877,52.7109995 38.7979774,52.7300681 C39.5581811,52.7300681 40.174448,52.1122211 40.174448,51.3500681" id="Path" fill="#AE9A64"></path>
            <path d="M40.5392127,62.2037681 C43.2369924,61.797363 45.6825006,60.3854341 47.3871538,58.2500681 L41.8812715,55.0898681 C41.4688913,55.4264296 41.0037795,55.6922232 40.5048009,55.8764681 C40.5048009,55.8764681 40.5048009,62.2037681 40.5048009,62.2037681" id="Path" fill="#CA0538"></path>
            <path d="M30.2982715,58.2500681 L35.7628597,55.0829681 C36.1732942,55.4223671 36.638908,55.6884474 37.1393303,55.8695681 L37.1393303,62.2037681 C34.4442275,61.8006389 32.0019275,60.3877223 30.3051538,58.2500681" id="Path" fill="#E40520"></path>
            <path d="M49.8166244,51.3500681 C49.8166244,51.2051681 49.8166244,51.0533681 49.8166244,50.9084681 L48.6328597,51.1568681 C46.9673303,51.5156681 45.3499774,51.9158681 43.9115656,52.3091681 L49.0802127,55.3106681 C49.5755999,54.0494813 49.8278245,52.7055172 49.8235613,51.3500681" id="Path" fill="#CA0538"></path>
            <path d="M28.2266833,46.3130681 C26.7108139,49.5039514 26.7108139,53.2099849 28.2266833,56.4008681 L34.8956833,52.5161681 C34.6687027,51.7483748 34.6687027,50.9310614 34.8956833,50.1632681" id="Path" fill="#FFFFFF"></path>
            <path d="M28.612095,55.3175681 L34.0560362,52.1573681 C33.9596673,51.6235042 33.9596673,51.0766321 34.0560362,50.5427681 L28.591448,47.3963681 C27.5967706,49.9426097 27.5967706,52.7713265 28.591448,55.3175681" id="Path" fill="#AE9A64"></path>
            <path d="M57.490448,25.8200681 C57.2561363,25.8564782 57.0180567,25.7837333 56.8438279,25.6224944 C56.6695991,25.4612554 56.5782561,25.2291382 56.5957421,24.9920681 C56.5957421,24.6263681 56.7196244,24.0674681 57.8689774,23.7569681 L57.9378009,24.5435681 L57.9378009,24.9023681 C57.9378009,25.1576681 57.9378009,25.3853681 57.9997421,25.6406681 C57.8418627,25.7460641 57.6590919,25.8079371 57.4698009,25.8200681 M43.3265656,24.6263681 C42.5419774,25.3163681 41.950095,25.7441681 41.0072127,25.7234681 C40.3425523,25.6848125 39.7628084,25.2576757 39.5275068,24.6332681 L44.269448,22.8461681 C44.269448,23.4878681 44.269448,24.3503681 44.269448,24.3503681 L44.269448,24.3503681 C44.269448,24.8678681 44.269448,25.3646681 44.269448,25.8476681 L44.269448,25.8476681 L43.3265656,24.6263681 Z M39.004448,22.0457681 L39.004448,22.0457681 C39.004448,20.7830681 39.472448,20.2862681 39.9198009,20.2448681 C40.0505656,20.2448681 40.4015656,20.1965681 40.5667421,20.7899681 C40.6181558,20.9627263 40.6482045,21.1411629 40.6562127,21.3212681 C40.6562127,21.6731681 40.4703891,21.7352681 40.2570362,21.8111681 L40.2570362,21.8111681 L39.0182127,22.2872681 C39.0319774,22.2251681 39.025095,22.1492681 39.025095,22.0733681 L39.004448,22.0457681 Z M15.7971538,22.9772681 C16.0173891,22.3631681 16.189448,21.8663681 16.5542127,20.8106681 C16.7675656,21.8663681 16.8845656,22.4183681 16.9946833,22.9358681 L15.7971538,22.9772681 Z M44.2763303,26.6963681 C44.2763303,26.9930681 44.1868597,27.9797681 44.1593303,28.2764681 L48.502095,28.2764681 C48.2672978,26.9594273 48.1361291,25.62592 48.1098009,24.2882681 C48.1098009,24.2882681 48.0409774,21.7766681 48.0409774,21.7766681 C48.0246947,21.5653284 48.0941776,21.3563452 48.2336833,21.1970681 C48.3545984,21.0615321 48.5271923,20.983791 48.7085656,20.9831681 C48.9081538,20.9831681 49.2522715,20.9831681 49.2729186,21.6731681 L49.3761538,24.3503681 C49.4473508,25.6574197 49.4128261,26.9681057 49.2729186,28.2695681 L53.5055656,28.2695681 C53.4367421,27.8969681 53.3197421,27.0275681 53.2922127,26.7791681 C53.8290362,27.9176681 54.9646244,28.4972681 56.4925068,28.4972681 C57.2505043,28.4760014 57.986381,28.2364677 58.6122715,27.8072681 C58.6122715,27.8486681 58.8325068,28.2350681 58.8325068,28.2350681 L66.6508597,28.2350681 C66.3186754,26.9092247 66.0885865,25.5597535 65.9626244,24.1985681 L64.9027421,15.4700681 L60.8696833,14.7800681 C61.2015707,16.094304 61.4316674,17.4322867 61.5579186,18.7820681 L62.1635656,24.3917681 C62.2966724,25.4630663 62.3656195,26.5413994 62.3700362,27.6209681 L62.3700362,27.7589681 L62.2186244,27.3518681 C61.8840031,26.4066658 61.6982479,25.4149831 61.6680362,24.4124681 C61.6680362,24.4124681 61.4959774,22.6115681 61.4959774,22.6115681 C61.2826244,19.7618681 59.713448,18.4715681 56.320448,18.4715681 C55.3431043,18.4950325 54.3713582,18.6269364 53.4229774,18.8648681 L53.6569774,22.1147681 L54.5585656,21.5558681 C55.1463684,21.1381296 55.8415671,20.8986171 56.5613303,20.8658681 C56.9974775,20.816466 57.4170971,21.0489556 57.607448,21.4454681 C56.8570698,21.560558 56.1255599,21.7763962 55.4326244,22.0871681 C54.3827202,22.47596 53.5470506,23.2937049 53.1339186,24.3365681 C53.1339186,24.3365681 53.1339186,24.2813681 53.1339186,24.2537681 L52.9962715,21.2798681 C53.0188925,20.4472272 52.6921771,19.6432389 52.0956126,19.0635073 C51.4990482,18.4837757 50.6873212,18.1814444 49.8579186,18.2300681 C49.0445863,18.2105127 48.2463389,18.4522934 47.5798597,18.9200681 C47.5483795,18.809388 47.5092859,18.7010284 47.4628597,18.5957681 L47.2908009,18.2507681 L43.8152127,18.0920681 C44.0166219,19.1038503 44.1568189,20.1269175 44.2350362,21.1556681 C44.0527845,20.1090885 43.4761899,19.1728078 42.6245656,18.5405681 C41.8598241,18.0341999 40.9600118,17.7719839 40.0436833,17.7884681 C38.7362701,17.7951755 37.4835611,18.3153795 36.5543303,19.2374681 C35.6482807,20.2114925 35.1441259,21.4936032 35.143448,22.8254681 C34.7692177,22.4364797 34.3226408,22.1247152 33.8289186,21.9077681 L32.2322127,21.1349681 L32.1565068,21.1349681 C31.771095,20.9486681 31.7573303,20.9003681 31.7642127,20.7830681 C31.771095,20.6657681 32.1427421,20.4449681 32.6726833,20.4449681 C33.5241714,20.5115077 34.3442437,20.7966551 35.0539774,21.2729681 L35.1159186,18.4025681 C34.3238096,18.0687803 33.4696258,17.9087984 32.6107421,17.9333681 C31.665627,17.9190373 30.7316718,18.1394944 29.8922127,18.5750681 L29.8922127,18.5750681 C29.6321392,18.7249427 29.3877364,18.9006242 29.1626833,19.0994681 L29.2108597,18.2300681 C28.0653676,18.0099728 26.886643,18.3865734 26.0793891,19.2305681 C26.034494,18.9976246 25.9770571,18.7672878 25.9073303,18.5405681 L22.1495656,18.7682681 C22.4143466,20.0520624 22.4908585,21.3677225 22.3766833,22.6736681 L22.3078597,24.1088681 L22.3078597,24.2744681 C22.3078597,25.0265681 22.2252715,25.7924681 22.1426833,26.5100681 C21.8329774,25.5440681 21.4957421,24.2123681 21.2273303,23.1014681 L19.3759774,14.7317681 L14.0696833,15.4700681 C14.1439464,15.6799823 14.1947282,15.8975154 14.221095,16.1186681 C14.256022,16.994622 14.0937115,17.8672143 13.7462127,18.6716681 C12.8996833,21.1556681 11.6815068,24.8195681 10.4977421,27.3518681 C10.339448,27.7106681 10.0572715,28.2902681 10.0572715,28.2902681 L14.1866833,28.2902681 C14.2969131,27.4399738 14.492917,26.6030875 14.7716833,25.7924681 L17.5246244,25.7234681 C17.6768112,26.3668312 17.789435,27.0189592 17.8618597,27.6761681 L17.9100362,28.2902681 L26.251448,28.2902681 C26.1087767,26.9148169 26.0880485,25.5293907 26.1895068,24.1502681 C26.1541208,23.2780136 26.4353131,22.4224681 26.9809774,21.7421681 C27.2748008,21.4304683 27.6819473,21.2512627 28.1096833,21.2453681 C28.0615068,22.8047681 29.0869774,23.5292681 29.995448,24.0053681 L31.6196833,24.8402681 C32.2046833,25.1438681 32.1978009,25.3025681 32.1909186,25.4129681 C32.1909186,25.7234681 31.6885068,25.8407681 31.2618009,25.8338681 C30.4152715,25.8338681 29.2452715,25.2266681 27.9238597,23.8604681 L27.8550362,27.5657681 C28.9163443,28.1201262 30.0997547,28.3977543 31.2962127,28.3730681 C33.1888597,28.3730681 35.2053891,27.5450681 35.749095,25.7855681 C36.6221851,27.2240523 38.1114963,28.1750776 39.7808911,28.360141 C41.4502858,28.5452044 43.1108629,27.9433648 44.2763303,26.7308681 L44.2763303,26.6963681 Z" id="Shape" fill="#AE9A64"></path>
            <path d="M34.4965068,18.8303681 C33.8979137,18.6417423 33.2724396,18.5531588 32.6451538,18.5681681 C31.8111687,18.5566406 30.986878,18.7484421 30.2432127,19.1270681 C29.4429554,19.5340552 28.8907654,20.3065286 28.7635068,21.1970681 C28.6878009,22.3976681 29.3485068,22.9703681 30.2845068,23.4464681 C30.9245656,23.7638681 31.537095,24.0743681 31.9156244,24.2813681 C32.4386833,24.5435681 32.8791538,24.8747681 32.8309774,25.4819681 C32.7828009,26.0891681 32.2253303,26.5100681 31.2755656,26.5100681 C30.2520558,26.4367884 29.282672,26.0213142 28.5226244,25.3301681 L28.5226244,27.2000681 C29.4047292,27.5797506 30.3570251,27.7678763 31.3168597,27.7520681 C33.0718597,27.7520681 35.2329186,26.9447681 35.2742127,24.8954681 C35.2737139,23.834035 34.6023634,22.8895185 33.6018009,22.5425681 C32.9617421,22.2458681 32.3010362,21.9284681 31.9913303,21.7697681 C31.6816244,21.6110681 31.0966244,21.4040681 31.1516833,20.7416681 C31.2067421,20.0792681 31.9225068,19.8101681 32.7002127,19.8101681 C33.3194385,19.8144849 33.9285101,19.9683267 34.4758597,20.2586681" id="Path" fill="#FFFFFF"></path>
            <path d="M14.8886833,23.6879681 L16.7193891,18.4025681 L17.8068009,23.5913681 M18.8873303,15.4700681 L14.8818009,16.0496681 C14.9286422,17.0239581 14.7618437,17.9966964 14.3931538,18.8993681 C13.5535068,21.3626681 12.1908009,25.3301681 11.1171538,27.6623681 L13.6429774,27.6623681 C13.793335,26.8143686 14.0237841,25.9826249 14.3312127,25.1783681 L18.0752127,25.0817681 C18.2783576,25.9327002 18.4345943,26.7942053 18.5432127,27.6623681 L21.8811538,27.6623681 C21.3557775,26.2238819 20.930349,24.7506609 20.6079186,23.2532681 L18.8873303,15.4700681 Z" id="Shape" fill="#FFFFFF"></path>
            <path d="M28.5226244,18.8510681 L28.4400362,20.6243681 C27.7147243,20.5356998 26.9896007,20.7907815 26.4785656,21.3143681 C25.8246307,22.1083513 25.4820411,23.114222 25.5150362,24.1433681 C25.4361256,25.3173368 25.4361256,26.4952994 25.5150362,27.6692681 L22.6726244,27.6692681 C22.8411144,26.5097585 22.9467988,25.3419459 22.9892127,24.1709681 L23.0580362,22.7288681 C23.1435123,21.6172846 23.1065837,20.4996434 22.9479186,19.3961681 L25.4462127,19.2374681 C25.5786931,19.7647142 25.6274679,20.309598 25.5907421,20.8520681 C26.6850362,19.2029681 27.7518009,18.8303681 28.5501538,18.8717681" id="Path" fill="#FFFFFF"></path>
            <path d="M64.3108597,16.0427681 L61.723095,15.6287681 C61.9549487,16.6542859 62.12047,17.6937511 62.2186244,18.7406681 L62.8242715,24.3503681 C62.961623,25.4443765 63.0305812,26.5459274 63.0307421,27.6485681 L65.8249774,27.6485681 C65.592248,26.5601606 65.4244795,25.4588049 65.3225656,24.3503681" id="Path" fill="#FFFFFF"></path>
            <path d="M52.7691538,27.6485681 C52.6079449,26.5561072 52.5159957,25.4544968 52.4938597,24.3503681 L52.3562127,21.3764681 C52.2942715,19.8032681 51.3926833,18.8648681 49.8716833,18.8648681 C48.8141321,18.860776 47.8216615,19.376328 47.215095,20.2448681 C47.1600795,19.7955642 47.0562271,19.3536382 46.9053891,18.9269681 L44.6273303,18.8303681 C44.8063254,19.9466503 44.9075117,21.0740813 44.9301538,22.2044681 L44.9301538,24.3848681 C44.9772304,25.4846164 44.9542425,26.586256 44.8613303,27.6830681 L47.7243891,27.6830681 C47.570029,26.5898236 47.4781145,25.4886282 47.449095,24.3848681 L47.3802715,21.8663681 C47.3558432,21.4944955 47.4824747,21.1285267 47.7313605,20.8517112 C47.9802462,20.5748956 48.3302244,20.4107696 48.7016833,20.3966681 C49.5000362,20.3966681 49.885448,20.9141681 49.9198597,21.7145681 L50.0162127,24.3848681 C50.0820894,25.4832762 50.0820894,26.58466 50.0162127,27.6830681" id="Path" fill="#FFFFFF"></path>
            <path d="M57.4835656,26.5100681 C57.084525,26.5546892 56.6859426,26.4224039 56.3922811,26.1478822 C56.0986195,25.8733605 55.9391559,25.4839715 55.9556833,25.0817681 C55.9212715,24.1502681 56.5613303,23.3222681 58.4677421,23.0117681 L58.5778597,24.5435681 C58.6191538,25.0679681 58.6329186,25.4405681 58.7017421,25.9235681 C58.3928434,26.27516 57.9508182,26.4804652 57.4835656,26.4893681 M61.6129774,27.6554681 C61.2578251,26.6472808 61.0559782,25.5912637 61.0142127,24.5228681 L60.8696833,22.7150681 C60.7045068,20.6036681 59.8235656,19.1546681 56.3273303,19.1546681 C55.5864327,19.1639832 54.8484463,19.2495317 54.1249774,19.4099681 L54.2488597,21.0314681 C54.9391432,20.5576187 55.7524418,20.2962162 56.5888597,20.2793681 C57.0783675,20.2233817 57.567011,20.3912696 57.9193714,20.7365048 C58.2717318,21.08174 58.4503778,21.5676479 58.4058009,22.0595681 C57.4766188,22.137041 56.5669896,22.3702792 55.7148009,22.7495681 C54.6480362,23.2325681 53.5537421,24.0881681 53.650095,25.5578681 C53.767095,27.1793681 54.9921538,27.8831681 56.5269186,27.8831681 C57.4380608,27.8734625 58.3066801,27.4952663 58.9357421,26.8343681 C59.0094965,27.1193402 59.1157251,27.3948536 59.2523303,27.6554681 L61.6129774,27.6554681 Z" id="Shape" fill="#FFFFFF"></path>
            <path d="M40.4979186,22.4252681 L38.4332127,23.2118681 C38.3752717,22.8351174 38.3453657,22.4545673 38.3437421,22.0733681 C38.3437421,19.9481681 39.4793303,19.6307681 39.8509774,19.5893681 C40.4966125,19.5261844 41.0805011,19.9757848 41.1861538,20.6174681 C41.4132715,21.4523681 41.3582127,22.1009681 40.4979186,22.4252681 M42.280448,19.0994681 C41.6269107,18.6638988 40.8557795,18.4399141 40.0712127,18.4577681 C38.2267421,18.4577681 35.749095,19.7756681 35.8179186,23.2118681 C35.8867421,26.6480681 38.5226833,27.7313681 40.3740362,27.7313681 C41.6777841,27.7948566 42.9410522,27.2679896 43.8152127,26.2961681 L43.2439774,25.6061681 C42.6314946,26.1460193 41.8433855,26.4429315 41.0278597,26.4410681 C39.8578597,26.4410681 39.0870362,25.5371681 38.6947421,24.3227681 L43.8427421,22.3838681 C43.6638009,20.6588681 43.0925656,19.6652681 42.2873303,19.0994681 L42.280448,19.0994681 Z" id="Shape" fill="#FFFFFF"></path>
        </g>
    </g>
</svg>