<?xml version="1.0" encoding="UTF-8"?>
<svg width="103px" height="138px" viewBox="0 0 103 138" version="1.1" xmlns="http://www.w3.org/2000/svg" xmlns:xlink="http://www.w3.org/1999/xlink">
    <title>soccer-tema-southhampton-color</title>
    <g id="soccer-tema-southhampton-color" stroke="none" stroke-width="1" fill="none" fill-rule="evenodd">
        <rect id="Rectangle" fill="#FFFFFF" x="0" y="0" width="103.235294" height="138"></rect>
        <g id="southampton-fc" transform="translate(13.076471, 24.150000)">
            <path d="M67.4323485,64.7301338 C60.4590938,73.0461574 50.1881408,77.8681505 39.3478403,77.9152106 C28.5075399,77.9622707 18.195269,73.2296339 11.1503542,64.9744662 L3.13212196,74.6334386 C12.4864298,84.7110121 25.6125851,90.4217802 39.3481475,90.39 C53.08371,90.3579537 66.1832903,84.5862526 75.4908509,74.46532 L67.436823,64.7301338 L67.4323485,64.7301338 Z" id="Path" stroke="#FFFFFF" stroke-width="0.5280795" fill="#2A2522"></path>
            <path d="M61.0875643,27.7283567 L61.0875643,70.629975 C61.0869595,71.8428016 60.336679,72.9284494 59.2038167,73.3557374 L39.3237912,81.0802255 L19.4348168,73.3557374 C18.3048416,72.9247492 17.5561466,71.8413957 17.5510691,70.629975 L17.5510691,27.7283567 L61.0875643,27.7283567 Z" id="Path" stroke="#FFFFFF" stroke-width="0.5280795" fill="#2A2522"></path>
            <polygon id="Path" fill="#FFFFFF" points="18.5869066 60.8477156 18.5869066 34.408268 60.0427779 34.408268 60.0494896 60.8477156 18.5869066 60.8477156"></polygon>
            <path d="M60.0494896,58.3662855 C59.6848212,58.9513381 58.7899292,59.363789 57.7518545,59.363789 C56.7137798,59.363789 55.7987527,58.9513381 55.4430331,58.3595607 C55.0783646,58.9513381 54.1834727,59.363789 53.1342118,59.363789 C52.0849509,59.363789 51.2012451,58.9513381 50.8321022,58.3662855 C50.4629592,58.9513381 49.5703045,59.363789 48.5299925,59.363789 C47.4896806,59.363789 46.5880769,58.9513381 46.2234084,58.3595607 L46.2234084,58.3595607 C45.8632144,58.9513381 44.9705596,59.363789 43.9257732,59.363789 C42.8809868,59.363789 41.9883321,58.9513381 41.6281381,58.3662855 C41.2589951,58.9513381 40.3551542,59.363789 39.3193167,59.363789 C38.2834793,59.363789 37.3796383,58.9513381 37.0127326,58.3595607 L37.0127326,58.3595607 C36.6413525,58.9513381 35.7509349,59.363789 34.7083858,59.363789 C33.6658366,59.363789 32.7642329,58.9513381 32.3973272,58.3662855 C32.0348959,58.9513381 31.1355295,59.363789 30.0907431,59.363789 C29.0459567,59.363789 28.1555392,58.9513381 27.7908707,58.3595607 L27.7908707,58.3595607 C27.4306767,58.9513381 26.5335475,59.363789 25.49771,59.363789 C24.4618725,59.363789 23.5557944,58.9513381 23.1844142,58.3662855 L23.1844142,58.3819765 C22.8197457,58.9715123 21.9270909,59.363789 20.8934907,59.363789 C19.8598904,59.363789 18.9448634,58.9513381 18.5869066,58.3595607 L18.5869066,58.3080043 L18.5980927,69.9956076 C18.5998188,71.1468652 19.3124875,72.1768891 20.3878767,72.582392 L39.3305029,79.9504687 L58.2574684,72.582392 C59.3332722,72.1774219 60.0461697,71.1470672 60.0472524,69.9956076 L60.0472524,58.3662855 L60.0494896,58.3662855 Z" id="Path" fill="#D31216"></path>
            <path d="M60.0494896,57.1468654 C59.6848212,57.7274349 58.7899292,58.1443689 57.7518545,58.1443689 C56.7137798,58.1443689 55.7987527,57.7229517 55.4430331,57.1468654 C55.0783646,57.7229517 54.1834727,58.1443689 53.1342118,58.1443689 C52.0849509,58.1443689 51.2012451,57.7274349 50.8321022,57.1468654 C50.4629592,57.7274349 49.5703045,58.1443689 48.5299925,58.1443689 C47.4896806,58.1443689 46.5880769,57.7229517 46.2234084,57.1468654 L46.2234084,57.1468654 C45.8632144,57.7229517 44.9705596,58.1443689 43.9257732,58.1443689 C42.8809868,58.1443689 41.9883321,57.7274349 41.6281381,57.1468654 C41.2589951,57.7274349 40.3551542,58.1443689 39.3193167,58.1443689 C38.2834793,58.1443689 37.3796383,57.7229517 37.0127326,57.1468654 L37.0127326,57.1468654 C36.6413525,57.7229517 35.7509349,58.1443689 34.7083858,58.1443689 C33.6658366,58.1443689 32.7642329,57.7274349 32.3973272,57.1468654 C32.0348959,57.7274349 31.1355295,58.1443689 30.0907431,58.1443689 C29.0459567,58.1443689 28.1555392,57.7229517 27.7908707,57.1468654 L27.7908707,57.1468654 C27.4306767,57.7229517 26.5335475,58.1443689 25.49771,58.1443689 C24.4618725,58.1443689 23.5557944,57.7274349 23.1844142,57.1468654 L23.1844142,57.164798 C22.8197457,57.7498507 21.9270909,58.1443689 20.8934907,58.1443689 C19.8598904,58.1443689 18.9448634,57.7229517 18.5869066,57.1468654 L18.5869066,55.6988041 C18.9448634,56.2838567 19.8352809,56.7030324 20.8934907,56.7030324 C21.9517005,56.7030324 22.8197457,56.2905815 23.1844142,55.7055288 C23.5557944,56.2905815 24.4439747,56.7030324 25.49771,56.7030324 C26.5514453,56.7030324 27.4306767,56.2838567 27.7908707,55.6988041 L27.7908707,55.6988041 C28.1555392,56.2838567 29.0504312,56.7030324 30.0907431,56.7030324 C31.131055,56.7030324 32.0348959,56.2905815 32.3973272,55.7055288 C32.7642329,56.2905815 33.6591249,56.7030324 34.7083858,56.7030324 C35.7576466,56.7030324 36.6413525,56.2838567 37.0127326,55.6988041 L37.0127326,55.6988041 C37.3796383,56.2838567 38.2678186,56.7030324 39.3193167,56.7030324 C40.3708148,56.7030324 41.2589951,56.2905815 41.6281381,55.7055288 C41.9883321,56.2905815 42.8765124,56.7030324 43.9257732,56.7030324 C44.9750341,56.7030324 45.8632144,56.2838567 46.2234084,55.6988041 L46.2234084,55.6988041 C46.5880769,56.2838567 47.4762572,56.7030324 48.5299925,56.7030324 C49.5837278,56.7030324 50.4629592,56.2905815 50.8321022,55.7055288 C51.2012451,56.2905815 52.0849509,56.7030324 53.1342118,56.7030324 C54.1834727,56.7030324 55.0783646,56.2838567 55.4430331,55.6988041 C55.7987527,56.2838567 56.7003564,56.7030324 57.7518545,56.7030324 C58.8033525,56.7030324 59.6848212,56.2905815 60.0494896,55.7055288 L60.0494896,57.1468654 L60.0494896,57.1468654 Z" id="Path" fill="#3DAAE1"></path>
            <path d="M60.0494896,54.5399067 C59.6848212,55.1204762 58.7899292,55.5284439 57.7518545,55.5284439 C56.7137798,55.5284439 55.7987527,55.115993 55.4430331,54.5399067 C55.0783646,55.115993 54.1834727,55.5284439 53.1342118,55.5284439 C52.0849509,55.5284439 51.2012451,55.1204762 50.8321022,54.5399067 C50.4629592,55.1204762 49.5703045,55.5284439 48.5299925,55.5284439 C47.4896806,55.5284439 46.5880769,55.115993 46.2234084,54.5399067 L46.2234084,54.5399067 C45.8632144,55.115993 44.9705596,55.5284439 43.9257732,55.5284439 C42.8809868,55.5284439 41.9883321,55.1204762 41.6281381,54.5399067 C41.2589951,55.1204762 40.3551542,55.5284439 39.3193167,55.5284439 C38.2834793,55.5284439 37.3796383,55.115993 37.0127326,54.5399067 L37.0127326,54.5399067 C36.6413525,55.115993 35.7509349,55.5284439 34.7083858,55.5284439 C33.6658366,55.5284439 32.7642329,55.1204762 32.3973272,54.5399067 C32.0348959,55.1204762 31.1355295,55.5284439 30.0907431,55.5284439 C29.0459567,55.5284439 28.1555392,55.115993 27.7908707,54.5399067 L27.7908707,54.5399067 C27.4306767,55.115993 26.5335475,55.5284439 25.49771,55.5284439 C24.4618725,55.5284439 23.5557944,55.1204762 23.1844142,54.5399067 L23.1844142,54.5555978 C22.8197457,55.1406504 21.9270909,55.5284439 20.8934907,55.5284439 C19.8598904,55.5284439 18.9448634,55.115993 18.5869066,54.5399067 L18.5869066,53.094087 C18.9448634,53.6746565 19.8352809,54.0960737 20.8934907,54.0960737 C21.9517005,54.0960737 22.8197457,53.688106 23.1844142,53.0985702 C23.5557944,53.688106 24.4439747,54.0960737 25.49771,54.0960737 C26.5514453,54.0960737 27.4306767,53.6746565 27.7908707,53.094087 L27.7908707,53.094087 C28.1555392,53.6746565 29.0504312,54.0960737 30.0907431,54.0960737 C31.131055,54.0960737 32.0348959,53.688106 32.3973272,53.0985702 C32.7642329,53.688106 33.6591249,54.0960737 34.7083858,54.0960737 C35.7576466,54.0960737 36.6413525,53.6746565 37.0127326,53.094087 L37.0127326,53.094087 C37.3796383,53.6746565 38.2678186,54.0960737 39.3193167,54.0960737 C40.3708148,54.0960737 41.2589951,53.688106 41.6281381,53.0985702 C41.9883321,53.688106 42.8765124,54.0960737 43.9257732,54.0960737 C44.9750341,54.0960737 45.8632144,53.6746565 46.2234084,53.094087 L46.2234084,53.094087 C46.5880769,53.6746565 47.4762572,54.0960737 48.5299925,54.0960737 C49.5837278,54.0960737 50.4629592,53.688106 50.8321022,53.0985702 C51.2012451,53.688106 52.0849509,54.0960737 53.1342118,54.0960737 C54.1834727,54.0960737 55.0783646,53.6746565 55.4430331,53.094087 C55.7987527,53.6746565 56.7003564,54.0960737 57.7518545,54.0960737 C58.8033525,54.0960737 59.6848212,53.688106 60.0494896,53.0985702 L60.0494896,54.5421483 L60.0494896,54.5399067 Z" id="Path" fill="#3DAAE1"></path>
            <path d="M42.357475,71.6767933 C42.357475,71.6767933 44.3911171,74.8598383 43.3217211,73.9632059 C42.5431651,73.2907316 41.4737692,71.737316 40.7019249,70.4596148 L36.529491,72.084761 C36.529491,72.084761 34.1356549,74.9988163 34.6658784,73.7143904 C35.0484447,72.7818927 36.2319394,71.2688255 37.2028972,70.1278608 L34.3459545,66.671343 C34.3459545,66.671343 30.8335035,65.2994954 32.2250605,65.4026081 C33.1378503,65.4720971 35.0394958,66.1580209 36.4086805,66.7116914 L38.7890932,62.9166948 C38.7890932,62.9166948 39.0128162,59.1396309 39.3439263,60.498029 C39.5676493,61.4305266 39.5027696,63.4479495 39.3909081,64.9408425 L43.7535065,66.0033518 C43.7535065,66.0033518 47.4024286,65.0461968 46.2144595,65.7791937 C45.3799727,66.3014821 43.5588675,66.8484279 42.1069053,67.1981145 L42.3597123,71.6812764 L42.357475,71.6767933 Z" id="Path" stroke="#2A2522" stroke-width="0.5" fill="#2A2522"></path>
            <path d="M39.0351885,70.8339588 C39.0518643,70.8899374 39.100298,70.9305244 39.1582362,70.9370716 C39.2074552,70.9370716 39.2454881,70.8944815 39.2768094,70.8339588 C39.3571699,70.542338 39.3822125,70.2381999 39.350638,69.9373264 C39.350638,69.9373264 39.3774847,68.1440617 40.7063993,70.0695797 C44.42915,75.4493741 39.126915,75.4785146 39.126915,75.4785146 L39.176134,75.4785146 C39.176134,75.4785146 33.873899,75.4471325 37.610073,70.0695797 C38.952411,68.1552696 38.952411,69.9373264 38.952411,69.9373264 C38.952411,70.4663396 38.981495,70.7196382 39.0419002,70.8339588 L39.0419002,70.8339588 L39.0351885,70.8339588 Z" id="Path" fill="#FFFFFF"></path>
            <path d="M39.0351885,70.8339588 L39.1582362,70.9370716 L39.2768094,70.8339588 C39.3482871,70.5408248 39.3732024,70.2382341 39.350638,69.9373264 C39.350638,69.9373264 39.3774847,68.1440617 40.7063993,70.0695797 C44.42915,75.4493741 39.126915,75.4785146 39.126915,75.4785146 L39.176134,75.4785146 C39.176134,75.4785146 33.873899,75.4471325 37.610073,70.0695797 C38.952411,68.1552696 38.952411,69.9373264 38.952411,69.9373264 C38.952411,70.4663396 38.981495,70.7196382 39.0419002,70.8339588 L39.0419002,70.8339588 L39.0351885,70.8339588 Z" id="Path" stroke="#2A2522" stroke-width="0.5"></path>
            <path d="M36.305768,68.6775579 C36.2587861,68.7246311 36.2364138,68.7739459 36.2565489,68.816536 C36.2741171,68.8724635 36.3279861,68.9087563 36.3863082,68.9039576 L36.3863082,68.9039576 C36.6857325,68.8954575 36.9809176,68.8308314 37.2565907,68.7134232 C37.2565907,68.7134232 38.9591227,68.1888933 37.5541423,70.0337144 C33.5942452,75.2453902 31.9386951,70.2130409 31.9386951,70.2130409 L31.9386951,70.2489062 C31.9386951,70.2489062 30.3390756,65.1851748 36.5921334,67.0748275 C38.8293634,67.7473018 37.1290686,68.3233881 37.1290686,68.3233881 C36.6167429,68.4735741 36.3974944,68.5901363 36.3102424,68.6775579 L36.305768,68.6775579 Z" id="Path" fill="#FFFFFF"></path>
            <path d="M36.305768,68.6775579 C36.2749267,68.7174052 36.2576731,68.7661234 36.2565489,68.816536 L36.3863082,68.9039576 L36.3863082,68.9039576 C36.683517,68.879163 36.9761479,68.8150961 37.2565907,68.7134232 C37.2565907,68.7134232 38.9591227,68.1888933 37.5541423,70.0337144 C33.5942452,75.2453902 31.9386951,70.2130409 31.9386951,70.2130409 L31.9386951,70.2489062 C31.9386951,70.2489062 30.3390756,65.1851748 36.5921334,67.0748275 C38.8293634,67.7473018 37.1290686,68.3233881 37.1290686,68.3233881 C36.6167429,68.4735741 36.3974944,68.5901363 36.3102424,68.6775579 L36.305768,68.6775579 Z" id="Path" stroke="#2A2522" stroke-width="0.5"></path>
            <path d="M37.4982115,65.398125 C37.453154,65.3617635 37.3889002,65.3617635 37.3438427,65.398125 C37.3012474,65.4314236 37.2842172,65.4880021 37.3013353,65.5393446 L37.3013353,65.5393446 C37.398622,65.82856 37.55739,66.093178 37.7666791,66.3149316 C37.7666791,66.3149316 38.7846188,67.7697176 36.5876589,67.003097 C30.4240904,64.8466961 34.6904879,61.7062411 34.6904879,61.7062411 L34.6569295,61.7219322 C34.6569295,61.7219322 38.9546482,58.6285504 39.1067799,65.17845 C39.1582362,67.5119358 38.0843658,66.0750824 38.0843658,66.0750824 C37.9340928,65.8151475 37.7350514,65.5867943 37.4982115,65.4026081 L37.4982115,65.398125 Z" id="Path" fill="#FFFFFF"></path>
            <path d="M37.4982115,65.398125 L37.3505544,65.398125 L37.308047,65.5393446 L37.308047,65.5393446 C37.4234253,65.8198123 37.5802987,66.0812728 37.7733908,66.3149316 C37.7733908,66.3149316 38.7913305,67.7697176 36.5943706,67.003097 C30.4308021,64.8466961 34.6971996,61.7062411 34.6971996,61.7062411 L34.6636412,61.7219322 C34.6636412,61.7219322 38.9613599,58.6285504 39.1134916,65.17845 C39.1649479,67.5119358 38.0910775,66.0750824 38.0910775,66.0750824 C37.9408045,65.8151475 37.7417631,65.5867943 37.5049232,65.4026081 L37.4982115,65.398125 Z" id="Path" stroke="#2A2522" stroke-width="0.5"></path>
            <path d="M40.995002,65.5281367 C41.0099929,65.474463 40.9945504,65.4168709 40.9547318,65.3779507 C40.9024854,65.3576941 40.8435587,65.3652851 40.7981257,65.398125 C40.6952132,65.4474398 40.5095231,65.6222831 40.2052598,66.0705993 C40.2052598,66.0705993 39.1403383,67.4984863 39.1895574,65.1739669 C39.3394518,58.6263088 43.6371706,61.7196906 43.6371706,61.7196906 L43.6080866,61.6950332 C43.6080866,61.6950332 47.8767214,64.8332466 41.6974922,66.9986138 C39.5094813,67.7629929 40.5363698,66.3082068 40.5363698,66.3082068 C40.8607682,65.884548 40.9838158,65.6626315 40.995002,65.5348614 L40.995002,65.5281367 Z" id="Path" fill="#FFFFFF"></path>
            <path d="M40.995002,65.5281367 L40.9547318,65.3779507 L40.7981257,65.398125 C40.6952132,65.4474398 40.5095231,65.6222831 40.2052598,66.0705993 C40.2052598,66.0705993 39.1403383,67.4984863 39.1895574,65.1739669 C39.3394518,58.6263088 43.6371706,61.7196906 43.6371706,61.7196906 L43.6080866,61.6950332 C43.6080866,61.6950332 47.8767214,64.8332466 41.6974922,66.9986138 C39.5094813,67.7629929 40.5363698,66.3082068 40.5363698,66.3082068 C40.7221744,66.0715138 40.8763538,65.8115366 40.995002,65.5348614 L40.995002,65.5281367 Z" id="Path" stroke="#2A2522" stroke-width="0.5"></path>
            <path d="M41.9458247,68.9039576 C42.0029027,68.9061147 42.0546761,68.8706219 42.0733468,68.816536 C42.0957191,68.7739459 42.0733468,68.7246311 42.0196533,68.6775579 C41.7746333,68.5016029 41.494551,68.380788 41.1985899,68.3233881 C41.1985899,68.3233881 39.5094813,67.7428187 41.7310506,67.0748275 C47.9952946,65.1851748 46.3934379,70.2489062 46.3934379,70.2489062 L46.3934379,70.2130409 C46.3934379,70.2130409 44.731176,75.2453902 40.7757534,70.0337144 C39.3595869,68.1888933 41.0643561,68.7134232 41.0643561,68.7134232 C41.3416623,68.8306225 41.6382722,68.8952284 41.939113,68.9039576 L41.9458247,68.9039576 Z" id="Path" fill="#FFFFFF"></path>
            <path d="M41.9458247,68.9039576 L42.0733468,68.816536 C42.0696281,68.7658937 42.0509352,68.7175098 42.0196533,68.6775579 C41.7746333,68.5016029 41.494551,68.380788 41.1985899,68.3233881 C41.1985899,68.3233881 39.5094813,67.7428187 41.7310506,67.0748275 C47.9952946,65.1851748 46.3934379,70.2489062 46.3934379,70.2489062 L46.3934379,70.2130409 C46.3934379,70.2130409 44.731176,75.2453902 40.7757534,70.0337144 C39.3595869,68.1888933 41.0643561,68.7134232 41.0643561,68.7134232 C41.3462662,68.815355 41.6404099,68.8794237 41.939113,68.9039576 L41.9458247,68.9039576 Z" id="Path" stroke="#2A2522" stroke-width="0.5"></path>
            <path d="M35.5205002,62.8718632 C35.2886348,63.0306733 35.0384953,63.1608784 34.7755027,63.2596567 C34.5509021,63.3304567 34.3599179,63.4811492 34.2385675,63.6833155 C34.2385675,63.6833155 34.0416912,64.1316317 33.9164064,63.9523052 C33.7911215,63.7729788 34.0506402,63.4300169 34.0506402,63.4300169 C34.1693369,63.2219464 34.3580952,63.0630175 34.5831009,62.9817007 C34.8460226,62.8911252 35.0957885,62.7659994 35.3258612,62.6095982 C35.5460768,62.4348519 35.7457291,62.2355634 35.9209644,62.0155793 C36.0580109,61.8198745 36.2659339,61.6855475 36.500407,61.6412353 C36.500407,61.6412353 36.9031084,61.4955325 37.0440539,61.6726174 C37.1849993,61.8497023 36.6883343,61.8967755 36.6883343,61.8967755 C36.4581638,61.9528596 36.2538466,62.0856474 36.1088917,62.2733611 C35.9390407,62.4945487 35.7412585,62.6927155 35.5205002,62.8628969 L35.5205002,62.8718632 Z" id="Path" fill="#2A2522"></path>
            <path d="M42.7691253,62.8673801 C42.5511415,62.6961778 42.3563539,62.4972437 42.1896828,62.2756027 C42.0449405,62.0893822 41.8440719,61.9549472 41.6169519,61.8922923 C41.6169519,61.8922923 41.1202869,61.8586686 41.2522834,61.6681342 C41.38428,61.4775998 41.7981675,61.6367521 41.7981675,61.6367521 C42.0317341,61.6773278 42.2381873,61.8127973 42.3686612,62.0110961 C42.5470292,62.2310297 42.7471632,62.432304 42.9660016,62.6118398 C43.2001088,62.7614158 43.4499479,62.884699 43.7109992,62.9794591 C43.9318701,63.0542966 44.1184885,63.2062686 44.2367482,63.4076011 C44.2367482,63.4076011 44.5052158,63.7572877 44.3799309,63.9433389 C44.254646,64.1293901 44.060007,63.6743492 44.060007,63.6743492 C43.9363486,63.4696185 43.7421705,63.3173229 43.5141229,63.2462072 C43.2528786,63.1444543 43.0031479,63.0152134 42.7691253,62.8606553 L42.7691253,62.8673801 Z" id="Path" fill="#2A2522"></path>
            <path d="M45.0242532,69.7781742 C45.1230118,69.5168173 45.2489928,69.2666193 45.4001078,69.0317277 C45.547047,68.8456818 45.6124317,68.6078981 45.5813234,68.3727029 C45.5813234,68.3727029 45.4739364,67.8930046 45.6864732,67.9647352 C45.8990101,68.0364658 45.8900612,68.4668493 45.8900612,68.4668493 C45.9125642,68.7049115 45.8499258,68.9432416 45.71332,69.1393236 C45.551519,69.3708029 45.4206485,69.6225028 45.324042,69.8880117 C45.2533718,70.1560491 45.2135879,70.4313173 45.2054688,70.7084303 C45.1980022,70.9465341 45.1113895,71.1753207 44.9593735,71.3584888 C44.9593735,71.3584888 44.7065665,71.7171417 44.4985041,71.6498943 C44.2904417,71.5826469 44.6551102,71.2576176 44.6551102,71.2576176 C44.8010748,71.0760722 44.8800907,70.8496473 44.8788332,70.6165255 C44.8922269,70.3344054 44.9372546,70.0546904 45.013067,69.7826574 L45.0242532,69.7781742 Z" id="Path" fill="#2A2522"></path>
            <path d="M39.1582362,74.0416612 C39.4371047,74.0528067 39.7135773,74.0979715 39.9815368,74.1761561 C40.2073882,74.246927 40.4510812,74.2342017 40.6683664,74.1402908 C40.6683664,74.1402908 41.0822539,73.882509 41.0778155,74.1133918 C41.073305,74.3442746 40.6683664,74.46532 40.6683664,74.46532 C40.4506294,74.558153 40.206803,74.5692938 39.9815368,74.4967022 C39.4459503,74.3113894 38.8638104,74.3113894 38.3282239,74.4967022 C38.1020892,74.5684522 37.8578626,74.5573294 37.639157,74.46532 C37.639157,74.46532 37.220795,74.326342 37.220795,74.1133918 C37.220795,73.9004416 37.639157,74.1402908 37.639157,74.1402908 C37.8574146,74.2333895 38.1015133,74.2460947 38.3282239,74.1761561 C38.5984308,74.097781 38.8771472,74.0526179 39.1582362,74.0416612 L39.1582362,74.0416612 Z" id="Path" fill="#2A2522"></path>
            <path d="M33.3011681,69.7781742 C33.3781312,70.0498764 33.4224437,70.3298135 33.4331647,70.6120423 C33.4342563,70.848282 33.5209101,71.0760911 33.6770227,71.2531345 C33.6770227,71.2531345 34.0506402,71.5759221 33.8381033,71.6454112 C33.6255665,71.7149002 33.3705222,71.3540056 33.3705222,71.3540056 C33.2166637,71.1720887 33.1304874,70.9423663 33.1266642,70.7039471 C33.115364,70.4266686 33.0733445,70.1515069 33.0013793,69.8835285 C32.905152,69.6186984 32.7758567,69.3671366 32.6165757,69.1348405 C32.4807633,68.9383188 32.4174812,68.7005496 32.4375973,68.4623662 C32.4375973,68.4623662 32.4375973,68.0342242 32.6456597,67.960252 C32.8537221,67.8862799 32.7396234,68.3682198 32.7396234,68.3682198 C32.712062,68.603858 32.778834,68.8408359 32.9253135,69.0272446 C33.0793561,69.2604452 33.2055065,69.5109796 33.3011681,69.773691 L33.3011681,69.7781742 Z" id="Path" fill="#2A2522"></path>
            <path d="M39.126915,66.6601267 C38.4679973,66.6638441 37.9364898,67.2013924 37.9389457,67.8615973 C37.9414186,68.5218022 38.4769245,69.055352 39.1358513,69.0541247 C39.7947782,69.0528932 40.3283074,68.5173488 40.3283074,67.8571393 C40.3277156,67.5386899 40.200736,67.2335522 39.9753663,67.0090056 C39.7499966,66.7844591 39.4447446,66.658944 39.126915,66.6601267 L39.126915,66.6601267 Z" id="Path" fill="#FDC300"></path>
            <path d="M39.126915,66.6601267 C38.4679973,66.6638441 37.9364898,67.2013924 37.9389457,67.8615973 C37.9414186,68.5218022 38.4769245,69.055352 39.1358513,69.0541247 C39.7947782,69.0528932 40.3283074,68.5173488 40.3283074,67.8571393 C40.3277156,67.5386899 40.200736,67.2335522 39.9753663,67.0090056 C39.7499966,66.7844591 39.4447446,66.658944 39.126915,66.6601267 L39.126915,66.6601267 Z" id="Path" stroke="#FFCC00" stroke-width="0.5"></path>
            <path d="M41.3887545,44.9571481 L41.5475978,48.1895078 L44.2747811,46.4141757 L45.1316402,47.8174054 L41.9167407,49.6801592 L41.9167407,50.3526335 C41.9167407,50.3526335 45.6596265,52.457478 41.0979146,52.3700563 L41.0979146,52.3947137 C39.5027696,53.7396623 37.9904021,52.4081632 37.9904021,52.4081632 C33.4286902,52.4888601 37.1671015,50.3907403 37.1671015,50.3907403 L37.1671015,49.718266 L34.321345,47.503584 L34.992514,46.0398317 L37.5362444,48.22089 L37.6839016,44.9930133 L41.38428,44.9526649 L41.3887545,44.9571481 Z" id="Path" fill="#2A2522"></path>
            <path d="M44.7871068,47.7277421 C47.4315126,50.7583596 49.371191,47.5685899 49.371191,47.5685899 C52.7113753,46.7571376 50.7269524,44.3877865 50.7269524,44.3877865 C54.2103194,42.0991323 50.120663,40.3058675 50.120663,40.3058675 C50.0938163,37.2662837 47.5120529,37.4926834 47.5120529,37.4926834 C44.8139535,35.1322986 42.2344274,37.7527068 42.2344274,37.7527068 C38.1917528,34.3903353 35.1222733,38.2727536 35.1222733,38.2727536 C35.1222733,38.2727536 32.5382727,36.4794888 31.3793876,39.2904313 C31.3793876,39.2904313 27.2651217,39.1761107 28.7998614,43.3252771 C28.7998614,43.3252771 25.6207576,46.5128053 29.7708192,48.0841535 C29.7708192,48.0841535 31.976728,52.1750388 35.0104118,48.2791711 C35.0104118,48.2791711 36.8740244,48.3912501 36.5764728,45.759634 C36.5764728,45.759634 38.9389876,46.7459297 41.1739804,45.6520382 C41.1739804,45.6520382 41.8876567,47.2637349 43.426871,46.3603777 C43.426871,46.3603777 43.1874874,47.3982297 44.6752453,47.6089383 L44.7826323,47.7165342 L44.7871068,47.7277421 Z" id="Path" fill="#13A538"></path>
            <path d="M44.7871068,47.7277421 C47.4315126,50.7583596 49.371191,47.5685899 49.371191,47.5685899 C52.7113753,46.7571376 50.7269524,44.3877865 50.7269524,44.3877865 C54.2103194,42.0991323 50.120663,40.3058675 50.120663,40.3058675 C50.120663,37.2662837 47.5120529,37.4926834 47.5120529,37.4926834 C44.8139535,35.1322986 42.2344274,37.7527068 42.2344274,37.7527068 C38.1917528,34.3903353 35.1222733,38.2727536 35.1222733,38.2727536 C35.1222733,38.2727536 32.5382727,36.4794888 31.3793876,39.2904313 C31.3793876,39.2904313 27.2651217,39.1761107 28.7998614,43.3252771 C28.7998614,43.3252771 25.6207576,46.5128053 29.7708192,48.0841535 C29.7708192,48.0841535 31.976728,52.1750388 35.0104118,48.2791711 C35.0104118,48.2791711 36.8740244,48.3912501 36.5764728,45.759634 C36.5764728,45.759634 38.9389876,46.7459297 41.1739804,45.6520382 C41.1739804,45.6520382 41.8876567,47.2637349 43.426871,46.3603777 C43.426871,46.3603777 43.1874874,47.3982297 44.6752453,47.6089383 L44.7826323,47.7165342 L44.7871068,47.7277421 Z" id="Path" stroke="#2A2522" stroke-width="1.32019875"></path>
            <path d="M9.4053148,73.8242279 L9.60219103,73.9901049 C8.93102204,75.2229744 8.82810946,76.0927078 9.30240222,76.498434 C9.64246117,76.7965642 10.0921444,76.6732773 10.5037947,76.20927 C10.6654882,76.043935 10.7677907,75.8294705 10.7946346,75.59956 C10.7946346,75.3417782 10.6022328,75.0548558 10.3919332,74.6177475 C9.98252013,73.786121 10.000418,73.1158883 10.7252805,72.277537 C11.450143,71.4391857 12.4009657,71.170196 13.0027806,71.6880012 C13.2724526,71.944968 13.4252673,72.3014189 13.4256171,72.6742968 L13.8931981,72.5330772 L14.0565159,72.6742968 L12.6112653,74.438421 L12.4367614,74.2680609 C13.0050178,73.0934725 13.1258282,72.389616 12.6985173,72.0264799 C12.374119,71.7350744 11.9490453,71.8359455 11.5799023,72.2708122 C11.1056096,72.8132748 11.3785516,73.1293378 11.7387457,73.8018121 C11.926673,74.1761561 12.0765674,74.4742863 11.9982643,74.9069115 C11.8855574,75.3932289 11.6489125,75.8419523 11.3114347,76.20927 C10.5216926,77.1059024 9.62008887,77.3793753 8.98247833,76.8257048 C8.6622458,76.5458523 8.49576694,76.1288457 8.53503234,75.7049143 L7.9645387,75.8954487 L7.79674645,75.7497459 L9.4053148,73.8354358 L9.4053148,73.8242279 Z" id="Path" fill="#FDC300"></path>
            <path d="M14.8328347,74.4294547 C15.5040037,74.117875 16.0387017,74.1290829 16.5308923,74.46532 C17.0230828,74.8015572 17.2311452,75.3081545 17.1595539,76.070292 C17.0512913,76.8644842 16.7433556,77.61808 16.2646619,78.2603166 C15.7389128,79.0157294 15.2265872,79.5043941 14.5755533,79.8092491 C13.8797747,80.1365199 13.2801971,80.1387615 12.8193277,79.8092491 C12.3584584,79.4797367 12.1481587,78.964173 12.2085639,78.1841029 C12.2926871,77.3999072 12.5932816,76.6547218 13.0766092,76.0321851 C13.5120192,75.3532209 14.1175836,74.8005832 14.8328347,74.4294547 L14.8328347,74.4294547 Z M13.0810836,79.419214 C13.5934093,79.7733838 14.3607792,79.1950559 15.4212262,77.6640561 C16.4816732,76.1330563 16.7635642,75.2184912 16.2534757,74.8531135 C15.7433873,74.4877358 14.9894408,75.0772716 13.9222821,76.6172378 C12.8551234,78.1572039 12.5642835,79.0628026 13.0810836,79.419214 L13.0810836,79.419214 Z" id="Shape" fill="#FDC300"></path>
            <path d="M20.1686282,77.4062743 L19.9449052,77.2829873 C19.7435545,77.1798746 19.6630142,77.2605715 19.4974592,77.5631849 L18.0208874,80.3270543 C17.4884267,81.3223162 17.4660544,81.911852 18.0387853,82.2122239 C18.278712,82.3366526 18.5639911,82.3366526 18.8039179,82.2122239 C19.1820098,81.9880658 19.4325795,81.5688901 19.7994852,80.8829664 L20.8688812,78.8879593 C21.1731444,78.3073898 21.2357869,77.9756358 20.8465089,77.7671688 C20.8465089,77.7671688 20.8218993,77.7671688 20.8174249,77.7514777 L21.0254873,77.3524763 L22.278336,78.0249506 L22.0657992,78.4149857 C21.674284,78.2760077 21.470696,78.4755084 21.1709072,79.04487 L20.0724273,81.1026413 C19.7547406,81.703385 19.5064081,82.1494596 19.1395024,82.4655225 C18.5913811,82.9272882 18.0544459,82.9878109 17.4727661,82.6605401 C16.5778741,82.1875665 16.4615381,81.3155915 17.0946742,80.1096209 L18.6898192,77.1283182 C18.8508997,76.8212216 18.8620859,76.7046594 18.6719213,76.6015467 L18.4481983,76.4782597 L18.6540235,76.0814999 L20.3878767,77.0050313 L20.1775771,77.4017911 L20.1686282,77.4062743 Z" id="Path" fill="#FDC300"></path>
            <path d="M24.9831471,79.558192 C24.8086431,79.4931862 24.7191539,79.558192 24.5938691,79.8742549 L22.9539795,84.0279045 C22.8242202,84.3439674 22.8242202,84.4605296 23.0278081,84.5457097 L23.2739034,84.6443392 L23.1038739,85.0635149 L21.2850059,84.3417258 L21.4527982,83.9135838 L21.6921818,84.0122134 C21.898007,84.0951519 21.9651239,84.0122134 22.0971204,83.6871842 L23.7481961,79.5402594 C23.8667693,79.226438 23.8667693,79.1188421 23.6967398,79.0493531 C23.3208852,78.8924424 22.7593405,79.4147308 22.2156936,80.5332797 L21.9651239,80.4436165 L22.9047604,78.2961819 L26.0614919,79.5514673 L25.273987,81.7526998 L25.050264,81.6675197 C25.4149325,80.4794818 25.3679506,79.7038948 24.992096,79.558192 L24.9831471,79.558192 Z" id="Path" fill="#FDC300"></path>
            <path d="M27.6991443,86.0273947 C27.9094439,86.0924005 27.9698491,85.9960126 28.0593383,85.6642586 L28.5873246,83.7051168 L27.2673589,83.350947 L26.7483215,85.303364 C26.6565951,85.6328764 26.665544,85.7516802 26.8780809,85.8032366 L27.1331251,85.8772088 L27.0078402,86.3120755 L25.1196181,85.8032366 L25.2359541,85.3549204 L25.4887611,85.4132015 C25.7124841,85.4782074 25.7639403,85.3907857 25.8511923,85.0545486 L26.9944168,80.7955447 C27.0928549,80.4615491 27.0861433,80.3472285 26.8668947,80.2799811 L26.6140877,80.2149752 L26.7371354,79.7823501 L28.6253575,80.3001553 L28.5090215,80.7305388 L28.260689,80.6610498 C28.0481521,80.5982856 27.9832725,80.6991567 27.8870716,81.0353939 L27.4172533,82.8017597 L28.737219,83.1559295 L29.2070373,81.3895637 C29.3032382,81.0622928 29.2942892,80.9412475 29.0795152,80.8762416 L28.8334199,80.8112358 L28.9430441,80.3763691 L30.8379779,80.900899 L30.7261164,81.3267994 L30.468835,81.2573104 C30.2562981,81.1990293 30.1958929,81.2999004 30.1019293,81.633896 L28.960942,85.8928998 C28.8692155,86.2268954 28.8781645,86.341216 29.0929385,86.3882892 L29.3390338,86.4667446 L29.2271723,86.8971281 L27.3210524,86.3882892 L27.4485745,85.939973 L27.6991443,86.009462 L27.6991443,86.0273947 Z" id="Path" fill="#FDC300"></path>
            <path d="M32.7038277,87.0383477 L32.9633464,87.0540388 C33.0752079,87.0540388 33.1177153,87.004724 33.1378503,86.8769539 C33.1424033,86.7963214 33.1424033,86.7154956 33.1378503,86.6348631 L33.0483611,85.6418428 L31.7418188,85.45355 L31.5561287,85.8884167 C31.4984909,86.0237447 31.4593585,86.1662523 31.4397928,86.3120755 C31.3793876,86.6976274 31.5180958,86.8433302 31.8872388,86.9240271 L31.8245963,87.3723433 L30.3748713,87.1481852 L30.4419882,86.699869 C30.7686238,86.6617621 30.9833979,86.3098339 31.2630516,85.6552923 L33.144562,81.1721303 L33.5226539,81.2304114 L34.1334177,86.8702291 C34.1602644,87.1392189 34.2296185,87.2445732 34.4175459,87.2781969 L34.3526662,87.7265131 L32.638948,87.4732144 L32.697116,87.0248982 L32.7038277,87.0383477 Z M31.9588301,84.9379863 L33.0013793,85.0993802 L32.7955541,82.949704 L31.9588301,84.9379863 Z" id="Shape" fill="#FDC300"></path>
            <path d="M36.5138303,86.3389745 C36.4869836,87.1347357 36.5876589,87.432866 37.0709006,87.4597649 L37.0597145,87.9080811 L35.5786682,87.8677327 L35.5786682,87.4082086 C36.0417748,87.3902759 36.1335013,87.0966288 36.1558736,86.3188002 L36.2476,82.5888095 C36.2476,82.2570555 36.2229905,82.1270438 36.0015047,82.1113527 L35.7307999,82.1113527 L35.7486977,81.6630365 L37.4131968,81.7101097 L38.1335848,85.4401005 L38.9747833,81.7437335 L40.6146729,81.7818403 L40.5990123,82.2301565 L40.3394936,82.2099823 C40.1157706,82.2099823 40.0777377,82.3198198 40.0732632,82.6582985 L39.9681134,87.0674883 C39.9681134,87.4149333 39.992723,87.5158045 40.2142087,87.5158045 L40.4826763,87.5158045 L40.4692529,87.9641207 L38.5474724,87.9215306 L38.5608958,87.4732144 L38.7846188,87.4732144 C39.0083418,87.4732144 39.0508491,87.3745849 39.0620353,87.0248982 L39.1783712,82.3736177 L37.9143363,87.903598 L37.6637666,87.903598 L36.607794,82.3489603 L36.5160676,86.3143171 L36.5138303,86.3389745 Z" id="Path" fill="#FDC300"></path>
            <path d="M43.5029368,87.2894048 L43.8295724,87.2625058 L43.8720797,87.710822 L41.8429121,87.9148059 L41.7981675,87.4664897 L42.0733468,87.4440739 C42.2970698,87.4149333 42.3194421,87.3163038 42.2970698,86.9688587 L41.8719961,82.5910511 C41.8473866,82.2503308 41.7936931,82.1427349 41.5744445,82.1561843 L41.3015025,82.1875665 L41.2522834,81.7392503 L43.5074112,81.5150922 C44.4448106,81.4231874 44.9795086,81.9835826 45.0913701,83.1312721 C45.2144177,84.3574169 44.702092,84.9693685 43.5566303,85.0792059 C43.4044987,85.1038633 43.2344692,85.1083465 43.0398302,85.1195544 L43.2165713,86.8791955 C43.2501298,87.2333653 43.2993488,87.309579 43.5074112,87.2938879 L43.5029368,87.2894048 Z M42.99956,84.6286482 C43.0830682,84.6446933 43.1688588,84.6446933 43.252367,84.6286482 C43.9481455,84.5681255 44.2031898,84.2565457 44.1025144,83.2321432 C44.0018391,82.2077407 43.7445576,81.938751 43.1382683,81.9925489 C42.8071583,82.0261727 42.7579392,82.0911785 42.7914976,82.5686352 L42.99956,84.6286482 Z" id="Shape" fill="#FDC300"></path>
            <path d="M48.0892582,81.1721303 C47.9035681,81.2012709 47.8856703,81.3111083 47.9550244,81.6383791 L48.8499164,86.0229115 C48.923745,86.3591487 48.9796757,86.4465703 49.1989243,86.3994971 L49.449494,86.3546655 L49.536746,86.8029817 L47.6283888,87.1952584 L47.532188,86.7469422 L47.7849949,86.6909027 C48.0087179,86.6483126 48.0087179,86.5317504 47.9550244,86.1977548 L47.0467091,81.8244304 C46.9795922,81.4994011 46.9169497,81.4007716 46.7357341,81.4388784 C46.3352699,81.5240585 46.1562915,82.2749881 46.3106604,83.5056161 L46.0600906,83.5526893 L45.6685754,81.2528272 L48.9886247,80.5579371 L49.5479322,82.8353834 L49.2995996,82.8869397 C48.9505918,81.7011434 48.4919596,81.0735007 48.0892582,81.1654056 L48.0892582,81.1721303 Z" id="Path" fill="#FDC300"></path>
            <path d="M50.5009921,80.9524554 C50.655361,80.2463574 50.9931827,79.8047659 51.5614391,79.627681 C52.1296955,79.4505961 52.659919,79.5783662 53.2214638,80.0759972 C53.7844883,80.6426367 54.1967705,81.3416427 54.420619,82.1091111 C54.7005202,82.8384373 54.7778371,83.6301524 54.644342,84.4000069 C54.4854987,85.1554197 54.1253047,85.6283933 53.5749461,85.8054782 C53.0245875,85.9825631 52.5033129,85.8323772 51.9238704,85.3100888 C51.3444278,84.7878004 51.015555,84.2072309 50.7314268,83.324048 C50.4563459,82.5624285 50.3793527,81.7431704 50.5077038,80.943489 L50.5009921,80.9524554 Z M53.4295262,85.3638867 C54.0179176,85.1755939 54.0179176,84.2094725 53.4407123,82.4498315 C52.863507,80.6901904 52.3109112,79.8921876 51.7046218,80.0894467 C51.0983325,80.2867058 51.1229421,81.2393777 51.7046218,83.003502 C52.2863016,84.7676262 52.8456091,85.5611459 53.4384751,85.3594036 L53.4295262,85.3638867 Z" id="Shape" fill="#FDC300"></path>
            <path d="M56.541513,84.1444667 C56.9375027,83.8866849 56.8882837,83.5930378 56.5683598,82.9115971 L55.0022988,79.5200851 L54.8412183,79.4057645 C54.6756632,79.280236 54.5570901,79.2017806 54.3691627,79.2936854 L54.3154692,79.3183428 L54.118593,78.9193414 L55.3020876,78.3679125 L58.7116261,81.0578097 L57.7317194,78.9507236 C57.3804743,78.1930692 57.1791236,78.0002932 56.7137798,78.215485 L56.5280897,77.8007925 L57.8927999,77.1641835 L58.0852017,77.5721513 C57.7003982,77.7963094 57.7317194,78.0697822 58.0650667,78.798296 L60.0785736,83.1021315 L59.7832593,83.2411095 L55.568318,79.9101202 L56.8860465,82.7815854 C57.2149193,83.5033745 57.4475912,83.7140831 57.8927999,83.5280319 L58.0919134,83.9337581 L56.7495754,84.5614007 L56.5571737,84.153433 L56.541513,84.1444667 Z" id="Path" fill="#FDC300"></path>
            <path d="M64.3158872,75.7071559 L64.1078248,75.8551002 C63.2129328,74.8732878 62.6513881,74.700686 62.0025914,75.1467606 C61.7520216,75.3148792 61.707277,75.3843682 61.9533723,75.7497459 L62.9824981,77.2628131 C63.0072286,77.2533092 63.0305591,77.2404902 63.0518523,77.2247062 C63.4321814,76.9624412 63.3941484,76.5746477 62.9780237,75.8192349 L63.1860861,75.6735322 L64.7968916,78.0294338 L64.5731686,78.1796197 C64.0250473,77.5071454 63.6782767,77.3524763 63.3068965,77.6012918 C63.2892131,77.6167117 63.2705285,77.6309396 63.2509657,77.6438818 L64.4120881,79.3586913 C64.6089643,79.6433721 64.6895046,79.7038948 64.8774319,79.5828494 L65.1816952,79.3721408 L65.4345022,79.7487264 L63.7319702,80.9210732 L63.4791632,80.542246 L63.6894628,80.3920601 C63.8818646,80.2732563 63.8483061,80.167902 63.6603788,79.8764965 L61.1770535,76.2384106 C60.9846518,75.9492466 60.8884509,75.8842408 60.7072353,76.0142525 L60.4835123,76.1599552 L60.2329425,75.7945775 L63.0115821,73.8869921 L64.3069383,75.711639 L64.3158872,75.7071559 Z" id="Path" fill="#FDC300"></path>
            <path d="M69.3071473,76.9758907 C68.9518426,77.2657833 68.4810943,77.3712434 68.0364006,77.2605715 C67.271268,77.1059024 66.4703397,76.5701646 65.7499516,75.7161222 C65.228651,75.1386277 64.8561535,74.4422033 64.6648951,73.6874914 C64.4926284,72.9320786 64.6492345,72.389616 65.1123411,71.9928562 C65.3987633,71.7432022 65.7881128,71.6479727 66.1571275,71.737316 L66.0810616,71.2150276 L66.2443794,71.073808 L67.9334881,72.9208707 L67.7522724,73.1248546 C66.6560297,72.1901153 65.8797109,71.9121593 65.4456883,72.277537 C64.926651,72.7258532 65.2734216,73.5709292 66.5038981,75.0032995 C67.7343746,76.4356697 68.4905583,76.9131264 69.0700009,76.4199786 C69.5040235,76.0389099 69.4122971,75.2991881 68.7657376,74.2456451 L69.081187,74.1828808 C69.9067249,75.4224751 69.976079,76.4042876 69.30491,76.9758907 L69.3071473,76.9758907 Z" id="Path" fill="#FDC300"></path>
            <path d="M3.13212196,24.720155 L4.11426592,26.7532689 L1.35576136,27.5086817 L2.2170949,29.2279743 L4.98231114,28.47032 L5.84588191,30.1918542 L3.07842844,30.9427838 L3.93081306,32.6531101 L6.70497822,31.904422 L7.57526068,33.6259562 L4.78767214,34.3701611 L5.65571737,36.0804874 L8.43435699,35.3430072 L9.67154516,37.7258078 C10.1929352,37.5800164 10.7047596,37.4018396 11.2040477,37.1923116 L4.73621585,24.2628725 C4.22033004,24.473111 3.68213315,24.6235276 3.13212196,24.7111887 L3.13212196,24.720155 Z" id="Path" fill="#FFFFFF"></path>
            <path d="M10.7275177,25.4352193 C10.5351159,24.5184127 12.617977,23.4177965 14.2869506,22.0728479 L12.0765674,17.6367591 C11.0127157,18.2438014 10.0607496,19.0292982 9.26213208,19.959037 C9.01160571,20.2230516 8.7748883,20.4998837 8.55293018,20.788422 L10.7275177,25.4329778 L10.7275177,25.4352193 Z" id="Path" fill="#FFFFFF"></path>
            <path d="M15.6785076,17.5470959 C15.1438097,16.8163405 13.7634388,16.7177109 12.0698557,17.6390007 L14.2802389,22.0750895 C15.8149787,20.8198041 16.9984733,19.3381191 15.6785076,17.5470959 Z" id="Path" fill="#D31216"></path>
            <path d="M4.73621585,24.2628725 L11.2040477,37.1923116 C13.016204,36.4413819 14.5106736,35.376631 15.0073386,34.589836 L12.2309362,28.6608544 L10.8483281,25.7131754 C10.7848494,25.6333952 10.7411476,25.539676 10.720806,25.4397025 L8.54621849,20.7951467 C7.45892472,22.1400953 6.5170509,23.5029765 4.74292754,24.2673556 L4.73621585,24.2628725 Z" id="Path" fill="#D31216"></path>
            <path d="M3.13212196,24.720155 C2.09583156,24.8806378 1.0434532,24.9092579 0,24.8053351 L1.34233798,27.5086817 L4.10084254,26.7532689 L3.11869858,24.720155 L3.13212196,24.720155 Z" id="Path" fill="#D31216"></path>
            <polygon id="Path" fill="#D31216" points="4.98231114 28.47032 2.2170949 29.2279743 3.07842844 30.9427838 5.84588191 30.1918542 4.98231114 28.47032"></polygon>
            <polygon id="Path" fill="#D31216" points="6.70497822 31.904422 3.93081306 32.6531101 4.78767214 34.3701611 7.57526068 33.6259562 6.70497822 31.904422"></polygon>
            <path d="M5.65571737,36.0804874 L6.66470808,38.1203261 C7.68171288,38.1531633 8.6972714,38.0199149 9.67154516,37.7258078 L8.43435699,35.3430072 L5.65571737,36.0804874 L5.65571737,36.0804874 Z" id="Path" fill="#D31216"></path>
            <path d="M14.242206,22.1087132 L15.468208,24.5744522 C16.3429649,23.8392137 17.2736526,22.9649971 18.2669827,22.131129 L15.9671103,18.0133447 C16.7948854,19.6138335 15.6650843,20.9610237 14.242206,22.1176795 L14.242206,22.1087132 Z" id="Path" fill="#FFFFFF"></path>
            <path d="M10.8483281,25.7086922 C10.9247284,25.8127232 11.0204407,25.9010107 11.1302191,25.9687156 C12.3674073,26.8429322 13.8148951,25.950783 15.468208,24.5654859 L14.242206,22.0997468 C12.4143891,23.5769487 10.0966189,24.7336045 10.8483281,25.6997259 L10.8483281,25.7086922 Z" id="Path" fill="#D31216"></path>
            <path d="M18.2669827,22.1221627 C15.4167517,24.5206543 13.0251529,27.3046979 11.1302191,25.9687156 C11.0204407,25.9010107 10.9247284,25.8127232 10.8483281,25.7086922 C9.51717629,23.9893996 17.8642813,21.6738465 15.9671103,18.0043784 L18.2669827,22.1221627 Z M10.8483281,25.7086922 C9.46124555,23.9154274 18.5690088,21.4788289 15.6785076,17.5470959 C14.8663932,16.4263054 12.1168375,16.7715089 9.25542039,19.9612786 C7.04056272,22.409085 6.06289322,25.3186571 0.00894891988,24.8053351 L6.66470808,38.1203261 C10.020553,38.297411 14.1236328,35.9930657 15.0140503,34.5808697 L10.8483281,25.7086922 L10.8483281,25.7086922 Z" id="Shape" stroke="#2A2522" stroke-width="1.05168375"></path>
            <path d="M74.6384663,24.720155 L73.6540851,26.7532689 L76.4014035,27.5086817 L75.5490189,29.2279743 L72.7815654,28.47032 L71.9202319,30.1918542 L74.6876853,30.9427838 L73.8330635,32.6531101 L71.0633728,31.904422 L70.1953276,33.6259562 L72.9739672,34.3701611 L72.1126336,36.0804874 L69.3317568,35.3430072 L68.0923314,37.7258078 C67.5726257,37.5793036 67.0623335,37.40114 66.5643033,37.1923116 L73.0298979,24.2628725 C73.5470304,24.4739867 74.0868108,24.6244262 74.6384663,24.7111887 L74.6384663,24.720155 Z" id="Path" fill="#FFFFFF"></path>
            <path d="M67.0430705,25.4352193 C67.2332351,24.5184127 65.1526112,23.4177965 63.4858749,22.0728479 L65.6984953,17.6367591 C66.7612223,18.2501813 67.7158696,19.0347721 68.5241168,19.959037 C68.7657376,20.2257851 68.9961723,20.5082243 69.2221325,20.788422 L67.0430705,25.4329778 L67.0430705,25.4352193 Z" id="Path" fill="#FFFFFF"></path>
            <path d="M62.0786572,17.5470959 C62.6223041,16.8163405 64.0004378,16.7177109 65.6984953,17.6390007 L63.4858749,22.0750895 C61.9488979,20.8198041 60.7654032,19.3381191 62.0786572,17.5470959 Z" id="Path" fill="#D31216"></path>
            <path d="M73.0298979,24.2628725 L66.5643033,37.1923116 C64.7566215,36.4413819 63.2576774,35.376631 62.7610124,34.589836 L66.9267346,25.7086922 C66.9904816,25.6293531 67.0335353,25.5353752 67.0520194,25.4352193 L69.2310814,20.7906636 C70.3228497,22.1356121 71.2445884,23.4984934 73.0343724,24.2628725 L73.0298979,24.2628725 Z" id="Path" fill="#D31216"></path>
            <path d="M74.6384663,24.720155 C75.674748,24.8807336 76.7271385,24.909354 77.7705882,24.8053351 L76.4103524,27.5086817 L73.663034,26.7532689 L74.6474152,24.720155 L74.6384663,24.720155 Z" id="Path" fill="#D31216"></path>
            <polygon id="Path" fill="#D31216" points="72.7815654 28.47032 75.5490189 29.2279743 74.6876853 30.9427838 71.9202319 30.1918542 72.7815654 28.47032"></polygon>
            <polygon id="Path" fill="#D31216" points="71.0633728 31.904422 73.8330635 32.6531101 72.9739672 34.3701611 70.1953276 33.6259562 71.0633728 31.904422"></polygon>
            <path d="M72.1126336,36.0804874 L71.0969312,38.1203261 C70.0806752,38.1528795 69.0658984,38.0196344 68.0923314,37.7258078 L69.3317568,35.3430072 L72.1126336,36.0804874 L72.1126336,36.0804874 Z" id="Path" fill="#D31216"></path>
            <path d="M63.526145,22.1087132 L62.300143,24.5744522 C61.4298605,23.8392137 60.4924612,22.9649971 59.5125544,22.131129 L61.8057152,18.0133447 C60.9757028,19.6138335 62.1077412,20.9610237 63.526145,22.1176795 L63.526145,22.1087132 Z" id="Path" fill="#FFFFFF"></path>
            <path d="M66.9177856,25.7086922 C66.8374035,25.8090732 66.7423711,25.8967335 66.6358947,25.9687156 C65.3919948,26.8429322 63.9512187,25.950783 62.2934313,24.5654859 L63.5194333,22.0997468 C65.3494874,23.5769487 67.6627832,24.7336045 66.9177856,25.6997259 L66.9177856,25.7086922 Z" id="Path" fill="#D31216"></path>
            <path d="M59.4991311,22.1221627 C62.3448876,24.5206543 64.732012,27.3046979 66.629183,25.9687156 C66.7356594,25.8967335 66.8306918,25.8090732 66.911074,25.7086922 C68.2534119,23.9893996 59.8928835,21.6738465 61.7922918,18.0043784 L59.4991311,22.1221627 Z M66.911074,25.7086922 C68.2936821,23.9154274 59.1948678,21.4788289 62.0719455,17.5470959 C62.8974834,16.4263054 65.6515135,16.7715089 68.5174051,19.9612786 C70.7188394,22.409085 71.6942716,25.3186571 77.7549276,24.8053351 L71.0902195,38.1203261 C67.7343746,38.297411 63.6357693,35.9930657 62.7408773,34.5808697 L66.911074,25.7086922 L66.911074,25.7086922 Z" id="Shape" stroke="#2A2522" stroke-width="1.05168375"></path>
            <path d="M47.1943662,21.676088 C46.3045331,22.3557178 45.3760068,22.9829249 44.4134894,23.5545329 L44.4134894,32.7651891 C45.71332,31.973911 47.0332857,31.1265934 48.2838972,30.4518776 L48.2838972,20.9049842 C47.8521118,21.189665 47.4717827,21.4564131 47.1943662,21.676088 L47.1943662,21.676088 Z" id="Path" fill="#FFFFFF"></path>
            <path d="M53.3982049,19.1767252 C53.3445114,19.1767252 53.2908179,19.1901747 53.2371244,19.1901747 L51.9216332,29.1405527 C51.9730894,29.1405527 52.0312574,29.1248616 52.0849509,29.1248616 C53.1509082,29.1560186 54.1903465,29.4650571 55.1007369,30.021494 L58.0404571,20.9811979 C56.599681,19.9478291 55.0515179,19.1879332 53.3982049,19.1879332 L53.3982049,19.1767252 Z" id="Path" fill="#FFFFFF"></path>
            <path d="M66.6358947,25.9709572 C65.4076554,26.8339659 63.9668793,25.9709572 62.3359387,24.6035928 L58.5102754,32.6127616 C60.0763364,33.9577102 61.4477584,35.0785007 62.747589,34.5831113 L66.9177856,25.7109338 C66.8374035,25.8113148 66.7423711,25.8989751 66.6358947,25.9709572 L66.6358947,25.9709572 Z" id="Path" fill="#FFFFFF"></path>
            <path d="M11.1302191,25.9709572 C11.0204407,25.9032523 10.9247284,25.8149648 10.8483281,25.7109338 L15.0140503,34.5831113 C16.3250671,35.0740175 17.6987263,33.9621934 19.2647873,32.6127616 L15.4257006,24.6013512 C13.7902855,25.9687156 12.3606956,26.8317243 11.1302191,25.9687156 L11.1302191,25.9709572 Z" id="Path" fill="#FFFFFF"></path>
            <path d="M38.8852941,25.9462998 C38.379661,25.913252 37.8826194,25.7989674 37.4131968,25.6078211 L37.4131968,34.8745168 C38.3513784,35.2721019 39.4102609,35.2721019 40.3484425,34.8745168 L40.3484425,25.6078211 C39.8821593,25.7990411 39.3880482,25.9133467 38.8852941,25.9462998 L38.8852941,25.9462998 Z" id="Path" fill="#FFFFFF"></path>
            <path d="M24.3746205,19.1767252 C22.7280193,19.1767252 21.1798561,19.9455875 19.73908,20.96999 L22.6832747,30.0102861 C23.5914206,29.4524875 24.6297925,29.1433073 25.6945862,29.1136537 C25.7438053,29.1136537 25.799736,29.1271032 25.8511923,29.1293448 L24.5401755,19.1789668 C24.486482,19.1789668 24.4327885,19.1655173 24.3746205,19.1655173 L24.3746205,19.1767252 Z" id="Path" fill="#FFFFFF"></path>
            <path d="M30.5627986,21.676088 C30.2876193,21.4519299 29.9207136,21.189665 29.4822166,20.9049842 L29.4822166,30.4541191 C30.7328281,31.1265934 32.055031,31.9761526 33.3459127,32.7674307 L33.3459127,23.5567745 C32.381708,22.9867046 31.4523484,22.3594394 30.5627986,21.6783296 L30.5627986,21.676088 Z" id="Path" fill="#FFFFFF"></path>
            <path d="M33.3459127,23.5545329 L33.3459127,32.7651891 C34.7934005,33.648372 36.2095671,34.4620659 37.4131968,34.8745168 L37.4131968,25.6078211 C35.9979609,25.0486892 34.6365623,24.361414 33.3459127,23.5545329 Z" id="Path" fill="#D31216"></path>
            <path d="M24.5289894,19.1901747 L25.8400062,29.1405527 C26.8668947,29.1898675 28.124218,29.716639 29.4822166,30.4518776 L29.4822166,20.9049842 C28.2360795,20.1137061 26.4395838,19.2417311 24.5289894,19.1901747 L24.5289894,19.1901747 Z" id="Path" fill="#D31216"></path>
            <path d="M15.4257006,24.6013512 L19.2603128,32.61052 C20.302862,31.7138876 21.4237142,30.7141425 22.6720885,30.0192524 L19.7278939,20.9789564 C18.1618329,22.0997468 16.7344802,23.5052181 15.4257006,24.6013512 L15.4257006,24.6013512 Z" id="Path" fill="#D31216"></path>
            <path d="M40.3484425,25.6078211 L40.3484425,34.8745168 C41.5587839,34.4620659 42.9682388,33.648372 44.4179638,32.7651891 L44.4179638,23.5545329 C43.1285222,24.3649568 41.7660464,25.0523977 40.3484425,25.6078211 L40.3484425,25.6078211 Z" id="Path" fill="#D31216"></path>
            <path d="M48.2883717,20.9049842 L48.2883717,30.4541191 C49.644133,29.7188806 50.8969818,29.192109 51.9216332,29.1427943 L53.2371244,19.1924163 C51.32653,19.2439727 49.5322715,20.1159477 48.2883717,20.9072258 L48.2883717,20.9049842 Z" id="Path" fill="#D31216"></path>
            <path d="M58.0404571,20.9789564 L55.1007369,30.0192524 C56.3379251,30.7141425 57.4610146,31.7049213 58.5102754,32.61052 L62.3359387,24.6013512 C61.0338708,23.5052181 59.5998064,22.0885389 58.0404571,20.9789564 L58.0404571,20.9789564 Z" id="Path" fill="#D31216"></path>
            <path d="M38.8852941,35.1726471 C42.2120551,35.1726471 48.5881605,29.1203785 52.0849509,29.1203785 C56.7339148,29.1203785 59.9152558,35.6478623 62.747589,34.5763866 L66.9177856,25.7042091 C66.8374035,25.80459 66.7423711,25.8922503 66.6358947,25.9642324 C63.5037727,28.1721897 59.0628712,19.1722421 53.3982049,19.1722421 C50.7582736,19.1722421 48.2995578,20.8198041 47.1988407,21.6716049 C45.5589511,22.9829297 40.7556184,25.9418166 38.8852941,25.9418166 C37.0149699,25.9418166 32.200451,22.9829297 30.5627986,21.6716049 C29.4665559,20.8198041 27.005603,19.1722421 24.3634344,19.1722421 C18.7121915,19.1722421 14.2578666,28.1721897 11.1302191,25.9642324 C11.0204407,25.8965275 10.9247284,25.8082401 10.8483281,25.7042091 L15.0140503,34.5763866 C17.8530952,35.6478623 21.0366734,29.1203785 25.6834001,29.1203785 C29.1779533,29.1203785 35.5630076,35.1726471 38.8830569,35.1726471 L38.8852941,35.1726471 Z" id="Path" stroke="#2A2522" stroke-width="1.05168375"></path>
            <path d="M39.0284768,16.8903127 C47.6216772,16.8903127 54.5906485,13.106524 54.5906485,8.4485187 C54.5906485,3.79051343 47.6216772,0 39.0284768,0 C30.4352765,0 23.4640679,3.78378869 23.4640679,8.4485187 C23.4640679,13.1132487 30.4352765,16.8903127 39.0284768,16.8903127 Z" id="Path" fill="#2A2522"></path>
            <path d="M39.0284768,16.8903127 C47.6216772,16.8903127 54.5906485,13.106524 54.5906485,8.4485187 C54.5906485,3.79051343 47.6216772,0 39.0284768,0 C30.4352765,0 23.4640679,3.78378869 23.4640679,8.4485187 C23.4640679,13.1132487 30.4352765,16.8903127 39.0284768,16.8903127 Z" id="Path" stroke="#FFFFFF" stroke-width="0.5280795"></path>
            <path d="M39.0441374,15.5184651 C46.6775661,15.5184651 52.8791676,12.3533528 52.8791676,8.4485187 C52.8791676,4.54368464 46.6775661,1.37633072 39.0441374,1.37633072 C31.4107088,1.37633072 25.2113445,4.5369599 25.2113445,8.4485187 C25.2113445,12.3600775 31.3928109,15.5184651 39.0441374,15.5184651 Z" id="Path" fill="#FDC300"></path>
            <path d="M39.0441374,15.5184651 C46.6775661,15.5184651 52.8791676,12.3533528 52.8791676,8.4485187 C52.8791676,4.54368464 46.6775661,1.37633072 39.0441374,1.37633072 C31.4107088,1.37633072 25.2113445,4.5369599 25.2113445,8.4485187 C25.2113445,12.3600775 31.3928109,15.5184651 39.0441374,15.5184651 Z" id="Path" stroke="#2A2522" stroke-width="0.5"></path>
            <path d="M39.0553236,13.8260715 C45.2703485,13.8260715 50.324251,11.8086486 50.324251,9.30704421 C50.324251,6.80543984 45.2703485,4.79922487 39.0553236,4.79922487 C32.8402987,4.79922487 27.7886335,6.81664775 27.7886335,9.30704421 C27.7886335,11.7974407 32.8358243,13.8260715 39.0553236,13.8260715 Z" id="Path" fill="#FFFFFF"></path>
            <path d="M39.0553236,13.8260715 C45.2703485,13.8260715 50.324251,11.8086486 50.324251,9.30704421 C50.324251,6.80543984 45.2703485,4.79922487 39.0553236,4.79922487 C32.8402987,4.79922487 27.7886335,6.81664775 27.7886335,9.30704421 C27.7886335,11.7974407 32.8358243,13.8260715 39.0553236,13.8260715 Z" id="Path" stroke="#2A2522" stroke-width="2.112318"></path>
            <path d="M39.0172907,6.09710025 C33.0897445,6.18241338 28.3291898,11.0212355 28.3291898,16.9609225 C28.3291898,22.9006094 33.0897445,27.7394315 39.0172907,27.8247447 L38.8852941,27.8247447 C44.8128403,27.7394315 49.573395,22.9006094 49.573395,16.9609225 C49.573395,11.0212355 44.8128403,6.18241338 38.8852941,6.09710025 L39.0172907,6.09710025 Z" id="Path" stroke="#2A2522" stroke-width="1.05168375" fill="#FFFFFF"></path>
            <path d="M37.2163206,25.9418166 L34.9790906,22.14682 L30.8939087,21.4743457 L29.8670201,22.7744627 C29.9140019,22.8394686 29.9386115,22.9089576 29.9878305,22.9694803 L30.1645717,23.2227789 C31.5452445,25.1829771 33.5334745,26.631345 35.8202891,27.3428047 L36.2364138,27.4212601 L37.2096089,25.9373335 L37.2163206,25.9418166 Z" id="Path" fill="#2A2522"></path>
            <polygon id="Path" fill="#2A2522" points="34.4242576 15.4579424 36.1760086 20.873602 41.7198645 20.873602 43.4716156 15.4579424 38.9434621 12.1717847 34.4242576 15.4579424"></polygon>
            <path d="M38.9434621,9.97503534 L38.9434621,9.97503534 L42.3149677,7.76707808 L42.3149677,6.67542815 C40.1337973,5.91877518 37.7620759,5.91877518 35.5809055,6.67542815 L35.5809055,7.76707808 L38.9367504,9.98176009 L38.9434621,9.97503534 Z" id="Path" fill="#2A2522"></path>
            <path d="M32.697116,13.7341666 L32.8156892,9.42808958 L31.9409323,8.75561529 C31.4790498,9.14401276 31.0543702,9.57477143 30.6724229,10.0422828 L30.6276783,10.0871144 C29.3670198,11.6336621 28.5578842,13.499457 28.289773,15.4781166 L29.2562563,15.904017 L32.697116,13.743133 L32.697116,13.7341666 Z" id="Path" fill="#2A2522"></path>
            <path d="M42.9234942,22.14682 L40.6862642,25.9418166 L41.6505104,27.4257432 L42.0532118,27.3495295 C44.3811953,26.6269848 46.4006467,25.1441731 47.7894694,23.1375988 L47.8744841,23.0053456 C47.9281777,22.9291318 47.970685,22.8439517 48.0221413,22.7811875 L46.9885411,21.4810705 L42.9145453,22.1535448 L42.9234942,22.14682 Z" id="Path" fill="#2A2522"></path>
            <path d="M45.2099432,13.7341666 L48.641854,15.8950507 L49.6083374,15.4691503 C49.3392181,13.4811396 48.5244291,11.60705 47.2547714,10.0557323 L47.2547714,10.0557323 C46.8654639,9.58426335 46.4365871,9.14705313 45.9728387,8.74889055 L45.0958445,9.42136484 L45.2188922,13.7274419 L45.2099432,13.7341666 Z" id="Path" fill="#2A2522"></path>
        </g>
    </g>
</svg>