<?xml version="1.0" encoding="UTF-8"?>
<svg width="103px" height="138px" viewBox="0 0 103 138" version="1.1" xmlns="http://www.w3.org/2000/svg" xmlns:xlink="http://www.w3.org/1999/xlink">
    <title>soccer-tema-crystalpalace-color</title>
    <g id="soccer-tema-crystalpalace-color" stroke="none" stroke-width="1" fill="none" fill-rule="evenodd">
        <rect id="Rectangle" fill="#FFFFFF" x="0" y="0" width="103.235294" height="138"></rect>
        <g id="Crystal_Palace" transform="translate(13.764706, 22.080000)" fill-rule="nonzero">
            <g id="g108" transform="translate(8.020499, 60.932193)" fill="#FFFFFF">
                <path d="M15.9774069,13.3462523 C15.9774069,13.3462523 5.44901117,8.07830772 0.317958347,0 C0.345779702,6.94464923 0,15.6016777 0,15.6016777 L16.1165137,18.7727504 L15.9774069,13.3462523 Z" id="path110"></path>
            </g>
            <g id="g112" transform="translate(51.676180, 61.502986)" fill="#FFFFFF">
                <path d="M0.143081256,12.930049 C0.143081256,12.930049 10.671477,8.07830772 15.7985554,0 C15.7747085,6.94068539 16.1165137,15.0625954 16.1165137,15.0625954 L0,18.2336681 L0.143081256,12.930049 Z" id="path114"></path>
            </g>
            <polygon id="path116" fill="#FFFFFF" points="51.930547 84.5844315 23.9223911 84.5844315 23.9223911 71.8169001 51.930547 71.8169001"></polygon>
            <g id="g118" transform="translate(29.642055, 64.574800)" fill="#FFFFFF">
                <path d="M16.6208842,8.18549384 C16.6628004,11.5472588 14.6643401,14.6012487 11.5619315,15.9164405 C8.45952294,17.2316324 4.86783682,16.5474513 2.46984691,14.1844874 C0.071856998,11.8215235 -0.657330329,8.24794346 0.623963768,5.13823707 C1.90525787,2.02853068 4.94317453,-0.00118553069 8.31422241,0 C10.5046498,-0.0135470033 12.6108191,0.841141961 14.169375,2.37619858 C15.727931,3.9112552 16.6111982,6.00092901 16.6248587,8.18549384" id="path120"></path>
            </g>
            <g id="g122" transform="translate(3.751908, 56.333011)" fill="#FFFFFF">
                <path d="M0.71540628,20.7201229 L0.71540628,8.74139573 L0,8.47185455 L0,6.84667979 L0.71540628,6.52957252 L0.71540628,5.4038417 L0,5.13826437 L0,3.20787386 L2.35289177,0.98415912 L2.35289177,0.464895964 C2.43059363,0.162512521 2.72208728,-0.0346965737 3.03252773,0.00509042154 L3.72806162,0.00509042154 C3.72806162,0.00509042154 4.2685908,0.0843672392 4.2685908,0.464895964 L4.2685908,0.956412234 L6.68109976,3.22372922 L6.65725288,5.15411973 L5.9418466,5.4038417 L5.9418466,6.52957252 L6.6731508,6.84271595 L6.6731508,19.5309706 L0.71540628,20.7201229 Z" id="path124"></path>
            </g>
            <g id="g126" transform="translate(65.662373, 56.332581)" fill="#FFFFFF">
                <path d="M5.96569348,20.7205527 L5.96569348,8.74182552 L6.68109976,8.47228434 L6.68109976,6.84710958 L5.96569348,6.53000231 L5.96569348,5.40427149 L6.68109976,5.13869416 L6.68109976,3.20830365 L4.32820799,0.98458891 L4.32820799,0.465325754 C4.25207549,0.161845173 3.95945444,-0.0361266693 3.64857203,0.00552021156 L2.95303815,0.00552021156 C2.95303815,0.00552021156 2.41250896,0.0847970292 2.41250896,0.465325754 L2.41250896,0.956842024 L0,3.22415901 L0.0198723967,5.15454952 L0.739253156,5.40427149 L0.739253156,6.53000231 L0.00794895867,6.84314574 L0.00794895867,19.5314004 L5.96569348,20.7205527 Z" id="path128"></path>
            </g>
            <g id="g130" transform="translate(4.010250, 83.885142)" fill="#FFFFFF">
                <path d="M33.2107493,9.93503834 C27.3881371,9.93503834 23.6719989,7.95311789 19.7452133,5.84831839 C17.5870516,4.62120186 15.3264036,3.58276103 12.9885985,2.74463097 C5.83453566,0.366326444 1.14862453,3.28371333 0.95387504,3.41055624 L0,1.94393512 C0.222570843,1.80123684 5.56427107,-1.57991943 13.5450256,1.09170933 C15.9740464,1.95903292 18.3225889,3.03599332 20.5639561,4.31034812 C24.6139505,6.47460525 28.4294507,8.52391098 34.7210515,8.1473461 C40.5993064,7.79456426 44.6572498,5.8007523 48.5522395,3.87432563 C50.149902,3.05013187 51.7881337,2.30663239 53.4607215,1.64664705 L53.8581695,1.49998494 C55.9487456,0.675506033 62.3158615,-1.8296414 67.8165409,2.34428305 L66.7553549,3.73162735 C62.0416224,0.164170559 56.5608154,2.30860848 54.4980606,3.12119586 L54.1006127,3.27974949 C52.4763541,3.92449374 50.885853,4.65080554 49.335212,5.45589814 C45.4600946,7.36646944 41.0643205,9.53072657 34.8323369,9.90729145 C34.2759098,9.93900218 33.7353806,9.95485754 33.2107493,9.95485754" id="path132"></path>
            </g>
            <g id="g134" transform="translate(0.000000, 75.339659)" fill="#FFFFFF">
                <path d="M68.4127128,15.3292687 L67.1766497,14.5365005 C66.6242432,14.3056028 66.0151916,14.2448606 65.4278788,14.3620915 L65.0304309,14.4453321 C64.4104121,14.5840666 63.6393631,14.7505479 63.0431912,14.2709231 C62.6712291,13.9543243 62.4708786,13.4812348 62.502662,12.9945664 C62.4935269,12.4730357 62.7341374,11.978381 63.1505021,11.6627158 C64.5137485,10.6043703 67.8682091,11.3456086 68.8618289,11.5953305 C69.525567,11.7776672 70.2568712,11.7697395 70.3999524,11.6389328 C70.6453762,8.86799891 71.5857045,6.20314243 73.1343942,3.88962387 C66.9381809,0.151721918 57.4510988,2.18120845 53.8939398,4.44456159 C48.5959588,7.82175403 44.1763378,9.91466201 38.5325771,9.9424089 C33.7234571,9.9424089 29.6456414,7.96048846 25.3373058,5.86758047 C22.8632816,4.5955023 20.3073808,3.48848221 17.686433,2.55380949 C11.9274125,0.623418984 5.3655471,2.79560379 2.88149752,3.78656401 C4.41517326,5.93435297 5.28177969,8.48448149 5.37349606,11.1196696 C5.50862836,11.2821871 6.2319836,11.3257894 6.88777269,11.1830911 C7.90921387,10.9730075 11.2954703,10.3903229 12.6070484,11.5200176 C13.0060042,11.8541681 13.2227178,12.3570093 13.1912969,12.8756512 C13.1997795,13.3640458 12.9774897,13.8279901 12.5911505,14.1282249 C11.9671573,14.5801027 11.2040572,14.373983 10.6039109,14.2075017 C10.4687786,14.1718271 10.3376207,14.1321887 10.2064629,14.1084057 C9.62685275,13.9596637 9.0156066,13.990075 8.45371754,14.1956102 L7.18188416,14.9289207 L7.1341904,12.9113257 C6.62943153,13.0064579 5.21054241,13.2006861 4.35205487,12.5149416 C3.92868395,12.1960635 3.67645029,11.7002593 3.66844443,11.1711996 C3.46972046,6.60881872 0.922079205,4.07592439 0.886308891,4.03628598 L0,3.17216867 L1.11285421,2.63308631 C1.48645527,2.45074963 10.3495442,-1.77866859 18.266707,0.869177118 C20.9575863,1.82713847 23.5812859,2.96332709 26.1202782,4.2701526 C30.2259153,6.27585608 34.0970582,8.16660818 38.4888579,8.16660818 L38.5445006,8.16660818 C43.7669664,8.14282514 47.9401697,6.15297702 52.975835,2.9422659 C57.1410894,0.29442019 68.0311628,-1.97686064 74.9109865,2.9422659 L75.7058824,3.49720362 L75.0779146,4.21862266 C73.4141605,6.40450209 72.4054335,9.01577409 72.1685957,11.7499203 C72.1307517,12.2762198 71.856038,12.7571393 71.4213936,13.0579878 C70.5191868,13.676347 69.1241446,13.4226612 68.6034878,13.2997821 L68.4127128,15.3292687 Z" id="path136"></path>
            </g>
            <g id="g138" transform="translate(4.972074, 84.994507)" fill="#FFFFFF">
                <path d="M7.54753626,1.8691326 C7.08613304,1.40907389 6.67327522,0.903016519 6.31544766,0.358909228 C5.60004138,-0.909519854 0,1.59166374 0,1.59166374 L1.52620006,1.9166987" id="path140"></path>
            </g>
            <g id="g142" transform="translate(62.931906, 85.377613)" fill="#FFFFFF">
                <path d="M0,1.81502626 C0.472497169,1.36700367 0.897367808,0.871541119 1.26785891,0.336513609 C2.01506102,-0.912096269 7.55151073,1.71593024 7.55151073,1.71593024 L6.01736171,2.00925446" id="path144"></path>
            </g>
            <g id="g146" transform="translate(2.325070, 76.043711)" fill="#FFFFFF">
                <path d="M1.97531623,10.8674949 C1.97531623,10.8674949 1.85608185,7.4348087 1.08503286,5.90872996 C0.601615829,4.93717309 0.237313751,3.91107389 0,2.85260864 C0,2.85260864 4.69386009,0.494123312 7.75420918,0.43862954 C10.8145583,0.383135767 18.4256862,1.69913094 20.7984504,3.00323459 C23.1712145,4.30733824 29.5621773,7.80740974 32.8808675,8.5209011 C36.1995578,9.23439246 41.6763903,8.38613051 45.1023915,6.978967 C48.5283927,5.57180348 50.8176928,3.1498967 52.2087605,2.53550137 C53.5998283,1.92110603 58.075092,0.30782279 61.0877474,0.0382816104 C64.1004027,-0.23125957 67.7251279,0.997531104 69.7680102,1.38202367 C71.8108926,1.76651624 71.5088322,2.53550137 71.5088322,2.53550137 L69.0526039,10.3403041 C69.0526039,10.3403041 65.1218439,9.00448969 62.4867641,8.92917671 C59.8516843,8.85386373 55.3684716,10.8278565 53.9774038,11.3431558 C52.5863361,11.8584551 46.4855103,14.3992771 44.518143,15.1682623 C42.5507757,15.9372474 35.9094208,17.7090843 32.1257165,16.8647862 C28.3420121,16.0204881 20.9971743,12.2944776 19.0695518,11.3431558 C17.1419294,10.391834 10.1945395,8.10469781 9.26848581,8.5407203 C8.34243212,8.9767428 1.97531623,10.8674949 1.97531623,10.8674949" id="path148"></path>
            </g>
            <g id="g150" transform="translate(7.739051, 0.000000)" fill="#FFFFFF">
                <path d="M34.9349341,57.9870592 C34.9499941,57.9965584 34.9659721,58.004526 34.9826278,58.0108423 L34.7481336,58.0465168 L34.9349341,57.9870592 Z M62.1243472,12.4623467 C61.9852404,12.0382157 61.2579107,11.7092169 58.3287194,11.7092169 C57.1840694,11.7092169 56.1189089,11.756783 56.1069855,11.756783 C56.0624095,11.7589389 56.0183117,11.7669352 55.9758277,11.780566 C54.213826,11.898931 52.4844896,12.3130216 50.8606728,13.0053929 C52.9393255,10.5081731 56.1745516,8.9464198 58.126021,8.17743467 C58.2932883,8.11990793 58.447337,8.02961291 58.5791116,7.91185733 C58.6744991,7.76123138 58.8334783,7.62646079 58.7023205,7.3846665 C58.4757752,6.9684632 57.5854918,6.8614395 56.9893199,6.8614395 C56.0914832,6.88537346 55.1963969,6.97146379 54.3105208,7.11908916 C53.7764145,7.17701994 53.245746,7.26302276 52.7207291,7.37673881 L52.653163,7.37673881 C50.4137014,7.88658782 48.3161179,8.88721243 46.5125924,10.3060172 C46.2622002,10.5042093 46.0237314,10.7024013 45.7892371,10.9164487 L47.2200497,8.48265042 C47.9630276,7.26310204 48.7987999,6.10224863 49.7199972,5.01032581 C49.7828604,4.94327285 49.824357,4.85912225 49.8392316,4.76853151 C49.8750019,4.59412251 50.0777003,4.31665365 49.9624404,4.17395538 C49.8306285,4.02047127 49.6363868,3.93453455 49.4338347,3.94008877 C49.1754935,3.94008877 48.317006,4.02729327 45.0340861,6.51658534 C41.9495545,8.66165467 39.3377471,11.4135063 37.3593665,14.6028207 C36.584343,15.9862012 35.2290456,18.5666616 34.7759549,20.3741731 C34.7481336,20.1918364 34.7242867,20.0094997 34.7044143,19.8311269 C34.6249247,19.105744 34.5812054,18.3486504 34.5653075,17.4528223 C34.5653075,16.3825853 34.6010778,15.4233358 34.6447971,14.8089405 C34.6447971,14.5512908 34.6130013,13.9408593 34.3626091,13.8814017 C34.1122169,13.8219441 33.7266924,14.321388 33.6233559,14.5592185 C32.4071657,17.2531043 31.6907727,20.1445812 31.5089329,23.0933679 L30.92071,28.4445531 C30.8531438,28.8131903 30.5749303,30.6008825 30.5749303,30.6008825 C30.1544543,29.900928 29.7864733,29.1709105 29.4739995,28.4168062 C29.463159,28.3879783 29.4498621,28.3601296 29.4342547,28.3335656 L28.9255213,27.5407974 C28.9132578,27.5181624 28.8986013,27.4969009 28.8818021,27.4773759 C28.1909165,26.6980713 27.3657975,26.0483346 26.4454462,25.5588769 C24.4725646,24.4180545 22.7222539,22.931587 21.2786231,21.1709051 C19.9948663,19.6884286 18.4964876,16.6957287 18.027499,14.6345315 C17.0824467,10.2278297 17.1613002,5.66385701 18.2580188,1.29224306 C18.3835621,0.970287859 18.3961692,0.615437082 18.2937891,0.285427474 C18.185032,0.142195111 18.0168155,0.0561237388 17.836724,0.0515608618 C17.4949188,0.0515608618 17.1849094,0.348848928 15.0545885,3.74982441 L15.0545885,3.77757129 C13.633079,6.04233183 12.6577992,8.55674247 12.1810399,11.1859899 C12.073729,11.7528191 11.9982138,12.3236122 11.9425711,12.8864776 C11.4432907,11.6442363 11.0315933,10.3687415 10.7104825,9.06929887 C10.0321171,6.39161866 9.81042491,3.61917418 10.0546935,0.868112084 C10.0546935,0.709558448 10.1063617,0.281463633 9.99110178,0.166512247 C9.87764979,0.0586018137 9.72657855,-0.00109638109 9.56980697,1.52504852e-05 C9.09684393,1.52504852e-05 8.37746317,0.606498585 6.85921207,4.63772476 C5.45240878,8.19132511 4.95256113,12.0377498 5.40455263,15.8316114 C3.77104163,13.7109565 3.01986503,10.7261844 2.3720249,8.04266408 C2.20907125,7.37673881 2.0461176,6.72270507 1.87521498,6.09641821 C1.79175092,5.77931094 1.5652056,5.02221733 1.27904308,5.1649156 L1.21942589,5.20059017 L1.21942589,5.20059017 C1.20833493,5.20611961 1.19877986,5.21428775 1.19160454,5.22437321 L1.15185975,5.25608394 C1.09224256,5.31157771 0.88556963,5.97353914 0.849799316,6.04885212 C0.738694227,6.2992408 0.675346121,6.56808566 0.662998787,6.84162029 L0.662998787,6.89315023 C0.662998787,7.01602929 0.662998787,7.1428722 0.662998787,7.26575127 C0.662998787,7.38863034 0.662998787,7.54322013 0.662998787,7.66213536 C0.282961976,12.0229506 1.09036348,16.4052109 3,20.3464262 L3.05960983,20.4891245 C3.09538014,20.5723651 3.13115045,20.6516419 3.17089525,20.7348826 C3.46103224,21.3492779 3.79091402,21.9240349 4.10887237,22.4551895 C4.21220883,22.6375262 4.3155453,22.8119352 4.41490728,22.9903081 C4.70534932,23.4992042 5.05051556,23.9750295 5.44429743,24.4093631 C3.9300208,24.1001835 1.69238893,23.6562333 0.611330556,23.4937158 C0.364307268,23.4600293 0.126228179,23.5992193 0.0350310524,23.8306423 C-0.0543078787,24.0642112 0.0317505422,24.3282976 0.241703978,24.4648569 C1.14391079,25.0554692 2.78934523,26.5339818 4.51426926,28.1353735 L4.49042239,28.1353735 L7.55077147,30.9734836 L7.83295951,31.2350971 C8.83055382,32.1745274 9.86789292,33.1417046 10.8575383,34.0414964 L8.75901319,33.8353767 C8.52131883,33.801528 8.29060772,33.9317007 8.19726632,34.1523276 C8.10392493,34.3729546 8.17140299,34.6286087 8.36156526,34.774807 L13.2462004,38.7386479 L13.2462004,38.7386479 L15.3844702,40.4351718 C15.3980405,40.4519157 15.4126418,40.4678018 15.4281895,40.4827379 L19.1006084,43.4278716 C19.1913981,43.4993715 19.3029268,43.5396924 19.4185668,43.542823 L20.3605184,43.5666061 C18.4682548,44.3889794 16.3284414,44.4401974 14.3987994,43.7093043 C12.7480689,43.1557535 11.2077175,42.3172009 9.84802053,41.2319038 C9.65724552,41.0812778 9.17633352,40.7998451 8.98158403,40.9425434 C8.78683455,41.0852417 8.9299158,41.624324 9.02132883,41.850263 C9.49824721,42.8686953 10.1613949,43.7895088 10.9767727,44.565494 C8.38943469,44.2125778 5.8727459,43.461063 3.51667495,42.3378154 C3.29807859,42.2387194 2.90460513,41.9810697 2.74562596,42.1594426 C2.58664678,42.3378154 2.7178046,42.9086085 2.84498794,43.1107644 C3.74096095,44.5671361 4.77509778,45.9343303 5.93315838,47.1935205 C6.82714378,48.1212598 7.81850618,48.9504994 8.89017101,49.6669572 C9.00940539,49.746234 9.34326165,49.9404622 10.9171555,49.9404622 C11.5093529,49.9404622 12.1730909,49.9087515 12.7255436,49.8572216 L12.928242,49.8374024 C11.5726615,50.3648727 10.112766,50.5711263 8.66362569,50.4399062 C8.39336109,50.4002678 7.78129127,50.4399062 7.7176996,50.6896281 C7.65410794,50.9393501 8.16284129,51.3793365 8.41720797,51.4823963 C10.1834075,52.1232994 12.0125397,52.576369 13.8741681,52.8340661 C15.1755122,53.1939777 16.5050946,53.4432701 17.8486474,53.5792681 C17.9678818,53.5792681 18.0791672,53.5792681 18.1864782,53.5792681 L18.6196964,53.6189066 C19.2993324,53.6783642 19.9392236,53.7417856 20.6268085,53.7417856 C21.1950036,53.7408309 21.762316,53.6971044 22.3239112,53.6109789 C22.328798,53.6801213 22.347729,53.747551 22.3795539,53.8091709 L22.6855888,54.4156386 C22.5708119,54.4324602 22.4654512,54.4885021 22.3875028,54.5741922 C22.2302841,54.7398693 22.19669,54.9871618 22.3040388,55.1885875 L22.9677768,56.4253059 C22.9830607,56.45509 23.0017311,56.4830207 23.0234195,56.5085466 L23.0711133,56.5680042 C23.0416657,56.5808358 23.0136841,56.5967825 22.9876492,56.6155703 C22.8075628,56.7417593 22.7238566,56.9654284 22.7770018,57.1784357 C22.9554888,58.0897776 23.4977852,58.8895983 24.279355,59.3942227 C24.5854843,59.5550664 24.815482,59.8300399 24.9192462,60.159244 C24.9907868,60.408966 25.1060467,60.6903987 25.2252811,60.9916506 C25.4796477,61.6219013 25.8611978,62.577187 25.622729,62.9537518 C25.4038819,63.3258429 25.0915511,63.6346053 24.7165477,63.8495799 C24.4150961,64.0468712 24.1281997,64.2654416 23.8580602,64.5036136 C23.027394,65.2488157 22.9677768,66.2358121 23.6871576,67.4447836 L23.7308768,67.5161327 C23.8412459,67.7084359 24.0604054,67.8113869 24.279355,67.7737824 C24.4994413,67.7385472 24.6731742,67.5684585 24.7125732,67.3496514 C24.8795014,66.5013894 26.2824926,65.8235726 26.5567316,65.8077173 C27.0099371,65.8335547 27.4568748,65.6924973 27.8126671,65.4113332 C28.3214005,64.9039616 31.095587,64.8722508 31.095587,64.8722508 C31.3762388,64.8902203 31.6551967,64.9286399 31.9302277,64.9872022 C32.0301235,65.0310607 32.1270419,65.0813763 32.2203647,65.1378282 C32.3043728,65.1950108 32.404983,65.2228833 32.5065272,65.217105 C32.8762009,65.3358785 33.2330316,65.4912421 33.5716877,65.6808744 C34.1830547,66.0873989 34.8144639,66.4631137 35.4635398,66.8066052 C35.5708508,66.8620989 36.484981,68.0789981 36.6201133,68.0789981 C36.8307607,68.3921415 36.9102503,68.304937 36.9181993,67.9838659 C37.5999283,67.516703 38.0774851,66.8079553 38.2536243,66.0019455 C38.4682749,65.2254431 38.3395303,64.39445 37.8998957,63.7187731 C37.877435,63.6792918 37.8477808,63.6443397 37.8124571,63.6157133 C37.7210441,63.5324726 37.4786009,63.3382444 37.1964128,63.1162693 C36.7989649,62.8150174 36.1630482,62.3235011 36.0318904,62.1570198 C35.6752855,61.7189948 35.4116132,61.21329 35.2568669,60.6705795 C35.41222,60.6629031 35.5568649,60.5893316 35.6543148,60.4684236 C35.7540507,60.3419772 35.7919475,60.1777127 35.7576513,60.0205096 L35.6861107,59.71133 C35.5748253,59.2435968 35.4516164,58.7164059 35.3522544,58.1257936 L35.3522544,58.0980468 L35.3840502,58.0980468 C35.6781862,58.0980468 35.9166305,57.8602407 35.9166305,57.5668921 C35.9184912,57.4721449 35.8937084,57.3787717 35.8450899,57.2973509 L35.2568669,55.7118145 L35.3681523,55.8346936 C35.5152081,55.9853196 35.8649622,56.2310777 36.0676607,56.1755839 C36.2703591,56.1200902 36.2703591,55.7197422 36.2862571,55.5096587 C36.3697211,54.4513131 37.1805149,53.3771123 38.0588748,52.73497 C38.0873384,52.8268525 38.1246054,52.9157885 38.1701603,53.0005474 C38.2615733,53.1749564 38.2695222,53.5634128 38.4682462,53.5634128 L38.4682462,53.5634128 C38.6709447,53.5634128 38.8219749,53.2819801 39.1121119,52.9807282 C39.3905067,52.6220561 39.755638,52.3397345 40.1732978,52.1602131 L42.0134818,52.8974875 C42.1463249,53.3528546 42.4004241,53.7638045 42.7487605,54.0866398 C43.160899,54.4016847 43.5908517,54.6928464 44.0364918,54.9586848 L44.2431647,55.0855277 C44.182923,55.1164683 44.120489,55.1429648 44.0563642,55.1648045 C43.8457168,55.2401175 43.2415959,55.4383095 43.2415959,55.6642485 C43.2415959,55.8901874 43.8417423,56.0844156 44.0364918,56.1636924 C44.451317,56.316732 44.8898778,56.395891 45.332172,56.397559 C46.1533597,56.4330482 46.9490536,56.1086716 47.5101867,55.5096587 C47.9050483,55.0404321 48.0657746,54.4181919 47.9473794,53.8170986 C47.8678898,53.33351 47.6771148,52.1403939 47.6135232,51.7598652 L48.1143076,50.1346904 C48.1267659,50.0827303 48.1334305,50.0295566 48.13418,49.9761368 C48.1010193,49.0874746 47.8788383,48.2159918 47.4823653,47.4194594 L47.4624929,47.3600018 C47.4433477,47.297831 47.4123046,47.2399491 47.3710799,47.1895566 L47.3035138,47.0587499 C47.1777233,46.7832677 47.0302043,46.518179 46.8623466,46.2659817 C45.9363363,44.8047242 44.8381846,43.4593297 43.5913501,42.2585386 C43.4323709,42.1118765 43.118387,41.8621545 42.9196631,41.9414313 C42.7209391,42.0207081 42.6811943,42.4606945 42.6931177,42.6787057 L42.6931177,42.7936571 C42.4768488,42.4477395 42.2322459,42.1202656 41.9618135,41.8145884 C41.7539169,41.515705 41.5930782,41.1868682 41.484876,40.8394836 C42.5683105,36.299685 44.8094799,32.1160795 47.9910987,28.6942751 C48.0793954,28.6078494 48.1330883,28.492296 48.1421289,28.3692401 C49.1913915,17.9165917 61.1585487,13.3066448 61.2817576,13.274934 C61.3254769,13.2551148 61.6354862,13.1599827 61.6792055,13.1322358 C62.0766535,12.82702 62.1601175,12.5852257 62.1283217,12.4821659" id="path152"></path>
            </g>
            <g id="g154" transform="translate(4.300387, 84.288586)" fill="#292B64">
                <path d="M32.9285613,8.96476531 C27.221209,8.96476531 23.5527645,6.98284486 19.6895706,4.93750297 C17.5084787,3.69676889 15.223922,2.64640462 12.8614151,1.79814099 C5.44901117,-0.683223404 0.449116165,2.48388546 0.397447933,2.51559619 L0,1.89327317 C0.218596363,1.75453874 5.35759814,-1.50373847 13.1157818,1.10050499 C15.5172478,1.95675509 17.8403046,3.0177001 20.0591972,4.2715777 C24.1727833,6.47150939 28.0558496,8.55252585 34.4825827,8.16406945 C40.4443017,7.80732377 44.5499389,5.78576492 48.5045458,3.83951904 C50.1579292,3.02296782 51.7238741,2.25398269 53.3693085,1.63562351 L53.7667564,1.48499756 C56.0123373,0.601061042 61.9661073,-1.74156892 67.2402414,2.27776574 L66.7871507,2.87234187 C61.8508474,-0.877451607 56.1792654,1.35022697 54.0409955,2.19452508 L53.6435476,2.34911487 C52.0089372,2.99388798 50.4078522,3.72018699 48.846351,4.52526352 C45.0149529,6.41601562 40.670847,8.55648969 34.5382254,8.9251269 C33.9937217,8.95683762 33.4690905,8.97269299 32.9484337,8.97269299" id="path156"></path>
            </g>
            <g id="g158" transform="translate(36.243277, 87.378939)" fill="#1F3C85">
                <path d="M0.238530598,0 L0.0495063505,0 L0,1.2406822 L0.175522515,1.2406822 C0.693088906,1.2406822 0.981125854,1.06230936 0.999128164,0.62628686 C1.01713047,0.190264362 0.756096989,0.0158553635 0.238530598,0" id="path160"></path>
            </g>
            <g id="g162" transform="translate(40.217756, 87.517674)" fill="#1F3C85">
                <polygon id="path164" points="0 1.50625954 1 1.38734431 0.276995305 0"></polygon>
            </g>
            <g id="g166" transform="translate(26.974791, 85.329634)" fill="#1F3C85">
                <polygon id="path168" points="0.763100032 1.49040417 1.04926254 0 0 1.10591161"></polygon>
            </g>
            <g id="g170" transform="translate(12.197677, 79.276849)" fill="#1F3C85">
                <path d="M0.349754181,0.0198192044 L0.0755151073,0 L0,1.2406822 L0.282188033,1.2406822 C0.460642531,1.27803622 0.646446373,1.23244984 0.787157509,1.11678955 C0.927868646,1.00112925 1.00822383,0.827940958 1.00554327,0.646106064 C1.02939015,0.249721976 0.794895867,0.0277468862 0.349754181,0.00396384088" id="path172"></path>
            </g>
            <g id="g174" transform="translate(48.246205, 85.182972)" fill="#1F3C85">
                <polygon id="path176" points="0.190283401 1.51418722 1 1.16140538 0 0"></polygon>
            </g>
            <g id="g178" transform="translate(1.486455, 76.254731)" fill="#1F3C85">
                <path d="M67.411144,7.24757198 C67.0527263,7.27477727 66.739878,7.00746732 66.711849,6.65006677 C66.6838201,6.29266622 66.9511916,5.98009611 67.3094919,5.95139368 C67.6677922,5.92269124 67.9817605,6.18869183 68.0112904,6.54597215 C68.0255504,6.71850407 67.970219,6.88958233 67.857561,7.02128489 C67.744903,7.15298744 67.5842251,7.23443445 67.411144,7.24757198 M66.3897028,3.57309148 C66.1620872,3.3339412 65.8590185,3.18001373 65.5312153,3.13706899 C64.899273,3.06968369 64.434259,3.49777851 64.3388715,4.282619 C64.243484,5.0674595 64.6528553,5.59068649 65.2927465,5.66203563 C65.6265992,5.68246571 65.9599008,5.61406871 66.258545,5.46384359 L66.3141877,6.5895744 C65.8862795,6.75176642 65.4251937,6.80754723 64.9708137,6.75209187 C63.5598735,6.60146592 62.8166459,5.6105057 62.983574,4.14388457 C63.1505021,2.67726344 64.1282241,1.86071222 65.5590366,2.01530202 C65.9683363,2.05322777 66.3623899,2.18921354 66.7076611,2.41168611 L66.3897028,3.57309148 Z M62.0654693,6.60542976 C61.8007699,6.62713666 61.5490789,6.4874712 61.4280217,6.25170468 C61.3069644,6.01593817 61.3404472,5.73062954 61.5128221,5.52911502 C61.685197,5.3276005 61.9624236,5.24967499 62.2149428,5.33175621 C62.467462,5.41383742 62.6454065,5.63971606 62.6656157,5.90382992 C62.6930599,6.26249978 62.4249343,6.57595153 62.0654693,6.60542976 M60.1418213,6.89875399 L58.8063962,7.17622285 L57.8564957,2.6534804 L60.7220953,2.05494043 L60.9565895,3.15688819 L59.4224405,3.47399546 L59.5774452,4.20334218 L60.6823505,3.97343941 L61.0797984,5.02782109 L59.7920671,5.29736227 L60.1418213,6.89875399 Z M54.1801023,8.97977045 L52.4273569,4.69882229 L55.2611607,3.54930844 L55.6586086,4.54819634 L54.0688169,5.19033856 L54.3192091,5.8047339 L55.5115529,5.31718147 L56.06798,6.2407564 L54.7524273,6.7838026 L55.0346153,7.46954707 L56.6760753,6.79965796 L57.0735232,7.79854587 L54.1801023,8.97977045 Z M52.5306934,9.86767081 C51.2548855,10.48603 50.0943375,10.0420798 49.4504719,8.71419311 C48.8066062,7.38630641 49.2040542,6.1733711 50.4957599,5.5431204 C50.8641645,5.35351194 51.2735639,5.25688009 51.6881037,5.2616877 L52.0418324,6.41912924 C51.7219467,6.33807331 51.3838656,6.36885288 51.0839829,6.50633374 C50.5116579,6.78776644 50.3447297,7.39819794 50.6865349,8.09187009 C51.0283402,8.78554225 51.6483589,9.03130038 52.2286329,8.74986768 C52.5244094,8.59293341 52.7717325,8.35860544 52.9440392,8.07205089 L53.5879049,8.99562581 C53.3129817,9.36070427 52.9527835,9.65326234 52.5386423,9.8478516 M49.0252026,11.5404117 L48.4409541,10.8982694 L47.1055291,11.5007733 L47.2168145,12.2935414 L46.0085728,12.8564068 L45.5515076,7.96899102 L46.9544989,7.33477648 L50.2016485,10.7833181 L49.0252026,11.5404117 Z M42.7097549,13.8790778 L41.342534,9.46335904 L42.6580867,9.06697495 L43.6835024,12.3688544 L44.9354633,11.9724703 L45.4600946,13.0347797 L42.7097549,13.8790778 Z M40.4045569,14.4141963 L40.0269814,13.6214281 L38.5802709,13.8196202 L38.4610365,14.6123883 L37.1415094,14.7907612 L38.0953844,9.97073067 L39.61761,9.76461094 L41.7519054,13.9940292 L40.4045569,14.4141963 Z M34.9515713,13.3558508 L34.7369494,13.3558508 L34.6892556,14.7431951 L33.3220347,14.6995928 L33.4770394,10.0737905 L35.0668312,10.1292843 C36.259175,10.1689227 36.9785557,10.7080051 36.9388109,11.7742783 C36.8990661,12.8405515 36.1041703,13.4034169 34.9515713,13.3598146 M30.7266997,14.2397873 L27.9962324,13.3558508 L29.419096,8.95995124 L30.7266997,9.38408222 L29.6615393,12.6899255 L30.9095258,13.0863096 L30.7266997,14.2397873 Z M27.2689027,12.9158644 L25.9295032,12.4838058 L26.060661,11.6276162 L24.7570318,10.9735824 L24.2045791,11.5681585 L23.0122353,10.9696186 L26.533624,7.53693237 L27.9087939,8.22664068 L27.2689027,12.9158644 Z M20.9931998,9.85181544 L22.6147874,6.76794724 L21.5098822,6.18922647 L22.0424624,5.18241088 L25.3452547,6.90668167 L24.9835771,8.00466559 L23.8349526,7.40216178 L22.213365,10.4899938 L20.9931998,9.85181544 Z M19.5703362,5.92761297 C20.4010024,6.65695969 20.6593436,7.16829517 20.3652321,7.86593116 C19.9320139,8.8687829 19.0337815,8.9361682 18.1713195,8.567531 C17.6123958,8.33161953 17.1098716,7.98038888 16.6967877,7.53693237 L17.3247554,6.5895744 C17.6704192,7.01993291 18.1057344,7.37022842 18.6005633,7.61620918 C18.846981,7.71926905 19.045705,7.70341368 19.1251946,7.51711316 C19.2046841,7.33081264 19.1251946,7.20793357 18.6403081,6.75605571 C17.9010549,6.07823892 17.6307903,5.62636106 17.9487487,4.88115898 C18.3461966,4.00911398 19.1967352,3.86245187 20.0393248,4.22316139 C20.5346715,4.41562191 20.9753682,4.72586923 21.3230816,5.12691711 L20.6990884,6.07031124 C20.4222106,5.70006821 20.0630593,5.39886301 19.6498258,5.19033856 C19.3954591,5.08331486 19.2523779,5.11502559 19.1728883,5.26565154 C19.0933987,5.41627749 19.1728883,5.55897577 19.5703362,5.92761297 M15.4050819,7.46954707 L14.0776058,7.10883755 L14.5028751,5.5431204 L13.7079792,2.3720477 L15.1705876,2.58213126 L15.5481632,4.52044946 L16.823971,3.07761137 L18.2031153,3.45021242 L15.8184277,5.88797456 L15.4050819,7.46954707 Z M11.6571479,6.75605571 L10.8980223,5.22601313 L10.6873749,5.22601313 L10.6039109,6.65695969 L9.24066445,6.57371903 L9.518878,1.9558444 L11.2875213,2.06286811 C12.4798651,2.13421724 13.1356542,2.70501033 13.076037,3.69597055 C13.0692621,4.2637668 12.7190888,4.77117696 12.1897281,4.980255 L13.1197563,6.63317665 L11.6571479,6.75605571 Z M7.37663364,6.89479014 C5.98556588,7.16036748 4.99194604,6.43102076 4.70578353,4.980255 C4.41962102,3.52948923 5.1350273,2.46321604 6.54994194,2.20556638 C6.94459309,2.12287927 7.35331439,2.13510808 7.74228574,2.24124095 L7.78600502,3.45417626 C7.49633319,3.29196834 7.15982023,3.2332362 6.83212998,3.28769494 C6.20813672,3.40661017 5.88620389,3.95362021 6.03723411,4.73053302 C6.18826432,5.50744584 6.72084455,5.8919384 7.35278677,5.76905933 C7.68013031,5.6926302 7.98079501,5.52969262 8.22319774,5.29736227 L8.62064568,6.35967162 C8.25885883,6.6412112 7.83286191,6.82912857 7.38060812,6.90668167 M51.9504194,2.81203403 C46.7001322,6.1535519 42.411669,8.14736386 37.0540708,8.16718307 C29.7926971,8.19492995 24.1608599,3.41057401 16.4940892,0.826149752 C8.8273186,-1.7582745 0,2.5464567 0,2.5464567 C0,2.5464567 2.81790585,5.28943459 3.03252773,10.2521634 C3.03252773,10.2521634 8.14768263,6.92253703 15.8184277,9.49110592 C23.4891729,12.0596748 27.4596777,17.1849211 37.3243354,16.5903449 C45.9171597,16.0750456 50.8057693,12.1072409 56.3223466,10.038116 C58.0353472,9.39597374 64.3468204,6.47065917 69.807755,10.6009814 C70.0839277,7.74990058 71.1596885,5.03404089 72.9118234,2.76446794 C66.3777794,-1.89304509 55.8215622,0.354452687 51.9504194,2.81203403" id="path180"></path>
            </g>
            <g id="g182" transform="translate(0.794896, 75.869853)" fill="#C41724">
                <path d="M8.56500296,12.2820355 C8.92682691,12.2834311 9.28762032,12.3206088 9.64208686,12.393023 C9.79311708,12.4247337 9.95209625,12.468336 10.1071009,12.5079744 C10.4528806,12.5991427 10.9019968,12.7299495 11.060976,12.6229258 C11.1337573,12.5354518 11.1694103,12.42309 11.160338,12.3097823 C11.1719501,12.1682083 11.1123932,12.0301092 11.0013588,11.9411451 C10.472753,11.4892673 8.88693579,11.5170142 7.53163834,11.6834955 L7.53163834,12.4049145 C7.86398855,12.3199783 8.20603333,12.2786697 8.54910505,12.2820355 M64.5097741,11.8301576 C64.0155368,11.7849716 63.5189689,11.8870542 63.082936,12.1234818 C62.964816,12.2026039 62.8981184,12.3386656 62.9080589,12.4802275 C62.8952427,12.5938533 62.9249666,12.7081958 62.991523,12.8012986 C63.1306297,12.9122862 63.6035928,12.8012986 63.9493725,12.7339133 C64.1083517,12.6982387 64.2713053,12.6625642 64.4223355,12.6387811 C65.1191293,12.5221914 65.8331924,12.5614545 66.5129117,12.7537325 L66.5645799,12.0323135 C65.8864424,11.908275 65.1991418,11.840657 64.5097741,11.8301576 M67.1528028,13.9270294 L66.640095,13.5980306 C65.9824768,13.2981285 65.2469239,13.2121508 64.5375954,13.3522725 C64.3984886,13.3760555 64.2514329,13.4077663 64.1043772,13.439477 C63.5360266,13.5623561 62.9478037,13.6931628 62.5384323,13.364164 C62.2909178,13.1394123 62.1617582,12.8129864 62.1886781,12.4802275 C62.1810204,12.1173988 62.3498337,11.7732917 62.6417688,11.5566526 C63.8778319,10.5934392 67.5065315,11.4734119 67.9159029,11.5566526 C68.3252742,11.6398932 69.3864602,11.8618683 69.8594233,11.5289057 C69.9916248,11.438706 70.0739615,11.2920698 70.0819941,11.1325216 C70.3273164,8.27113681 71.3495853,5.5304577 73.0390067,3.20483983 C66.7434315,-0.98097614 56.7237691,1.0881488 52.7890345,3.47834485 C48.3097963,6.20546738 43.4529826,8.86520461 37.7098599,8.88898766 L37.6422938,8.88898766 C32.9683061,8.88898766 28.9699799,6.9348141 24.7371594,4.869653 C22.2462788,3.5848928 19.6716391,2.46853812 17.0306439,1.52813514 C10.5482682,-0.640085824 3.11996628,2.22577113 1.25196099,3.03439468 C2.9787338,5.18691137 3.95538896,7.84186871 4.03409652,10.5974031 C4.02901275,10.7600124 4.1030372,10.9150476 4.23282049,11.0136064 C4.69783457,11.3663882 5.82261222,11.2157623 6.16839193,11.1364854 C6.58968674,11.0492809 10.2541567,10.3437173 11.442526,11.3624244 C11.7217783,11.5948282 11.8700678,11.9482914 11.8399739,12.3097823 C11.8494611,12.6437946 11.7025568,12.9631886 11.442526,13.1738997 C11.0172567,13.4830792 10.4330083,13.3245256 9.87260667,13.1738997 C9.72555093,13.1342612 9.58246967,13.0946228 9.44733738,13.066876 C8.74467963,12.8919081 8.00452178,12.9432475 7.33291437,13.2135381 L6.80430862,13.5187538 L6.76456383,11.7548446 C6.59763569,11.7825915 6.442631,11.8103384 6.29954974,11.8420491 C6.15646849,11.8737598 4.58654915,12.2067225 3.77575537,11.5883633 C3.47417864,11.3605234 3.29518116,11.0064132 3.29086889,10.6291138 C3.08419596,5.87250475 0.393473454,3.19294831 0.365652099,3.16520142 L0,2.80845574 L0.461039603,2.58251681 C0.826691701,2.40414397 9.50695457,-1.73806975 17.2293679,0.846354508 C19.8995174,1.79705794 22.503257,2.92395822 25.0233219,4.2195831 C29.1806273,6.24906963 33.1074129,8.18342398 37.6104979,8.18342398 L37.6740896,8.18342398 C42.6898825,8.18342398 47.022065,6.13808209 52.3796631,2.87980488 C56.5250451,0.358802079 67.2084455,-1.80545504 73.7385151,2.84809415 L74.0604479,3.07799692 L73.7981323,3.37924883 C72.0651132,5.64412825 71.0133925,8.35368628 70.7656045,11.1919792 C70.742564,11.568147 70.547716,11.9129669 70.2369988,12.1274457 C69.3944092,12.7061664 67.8523112,12.3058185 67.693332,12.2582524 C67.5343528,12.2106863 67.403195,12.1869033 67.2442159,12.1551925 L67.1528028,13.9270294 Z" id="path184"></path>
            </g>
            <g id="g186" transform="translate(4.296412, 84.363899)" fill="#C41724">
                <path d="M32.9365102,8.94098226 C27.2291579,8.94098226 23.564688,6.95906182 19.7014941,4.91371992 C17.5204021,3.67298585 15.2358454,2.62262157 12.8733386,1.77435794 C5.47683252,-0.699078768 0.445141685,2.46406626 0.397447933,2.49577698 L0,1.89327317 C0.214621884,1.7505749 5.35759814,-1.49977463 13.1157818,1.10050499 C15.5162965,1.95595964 17.8381007,3.01693992 20.0552227,4.2715777 C24.1688088,6.47150939 28.0558496,8.54856201 34.4865572,8.16406945 C40.4681486,7.80732377 44.5578878,5.78576492 48.5124948,3.83951904 C50.0955435,3.02305453 51.7192312,2.28747126 53.3772575,1.63562351 L53.7747054,1.48499756 C56.0163117,0.601061042 61.9661073,-1.74156892 67.2362669,2.27776574 L66.7990742,2.85252266 C61.8508474,-0.905198494 56.1752909,1.33040776 54.0409955,2.17074203 C53.8859908,2.23019965 53.754833,2.28569342 53.6435476,2.32533183 C52.0089372,2.97010493 50.4078522,3.69640395 48.846351,4.50148047 C45.0149529,6.39223257 40.670847,8.53667049 34.5382254,8.90134385 C33.9976962,8.93305458 33.4690905,8.94890994 32.9484337,8.94890994" id="path188"></path>
            </g>
            <g id="g190" transform="translate(9.491057, 84.746949)" fill="#C41724">
                <path d="M2.43635583,3.15918118 C1.44145488,2.38266274 0.612970712,1.41486601 0,0.31314343 L0.651814611,0 C1.22207804,1.00408977 1.98354266,1.88739425 2.89342096,2.60027962 L2.43635583,3.15918118 Z" id="path192"></path>
            </g>
            <g id="g194" transform="translate(63.392945, 84.659745)" fill="#C41724">
                <path d="M0.397447933,3.3930478 L0,2.81036319 C1.86800529,1.45869345 2.09057613,0.0356745679 2.09057613,0 L2.80598241,0.103059863 C2.80598241,0.174408999 2.53571782,1.86300522 0.421294809,3.3930478" id="path196"></path>
            </g>
            <g id="g198" transform="translate(45.956905, 49.758126)" fill="#2E388C">
                <path d="M0.31,0.31 L0.69,0.69 C0.69,0.69 0.64,0.53 0.31,0.31" id="path200"></path>
            </g>
            <g id="g202" transform="translate(41.855242, 19.890584)" fill="#2E388C">
                <path d="M0.9,1.94228203 C0.62,1.40716351 0.33,0.753129768 0.1,0 C0.28,0.614395337 0.53,1.25257372 0.9,1.94228203" id="path204"></path>
            </g>
            <g id="g214" transform="translate(41.855242, 19.890584)" fill="#FFFFFF">
                <path d="M0.9,1.94228203 C0.62,1.40716351 0.33,0.753129768 0.1,0 C0.28,0.614395337 0.53,1.25257372 0.9,1.94228203" id="path216"></path>
            </g>
            <g id="g220" transform="translate(4.101663, 0.802006)">
                <g id="g230" transform="translate(4.109612, 0.000000)" fill="#1F3C85">
                    <path d="M46.3742249,54.0100167 C46.1469297,54.2739859 45.861188,54.4816119 45.5395842,54.6164844 C45.2137397,54.7777896 44.8454134,54.8332372 44.4863472,54.775038 L44.5101941,54.775038 L44.5976326,54.7314358 L44.6612243,54.6957612 C45.4044519,54.2359557 45.0030295,53.3718384 44.2319805,52.4918657 L44.2319805,52.4918657 L42.4633372,50.9459677 L42.3679497,50.8666909 L42.3401283,50.8429079 L42.3600007,50.8429079 L42.4156435,50.8429079 L42.4156435,50.8429079 L42.4792351,50.8230887 L42.7455252,50.9697508 L43.6437576,51.4771224 L43.7113237,51.512797 L44.1087716,51.7347721 L44.5419899,51.9805302 L44.5419899,51.9805302 L45.4680436,51.7545913 C45.6707097,51.711364 45.8634767,51.6306993 46.0363941,51.5167608 C46.0363941,51.5801823 46.8034686,53.4748982 46.3543525,54.0417275 M44.3671128,53.6651626 L43.7311961,53.1458994 L43.2701565,52.7772622 L43.1548966,52.4244804 L43.1270753,52.3293482 L42.9680961,51.8497235 L42.9680961,51.8497235 C43.4608576,52.180506 43.8691871,52.621679 44.1604399,53.1379717 C44.2160826,53.2291401 44.5022451,53.7840778 44.5022451,53.7840778 L44.3671128,53.6651626 Z M41.0444481,49.3049376 L40.2257053,47.8383165 L38.1391037,46.7878986 L39.8441553,48.7698191 C38.5800842,48.0080001 37.2001262,47.4564234 35.7583906,47.1367166 C35.7583906,47.1367166 37.1693307,48.4527118 37.8410177,49.1186371 C37.9052704,49.1527357 37.9578578,49.2051823 37.992048,49.269263 L37.8410177,49.1186371 C37.6422938,48.9917942 37.1931776,48.821349 36.1637875,48.7618914 C35.0713781,48.6702473 34.0094661,48.3558993 33.0438212,47.8383165 C33.2238722,48.0836068 33.4334376,48.3059236 33.6678144,48.5002779 L33.6876868,48.5002779 L33.6876868,48.5002779 C34.2045505,48.9336433 34.8012894,49.262183 35.4444067,49.4674551 C35.5040239,49.4872743 36.2869963,49.8123092 36.350588,49.8281646 C35.8388921,50.0245327 35.3572805,50.2913786 34.9197754,50.6209328 C34.2389787,51.1388618 33.7149333,51.8343471 33.4054988,52.6306001 C32.9166378,53.8712823 32.4714962,56.1148162 32.8133014,57.3872092 C31.7362175,55.9404072 30.7823424,54.077402 31.3109482,51.9686387 C29.6694882,52.8922136 28.6083022,52.5869979 27.4676267,52.4205165 C26.7248035,53.5843511 26.2761091,54.9105093 26.160023,56.2852614 C26.0597126,56.1258547 25.9694498,55.9603746 25.8897584,55.7897813 C25.4728923,54.865076 25.236824,53.8695164 25.1942245,52.856539 C25.1642456,52.481891 25.1642456,52.1054563 25.1942245,51.7308082 L25.1942245,51.7308082 L28.9501075,49.0750348 L23.4851984,48.6152293 L23.4851984,48.6152293 C23.5726369,48.547844 23.6680244,48.4804587 23.7594375,48.4170372 C25.861937,46.9385246 28.457272,45.9198175 31.0645305,46.0387327 C31.2672289,46.0387327 31.4619784,46.0625158 31.6686513,46.0862988 C29.9914211,45.1508324 27.0463319,45.1944346 25.3094844,45.7374808 C22.9247968,46.4787191 21.9987431,46.530249 19.4630253,46.0744073 C22.1259265,45.5353249 22.0305389,45.4639758 23.6084072,44.7187737 C24.908062,43.9933908 27.3722392,42.6575764 30.480282,43.2283695 C29.7312788,42.8642849 28.9486117,42.5735616 28.1432882,42.3602884 C26.8453546,42.0548538 25.4968425,42.0305239 24.1886812,42.2889392 C25.037943,41.502888 26.1146887,41.0048039 27.2649282,40.8659204 C24.5304864,38.4043752 16.442421,34.523775 16.442421,34.523775 C27.9246918,37.2271144 32.8053524,42.6020827 33.5326821,43.4701638 L33.6757634,43.5851152 C31.5647788,38.9265772 28.0952767,35.0105251 23.7196927,32.3476263 C22.7499197,31.7451225 21.6847592,31.3209915 20.6990884,30.76209 C19.1566427,29.8792291 17.6938556,28.8646502 16.3271611,27.7297517 L16.3271611,27.7535347 C3.39817983,17.4554761 8.2311467,3.31645568 8.2311467,3.31645568 C7.88867,6.47796289 8.26078645,9.67582889 9.32015404,12.675084 C9.89555859,14.3752877 10.6121229,16.0246755 11.4623984,17.6061021 C12.198008,18.9768577 13.0183321,20.3006901 13.9186266,21.5699429 C15.5046577,23.5470661 17.4588296,25.1998974 19.6736727,26.4375396 C19.6736727,26.4375396 9.87260667,19.7941422 15.4368777,5.60755571 C15.2222558,6.21402337 11.3670109,17.582319 25.8460391,27.4839935 C26.1242527,27.6702941 26.3269511,27.6623664 26.4104152,27.8803776 C28.3380377,32.5022161 35.7544161,39.8670325 37.1415094,43.4107062 C37.0779177,42.6853233 37.0183005,41.9599405 36.9547088,41.2345576 C37.7998399,42.1364955 38.4230307,43.2221246 38.7750204,44.4056303 C38.8386121,43.6881751 38.9022037,42.6020827 38.9657954,41.8885913 C40.6129826,42.8718594 42.1095154,44.086707 43.4092633,45.4956865 L43.3695185,45.4520843 L43.2224628,45.2974945 L43.2860544,45.3648798 L43.3178503,45.4005543 C43.3340423,45.4187291 43.351295,45.4359356 43.3695185,45.4520843 C43.3806045,45.4684418 43.3939895,45.4831259 43.4092633,45.4956865 L43.3456716,44.4452687 L43.3138758,43.9537524 C43.3138758,43.9537524 45.5316352,46.6729473 46.2828118,48.7737829 C46.3265311,48.896662 46.3662759,49.0155772 46.3981728,49.1265648 C46.4011467,49.5521324 46.3340091,49.9753063 46.1993478,50.3791385 C46.0734115,50.6210847 45.9067049,50.8396366 45.7065123,51.0252446 C45.6794724,51.0457507 45.6501283,51.063044 45.6190738,51.0767745 C45.7224103,50.9974977 45.7422827,50.8072333 45.7462571,50.6288605 C45.7397816,50.3844061 45.6955423,50.14241 45.6150993,49.9114053 C45.5445588,49.6835137 45.4609571,49.4598493 45.3647071,49.2415162 C45.2812431,49.0393603 45.2176514,48.9085535 45.2176514,48.9085535 C45.260336,49.2769387 45.2482828,49.6495894 45.1818811,50.0144651 C45.1811985,50.0223782 45.1811985,50.0303351 45.1818811,50.0382482 C45.0705956,50.5218368 44.8440503,50.6526435 44.7844331,50.6764266 L44.7844331,50.6764266 C44.7844331,50.5971497 44.7486628,50.5218368 44.7327649,50.4544515 C44.6691732,50.2760786 44.6016071,50.1016696 44.5340409,49.9312245 C44.2796743,49.3049376 43.365544,47.576703 43.0634836,46.9741992 C42.8051424,47.3428364 43.1509221,48.199026 43.1509221,48.199026 C43.2701565,48.4289288 43.5483701,48.9917942 43.5483701,48.9917942 C43.3422959,49.565926 43.6165399,50.2012309 44.1763378,50.4465238 C43.8455438,50.4900937 43.5096577,50.4217005 43.2224628,50.2522956 C43.4367258,50.6295438 43.7044498,50.9739832 44.0173586,51.2749665 C43.373493,51.112449 41.8949867,49.9470798 41.0881674,49.2930461 M46.549102,46.8632116 L46.5173061,46.7680794 C46.5159496,46.7878756 46.5159496,46.8077409 46.5173061,46.8275371 C46.4656379,46.728441 46.4179441,46.629345 46.3662759,46.5223213 C46.2516714,46.2712022 46.1188356,46.0287634 45.968828,45.7969384 C45.0666602,44.3776737 43.9993898,43.0697755 42.7892445,41.9004828 L42.8170659,42.419746 L42.8170659,42.419746 L42.8766831,43.2125142 C42.8766831,43.2125142 36.7917552,39.6886596 34.2003947,36.4422739 C32.1893081,33.925235 29.8721867,31.1782932 28.5009913,27.8050647 L27.9922579,27.0122965 C26.243487,24.9392077 24.4152265,25.3276641 20.4129259,20.7097895 C19.0417305,19.1242531 17.5274539,16.0086742 17.0465419,13.9474769 C16.0803811,9.44477938 16.16469,4.78086732 17.2929596,0.315828131 C17.2929596,0.315828131 17.7977185,-1.16268452 15.0275064,3.22925118 L15.0275064,3.22925118 C13.6341373,5.44540124 12.6764678,7.90580855 12.205626,10.4791162 C11.9693499,11.7679313 11.8681185,13.07776 11.9035656,14.3874633 C10.9476149,12.4774919 10.207782,10.4673422 9.69772957,8.39413585 C9.00146535,5.65873137 8.77568943,2.82532222 9.03001705,0.014576224 C9.03001705,0.014576224 8.54115609,-0.461084682 6.85995133,4.02201936 C5.26807851,8.0211524 4.86112852,12.3920659 5.68747993,16.6151418 C2.59533501,14.0029707 1.89582664,9.21861475 0.866436495,5.42918287 L0.866436495,5.42918287 C0.849302498,5.44612545 0.835782981,5.46635044 0.826691701,5.48864048 C0.749779833,5.67651337 0.706724789,5.87645181 0.699508363,6.07925278 C0.699508363,6.3527578 0.663738049,6.62229898 0.663738049,6.895804 C0.290812037,11.170606 1.08172725,15.4665433 2.95303815,19.3303728 C3.00868086,19.4532519 3.06034909,19.5840587 3.11996628,19.7267569 C3.51741421,20.5195251 3.9426835,21.2330165 4.34808039,21.942544 C5.0197674,23.1316963 5.54042419,23.413129 6.29160079,24.4516553 C6.21608568,24.4516553 1.66530684,23.4884419 0,23.23872 C1.00951775,23.8967175 2.85367616,25.5654946 4.94822677,27.523632 C4.94822677,27.523632 11.2239296,28.0270397 16.1483095,31.6618818 C13.1825041,30.3180918 10.0069015,29.4934652 6.76058935,29.2241197 L7.66677064,30.0763455 C9.12540455,31.4438706 10.5919874,32.8074319 11.8956166,33.9569457 L11.8598463,33.9569457 L8.15960607,33.5883085 L13.4814339,37.8811482 L14.4353089,37.9168227 C15.6298065,37.8941569 16.8230594,38.0058496 17.9924679,38.2497854 C19.0016513,38.4521249 19.9753161,38.80208 20.8819144,39.2883117 C19.6218599,38.9628952 18.3164903,38.8477086 17.0187205,38.9474214 C16.4143442,39.0261925 15.8146557,39.1373407 15.2222558,39.280384 L15.5362397,39.530106 L18.8907003,42.2215539 L21.8834832,42.3008308 C19.3596888,43.8665479 16.8796137,44.4849071 13.7040047,43.4225977 C11.9938416,42.8506649 10.3981749,41.9825089 8.99027225,40.8579927 C9.55067384,42.2334455 10.8582775,43.4146701 11.8717698,44.4571602 C8.71261263,44.2226472 5.62548954,43.3998252 2.7702121,42.0312896 C3.64704408,43.4596312 4.65992354,44.8003276 5.79479087,46.0347689 C6.65650838,46.9255202 7.61040545,47.7227357 8.64051807,48.4130734 C9.03796601,48.6548677 10.9178947,48.64694 12.1539578,48.524061 C12.3844776,48.524061 12.595125,48.4804587 12.7700021,48.448748 C13.0521901,48.4051457 13.4098933,48.3258689 13.7874688,48.2386644 C15.0593022,47.949304 16.5894767,47.5212092 16.5060127,47.576703 C15.926262,47.9512726 15.3280115,48.2965619 14.7135225,48.6112655 C14.3399214,48.8015298 13.9543969,48.9838665 13.5609235,49.1543117 C11.7803567,49.9153691 9.84081083,50.3870662 8.07614201,50.1650911 C10.0547462,50.8901045 12.1161112,51.3667841 14.2127381,51.5841461 C14.7603827,51.6895169 15.3276625,51.6070973 15.8224022,51.3502795 C16.7564049,50.9182208 17.5274539,50.5575113 18.2706815,50.2086933 C18.648257,50.0303205 19.0218581,49.8479838 19.3994336,49.6537556 C19.9200904,49.3921421 20.4606196,49.1107094 21.060766,48.7777468 C20.7149863,49.1027817 20.3652321,49.4040336 20.007529,49.7052855 L19.4113571,50.2047295 C18.6880018,50.7953418 17.9169528,51.3938818 17.0266695,52.1866499 C19.3875102,52.3491674 20.7587056,52.7415877 23.8985442,51.762519 C23.4005174,52.1214326 22.884492,52.4548267 22.3524718,52.7614069 L23.2864744,54.5847737 L22.2729822,54.1328958 L22.9367202,55.3696142 C23.2753021,55.7694821 23.6594415,56.1286488 24.0813703,56.4398512 L24.3118901,57.1691979 C23.7678315,56.9282248 23.2574752,56.6177674 22.793639,56.245623 C23.3222447,58.3464587 24.5742057,57.9342192 24.9358833,59.2066121 C25.1783266,60.0707294 26.0924568,61.6126635 25.5757745,62.4292148 C24.9676792,63.3924281 24.5702312,63.3250428 23.7157182,64.0940279 C22.7220984,64.9819283 23.4851984,66.0759484 23.6918713,66.4445856 C23.832674,65.6341451 24.362815,64.9439926 25.1107604,64.5974357 C25.8023198,64.3952798 26.632986,64.5498696 26.9350464,64.2486177 C28.0280283,63.1625253 30.3769455,62.8850565 32.0025076,63.8997997 C31.2473565,62.6868644 30.861832,62.7106475 29.3634533,62.2944442 C32.0104566,62.4688532 32.1853336,63.0475739 33.4770394,64.5459058 C33.5843504,63.6897162 32.8729186,62.6036238 32.2648232,62.0843606 C32.0740482,61.9218431 29.9715487,61.6285189 27.9286663,61.4501461 C27.21326,61.3867246 26.923123,60.4671135 26.8197865,59.9755973 C27.2064463,60.1952005 27.6392965,60.3214499 28.083671,60.3442345 C27.9405897,59.6228154 27.7458402,58.810228 27.6266059,58.3187118 C27.8888957,58.4664598 28.1839132,58.5468275 28.4850934,58.5525784 L28.1909819,57.3634261 C28.0518751,56.4002128 27.7378913,55.7025768 28.663945,54.2319918 C29.0197291,54.4539895 29.3456239,54.7204014 29.6337179,55.02476 C29.731111,55.5029752 29.8639585,55.9733217 30.0311658,56.4319235 C30.0709106,56.5270557 30.9810664,57.3039685 31.0128622,57.3951368 L29.4469174,56.943259 C29.7992985,57.6882391 30.3353342,58.3319422 31.0049133,58.8141919 C31.4984708,58.9449627 31.9562278,59.1847434 32.3443128,59.5157917 C32.5271389,59.7615499 32.8371483,60.4274751 32.6900925,60.7881846 C32.5708581,61.0735812 31.740192,59.8408267 29.9874466,61.3114116 C31.1797904,61.3312308 32.6185519,61.6562658 32.9285613,62.0209392 C33.2073974,62.4189695 33.5359505,62.7799433 33.9062832,63.09514 C35.1781166,63.8561975 35.2695296,64.2565454 35.1661931,65.7509134 C35.961089,65.1444458 35.7345437,63.5628733 35.6153093,63.1823445 C36.3907009,64.2006384 36.5760947,65.5490371 36.1041703,66.7379098 C36.8990661,66.3018873 37.8330688,64.5776165 36.9388109,63.2140553 C36.6963677,62.996044 35.3728661,62.024903 35.1145249,61.7117596 C34.4507869,60.954666 34.2838587,60.1024402 33.9579514,59.2422867 C34.1884712,59.2422867 34.4786082,59.3453466 34.709128,59.3453466 C34.5938681,58.8340111 34.42694,58.1561943 34.3116801,57.4308114 L34.2759098,57.2286555 L34.2759098,57.1454149 L34.228216,56.8164161 C34.228216,56.7886692 34.228216,56.7609223 34.228216,56.7331754 C34.228216,56.6221879 34.2003947,56.5072365 34.1924457,56.3922851 C34.4221325,56.5441783 34.6640843,56.676763 34.9158009,56.7886692 L34.1805223,54.8067488 L34.1805223,54.8067488 C34.1805223,54.6561228 34.2123181,54.5054968 34.236165,54.3548709 C34.236165,54.3548709 34.236165,54.3350517 34.236165,54.327124 C34.2600119,54.1923534 34.2878332,54.053619 34.319629,53.9307399 C34.319629,53.9307399 34.319629,53.8871377 34.319629,53.8633546 C34.3474504,53.7404756 34.3871952,53.6175965 34.42694,53.4947174 C34.434404,53.4651055 34.4436955,53.4359819 34.4547613,53.4075129 C34.5064296,53.2608508 34.5660468,53.1141887 34.6296384,52.9754543 C34.2957822,53.6849818 35.2774786,54.7155804 35.2774786,54.7155804 C35.4006874,53.1300441 36.8116276,51.6673868 38,51.1481236 C37.9711049,51.450858 38.0275417,51.7556245 38.1629506,52.0280963 C38.4817968,51.4159023 39.0705625,50.9887218 39.7527423,50.8746186 L40.7105918,51.2710027 L41.7280585,51.6673868 L41.9983231,51.7744105 C42.0972545,52.2135279 42.3159533,52.6168318 42.6302653,52.9397797 C43.0634836,53.2885977 43.5125997,53.5462474 44.5936581,54.2399195 C44.4551164,54.5845804 44.1596804,54.842395 43.7987623,54.9335917 C45.3368858,55.5083486 47.2724572,54.8186403 46.9783457,53.1736463 C46.8829582,52.5909617 46.6246171,50.98957 46.6246171,50.98957 L46.6246171,50.98957 L46.9902692,49.8004177 L47.0975801,49.4476359 L47.0975801,49.4119613 L47.1452739,49.24548 C47.113055,48.417863 46.9029687,47.6068025 46.5292296,46.8671755" id="path232"></path>
                </g>
                <g id="g234" transform="translate(34.887980, 3.772668)" fill="#1F3C85">
                    <path d="M24.8802406,7.71326403 L24.9716537,7.71326403 C22.5065101,7.8381538 20.1122429,8.5782264 18.0083659,9.86562963 C19.6895706,6.60735243 23.4017343,4.39552922 26.6806798,3.09935325 C26.6806798,3.09935325 27.0781277,2.47306639 23.1036484,3.06367868 C22.5882703,3.12215123 22.0762211,3.20682334 21.5694993,3.3173645 L21.5694993,3.3173645 C19.3835299,3.79580203 17.3336568,4.75906155 15.57201,6.13565536 C14.5809859,6.91387901 13.7011265,7.82338951 12.9568026,8.83899485 C11.0166433,11.3490056 9.50584899,14.1616062 8.48551338,17.1630607 C8.48551338,17.1630607 8.00857586,11.4353106 15.3335413,3.90401295 C16.1313157,2.56538639 17.0392994,1.29522527 18.0481107,0.10665338 C18.0481107,0.10665338 18.2190133,-0.749536251 14.0736313,2.38982573 C11.0572252,4.49776382 8.50162608,7.19486281 6.56186538,10.3175075 C5.88222941,11.5304428 4.43154446,14.2536015 4.01024965,16.0531853 C4.01024965,16.1047152 4.01024965,16.160209 4.01024965,16.2157027 C4.01024965,16.2711965 4.0579434,17.2938674 4.25666737,18.7287778 C4.49165446,20.1233109 4.81018317,21.5025546 5.21054241,22.8591 C4.57748311,21.5029357 4.02927966,20.1089572 3.56908244,18.6851756 C3.42997567,18.1936593 3.31869024,17.7338538 3.21932826,17.2899036 C3.15971107,17.0124347 3.1159918,16.7468574 3.06829805,16.4971354 C3.04445117,16.358401 3.02060429,16.2117389 3.0007319,16.0650768 C2.96496158,15.8272463 2.92919127,15.5933797 2.90136991,15.3634769 C2.80995689,14.5231427 2.77418658,13.7303745 2.76226314,12.9336425 C2.76226314,11.8832246 2.79405897,10.9319028 2.84175272,10.2461584 C0.937977123,14.6063833 0.759125553,17.9558289 0.755151073,19.2995709 C0.659763569,20.1557606 0.608095338,20.7979028 0.572325024,21.3330213 C1.31811517,23.3234187 2.30586039,25.2150795 3.51343973,26.9656392 C3.51343973,26.9656392 2.09852509,26.172871 0.437192727,23.2792672 C0.341388948,24.1209133 0.195399476,24.9561204 0,25.7804508 C1.564057,28.4720876 3.4020217,30.9958452 5.48478148,33.3117485 L5.48478148,29.5143889 C5.95178218,29.9726985 6.39233257,30.4570655 6.80430862,30.9651547 C7.12483227,29.5114498 7.52284515,28.075823 7.99665242,26.6643873 C11.3193171,16.806315 15.2540517,13.8017236 15.2540517,13.8017236 C11.633301,19.446233 8.30666181,30.8660586 8.44576858,36.2013885 C9.14925143,36.7959646 9.77324468,37.2755893 10.2939015,37.6402627 C10.0212236,37.2557679 9.82554288,36.8223849 9.71760197,36.3639059 C10.7727738,31.638352 13.0658512,27.2764799 16.3629314,23.7232174 C17.4598877,12.8107634 29.8443653,8.1849611 29.8443653,8.1849611 C30.8499086,7.45165054 24.8802406,7.71722788 24.8802406,7.71722788" id="path236"></path>
                </g>
                <g id="g238" transform="translate(47.828884, 66.837006)" fill="#DCDADA">
                    <path d="M13.7993922,7.51544231 L13.7993922,1.34374206 C13.1475776,1.83922217 12.5394823,2.28317235 11.9631828,2.68352028 L11.9631828,4.50292324 L11.0252057,4.50292324 L11.0252057,3.31377098 C7.00303259,5.96558053 5.01181844,6.24304939 5.01181844,6.24304939 C7.15817743,5.17941628 9.17571278,3.87478676 11.0252057,2.35452148 L11.0252057,0 C7.70482321,2.88351838 3.99318752,5.28548718 0,7.13491359 C0,7.25382882 0,7.6105745 0,8.11398229 L8.47358994,8.11398229 C10.2301922,7.82234886 12.0119588,7.70946038 13.7914433,7.77705581" id="path240"></path>
                </g>
                <g id="g242" transform="translate(50.432168, 75.458360)" fill="#B1ACAB">
                    <path d="M3.54126109,0 C2.32696387,0.305135385 1.14196687,0.716320334 0,1.22879067 L0,0 L3.54126109,0 Z" id="path244"></path>
                </g>
                <g id="g246" transform="translate(42.157302, 77.325329)" fill="#B1ACAB">
                    <polygon id="path248" points="1.16849692 3.31773482 0 3.82510645 0 0 1.16452244 0 1.16452244 3.31773482"></polygon>
                </g>
                <polygon id="path250" fill="#B1ACAB" points="43.3218247 76.8615594 42.1612768 76.8615594 42.1612768 73.9481364 43.3218247 73.9481364"></polygon>
                <g id="g252" transform="translate(46.330506, 77.321365)" fill="#B1ACAB">
                    <path d="M1.03733911,0.911683403 L1.03733911,0 L0,0 L0,1.75201767 C0.345779702,1.55382563 0.691559404,1.35563358 1.04131359,1.13365849 L1.03733911,0.911683403 Z" id="path254"></path>
                </g>
                <polygon id="path256" fill="#B1ACAB" points="47.3678447 76.8615594 46.3305056 76.8615594 46.3305056 73.9481364 47.3678447 73.9481364"></polygon>
                <g id="g258" transform="translate(43.790813, 77.325329)" fill="#B1ACAB">
                    <path d="M1,1.93831819 L1,0 L0,0 L0,3.10368741 C0.335,2.9768445 0.67,2.84207391 1,2.70730332 L1,1.93831819 Z" id="path260"></path>
                </g>
                <polygon id="path262" fill="#B1ACAB" points="44.5857092 76.8615594 43.7908133 76.8615594 43.7908133 73.9481364 44.5857092 73.9481364"></polygon>
                <polygon id="path264" fill="#B1ACAB" points="45.8495936 76.8615594 45.0546977 76.8615594 45.0546977 73.9481364 45.8495936 73.9481364"></polygon>
                <g id="g266" transform="translate(45.050723, 77.325329)" fill="#B1ACAB">
                    <polygon id="path268" points="1 1.73616231 1 0 0 0 0 2.46154519 1 2.02155885"></polygon>
                </g>
                <polygon id="path270" fill="#B1ACAB" points="47.3678447 71.4945189 42.1612768 71.4945189 42.1612768 73.4764393 47.3678447 73.4764393"></polygon>
                <g id="g272" transform="translate(20.285743, 77.325329)" fill="#B1ACAB">
                    <path d="M1.14465005,1.22879067 C0.767074511,1.04249015 0.385524495,0.856189631 0,0.67385295 L0,0 L1.14465005,0 L1.14465005,1.22879067 L1.14465005,1.22879067 Z" id="path274"></path>
                </g>
                <polygon id="path276" fill="#B1ACAB" points="21.450265 76.8615594 20.2857425 76.8615594 20.2857425 73.9481364 21.450265 73.9481364"></polygon>
                <g id="g278" transform="translate(24.411252, 77.325329)" fill="#B1ACAB">
                    <polygon id="path280" points="0.00794895867 2.67162876 1.06516046 3.15521734 1.06516046 0.89582804 1.06516046 0 0 0 0 2.67162876"></polygon>
                </g>
                <polygon id="path282" fill="#B1ACAB" points="25.5082084 76.8615594 24.4629203 76.8615594 24.4629203 73.9481364 25.5082084 73.9481364"></polygon>
                <polygon id="path284" fill="#B1ACAB" points="22.694277 76.8615594 21.8993811 76.8615594 21.8993811 73.9481364 22.694277 73.9481364"></polygon>
                <polygon id="path286" fill="#B1ACAB" points="23.9581614 76.8615594 23.1632656 76.8615594 23.1632656 73.9481364 23.9581614 73.9481364"></polygon>
                <polygon id="path288" fill="#B1ACAB" points="25.5082084 71.4945189 20.3016404 71.4945189 20.3016404 73.4764393 25.5082084 73.4764393"></polygon>
                <g id="g290" transform="translate(23.159291, 77.321365)" fill="#B1ACAB">
                    <polygon id="path292" points="0 2.07308878 1 2.46947287 1 0 0 0 0 2.06912494"></polygon>
                </g>
                <g id="g294" transform="translate(19.021858, 75.458360)" fill="#B1ACAB">
                    <polygon id="path296" points="0 1.94624587 1 2.31884692 1 0 0 0 0 1.93831819"></polygon>
                </g>
                <g id="g298" transform="translate(21.891432, 77.325329)" fill="#B1ACAB">
                    <polygon id="path300" points="0 1.4547296 0.168316832 1.51815106 1 1.84318601 1 0 0.0099009901 0 0.0099009901 1.4547296"></polygon>
                </g>
                <g id="g302" transform="translate(6.247882, 66.840970)" fill="#DCDADA">
                    <path d="M0,5.33136599 L0,1.33977822 C0.647840131,1.83525833 1.25593547,2.27920851 1.83223497,2.68352028 L1.83223497,4.50292324 L2.7702121,4.50292324 L2.7702121,3.31377098 C6.79238518,5.96558053 8.78359933,6.24304939 8.78359933,6.24304939 C6.63724033,5.17941628 4.61970499,3.87478676 2.7702121,2.35452148 L2.7702121,0 C6.03120543,2.83058151 9.66592916,5.20189887 13.5728469,7.04770909 L13.5728469,8.12983765 C13.5728469,8.12983765 6.36711589,8.16551222 6.18826432,8.12983765 C4.15250421,7.7178519 2.06519565,7.62158732 0,7.84444111" id="path304"></path>
                </g>
                <g id="g306" transform="translate(14.169019, 75.434577)" fill="#B1ACAB">
                    <path d="M3.12394076,1.21293531 C2.11442301,0.816551222 0.739253156,0.249721976 0,0 L3.12394076,0 L3.12394076,1.21293531 Z" id="path308"></path>
                </g>
                <g id="g310" transform="translate(17.757974, 75.458360)" fill="#B1ACAB">
                    <polygon id="path312" points="0 1.13365849 0 0 1 0 1 1.72427078 0 1.38338047"></polygon>
                </g>
                <g id="g314" transform="translate(47.828884, 75.458360)" fill="#B1ACAB">
                    <polygon id="path316" points="1 1.86696906 1 0 0 0 0 2.71126716 1 2.16425712"></polygon>
                </g>
                <g id="g318" transform="translate(49.176233, 75.458360)" fill="#B1ACAB">
                    <path d="M1,1.23275451 L1,0 L0,0 L0,1.22482683 L0,1.8709329 C0.305,1.72823463 0.64,1.58553635 1,1.44680192 L1,1.23275451 Z" id="path320"></path>
                </g>
                <g id="g322" transform="translate(25.949376, 64.197087)" fill="#B1ACAB">
                    <path d="M15.7548361,9.27935184 L15.7548361,7.85633296 C15.7548361,5.04953557 14.2534088,2.45594778 11.8161272,1.05254905 C9.37884548,-0.350849682 6.3759906,-0.350849682 3.93870892,1.05254905 C1.50142725,2.45594778 0,5.04953557 0,7.85633296 L0,9.27935184 L1.33939954,9.27935184 C1.25328772,8.84859745 1.20936192,8.41051515 1.20824172,7.97128435 C1.14934104,5.57412994 2.39796905,3.33349518 4.4702752,2.11763897 C6.54258135,0.901782766 9.11289275,0.901782766 11.1851989,2.11763897 C13.257505,3.33349518 14.5061331,5.57412994 14.4472324,7.97128435 C14.4474282,8.41169845 14.4048348,8.85109532 14.320049,9.28331568 L15.7548361,9.27935184 Z" id="path324"></path>
                </g>
                <g id="g326" transform="translate(6.247882, 64.153486)" fill="#DCDADA">
                    <path d="M1.83223497,3.61502289 L1.83223497,1.84714985 L0,0 L0,2.07308878 C0.527021277,2.85143547 1.1417802,3.5669561 1.83223497,4.20563518 L1.83223497,3.61502289 Z" id="path328"></path>
                </g>
                <g id="g330" transform="translate(59.792067, 64.153486)" fill="#DCDADA">
                    <path d="M1.83620945,2.07308878 C1.30598759,2.85015288 0.690069708,3.56547076 0,4.20563518 L0,1.84714985 L1.83620945,0 L1.83620945,2.07308878 Z" id="path332"></path>
                </g>
                <g id="g334" transform="translate(32.140924, 79.730762)" fill="#B1ACAB">
                    <path d="M0.476915819,0.000813486687 C0.340172605,-0.00740245765 0.207126213,0.0469547546 0.115483885,0.148479516 C0.0238415571,0.250004277 -0.0164089037,0.387631729 0.00614005608,0.522356293 C-0.010963755,0.651770484 0.0328956714,0.781799873 0.124956333,0.874609141 C0.217016994,0.967418409 0.346938093,1.01258267 0.476915819,0.996960247 C0.668277241,0.99415925 0.852895675,0.926051716 1,0.803989409 L1,0.803989409 C1,0.308523743 0.785535486,0.0425369112 0.476915819,0.0425369112" id="path336"></path>
                </g>
                <g id="g338" transform="translate(34.069237, 79.739308)" fill="#B1ACAB">
                    <path d="M0.502347418,0 C0.178403756,0 0,0.265577339 0,0.745202086 C0,1.22482683 0.178403756,1.49040417 0.502347418,1.49040417 C0.82629108,1.49040417 1,1.22482683 1,0.745202086 C1,0.265577339 0.82629108,0 0.502347418,0" id="path340"></path>
                </g>
                <g id="g342" transform="translate(25.945401, 73.963992)" fill="#B1ACAB">
                    <path d="M10.3773655,7.57489993 C10.1629023,7.57860376 9.95098343,7.52815207 9.76132124,7.42823782 L9.81696395,7.09131134 C9.98618085,7.19320481 10.1797073,7.24795897 10.3773655,7.24986498 C10.6158343,7.24986498 10.7748135,7.13094975 10.7748135,6.89708314 C10.7748135,6.66321652 10.6436557,6.57204818 10.4012124,6.57204818 C10.2922603,6.5699216 10.1840333,6.59015985 10.0832541,6.6315058 L9.82888739,6.57204818 L9.90042802,5.50577499 L11.0371291,5.50577499 L11.0887973,5.83080994 L10.2024885,5.83080994 L10.1667181,6.302507 C10.266468,6.27557722 10.369415,6.26224326 10.472753,6.2628686 C10.6467116,6.24193817 10.8211541,6.297874 10.9502865,6.41599201 C11.0794189,6.53411002 11.150343,6.7026122 11.1444401,6.87726393 C11.1476981,7.08045584 11.061452,7.27485301 10.9084842,7.40910442 C10.7555163,7.54335582 10.5512138,7.60395703 10.3495442,7.57489993 M8.52128369,7.57489993 C8.03639721,7.57489993 7.72638783,7.19833504 7.72638783,6.52051825 C7.72638783,5.84270146 8.05229513,5.46613658 8.52128369,5.46613658 C8.99027225,5.46613658 9.31617956,5.86252067 9.31617956,6.52051825 C9.31617956,7.17851584 8.99027225,7.57489993 8.52128369,7.57489993 M6.13659609,7.57489993 L6.08492786,7.25382882 C6.45569619,7.22448795 6.77766225,6.98788482 6.91559404,6.64339732 C6.77043465,6.73919378 6.6007761,6.79146832 6.42673308,6.79402327 C6.25724564,6.80676817 6.09084644,6.74372272 5.97259553,6.62195929 C5.85434463,6.50019586 5.79647713,6.33231303 5.81466327,6.16377257 C5.80866228,5.97172171 5.88419653,5.78606129 6.02267886,5.65247789 C6.16116118,5.51889449 6.34973361,5.44979122 6.54199298,5.46217274 C6.98713467,5.46217274 7.30111854,5.7594608 7.30111854,6.32232621 C7.30111854,7.03581757 6.81225758,7.44012934 6.13659609,7.57489993 M5.34170022,7.53129768 L4.94425229,7.53129768 L4.94425229,5.87441219 L4.52693196,6.03296582 L4.48718717,5.72775008 L4.98797156,5.49784731 L5.32977679,5.49784731 L5.34170022,7.53129768 Z M14.2047891,0 C13.4027073,2.84963531 10.7974513,4.8189738 7.82972429,4.8189738 C4.86199729,4.8189738 2.25674125,2.84963531 1.45465944,0 L0,0 L0,6.7385295 C2.73444178,7.92768177 5.47285804,8.79576292 8.44576858,8.79576292 L8.50538577,8.79576292 C10.9856221,8.78413227 13.4417574,8.30954665 15.7468871,7.39652709 L15.7468871,0.00396384088 L14.2047891,0 Z" id="path344"></path>
                </g>
                <g id="g346" transform="translate(4.443468, 63.297296)" fill="#B1ACAB">
                    <path d="M0,0 C0.33801632,0.048520418 0.671973068,0.113384237 1,0.194228203 L1,3.72204659 C0.672081687,3.63986383 0.338123481,3.57367597 0,3.52385455 L0,0 Z" id="path348"></path>
                </g>
                <g id="g350" transform="translate(3.199456, 63.170453)" fill="#B1ACAB">
                    <path d="M1,3.56745679 C0.668293407,3.53312114 0.334456091,3.51327197 0,3.50799918 L0,0 L0.5,0 L1,0.0436022497 L1,3.56745679 Z" id="path352"></path>
                </g>
                <g id="g354" transform="translate(1.959418, 63.170453)" fill="#B1ACAB">
                    <path d="M0,3.56745679 C0.331706593,3.53312114 0.665543909,3.51327197 1,3.50799918 L1,0 C0.665543909,0.00527279321 0.331706593,0.0251219632 0,0.0594576132 L0,3.56745679 Z" id="path356"></path>
                </g>
                <g id="g358" transform="translate(0.711432, 63.297296)" fill="#B1ACAB">
                    <path d="M0,3.72204659 C0.328026932,3.64120262 0.66198368,3.5763388 1,3.52781839 L1,0 C0.66250376,0.050440693 0.32868544,0.115277626 0,0.194228203 L0,3.72204659 Z" id="path360"></path>
                </g>
                <g id="g362" transform="translate(0.000000, 60.217392)" fill="#B1ACAB">
                    <path d="M0,0.504672897 C0.324846263,0.310824533 0.658805963,0.142284123 1,0 L1,1 L0,0.504672897 Z" id="path364"></path>
                </g>
                <g id="g366" transform="translate(1.951469, 59.828935)" fill="#B1ACAB">
                    <path d="M1,1.83922217 C0.66,1.83922217 0.33,1.86696906 0,1.89867978 L0,0.0634214541 C0.325,0.0317107271 0.655,0.0118915226 1,0 L1,1.83922217 Z" id="path368"></path>
                </g>
                <g id="g370" transform="translate(3.199456, 59.832899)" fill="#B1ACAB">
                    <path d="M1,0.0594576132 C0.68,0.0277468862 0.345,0.00792768177 0,0 L0,1.83525833 C0.334456091,1.84053112 0.668293407,1.86038029 1,1.89471594 L1,0.0594576132 Z" id="path372"></path>
                </g>
                <g id="g374" transform="translate(4.443468, 59.963706)" fill="#B1ACAB">
                    <path d="M0,0 C0.33749624,0.050440693 0.67131456,0.115277626 1,0.194228203 L1,2.01759501 C0.671973068,1.93675104 0.33801632,1.87188722 0,1.82336681 L0,0 Z" id="path376"></path>
                </g>
                <g id="g378" transform="translate(0.703483, 59.963706)" fill="#B1ACAB">
                    <path d="M1,1.83525833 C0.66198368,1.88377875 0.328026932,1.94864257 0,2.02948653 L0,0.194228203 C0.32868544,0.115277626 0.66250376,0.050440693 1,0 L1,1.83525833 Z" id="path380"></path>
                </g>
                <g id="g382" transform="translate(5.421190, 60.217392)" fill="#B1ACAB">
                    <path d="M0,0 C0.341346644,0.144585024 0.67532682,0.316257077 1,0.514018692 L0,1 L0,0 Z" id="path384"></path>
                </g>
                <g id="g386" transform="translate(0.000000, 63.550982)" fill="#B1ACAB">
                    <path d="M0,0.519230769 C0.324846263,0.319790625 0.658805963,0.146388473 1,0 L1,1 L0,0.519230769 Z" id="path388"></path>
                </g>
                <g id="g390" transform="translate(5.421190, 63.566837)" fill="#B1ACAB">
                    <path d="M0,0 C0.341346644,0.144585024 0.67532682,0.316257077 1,0.514018692 L0,1 L0,0 Z" id="path392"></path>
                </g>
                <g id="g394" transform="translate(0.003974, 58.637401)" fill="#B1ACAB">
                    <path d="M5.961719,0.60092202 C4.05567475,-0.20030734 1.90604425,-0.20030734 0,0.60092202 L0,1.36197947 C1.90658898,0.563442331 4.05513002,0.563442331 5.961719,1.36197947 L5.961719,0.60092202 Z" id="path396"></path>
                </g>
                <g id="g398" transform="translate(0.003974, 61.998738)" fill="#B1ACAB">
                    <path d="M5.961719,0.60092202 C4.05567475,-0.20030734 1.90604425,-0.20030734 0,0.60092202 L0,1.36594331 C1.90549382,0.562002732 4.05622519,0.562002732 5.961719,1.36594331 L5.961719,0.60092202 Z" id="path400"></path>
                </g>
                <g id="g402" transform="translate(0.003974, 56.634079)" fill="#B1ACAB">
                    <path d="M5.961719,2.26731699 C4.05513002,1.46877985 1.90658898,1.46877985 0,2.26731699 L2.3846876,0.0198192044 C2.58341157,0.0198192044 2.78213553,0 2.99675742,0 C3.2113793,0 3.39420535,0 3.61280171,0.0198192044 L5.961719,2.26731699 Z" id="path404"></path>
                </g>
                <g id="g406" transform="translate(2.336994, 55.884913)" fill="#B1ACAB">
                    <path d="M0.0278213553,0.290076336 L0.0278213553,1 C0.226545322,1 0.425269289,1 0.639891173,1 C0.854513057,1 1.03733911,1 1.25593547,1 L1.25593547,0.290076336 C1.25593547,0.0152671756 0.949900561,0.00763358779 0.858487536,0 L0.397447933,0 C0.317958347,0 0,0 0,0.290076336" id="path408"></path>
                </g>
                <g id="g410" transform="translate(4.443468, 67.217535)" fill="#B1ACAB">
                    <path d="M1,3.62691441 C0.672081687,3.54473165 0.338123481,3.47854379 0,3.42872236 L0,0 C0.33801632,0.048520418 0.671973068,0.113384237 1,0.194228203 L1,3.62691441 Z" id="path412"></path>
                </g>
                <g id="g414" transform="translate(3.199456, 67.086728)" fill="#B1ACAB">
                    <path d="M1,3.49214382 C0.668387983,3.45646635 0.334549169,3.43529381 0,3.42872236 L0,0 C0.334456091,0.00527279321 0.668293407,0.0251219632 1,0.0594576132 L1,3.49214382 Z" id="path416"></path>
                </g>
                <g id="g418" transform="translate(1.951469, 67.070872)" fill="#B1ACAB">
                    <path d="M1,3.44854157 C0.665644327,3.45265734 0.331818251,3.47118261 0,3.50403534 L0,0.0634214541 C0.325,0.0277468862 0.655,0.0118915226 1,0 L1,3.44854157 Z" id="path420"></path>
                </g>
                <g id="g422" transform="translate(0.703483, 67.217535)" fill="#B1ACAB">
                    <path d="M1,3.4326862 C0.661473782,3.47929037 0.327361738,3.54418435 0,3.62691441 L0,0.190264362 C0.32878336,0.11265775 0.662600062,0.049144328 1,0 L1,3.4326862 Z" id="path424"></path>
                </g>
                <g id="g426" transform="translate(66.377779, 63.297296)" fill="#B1ACAB">
                    <path d="M0,0 C0.338144476,0.0480419874 0.672138393,0.112913026 1,0.194228203 L1,3.72204659 C0.672253849,3.63938202 0.338257575,3.57318662 0,3.52385455 L0,0 Z" id="path428"></path>
                </g>
                <g id="g430" transform="translate(65.125818, 63.170453)" fill="#B1ACAB">
                    <path d="M1,3.56745679 C0.668274047,3.53327079 0.334447079,3.51342223 0,3.50799918 L0,0 L0.5,0 L1,0.0436022497 L1,3.56745679 Z" id="path432"></path>
                </g>
                <g id="g434" transform="translate(63.881806, 63.170453)" fill="#B1ACAB">
                    <path d="M0,3.56745679 C0.331725953,3.53327079 0.665552921,3.51342223 1,3.50799918 L1,0 C0.665552921,0.00542305118 0.331725953,0.025271606 0,0.0594576132 L0,3.56745679 Z" id="path436"></path>
                </g>
                <g id="g438" transform="translate(62.637794, 63.297296)" fill="#B1ACAB">
                    <path d="M0,3.72204659 C0.328026932,3.64120262 0.66198368,3.5763388 1,3.52781839 L1,0 C0.66250376,0.050440693 0.32868544,0.115277626 0,0.194228203 L0,3.72204659 Z" id="path440"></path>
                </g>
                <g id="g442" transform="translate(61.922388, 60.217392)" fill="#B1ACAB">
                    <path d="M0,0.504672897 C0.325939863,0.314005754 0.659752951,0.145539336 1,0 L1,1 L0,0.504672897 Z" id="path444"></path>
                </g>
                <g id="g446" transform="translate(63.877832, 59.828935)" fill="#B1ACAB">
                    <path d="M1,1.83922217 C0.66,1.83922217 0.325,1.86696906 0,1.89867978 L0,0.0634214541 C0.32,0.0317107271 0.655,0.0118915226 1,0 L1,1.83922217 Z" id="path448"></path>
                </g>
                <g id="g450" transform="translate(65.125818, 59.832899)" fill="#B1ACAB">
                    <path d="M1,0.0594576132 C0.675,0.0277468862 0.345,0.00792768177 0,0 L0,1.83525833 C0.334447079,1.84068138 0.668274047,1.86052993 1,1.89471594 L1,0.0594576132 Z" id="path452"></path>
                </g>
                <g id="g454" transform="translate(66.377779, 59.963706)" fill="#B1ACAB">
                    <path d="M0,0 C0.337627696,0.0499584926 0.671479156,0.114801862 1,0.194228203 L1,2.01759501 C0.672138393,1.93627983 0.338144476,1.87140879 0,1.82336681 L0,0 Z" id="path456"></path>
                </g>
                <g id="g458" transform="translate(62.629845, 59.963706)" fill="#B1ACAB">
                    <path d="M1,1.83525833 C0.662022345,1.88392268 0.328076571,1.94878437 0,2.02948653 L0,0.194228203 C0.328905314,0.115915821 0.662680911,0.0510871862 1,0 L1,1.83525833 Z" id="path460"></path>
                </g>
                <g id="g462" transform="translate(67.343578, 60.217392)" fill="#B1ACAB">
                    <path d="M0,0 C0.341814157,0.142943528 0.675875589,0.314657349 1,0.514018692 L0,1 L0,0 Z" id="path464"></path>
                </g>
                <g id="g466" transform="translate(61.922388, 63.566837)" fill="#B1ACAB">
                    <path d="M0,0.5 C0.326547615,0.308541204 0.660369862,0.14163008 1,0 L1,1 L0,0.5 Z" id="path468"></path>
                </g>
                <g id="g470" transform="translate(67.343578, 63.566837)" fill="#B1ACAB">
                    <path d="M0,0 C0.341814157,0.142943528 0.675875589,0.314657349 1,0.514018692 L0,1 L0,0 Z" id="path472"></path>
                </g>
                <g id="g474" transform="translate(61.926363, 58.636725)" fill="#B1ACAB">
                    <path d="M5.961719,0.601598234 C4.05585759,-0.200532745 1.90586141,-0.200532745 0,0.601598234 L0,1.36265568 C1.90640803,0.563223236 4.05531097,0.563223236 5.961719,1.36265568 L5.961719,0.601598234 Z" id="path476"></path>
                </g>
                <g id="g478" transform="translate(61.926363, 61.998062)" fill="#B1ACAB">
                    <path d="M5.961719,0.601598234 C4.05585759,-0.200532745 1.90586141,-0.200532745 0,0.601598234 L0,1.36661952 C1.90530906,0.561770949 4.05640994,0.561770949 5.961719,1.36661952 L5.961719,0.601598234 Z" id="path480"></path>
                </g>
                <g id="g482" transform="translate(61.926363, 56.634079)" fill="#B1ACAB">
                    <path d="M5.961719,2.26731699 C4.05531097,1.46788454 1.90640803,1.46788454 0,2.26731699 L2.3648152,0.0198192044 C2.56751365,0.0198192044 2.76226314,0 2.9808595,0 C3.19945586,0 3.37830743,0 3.59292932,0.0198192044 L5.961719,2.26731699 Z" id="path484"></path>
                </g>
                <g id="g486" transform="translate(64.263356, 55.884913)" fill="#B1ACAB">
                    <path d="M0.023846876,0.290076336 L0.023846876,1 C0.226545322,1 0.421294809,1 0.639891173,1 C0.858487536,1 1.03733911,1 1.25196099,1 L1.25196099,0.290076336 C1.25196099,0.0152671756 0.945926081,0.00763358779 0.854513057,0 L0.397447933,0 C0.313983867,0 0,0 0,0.290076336" id="path488"></path>
                </g>
                <g id="g490" transform="translate(66.373805, 67.217535)" fill="#B1ACAB">
                    <path d="M1,3.62691441 C0.671856464,3.54536452 0.337946538,3.47918622 0,3.42872236 L0,0 C0.337845986,0.0491530635 0.671755224,0.114007655 1,0.194228203 L1,3.62691441 Z" id="path492"></path>
                </g>
                <g id="g494" transform="translate(65.125818, 67.086728)" fill="#B1ACAB">
                    <path d="M1,3.49214382 C0.668367618,3.45661636 0.334539193,3.43544448 0,3.42872236 L0,0 C0.334447079,0.00542305118 0.668274047,0.025271606 1,0.0594576132 L1,3.49214382 Z" id="path496"></path>
                </g>
                <g id="g498" transform="translate(63.877832, 67.070872)" fill="#B1ACAB">
                    <path d="M1,3.44854157 C0.665636695,3.45251529 0.331800846,3.4710411 0,3.50403534 L0,0.0634214541 C0.32,0.0277468862 0.655,0.0118915226 1,0 L1,3.44854157 Z" id="path500"></path>
                </g>
                <g id="g502" transform="translate(62.629845, 67.217535)" fill="#B1ACAB">
                    <path d="M1,3.4326862 C0.661643671,3.47993263 0.327585583,3.54481613 0,3.62691441 L0,0.190264362 C0.328996398,0.113287887 0.662770982,0.0497824791 1,0 L1,3.4326862 Z" id="path504"></path>
                </g>
                <g id="g506" transform="translate(0.699508, 70.923726)" fill="#B1ACAB">
                    <path d="M0.794895867,4.62976615 C0.524631272,4.70507913 0.262315636,4.78435595 0,4.85966892 L0,0.340890316 C0,0.340890316 0.512707834,0.194228203 0.794895867,0.142698272 L0.794895867,4.62976615 Z M2.05480582,4.30869504 C1.78056674,4.37211649 1.51030215,4.43950179 1.25990995,4.50688708 C1.25990995,4.31662272 1.25990995,2.71919485 1.25990995,2.71919485 L1.25990995,0.0713491359 C1.25990995,0.0713491359 1.77659226,0.0198192044 2.05480582,0.0118915226 L2.05480582,2.71919485 L2.05480582,4.30869504 Z M3.29484337,0.0713491359 C3.04047669,0.0396384088 2.4999475,0.0118915226 2.4999475,0.0118915226 L2.4999475,2.71919485 C2.4999475,2.71919485 2.4999475,3.98366009 2.4999475,4.20563518 C2.75828866,4.1501414 3.02060429,4.09464763 3.29484337,4.04708154 L3.29484337,0.0713491359 Z M4.54282988,2.60424346 L4.54282988,0.340890316 C4.29243768,0.261613498 3.74793401,0.142698272 3.74793401,0.142698272 L3.74793401,2.60424346 L3.74793401,3.96384088 L4.54282988,3.84096182 L4.54282988,2.60424346 Z M62.7252328,3.07197668 L62.7252328,0.142698272 C62.4509938,0.194228203 61.930337,0.340890316 61.930337,0.340890316 L61.930337,3.38512011 C61.930337,3.38512011 61.930337,3.44061389 61.930337,3.7815042 C62.1926526,3.80132341 62.4509938,3.83303413 62.7252328,3.86474486 M63.9811683,2.90945921 L63.9811683,0 C63.7109037,0 63.1862725,0.0594576132 63.1862725,0.0594576132 L63.1862725,2.90945921 C63.1862725,2.90945921 63.1862725,3.66258898 63.1862725,3.92420247 C63.4605115,3.96780472 63.7307761,4.01140697 64.0010407,4.06293691 M65.2371038,4.34436961 C64.9747882,4.27302047 64.7124725,4.20959902 64.4422079,4.1501414 C64.4422079,3.95194936 64.4422079,2.90945921 64.4422079,2.90945921 L64.4422079,0 C64.4422079,0 64.9787626,0.0277468862 65.2371038,0.0594576132 L65.2371038,4.34436961 Z M66.4850903,4.7407537 C66.2188002,4.64562152 65.9564845,4.56238086 65.6901944,4.48310404 C65.6901944,4.27302047 65.6901944,2.78658014 65.6901944,2.78658014 L65.6901944,0.142698272 C65.6901944,0.142698272 66.2307236,0.261613498 66.4850903,0.340890316 L66.4850903,4.7407537 L66.4850903,4.7407537 Z" id="path508"></path>
                </g>
                <g id="g510" transform="translate(27.954172, 68.597798)" fill="#C41724">
                    <path d="M3.28126094,5.83392733 C4.1422881,6.30128054 5.07179962,6.63035382 6.03557512,6.80904214 L6.07531992,6.80904214 C6.12336744,6.80951227 6.16996219,6.79261408 6.20647773,6.76146609 C6.25451842,6.72413381 6.28360341,6.66756988 6.28596732,6.6068763 C6.31172211,5.75648499 6.2044491,4.90728464 5.96800897,4.08983734 C5.95132958,4.03361819 5.91264897,3.98646845 5.86069803,3.95903059 C4.66991319,3.41520657 3.56844925,2.69489034 2.59367602,1.82252035 C2.06440614,1.34527439 1.63255142,0.770560696 1.32184263,0.129960297 C1.29325633,0.0582642522 1.2269143,0.00849432753 1.14991823,0.00098226502 C1.07292216,-0.00652979749 0.998166696,0.0294740576 0.956190534,0.094285729 C0.5046946,0.744210476 0.183488416,1.47508486 0.0102644526,2.24665133 C-0.00342148419,2.28918538 -0.00342148419,2.33492403 0.0102644526,2.37745808 C0.681452899,3.85541982 1.82663115,5.06865337 3.26536303,5.82599965" id="path512"></path>
                </g>
                <g id="g514" transform="translate(29.508900, 66.172463)" fill="#C41724">
                    <path d="M1.32113629,3.92678347 C1.36155698,3.96283139 1.4139688,3.98260981 1.46819202,3.98228136 L1.46819202,3.98228136 C1.52878641,3.97950207 1.58462424,3.94872692 1.61922224,3.89903658 C3.20901397,1.77045402 4.93791248,0.977685848 6.11435836,0.688325464 C6.20668752,0.666492888 6.27224767,0.584762055 6.27338118,0.49013342 C6.27519628,0.397845256 6.21752412,0.314764004 6.13025628,0.284013694 C3.99073798,-0.397874089 1.64852019,0.169668055 0.0612263383,1.75459866 C0.00995936477,1.80685101 -0.0110222664,1.88158483 0.00558362758,1.95279071 C0.247336136,2.72421929 0.703503427,3.41144931 1.32113629,3.93471115" id="path516"></path>
                </g>
                <g id="g518" transform="translate(31.427944, 67.138258)" fill="#C41724">
                    <path d="M0.0419835713,3.238458 C0.00888661854,3.28140633 -0.00554365994,3.33580489 0.00192806479,3.38945731 C0.00939978952,3.44310974 0.0381484099,3.49152729 0.0817283646,3.52385455 C0.82649852,4.08612335 1.62529623,4.57341346 2.46641596,4.97858415 C2.49677071,4.99081607 2.52907634,4.99752839 2.56180347,4.99842663 C2.62366207,4.99934772 2.68243306,4.97150622 2.72078264,4.92309038 C3.94391713,3.5549821 5.60620265,2.65389283 7.42259169,2.37434069 C7.49132576,2.36741921 7.55152359,2.32539352 7.58157087,2.26335314 C7.61550734,2.20162404 7.61550734,2.1268902 7.58157087,2.0651611 C7.11543118,1.25160106 6.46649561,0.556914119 5.68574423,0.0356745679 C5.65016503,0.0160697726 5.61094133,0.00392948221 5.57048432,0 C4.792095,0.00723827373 4.02406791,0.178805042 3.31695454,0.503407792 C1.99320163,1.11057766 0.856818534,2.06050387 0.0260856539,3.25431337" id="path520"></path>
                </g>
                <g id="g522" transform="translate(37.526247, 69.879439)" fill="#C41724">
                    <path d="M1.86481736,0.136567065 C1.83346631,0.0454295071 1.74197904,-0.010974876 1.64622099,0.00179647477 C1.18521404,0.0586426374 0.730282868,0.156814555 0.286949061,0.2951207 C0.233388357,0.311062374 0.188805411,0.348354434 0.163740202,0.398180563 C0.139923095,0.449749234 0.139923095,0.509129368 0.163740202,0.560698039 C0.431822328,1.39551739 0.589483968,2.26166789 0.632728763,3.13719461 C0.663641549,3.82295547 0.600797617,4.50972131 0.445928234,5.17857267 C0.344592749,5.58820011 0.202116218,5.98659777 0.0206589457,6.36772493 C-0.0226593325,6.45897362 0.00384311242,6.56800359 0.084250615,6.62933843 C0.121227624,6.65592825 0.165855742,6.6698372 0.211433954,6.66901448 C0.264578434,6.66990392 0.315961642,6.64997505 0.35451521,6.61348307 C2.14548724,4.96331919 2.74838138,2.39178583 1.87674079,0.120711701" id="path524"></path>
                </g>
                <g id="g526" transform="translate(27.829145, 72.175459)" fill="#C41724">
                    <path d="M6.27983701,3.74667 C6.24701421,3.70208532 6.19893314,3.67105732 6.14470472,3.6594655 C5.19453613,3.48498867 4.27479191,3.17388709 3.41423741,2.73589058 C2.19388363,2.13030973 1.15076948,1.22105188 0.385684162,0.0959725509 C0.332472647,0.0174296327 0.234470566,-0.0178207728 0.143240922,0.00876805149 C0.0545444123,0.0399651985 -0.00345300025,0.125121729 0.000159666292,0.218851618 C0.0260270271,0.932109215 0.18226938,1.63466116 0.461199269,2.2919404 C1.29787397,4.24540174 3.11594953,5.60530859 5.23057447,5.8593972 L5.25839583,5.8593972 C5.31881017,5.85771579 5.37604629,5.83202848 5.417375,5.78804806 C5.87648849,5.24431175 6.18358994,4.58936598 6.30765837,3.88936828 C6.31934918,3.83313532 6.30789225,3.77457576 6.27586253,3.7268508" id="path528"></path>
                </g>
                <g id="g530" transform="translate(33.906973, 70.461536)" fill="#C41724">
                    <path d="M3.37761752,0.145082706 C3.35914066,0.0884475784 3.31742899,0.0422954069 3.26285851,0.0181067773 C3.20828802,-0.0060818523 3.14598768,-0.00603350307 3.09145501,0.0182397979 C2.08929348,0.462503632 1.19669773,1.12001181 0.476247608,1.94466647 C0.429215937,1.99763494 0.412711147,2.07095948 0.432528335,2.13889467 C0.639246739,2.83995833 0.754135718,3.56475267 0.774333558,4.29522411 C0.791465497,4.86071842 0.732651285,5.42595653 0.599456467,5.97589265 C0.482275657,6.44717716 0.290411419,6.89678435 0.0311059226,7.30774318 C-0.0103686409,7.37595402 -0.0103686409,7.46150744 0.0311059226,7.52971827 C0.0680008181,7.59345109 0.136167686,7.63277813 0.209957493,7.63277813 L0.209957493,7.63277813 C0.821593832,7.59219561 1.42340394,7.45852094 1.99449871,7.23639405 C2.02167661,7.22816657 2.04630015,7.21315913 2.06603934,7.1927918 C2.67846868,6.6221495 3.14811747,5.91616782 3.43723471,5.13159454 C3.68676015,4.43029284 3.81445162,3.69166471 3.81481025,2.94751821 C3.81277117,1.99213375 3.66261656,1.04280862 3.36966856,0.133191184" id="path532"></path>
                </g>
            </g>
        </g>
    </g>
</svg>