<?xml version="1.0" encoding="UTF-8"?>
<svg width="103px" height="138px" viewBox="0 0 103 138" version="1.1" xmlns="http://www.w3.org/2000/svg" xmlns:xlink="http://www.w3.org/1999/xlink">
    <title>soccer-tema-astonvilla-color</title>
    <g id="soccer-tema-astonvilla-color" stroke="none" stroke-width="1" fill="none" fill-rule="evenodd">
        <rect id="Rectangle" fill="#FFFFFF" x="0" y="0" width="103.235294" height="138"></rect>
        <g id="aston-villa" transform="translate(20.647059, 24.840000)">
            <path d="M61.9411765,0 L0,0 L0,66.7930906 C0,72.0113576 3.15710429,76.1291561 9.47131287,79.146486 C11.5712241,80.1602258 14.3705887,81.1988936 17.8694067,82.2624894 L25.6828133,84.657138 L26.7870503,85.1650466 C27.3952328,85.4247681 27.9769485,85.7430473 28.5240521,86.1154276 C29.4005633,86.7498209 30.1959566,87.4902526 30.8922681,88.32 C31.4543229,87.7155929 32.0497729,87.143422 32.6757968,86.6061981 C33.5442977,85.8910754 34.6485346,85.2741067 36.0210763,84.7506181 C37.0002077,84.3704657 39.5891676,83.5395315 43.787956,82.2578154 C47.4015403,81.1469602 50.24433,80.1171211 52.2806545,79.165182 C58.7199685,76.1675868 61.9401425,72.0394016 61.9411765,66.7806266 L61.9411765,0 Z" id="Path" fill="#7B003A"></path>
            <path d="M28.7132613,83.5088908 C29.5097246,84.0572891 30.245426,84.6898101 30.907777,85.3956308 C31.4262343,84.8732392 31.9740823,84.3811416 32.5486234,83.9217612 C33.3240707,83.3188146 34.3476611,82.779746 35.6581669,82.3201355 C36.5576858,81.9867231 38.9739794,81.2731583 42.8713774,80.1623031 C46.2337167,79.1942647 48.8702374,78.3010104 50.7809395,77.4825402 C56.7622227,74.8983347 59.7507964,71.3253175 59.746665,66.7634886 L59.746665,2.25131245 L2.19451575,2.25131245 L2.19451575,66.7619306 C2.19451575,71.2801355 5.12518944,74.842766 10.9865368,77.4498222 C12.9437657,78.3212645 15.5482346,79.2249054 18.7999434,80.1607451 L26.055028,82.2375614 L28.7070577,83.5073328 L28.7132613,83.5088908 Z" id="Path" fill="#A3C4E9"></path>
            <path d="M14.2883913,24.1614903 L12.1404023,23.8498899 L11.1664406,21.8618798 L10.2203949,23.8452159 L8.04914259,24.1568163 L9.61244427,25.714818 L9.23402601,27.9178323 C9.88074902,27.56884 10.527472,27.2214056 11.1586861,26.8724132 L13.1004061,27.9178323 L12.7219878,25.714818 L14.2852895,24.1568163 L14.2883913,24.1614903 Z" id="Path" fill="#FFFFFF"></path>
            <path d="M21.6613438,34.4318374 C21.6489367,34.966232 21.7264814,35.3775445 21.9854808,35.6984928 C21.6070625,35.9991871 21.6830564,36.4774936 21.8583074,36.8997121 C22.0475166,37.3671126 22.6957905,38.0900254 23.497603,38.4281118 C23.6340817,38.1897375 23.2556634,37.5556308 23.3905912,37.1193903 C23.8806739,37.4964268 24.3459423,37.7924471 24.6638756,37.762845 C24.4498522,37.3266046 24.4265888,37.0321423 24.5087862,36.9152921 C25.3695327,36.1970533 26.3915721,35.2871804 27.0010737,35.0861981 C27.4942582,34.930398 28.010706,35.2684843 28.0960052,35.893243 C28.1921607,36.6083658 27.9176524,37.2097544 27.4477313,37.712989 C26.614901,38.605724 25.496706,39.0357324 24.6328578,39.9970195 C23.2556634,41.5316511 22.9687479,43.225199 21.2984345,43.3140051 C22.2212168,42.6908044 22.7454191,42.1548518 23.2727233,41.1421507 C19.9786233,41.6469433 17.9764184,39.8630313 15.9493993,38.8191702 C15.0607367,38.3626757 14.1736251,38.2660796 13.6695844,38.1570195 C12.8646701,37.3219306 12.453683,36.6379678 12.2644739,35.5084166 C12.0504505,34.2386452 12.3714856,33.11221 11.2114165,32.9751058 C10.5476337,32.0512108 9.70239615,31.4248942 8.46012964,32.241287 C9.1239125,32.3581372 9.60624069,32.5154953 9.93503033,33.5017104 C9.83887487,33.6466046 9.61554606,33.8631668 9.60934248,34.1155631 C9.19060096,34.1404911 9.06032582,34.1763251 8.78426659,34.4411854 C7.68158059,33.994039 6.64248125,34.1778831 6.11672801,35.2762743 C6.88286991,35.0706181 7.47686251,35.0955461 8.00261575,35.6143607 C8.05999885,35.9695851 8.09722032,36.2297714 8.29728571,36.4883997 C7.8802194,36.7574367 7.60484991,37.1998184 7.54665276,37.694293 C6.65643931,37.9077392 6.1182789,38.4655038 6.07020117,39.3161727 C6.70761882,38.8674682 7.366749,38.8129382 7.69243685,38.9017443 C7.90025672,39.1151905 8.08481316,39.524945 8.51130916,39.6495851 C8.99518825,39.7851312 9.93192854,39.582591 10.4731907,39.7430652 C10.6856633,40.1185436 10.7647589,40.3148518 10.7445973,40.5547841 C10.6701543,41.4895851 9.14872681,40.8663844 9.28830732,42.279492 C8.75945228,42.4352921 8.43996801,42.2467739 7.97935234,41.9133616 C8.28953124,43.3046571 9.09754729,43.9387638 10.1738681,43.284403 C11.0857941,43.4838273 11.6503197,42.5334462 12.4738447,42.0816257 C13.2648009,41.6453853 14.4186664,42.2062659 15.071593,42.6705504 C16.0750218,43.3825572 17.1389354,44.2846401 17.6910539,46.4331245 C18.0587617,46.0354541 18.28979,45.5297774 18.350184,44.9904149 L20.9510342,47.4084335 L15.3445504,51.7708383 C14.9630304,52.0684166 14.5303308,52.3426249 14.1286491,52.1821507 C13.7843505,52.0450466 13.5873869,51.6617782 13.2865134,51.3766638 C12.8476103,50.9591194 12.2567194,50.6833531 11.6239545,51.0307875 C10.6220766,50.9965114 9.69309079,51.2348857 9.50233076,52.7445893 C9.83422219,52.443895 10.1397484,52.1774767 10.7616571,52.3644369 C10.749286,52.7267324 10.8708244,53.0808089 11.1028539,53.358442 C10.8396939,53.5061473 10.6455975,53.7526812 10.5631426,54.0439627 C9.6326059,54.0984928 8.96417036,54.6250974 8.87421848,55.7234886 C9.39842083,55.195326 9.83577308,54.9631837 10.4561309,55.218696 C10.6391364,56.3466892 11.1555843,56.4869094 11.7495769,56.4105673 C11.5820803,56.8919898 11.5464097,57.2347502 11.7619841,57.6382727 C11.439398,58.3580694 11.7899002,59.2850804 12.2536176,59.5951228 C12.1931328,59.1495343 12.2644739,58.6182557 12.5172697,58.3845555 C13.0445739,58.5154276 13.4353993,58.3035394 13.9627034,57.6055546 C14.0883259,58.1866892 14.4931093,58.5091956 15.0033536,58.4624555 C15.0566878,59.0000931 15.3051087,59.4992117 15.7012562,59.8646571 C15.5835324,59.3613236 15.5603894,58.8403342 15.6330168,58.3284674 C16.5883678,57.5712786 16.394506,56.7455377 16.5526973,55.8013887 C16.7294993,54.7512955 17.2552525,54.285453 18.1035918,53.7292464 C19.7382346,52.6511092 21.6706492,51.8331583 24.7166061,51.5760881 C25.6688553,52.7321253 26.6180027,53.9816427 27.8183951,55.0473158 C25.9759324,56.5398815 24.7274623,55.9135648 23.2324,56.089619 C22.5593118,56.1690771 21.6690983,56.4853514 21.1867701,56.9854699 C20.761825,57.4263844 20.5446998,57.988823 20.0732278,58.2318713 C19.7056658,58.4172735 19.2140323,58.4671296 18.6417522,57.993497 C18.6138361,59.3442845 19.1582001,59.791431 20.5307417,59.7072989 C20.0468626,60.2822015 19.5366183,60.5018798 18.4944172,60.1170533 C18.9364222,61.1920745 19.6575881,61.5878069 20.7788849,61.4693988 C21.0440878,63.3109568 23.393693,64.3314479 22.9749515,65.7850635 C22.408875,67.7543776 18.0756757,68.2934462 16.5015178,67.2760711 C15.39573,66.5593903 14.9009946,65.364403 13.601345,65.7585775 C12.8848317,65.1026588 11.5603678,64.8876545 11.0144529,66.4596782 C11.9589477,65.9299577 12.3900964,66.219746 12.1869292,66.8429467 C10.4809452,66.8647587 9.84973113,67.7123116 10.0854671,68.8683489 C10.4142567,68.2622862 10.763208,68.122066 11.1943567,68.2046401 C11.0188088,68.6499064 10.9451348,69.1291182 10.9787823,69.6068417 C10.1397484,70.1163082 10.1071796,71.0495512 10.4886997,71.8332261 C10.7089267,71.1944454 10.8190402,70.6117528 11.3385899,70.5868247 C11.6625361,71.01882 12.1159028,71.3350097 12.6320359,71.4889077 C12.4381741,72.4891448 12.4862518,73.3990178 12.7762691,74.1562066 C12.9670291,73.4862659 13.1577892,73.0656054 13.410585,72.7540051 C14.2837386,73.3616257 15.2080717,73.3772058 16.1122432,73.1294835 C17.9578077,72.6293649 19.0899607,71.1850974 20.5229873,71.1632854 C21.320147,71.1508213 21.6830564,71.778696 21.1433451,72.5140728 C22.2863543,72.4439627 22.9020595,72.1744285 23.4572797,71.8534801 C24.3226788,71.3502456 24.8685937,70.7192549 25.7091786,70.5182727 C27.1049836,70.1833023 29.0730688,71.789602 30.0082582,69.9963421 C28.908674,70.1817443 28.275909,69.6847417 28.0835981,69.1596952 C29.4685469,69.4011854 30.3680657,69.3606774 31.1124951,68.1984081 C29.0963322,68.5396105 28.1921607,66.7681626 28.0665382,65.7959695 C27.9502211,64.8829805 28.2433402,63.1722947 30.1323297,62.595834 C30.7418313,61.3276207 31.0628665,60.6623539 31.7235475,59.6138188 L31.9422237,58.5917697 C32.0756006,59.0591702 32.1779596,59.5265707 32.0306246,60.0313633 C31.8150503,60.7838781 31.2939497,61.601829 30.9775673,62.4634039 C30.740609,63.1281014 30.6383135,63.8336791 30.6766937,64.5386622 C30.7139588,65.2621458 30.983272,65.9540912 31.4443865,66.5110923 C32.2198338,67.4381033 33.3535377,68.1875021 32.5579288,70.0446401 C33.4093699,69.960508 33.8979017,69.5523116 34.7477919,68.5770025 C35.3945149,69.0724471 35.8706395,69.7408298 35.6318017,70.6413548 C36.7065716,70.3095004 37.3843125,69.4635055 37.7642817,68.2311262 C39.3027691,68.2763082 40.1650664,68.5847925 40.3139523,69.1799492 C40.5636463,70.1708383 38.1008258,73.8539543 35.0052403,73.9739204 C34.5136068,73.8414903 34.1258831,73.3273497 33.7428122,73.1435055 C33.3954118,72.9783573 32.9177363,73.0141914 32.5020966,73.601558 C31.5327875,73.3366977 30.39288,73.589094 30.0951083,74.6765792 C29.5197264,74.9336494 29.0094821,75.7921084 29.0916795,76.5461812 C29.2979485,76.367011 29.9586296,75.9229805 30.2098745,75.8887045 C30.2796647,76.1146147 30.6673884,76.356105 30.8891663,76.4153091 C29.5786604,77.5697883 29.5383371,78.5139373 29.6484507,78.9641998 C30.2005691,78.0667909 30.848843,77.8985267 31.1636746,77.9234547 C31.3854525,78.4843353 31.8274575,78.7180356 32.4741805,78.7912616 L32.5051984,80.3492633 L33.6109862,79.118442 C34.966468,79.7837087 36.3901892,79.3661643 37.3951688,78.6074174 C39.2562422,77.2052159 40.0316895,74.474039 41.4026803,74.6547671 C41.5676947,74.6771278 41.7127671,74.7758185 41.794689,74.9214449 C41.8766108,75.0670713 41.88593,75.2428312 41.8198709,75.396376 C42.1657668,75.4710155 42.5230082,75.3342999 42.7317969,75.0473836 C43.27461,74.3992549 43.6111541,73.1076715 44.6223373,71.5870618 C45.2675094,70.6148688 46.8199548,69.5616596 47.258858,68.5988146 C46.537692,69.0771211 45.6940054,68.9259949 45.5776883,68.5037765 C46.8478709,67.8369517 47.9908802,67.0579509 48.4654539,65.2319729 C47.7706532,65.5544793 47.1363373,65.7959695 46.4492911,65.7149534 C47.0293256,64.4794581 47.2247383,63.2018967 46.6741708,62.3730398 C44.906151,64.9749026 42.7969344,64.5417782 41.936188,63.9310415 C41.2693033,63.463641 40.6349875,62.7500762 40.5822571,61.0939204 C40.598382,60.5056695 40.6938568,59.9223336 40.8660708,59.3598645 C41.0521781,58.7148518 41.2584471,58.2038273 41.2646507,57.6133446 C43.8779079,59.1246063 45.9281905,59.5811008 47.4030912,59.5156647 C50.1636834,59.3925826 51.9549666,57.1911262 51.8572603,54.3742591 C51.8091825,52.9969856 51.229148,51.6648942 50.2040067,50.3499407 C49.0439376,48.8636071 47.4030912,47.4271296 46.3267704,45.9392379 C45.7880878,45.2101264 45.4100805,44.3741683 45.2178808,43.4869433 C44.9619832,42.2031499 45.1542941,40.7261643 46.5159795,39.4859949 C47.9784731,40.3351058 49.3572183,40.6763082 50.6677242,40.5765961 C52.0092479,40.473768 53.0731616,39.6698391 54.1076082,38.8144962 C54.5728766,38.4296698 55.0614084,38.0261473 56.05243,38.1367655 C55.5927524,37.6116103 54.9131125,37.3355049 54.2192726,37.3920406 C56.3346928,34.8166638 57.184583,31.5962743 56.0136576,29.3449619 C55.8228976,30.6412193 55.3932998,30.9543776 55.0040253,31.2223539 C54.4891283,31.5775783 54.0734885,31.6430144 53.3290592,32.0371888 C53.713681,31.283116 53.6764595,30.7237934 53.4252146,29.8559865 C52.5117378,32.230381 51.3268543,31.6617104 49.6565409,33.3988823 C49.8535045,32.6043014 49.8783188,31.9624047 49.5805471,31.2285859 C49.484573,31.8630692 49.1428486,32.4337263 48.6298488,32.8161897 C47.1192775,33.9348349 45.2333897,34.1965792 45.5994009,37.8095851 C43.6638845,39.3520068 42.9628802,41.1795428 43.0962571,43.0039627 C43.2094724,44.5183404 43.8189739,45.9049619 44.8022411,47.2105673 C45.8428913,48.5987468 47.2836723,49.8903302 48.3041609,51.1382896 C49.4223559,52.5046571 50.4754132,54.9055377 49.2533084,56.6208975 C48.4576995,57.7379848 46.1685791,58.3829975 41.3437463,55.3402202 C41.0925014,52.7430313 39.1089073,50.0710584 38.6886148,47.6935478 C38.5547579,46.871377 38.5826839,46.0308164 38.7708123,45.2194412 C38.9134945,44.5043184 39.1337216,43.7564776 39.1228653,42.8637426 C39.9494921,43.5554953 40.8986395,43.7206435 41.6042966,43.4526672 C41.0428727,43.236105 40.5667481,42.5365622 40.5791553,41.6531753 C40.597766,40.2759018 41.377866,38.8768163 40.6365384,37.3219306 C41.2568962,37.7690771 41.9408407,38.0354953 42.714737,37.694293 C40.9777352,36.5366977 42.5596476,35.0456901 41.7330208,33.130906 C42.4155152,33.4443126 43.2043432,33.4207005 43.8670517,33.0670279 C41.8090146,32.5996274 42.862072,29.9401185 41.1049085,28.2247587 C41.808761,28.2662277 42.4792299,27.9193061 42.8543175,27.3195597 C41.0056513,27.63116 40.0627074,25.1181033 38.4901003,23.7704318 C37.0136488,22.5053345 35.1975513,22.04884 33.0759276,22.4539204 C33.0495623,22.1423201 33.555154,21.6749196 34.17241,21.3633192 C32.2430972,20.5360203 30.2564013,21.152989 28.5690281,22.6735986 C28.6668864,21.9908658 28.4856405,21.2974018 28.0665382,20.7510246 C27.8277005,22.109602 25.7650108,22.9509229 25.040743,24.0602202 C24.6997424,24.555821 24.5228379,25.1467512 24.5351514,25.749094 C22.6973414,27.0593734 22.1870971,26.9721253 21.6473858,28.553497 C20.7261544,29.3231499 19.6095104,30.1239627 18.9302186,30.8904996 C18.9519311,31.1273158 19.0496375,31.4093141 19.100817,31.6695004 L19.6374265,31.1397798 C19.4470478,31.5860119 19.4728123,32.095611 19.7072167,32.5201693 C20.144569,33.2773582 21.0177226,33.6871126 21.5233142,34.011177 C21.2131353,33.0607959 21.2999854,32.8099577 21.6659965,32.5684674 C22.4693599,32.0418628 24.3397387,32.225707 24.5041335,32.4843353 C24.7290132,32.8348857 24.4483013,34.4723455 23.4293636,34.9039119 C22.6957905,35.2155123 22.2057078,34.986486 21.673751,34.4240474 L21.6613438,34.4318374 Z M24.9182223,28.0892125 C24.4839719,28.525453 24.5072353,29.1938357 24.0419669,29.45558 C23.7054228,29.6456562 23.3223519,29.5848942 23.159508,29.410398 C23.0278559,29.2809853 22.9528826,29.1042601 22.9511368,28.9192303 C22.949391,28.7342004 23.0210161,28.5560793 23.1502026,28.4241829 C23.511561,28.0159865 24.2714993,28.0798645 24.9166715,28.0892125 L24.9182223,28.0892125 Z" id="Shape" fill="#FFE500"></path>
            <path d="M12.1946837,13.9425572 C12.4285134,13.9355191 12.6625143,13.9485498 12.8941371,13.9815072 C13.0260228,14.0319653 13.1187935,14.1522179 13.1345257,14.2931075 L13.6618299,15.9928874 C13.9110069,16.7334575 14.0361124,17.1811233 14.0371464,17.3358848 C14.0314115,17.4029611 14.0042058,17.4663676 13.9596016,17.516613 C13.8269643,17.6094398 13.6712431,17.6633829 13.5098422,17.6724132 L12.8739755,17.7721253 C12.7857877,17.8679389 12.7438412,17.9977719 12.7592093,18.1273497 C12.7524663,18.2592381 12.8103921,18.3860949 12.9142987,18.4669941 C13.763155,18.426486 14.6487158,18.4067513 15.570981,18.40779 C16.6193857,18.40779 17.6269502,18.4275247 18.5936745,18.4669941 C18.6934019,18.3689584 18.744067,18.2311354 18.7317041,18.0915157 C18.7308795,17.9768108 18.689048,17.8662235 18.6138361,17.7799153 L17.8632031,17.6646232 C17.5560346,17.6201126 17.2853104,17.4386118 17.1265282,17.1707367 C17.0206931,17.0042454 16.9333224,16.8266134 16.865978,16.6410161 C16.777577,16.4400339 16.6705653,16.1954276 16.5480446,15.9056393 L13.8820569,8.15146486 C13.4167885,6.83183743 13.1236695,5.93287045 12.9887417,5.44833192 C12.9621624,5.22158765 12.7660457,5.05378482 12.5389822,5.0635055 C12.5157188,5.08999153 12.3497731,5.25358171 12.0488996,5.55427604 C11.6991313,5.87253707 11.2840539,6.1097474 10.8329983,6.24914479 C10.8454054,6.745628 10.5895078,7.58175557 10.0653055,8.75752752 L8.3003875,13.5717528 C7.80099947,14.9407169 7.39414813,15.9954841 7.07983351,16.7360542 C6.97526235,17.0307328 6.79301173,17.2913608 6.55252937,17.490127 C6.3510542,17.6191136 6.12194635,17.6981469 5.88409383,17.7207113 L5.3536879,17.7799153 C5.28589136,17.8849912 5.25833898,18.0112058 5.27614318,18.1351397 C5.26776478,18.2636455 5.31866193,18.3888862 5.41417279,18.4747841 C6.21133258,18.4482981 6.88752259,18.428044 7.43033567,18.41558 C8.26988658,18.428044 9.03757937,18.4477787 9.73341404,18.4747841 C9.8337599,18.3838522 9.88404502,18.2497247 9.86834187,18.1148857 C9.87936173,17.9952962 9.84563318,17.8758721 9.7737373,17.7799153 L9.1781938,17.6802032 C8.98981324,17.6449271 8.80611098,17.5879432 8.63072804,17.510381 C8.52216542,17.469873 8.46788411,17.4137849 8.46788411,17.3452329 C8.47741396,17.1043103 8.52559443,16.8665128 8.61056641,16.6410161 L9.34569041,14.3336156 C9.36689691,14.1916149 9.44330949,14.0638637 9.55816296,13.9783912 C9.6985214,13.9433223 9.84342008,13.9301848 9.98776075,13.9394412 L12.1946837,13.9425572 Z M10.3909933,12.901812 C10.1537065,12.914276 10.0017188,12.87221 9.93813212,12.7771719 C9.85593471,12.7101778 9.86989276,12.5528196 9.97845538,12.3097714 L10.4654363,10.8312278 C10.6948322,10.0898517 10.9645769,9.36168822 11.2734523,8.6500254 L11.2734523,8.6500254 C11.4595597,9.12833192 11.6952956,9.81852667 11.9822111,10.7283997 L12.4893536,12.3315834 C12.601018,12.5824217 12.6211797,12.7397798 12.5498385,12.7989839 C12.4784974,12.858188 12.3342642,12.904928 12.0985282,12.904928 L10.3909933,12.901812 Z" id="Shape" fill="#7B003A"></path>
            <path d="M28.0138078,10.098967 C28.686896,8.51603726 29.23126,7.40881739 29.6468998,6.77730737 C29.8562705,6.38936494 30.2176289,6.15410669 30.7325259,6.08243861 L31.2427702,5.9842845 C31.3287246,5.88640929 31.3712839,5.75758367 31.3606382,5.62750212 C31.3528167,5.50467845 31.2970877,5.38991052 31.2055488,5.30811177 C30.6441249,5.34861981 30.0366912,5.3683545 29.3832477,5.36731583 C28.6594969,5.36731583 27.8540657,5.34758115 26.966954,5.30811177 C26.8467314,5.35696706 26.7724369,5.47903958 26.7839485,5.6088061 C26.7654093,5.74204463 26.8005806,5.87720534 26.8816548,5.9842845 L27.4570367,6.11827265 C27.6159757,6.13157514 27.7697987,6.18113064 27.9067961,6.26316681 C27.9576094,6.31500128 27.9855518,6.38517744 27.9843408,6.45791702 C27.9490334,6.70317973 27.8844653,6.9432811 27.7920299,7.1730398 C27.4094759,8.26571832 26.8925111,9.64299181 26.2411354,11.3048603 L25.512215,13.1588823 C25.26097,13.782083 25.0547011,14.2712955 24.8918571,14.6265199 L24.8918571,14.6265199 C24.7553784,14.3149196 24.5491095,13.803895 24.2714993,13.0996782 L22.5438028,8.6500254 C22.3080669,8.04552075 22.1188577,7.55163421 21.9699719,7.1730398 C21.8765241,6.94928661 21.8063607,6.71642512 21.7606011,6.47817104 C21.746643,6.30367485 21.9079361,6.17747671 22.2506838,6.09957663 L22.8415746,5.9842845 C22.908822,5.87092057 22.9427005,5.74072781 22.9392809,5.6088061 C22.9451882,5.49676273 22.9034732,5.38746683 22.8245147,5.30811177 C21.6923617,5.34861981 20.7101285,5.3683545 19.8778151,5.36731583 C18.9751945,5.36731583 18.086532,5.34758115 17.2118274,5.30811177 C17.1234442,5.37736318 17.06421,5.47746605 17.0458817,5.58855207 C17.0176293,5.72755402 17.0510344,5.87202481 17.1373845,5.9842845 L17.6817485,6.11827265 C18.1175499,6.18526672 18.424627,6.32237087 18.6122852,6.5342591 C18.7999434,6.74614733 19.0434339,7.31325995 19.3877325,8.27143099 L22.5717189,16.3169517 C22.8725925,17.1333446 23.1476178,17.8827434 23.3967948,18.5651482 C23.5450546,18.6859467 23.7337712,18.7450515 23.924099,18.7302964 C24.165343,18.745014 24.4055144,18.6875425 24.614247,18.5651482 C25.0050724,17.5264804 25.6673044,15.8438386 26.6009429,13.5172227 L28.0138078,10.098967 Z" id="Path" fill="#7B003A"></path>
            <path d="M36.7949726,7.0873497 C36.7810146,6.69784928 36.8135834,6.46414903 36.9004335,6.36911092 C36.9624692,6.30367485 37.1439239,6.27407282 37.4401448,6.27407282 L39.1740448,6.27407282 C39.5820103,6.25954758 39.9895929,6.31217617 40.3806408,6.42987299 C40.6557774,6.52012849 40.8970405,6.69239503 41.0723397,6.92375953 C41.2506926,7.16369179 41.4476562,7.67783235 41.6446198,8.47085521 C41.7809203,8.54383034 41.937045,8.57060791 42.0897265,8.54719729 C42.2087275,8.55243194 42.3213181,8.49290215 42.3843965,8.39139712 C42.3502768,6.86455546 42.3378697,5.83627434 42.3378697,5.30966977 C41.9449764,5.35017782 41.0588986,5.3699125 39.6796364,5.36887384 L35.3278264,5.36887384 C34.8548036,5.36887384 34.3817807,5.35640982 33.9056561,5.35017782 C33.4295315,5.34394581 32.9859757,5.3361558 32.5501743,5.30966977 C32.4388503,5.37474624 32.3776089,5.50086647 32.3950849,5.62906012 C32.3808711,5.76522136 32.4235569,5.90120063 32.5129528,6.00453853 L32.9053292,6.06374259 C33.3550886,6.10113463 33.6342496,6.24602879 33.7536685,6.49530906 C33.8730873,6.74458933 33.9087579,7.32260796 33.9087579,8.20911092 L33.9087579,15.5628789 C33.9087579,16.4291279 33.8570614,16.9889698 33.7536685,17.2424047 C33.6342496,17.479221 33.3550886,17.6241152 32.9053292,17.6724132 L32.2524026,17.7721253 C32.1665311,17.8612739 32.1235093,17.9835382 32.1345346,18.1070957 C32.1239314,18.2381176 32.1664326,18.3678907 32.2524026,18.4669941 C33.4352181,18.426486 34.4691478,18.4067513 35.3541916,18.40779 C36.2661176,18.40779 37.319175,18.4275247 38.5133638,18.4669941 C38.6005271,18.3685045 38.6436892,18.238425 38.6327826,18.1070957 C38.6440385,17.9832185 38.6003452,17.8606586 38.5133638,17.7721253 L37.7906469,17.6724132 C37.3750072,17.6241152 37.1051515,17.479221 36.9764273,17.2377307 C36.847703,16.9962405 36.7825655,16.4291279 36.7965235,15.5628789 L36.7965235,12.898696 C36.7965235,12.6213717 36.8306432,12.4468755 36.9019843,12.3752075 C36.9733255,12.3035394 37.1004988,12.2988654 37.3470911,12.2988654 L39.0530751,12.2988654 C39.5555649,12.2988654 39.9122706,12.3596274 40.1030307,12.4998476 C40.2937907,12.6400677 40.4008024,12.9485521 40.4923052,13.4081626 L40.5869097,13.8755631 C40.6993564,13.9544586 40.837068,13.9883498 40.9730825,13.9706012 C41.099848,13.9827683 41.225879,13.9409423 41.3204829,13.8553091 C41.2832614,13.2321084 41.2651676,12.547107 41.2662015,11.8003048 C41.2672355,11.0535027 41.2853292,10.3492859 41.3204829,9.68765453 C41.2418447,9.57570145 41.1085515,9.51592287 40.9730825,9.53185436 C40.8313973,9.52263412 40.6920492,9.57154513 40.5869097,9.66740051 L40.4923052,10.134801 C40.4008024,10.6022015 40.2875871,10.8997798 40.1030307,11.04 C39.9184742,11.1802202 39.5555649,11.2440982 39.0530751,11.2440982 L37.3470911,11.2440982 C37.1004988,11.2440982 36.9531639,11.2144962 36.9019843,11.1194581 C36.8306432,11.054022 36.7965235,10.8951058 36.7965235,10.6520576 L36.7949726,7.0873497 Z" id="Path" fill="#7B003A"></path>
            <path d="M52.0588766,5.05878975 C49.9434564,5.05878975 48.1490715,5.64360147 46.6757217,6.81314141 C46.3317891,7.09090478 46.0215494,7.40831829 45.7513885,7.75884843 C45.4579486,8.1261364 45.2056978,8.52479484 44.9992047,8.94760373 C44.7845697,9.40356777 44.6197304,9.88154605 44.5075711,10.3731753 C44.3752301,10.9229908 44.3106425,11.4870594 44.3152602,12.0527011 C44.3152602,13.2627491 44.5566828,14.2889529 45.0395279,15.1313124 C45.4664983,15.9462986 46.0618935,16.6602225 46.7858352,17.2252667 C48.2643546,18.2431612 50.0106618,18.7448377 52.0247569,18.7302964 C52.7518055,18.722159 53.4753704,18.6280306 54.1805003,18.4498561 C54.8473849,18.2940559 55.4444793,18.1476037 55.977987,17.9995936 C56.2881659,17.4709117 56.5316564,16.4322439 56.7084583,14.8835902 C56.6341775,14.7592064 56.5084837,14.6746456 56.3657106,14.6530059 C56.2288036,14.6316558 56.0890985,14.6664614 55.977987,14.749602 C55.6998527,15.5099171 55.2576046,16.198942 54.6829901,16.7672142 C54.3564828,17.0782916 53.9758892,17.3264943 53.5601425,17.499475 C53.0693844,17.7196117 52.5356427,17.8261038 51.9983917,17.8110754 C50.7855921,17.8110754 49.7320178,17.2917415 48.8376686,16.2530737 C47.9195391,15.2247925 47.4418635,13.7275529 47.420151,11.7644708 C47.4439314,9.79100198 47.9231578,8.32128704 48.8578302,7.35532599 C49.7666544,6.42052498 50.7824904,5.95312447 51.905338,5.95312447 C53.81604,5.96558848 55.037111,6.90817951 55.5685509,8.78089754 C55.6887528,8.86187207 55.836866,8.88948876 55.977987,8.85723963 C56.1145817,8.85055504 56.2368525,8.77005886 56.2974713,8.6469094 C56.1620044,7.62602656 56.0858815,6.59807981 56.0694898,5.56829805 C55.771718,5.53246401 55.2785336,5.43742591 54.5852837,5.28941575 C53.7521006,5.13392541 52.9063121,5.0567306 52.0588766,5.05878975 L52.0588766,5.05878975 Z" id="Path" fill="#7B003A"></path>
        </g>
    </g>
</svg>