<?xml version="1.0" encoding="UTF-8"?>
<svg width="103px" height="138px" viewBox="0 0 103 138" version="1.1" xmlns="http://www.w3.org/2000/svg" xmlns:xlink="http://www.w3.org/1999/xlink">
    <title>soccer-tema-einracht-color</title>
    <g id="soccer-tema-einracht-color" stroke="none" stroke-width="1" fill="none" fill-rule="evenodd">
        <rect id="Rectangle" fill="#FFFFFF" x="0" y="0" width="103.235294" height="138"></rect>
        <g id="Eintracht_Frankfurt_Logo" transform="translate(14.000000, 32.000000)" fill-rule="nonzero">
            <path d="M37.4025763,74.6184248 C52.4097487,74.6184248 65.9390657,65.5778873 71.6813032,51.7127536 C77.4235407,37.8476199 74.2477468,21.8886712 63.6349123,11.278159 C53.0220779,0.667646816 37.0624345,-2.50465452 23.1985578,3.24061715 C9.33468109,8.98588881 0.29710585,22.5171839 0.3003888,37.5243559 C0.3003888,47.3637212 4.20961769,56.7999731 11.1678609,63.7566937 C18.1261041,70.7134143 27.5632112,74.6205774 37.4025763,74.6184248" id="Path" fill="#FFFFFF"></path>
            <path d="M37.5,1.24215198 C22.831047,1.24215198 9.60664622,10.0789501 3.99383966,23.6316099 C-1.6189669,37.1842696 1.48528358,52.7835452 11.8589608,63.1549001 C22.232638,73.5262551 37.8326083,76.627013 51.384011,71.0111723 C64.9354137,65.3953315 73.7692505,52.1689526 73.7659676,37.5 C73.7435875,17.4814513 57.5185532,1.26004917 37.5,1.24215198 M37.5,75 C16.7893219,75 0,58.2106781 0,37.5 C0,16.7893219 16.7893219,0 37.5,0 C58.2106781,0 75,16.7893219 75,37.5 C74.9776273,58.201404 58.201404,74.9776273 37.5,75" id="Shape" fill="#E00914"></path>
            <path d="M37.5,8.71941979 C25.8553195,8.71941979 15.357402,15.7344403 10.9019345,26.4930365 C6.44646705,37.2516328 8.91099431,49.6348021 17.1461879,57.8676734 C25.3813816,66.1005446 37.7652456,68.5615792 48.5225847,64.1030774 C59.2799239,59.6445757 66.2919827,49.14468 66.2887,37.5 C66.2707943,21.6091773 53.3908271,8.73284236 37.5,8.71941979 M37.5,72.1178827 C18.3810713,72.1178827 2.88211734,56.6189287 2.88211734,37.5 C2.88211734,18.3810713 18.3810713,2.88211734 37.5,2.88211734 C56.6189287,2.88211734 72.1178827,18.3810713 72.1178827,37.5 C72.0999796,56.6115081 56.6115081,72.0999796 37.5,72.1178827" id="Shape" fill="#E00914"></path>
            <path d="M51.7400953,39.0425417 C54.6461504,40.3118272 57.7687157,41.0118551 60.9385148,41.1046763 C64.299632,41.2264559 65.631089,39.1318467 64.5188352,38.7746265 C64.0804287,38.628491 54.4923144,35.9168651 54.4923144,35.9168651 C54.4923144,35.9168651 53.3069929,35.4541026 54.1919247,35.3566789 C55.0768565,35.2592553 59.0631089,35.2998485 60.7680234,34.609764 C62.8463953,33.7979 63.2036155,31.8819008 62.7246157,31.9062568 C58.5516346,32.1254601 54.6059753,32.0523923 54.3948907,32.0199177 L54.3218229,32.0199177 C54.3218229,32.0199177 53.8590604,31.8656636 54.2731111,31.5003247 C54.6871617,31.1349859 57.7316519,28.5938515 58.3324313,27.9524789 C59.9561593,26.3287508 58.8682615,23.8931587 58.5841091,24.112362 C56.6148091,25.9595135 54.4154514,27.5449066 52.040485,28.8292921 C51.8294003,28.8292921 51.8862308,28.3665296 52.040485,28.017428 C52.6461463,27.2222759 53.1405271,26.3482326 53.5099589,25.4194631 C54.3218229,22.3993289 54.1107383,20.4914484 52.4058238,19.7364148 C52.0973154,19.6065166 51.9836545,19.777008 51.5939597,20.7106517 C51.204265,21.6442953 51.0418922,23.2923793 49.5155878,23.9581078 C48.7037237,24.2828534 47.2910803,25.5818359 47.2667244,26.1501407 C47.2423685,26.7184456 47.5671141,27.5140723 47.1611821,27.7738688 C46.7552501,28.0336653 46.2843689,27.611496 45.7728946,28.0255467 C45.2614202,28.4395973 43.8812514,29.8522407 43.3941329,30.2175796 C42.9070145,30.5829184 41.924659,31.1755791 41.3076423,30.8427149 C39.9680667,29.5193765 40.6175579,25.6305477 40.6175579,25.6305477 C40.9349115,25.6808328 41.2582039,25.6808328 41.5755575,25.6305477 C42.0192388,25.5448013 42.4071174,25.2780386 42.6459263,24.8944035 C42.8847353,24.5107685 42.9528698,24.0449683 42.8339467,23.6090063 C42.5430476,23.9296171 42.13025,24.1124274 41.6973371,24.112362 C41.1533882,24.1610738 41.0072527,23.9418705 40.885473,23.4547521 C40.7128804,22.9467111 40.7128804,22.3958955 40.885473,21.8878545 C41.1209136,21.0759905 41.9490149,20.6781771 42.4198961,20.3047196 C42.8907772,19.9312622 42.6390994,18.5023815 42.6390994,18.5023815 C42.5134685,18.7744489 42.3402577,19.0218929 42.127625,19.2330591 C41.6729812,19.6552284 41.0559645,19.5334488 39.7407447,19.4522624 C38.9680561,19.4941153 38.2153776,19.1977851 37.6786101,18.6403984 C37.4675254,18.3887205 35.7463737,18.5754492 35.243018,18.5998052 C34.0921263,18.7365039 32.9561805,18.9783679 31.8494263,19.3223641 C31.1115863,19.5770303 30.4016013,19.9061804 29.7304611,20.3047196 C29.4381901,20.5401602 29.5437324,20.7593635 29.5437324,20.7593635 L29.8035289,21.4738039 C30.4001659,21.0656264 31.0540732,20.7482489 31.743884,20.5320416 C32.7018835,20.2722451 32.8155445,20.7106517 32.9373241,21.1247023 C33.0353132,21.4218079 33.1112925,21.7257255 33.164646,22.03399 C32.1571708,22.2515631 31.1235768,22.3226569 30.0958,22.2450747 C28.6019701,22.1638883 28.5207837,21.5062784 28.537021,21.1165837 C28.537021,20.9785668 28.1067331,21.1165837 27.9362416,21.5062784 C27.6358519,22.1720069 27.5465469,23.2923793 30.6072743,23.2517861 C31.5302295,23.2085881 32.4390385,23.0081559 33.2945443,22.6591254 C33.5299848,23.4709894 33.2945443,23.6008876 32.9129682,23.6577181 C32.1822143,23.8373868 31.414986,23.8007178 30.704698,23.5521758 C30.704698,23.5521758 30.501732,24.2179043 30.6478675,24.3640398 C31.5681787,24.8581096 32.6099228,25.080536 33.6517645,25.0054124 C33.9683914,25.0054124 34.2200693,24.7780905 34.3905607,24.924226 C34.6049519,25.2465999 34.7539091,25.607959 34.8289673,25.9877679 C34.8289673,26.2394458 34.7802555,26.4099372 34.0171033,26.3936999 C33.2539511,26.3774627 32.9941546,26.3936999 33.0266291,26.5479541 C33.3253968,26.8748622 33.6483486,27.1788168 33.9927473,27.4572418 C34.1470015,27.611496 34.9182724,26.799632 34.9182724,26.799632 C34.8844683,26.9410695 34.8844683,27.0884824 34.9182724,27.2299199 C34.9832215,27.5546655 35.1943061,30.0876813 33.6192899,30.818359 C33.0103919,31.1512232 31.9955618,30.5585625 31.5409179,30.1932236 C31.0862741,29.8278848 29.6411561,28.4071228 29.1540377,28.0011907 C28.6669192,27.5952587 28.1148517,28.0011907 27.7901061,27.7738688 C27.4653605,27.5465469 27.700801,26.6534964 27.6764451,26.1501407 C27.6520892,25.646785 26.2150898,24.2828534 25.4357004,23.9581078 C23.909396,23.3248539 23.7551418,21.6848885 23.3492098,20.7106517 C22.9432778,19.7364148 22.8377354,19.6065166 22.5373457,19.7364148 C20.8324313,20.4589738 20.6294653,22.3668543 21.4332107,25.4194631 C21.7855593,26.3414009 22.2636726,27.210201 22.8539727,28.0011907 C23.0163455,28.3584109 23.073176,28.8617666 22.8539727,28.8130548 C20.4817129,27.5243584 18.2828829,25.9393457 16.3103486,24.0961247 C16.0343148,23.8363282 14.9058238,26.2719203 16.5620264,27.9362416 C17.203399,28.5776142 20.207296,31.0862741 20.6619398,31.4840875 C21.1165837,31.8819008 20.613228,32.0036805 20.613228,32.0036805 L20.5401602,32.0036805 C20.296601,32.0036805 16.3834163,32.1092228 12.2104352,31.8900195 C11.7233167,31.8900195 12.0886556,33.7410695 14.1670275,34.5935267 C15.8638233,35.2836112 19.8500758,35.2511366 20.7431262,35.3404417 C21.6361767,35.4297467 20.4427365,35.9006278 20.4427365,35.9006278 C20.4427365,35.9006278 10.8546222,38.6122537 10.408097,38.7583893 C9.3039619,39.1156094 10.6354189,41.1939814 13.9884174,41.0884391 C17.1609372,40.9964511 20.2863176,40.29641 23.1949556,39.0263044 C24.404633,38.5635419 23.682074,39.4159991 23.4222775,39.5946092 C21.6199394,40.8692358 16.3103486,44.4657935 13.8016887,46.0895215 C13.4444685,46.3249621 13.3957567,46.5847586 13.8016887,47.0150465 C15.7663997,49.1015371 19.484737,46.7065382 20.9542109,45.8946742 C22.6753626,44.9366746 26.7590388,41.835354 27.0837844,42.1844555 C27.205564,42.3143538 26.9701234,43.4672007 24.4452262,46.1707079 C24.7034619,46.4251273 24.9744311,46.6662898 25.2570903,46.8932669 C25.2570903,46.8932669 24.0555315,48.3465036 23.2274302,49.2557913 C22.8945659,49.6130115 22.1151764,50.392401 21.9040918,50.3518078 C21.6930071,50.3112145 20.613228,49.1340117 20.2397705,49.1096558 C20.0043299,49.1096558 19.5009742,49.4587573 19.1356354,49.2476727 C18.6284534,49.1376237 18.0986385,49.2124889 17.6418056,49.4587573 C17.0653821,49.7266724 17.1709244,51.0824854 17.3332973,50.4735874 C17.4956701,49.8646893 18.6322797,49.8971639 19.2087032,50.5628924 C19.5088437,50.8771462 19.8787468,51.1163316 20.2884824,51.2610955 C20.6375839,51.3422819 20.816194,51.4559428 20.6700585,51.5533665 C20.0156932,51.779071 19.3892135,52.0786917 18.8027712,52.446417 C18.6322797,52.7305694 18.7215848,52.8279931 18.6566356,52.9741286 C17.8691275,53.2907556 17.6255683,53.5911453 17.8691275,54.4030093 C17.9404084,54.6264332 18.0356816,54.8414784 18.1532799,55.0443819 C18.2831782,54.8089413 18.2182291,54.0376705 19.0382117,53.8590604 C19.1275168,53.8590604 19.2736523,53.9646027 19.4279065,53.9646027 C20.0932149,53.7703028 20.7063813,53.4290382 21.222126,52.96601 C21.4413293,52.6899762 21.3926174,53.1283828 21.222126,53.3962979 C20.5320416,54.6709244 20.7918381,55.4503139 20.8486685,55.4746698 C20.905499,55.4990258 21.1003464,55.4178394 21.1977701,55.6613986 C21.4578879,56.4419888 22.0109305,57.0910861 22.7403118,57.4718554 C22.4721868,56.8637959 22.3418822,56.2039557 22.3587357,55.539619 C22.4886339,55.4746698 22.5941762,55.539619 22.7484304,55.4746698 C22.9500281,55.1671396 23.0650152,54.8109599 23.0812947,54.4436025 C23.0812947,53.9158909 22.7646677,53.7453994 22.7727863,53.4287725 C22.7987354,53.1916434 22.879327,52.9637636 23.0082269,52.7630439 C23.197031,53.1357659 23.4256891,53.4869193 23.6901927,53.8103486 C24.3234466,54.4841957 24.2097857,54.6222126 24.8836328,54.3705347 C25.0135311,54.3137043 25.9065815,55.7750595 25.9065815,55.7750595 C26.0843499,55.340954 26.1404844,54.8666176 26.0689543,54.4030093 C26.0040052,54.1513315 25.760446,54.0457891 25.5899545,53.8265858 C25.4194631,53.6073826 25.8903442,53.3313488 25.6630223,53.0147218 C24.3721585,51.7806885 24.2503789,52.2028578 23.9175146,51.3909937 C23.6901927,50.8470448 24.1285993,50.481706 24.5832431,49.9377571 C25.7117341,48.5738255 25.7523273,48.5900628 26.4180559,47.7863174 C26.6940896,47.9730461 26.8564624,48.1516562 27.2299199,48.4358086 C28.4964278,46.5847586 29.5680883,44.9123187 30.7534098,44.4820307 C31.9387313,44.0517428 32.4826802,44.7418272 32.4826802,45.4725049 C32.4258498,46.7308941 29.8928339,49.4506387 29.8928339,49.4506387 C29.0090269,50.3163019 28.1946532,51.250117 27.4572418,52.243451 L27.4572418,52.243451 C27.2523501,52.6024855 27.1147807,52.9959341 27.0513098,53.4044165 C27.0024334,53.9698076 27.0407681,54.5393523 27.1649708,55.0930937 C27.2623945,55.6208054 27.3760554,56.034856 27.3760554,56.034856 C27.3760554,56.034856 27.7495129,54.6790431 27.8388179,54.5166703 C28.0823771,54.0539078 28.131089,54.5166703 28.4883092,55.425958 C28.805379,56.1399134 29.1800753,56.8268566 29.6086815,57.479974 L29.6086815,55.1499242 C29.6086815,54.5491448 29.6817493,53.7372808 29.9577831,54.3380602 C30.3027624,54.9926576 30.6849648,55.626951 31.1025114,56.237822 C31.1025114,56.237822 31.1025114,55.7588223 31.1512232,55.1905174 L31.1512232,55.1905174 C31.2659039,54.222153 31.4864251,53.2692837 31.8088331,52.3489933 L31.8088331,52.3489933 C31.9955618,52.0080104 32.8155445,50.5791297 33.8060186,50.4248755 C34.7964927,50.2706213 34.8857978,52.0486036 34.8208487,52.4301797 C34.7067079,53.0728723 34.5243607,53.7015617 34.2768998,54.3055856 C34.1794761,54.4923144 33.4000866,55.9293137 33.2945443,56.2459407 C32.5538604,57.8616364 32.9976692,59.7736848 34.3743234,60.8979216 C34.4507569,59.9789068 34.6529011,59.0747213 34.9751028,58.2106517 C35.1780688,57.9183806 35.4541026,57.7316519 35.6570686,58.0158043 C36.1707165,58.9885749 36.779911,59.9078059 37.4756441,60.7599047 L37.4756441,60.7599047 C38.1713771,59.9078059 38.7805717,58.9885749 39.2942195,58.0158043 C39.4971855,57.7316519 39.7732193,57.9183806 39.9761853,58.2106517 C40.3027998,59.0747261 40.5130219,59.9784082 40.6013206,60.8979216 C41.987651,59.7937219 42.4632091,57.8981406 41.7622862,56.2702966 C41.6567439,55.9942628 40.8773544,54.5166703 40.7799307,54.3299415 C40.5324697,53.7259176 40.3501226,53.0972282 40.2359818,52.4545356 C40.1629141,52.0729595 40.2359818,50.3030959 41.2508119,50.4492314 C42.2656419,50.595367 43.0612687,52.0729595 43.2479974,52.3733492 L43.2479974,52.3733492 C43.5510838,53.295834 43.7525374,54.2486552 43.8487768,55.2148733 L43.8487768,55.2148733 C43.88937,55.7831782 43.8974886,56.262178 43.8974886,56.262178 C44.3150352,55.651307 44.6972376,55.0170135 45.0422169,54.3624161 C45.3101321,53.7616367 45.3588439,54.5735008 45.3913185,55.1742801 L45.3913185,57.4962113 C45.8192785,56.8440994 46.1913541,56.1569817 46.5035722,55.4421953 C46.868911,54.5329076 46.9176229,54.0701451 47.1611821,54.5329076 C47.2423685,54.6952804 47.6239446,56.0510933 47.6239446,56.0510933 C47.6239446,56.0510933 47.7376055,55.6370426 47.8350292,55.109331 C47.9608069,54.5557791 47.9964456,53.985559 47.9405716,53.4206538 C47.8845517,53.010343 47.7464983,52.61551 47.5346395,52.2596882 L47.5346395,52.2596882 C46.8003873,51.263815 45.9857999,50.3297548 45.0990474,49.4668759 C45.0990474,49.4668759 42.5660316,46.7471314 42.5092011,45.4887422 C42.5092011,44.7743018 43.0125568,44.0842174 44.1897597,44.5226239 C45.3669625,44.9610305 46.4467417,46.6253518 47.705131,48.4764018 C48.0948257,48.1922494 48.2490799,48.0136393 48.516995,47.8269106 C49.1827235,48.6387746 49.2233167,48.6387746 50.3518078,49.9783503 C50.8064516,50.5222992 51.2367396,50.887638 51.0175363,51.4315869 C50.684672,52.243451 50.5628924,51.813163 49.2720286,53.055315 C49.0447066,53.4044165 49.5155878,53.6804503 49.3450963,53.867179 C49.1746049,54.0539078 48.9310457,54.1919247 48.8660966,54.4436025 C48.8056351,54.8980659 48.867284,55.3604326 49.0447066,55.7831782 C49.0447066,55.7831782 49.9377571,54.3218229 50.0676553,54.3786534 C50.7333838,54.6465685 50.6197229,54.4923144 51.2610955,53.8184672 C51.5335965,53.4987658 51.7704359,53.1503124 51.9674172,52.7792812 C52.0909287,52.981913 52.1685235,53.2091549 52.1947391,53.4450097 C52.1947391,53.7616367 51.9105867,53.9321282 51.8943494,54.4598398 C51.9106289,54.8271972 52.025616,55.1833768 52.2272137,55.4909071 C52.3814679,55.5802122 52.4870102,55.4909071 52.6169084,55.5558562 C52.6337619,56.220193 52.5034573,56.8800332 52.2353323,57.4880927 C52.9323344,57.1025372 53.4573937,56.4672444 53.7048062,55.7101104 C53.8103486,55.4665512 53.8996536,55.5802122 54.0620264,55.5233817 C54.2243992,55.4665512 54.3705347,54.7115176 53.6804503,53.4450097 C53.5424334,53.1770946 53.4937216,52.738688 53.6804503,53.0147218 C54.1950472,53.4793563 54.8086012,53.8208366 55.4746698,54.0133146 C55.628924,54.0133146 55.7750595,53.891535 55.8562459,53.9077722 C56.66811,54.0863823 56.6193981,54.8576532 56.7492964,55.0930937 C56.8623438,54.8879029 56.9574162,54.673311 57.0334488,54.4517212 C57.3013639,53.574908 57.0902793,53.3069929 56.2215848,52.9984845 C56.1566356,52.852349 56.2215848,52.7549253 56.0754492,52.4707729 C55.4881409,52.1046238 54.8618439,51.8050904 54.2081619,51.5777225 C54.0620264,51.4802988 54.2081619,51.3666378 54.589738,51.2854514 C54.9994736,51.1406876 55.3693767,50.9015021 55.6695172,50.5872483 C56.2459407,49.9215198 57.390669,49.9052825 57.5449231,50.4979433 C57.6991773,51.090604 57.8128383,49.7510284 57.2364148,49.4831132 C56.7793562,49.2375328 56.2497933,49.1627033 55.742585,49.2720286 C55.3691275,49.4831132 54.8657718,49.1258931 54.6384499,49.1340117 C54.2649924,49.1340117 53.1770946,50.3355705 53.0147218,50.3761637 C52.852349,50.4167569 52.0242477,49.6373674 51.6913834,49.2801472 C50.8795194,48.3708595 49.6536047,46.9176229 49.6536047,46.9176229 C49.9380625,46.6927812 50.2091454,46.4515174 50.4654687,46.1950639 C47.9486902,43.4915566 47.7132496,42.3387097 47.8350292,42.2088114 C48.1516562,41.8759472 52.243451,44.9610305 53.9564841,45.9190301 C55.4340766,46.7308941 59.1524139,49.1258931 61.1171249,47.0394025 C61.5230569,46.6091145 61.4743451,46.349318 61.1171249,46.1138775 C58.608465,44.4901494 53.3069929,40.9017103 51.5046547,39.6189651 C51.2448582,39.4403551 50.5141806,38.5878978 51.7319766,39.0506603" id="Path" fill="#E00914"></path>
            <path d="M42.127625,13.095367 C42.127625,13.095367 39.3916432,14.2482139 39.148084,14.4349426 C38.6772029,14.0290106 37.3132713,12.8112145 37.1590171,12.6731977 L37.1590171,12.6731977 C37.0047629,12.8112145 35.6408313,14.0290106 35.1699502,14.4349426 C34.926391,14.2482139 32.2228837,13.095367 32.1904092,13.095367 C32.1579346,13.095367 32.9454427,14.2319766 33.4163239,15.0113661 C33.7173738,15.590925 33.8469244,16.2443108 33.7897813,16.8948907 L40.5444901,16.8948907 C40.4921991,16.2445823 40.6214863,15.5925253 40.9179476,15.0113661 C41.3888288,14.1995021 42.1438623,13.095367 42.1438623,13.095367" id="Path" fill="#E00914"></path>
            <path d="M34.9182724,20.3047196 C35.5600315,19.9945393 36.2919077,19.9253856 36.980407,20.1098723 L35.2348993,21.5143971 C35.0997451,21.1195086 34.9939154,20.7151849 34.9182724,20.3047196" id="Path" fill="#FFFFFF"></path>
            <path d="M42.5660316,36.168543 C44.1085733,35.8925092 46.1219961,35.3972721 48.2490799,31.6789348 C46.2356571,31.2973587 45.8946742,30.2825287 45.8946742,30.2825287 L45.8946742,30.2825287 C45.8946742,30.2825287 46.9906906,29.9902576 48.516995,31.1999351 C48.5981814,28.6100888 50.1407231,28.1960381 50.1407231,28.1960381 L50.1407231,28.1960381 C50.1407231,28.1960381 50.7820957,29.6249188 48.833622,31.3379519 C50.7496211,31.743884 51.2205023,32.7749513 51.2205023,32.7749513 L51.2205023,32.7749513 C51.2205023,32.7749513 50.2056722,33.1484087 48.6468933,31.8494263 C46.3330808,36.0711193 43.775709,36.980407 42.5903875,36.980407 C42.6184193,36.7105116 42.6184193,36.4384384 42.5903875,36.168543" id="Path" fill="#FFFFFF"></path>
            <path d="M34.0333405,33.570578 C34.0733041,35.0855376 34.2334739,36.5949338 34.5123403,38.0845421 C34.8506837,40.1194734 35.5636597,42.0739636 36.6150682,43.8487768 C36.853045,44.2678442 37.1245529,44.6669608 37.4269322,45.0422169 L37.4269322,45.0422169 L37.4269322,45.0422169 L37.4269322,45.0422169 C37.7614994,44.6693962 38.0655735,44.270299 38.33622,43.8487768 C39.3876285,42.0739636 40.1006045,40.1194734 40.4389478,38.0845421 C40.7178143,36.5949338 40.877984,35.0855376 40.9179476,33.570578 C40.9179476,33.570578 34.0495778,33.570578 34.0333405,33.570578" id="Path" fill="#FFFFFF"></path>
            <path d="M32.3771379,36.168543 C30.8345962,35.8925092 28.8292921,35.3972721 26.6940896,31.6789348 C28.7075124,31.2973587 29.0484953,30.2825287 29.0484953,30.2825287 L29.0484953,30.2825287 C29.0484953,30.2825287 27.9524789,29.9902576 26.4261745,31.1999351 C26.3368695,28.6100888 24.8024464,28.1960381 24.8024464,28.1960381 L24.8024464,28.1960381 C24.8024464,28.1960381 24.1610738,29.6249188 26.1095475,31.3379519 C24.1935484,31.743884 23.7226672,32.7749513 23.7226672,32.7749513 L23.7226672,32.7749513 C23.7226672,32.7749513 24.7374973,33.1484087 26.2962763,31.8494263 C28.6100888,36.0711193 31.1268673,36.980407 32.3446633,36.980407 C32.3259517,36.7101091 32.3259517,36.4388409 32.3446633,36.168543" id="Path" fill="#FFFFFF"></path>
            <polygon id="Path" fill="#E00914" points="39.3754059 40.9504222 39.3754059 40.0492531 37.1590171 40.0492531 37.1590171 38.33622 39.1399654 38.33622 39.1399654 37.4350509 37.1590171 37.4350509 37.1590171 35.9818142 39.1237281 35.9818142 39.1237281 35.0806452 35.8194414 35.0806452 35.8194414 40.9504222"></polygon>
        </g>
    </g>
</svg>