<?xml version="1.0" encoding="UTF-8"?>
<svg width="103px" height="138px" viewBox="0 0 103 138" version="1.1" xmlns="http://www.w3.org/2000/svg" xmlns:xlink="http://www.w3.org/1999/xlink">
    <title>soccer-tema-unionberlin-color</title>
    <g id="soccer-tema-unionberlin-color" stroke="none" stroke-width="1" fill="none" fill-rule="evenodd">
        <rect id="Rectangle" fill="#FFFFFF" x="0" y="0" width="103.235294" height="138"></rect>
        <g id="union-berlin" transform="translate(7.000000, 53.000000)" fill-rule="nonzero">
            <path d="M84.7937828,9.92558466 L46.6675968,9.92558466 C41.4181866,4.94794341 33.1213825,4.94794341 27.8719723,9.92558466 L19.4159504,9.92558466 L18.1602299,5.27250229 L66.7641478,5.27250229 L65.3426722,0 L0,0 L1.41896417,5.27250229 L5.33681214,5.27250229 L11.7962384,29.2713073 L24.6221677,29.2713073 L20.8349146,15.1980869 L24.4388325,15.1980869 C22.3758393,21.0487396 24.6468544,27.5318508 29.9312716,30.8774604 C35.2156888,34.22307 42.1358287,33.5589575 46.6675968,29.2713073 L90,29.2713073 L84.7937828,9.92558466 Z M9.76699408,1.09761208 L11.4823083,1.09761208 L16.9446925,21.3873307 L16.9120438,21.3873307 C16.3597643,21.3870047 15.8175789,21.5333525 15.3423931,21.8110139 L9.76699408,1.09761208 Z M17.050173,28.1761729 L16.8718607,27.5096771 L16.9070209,27.5096771 C17.4584647,27.5096803 17.9997562,27.3633397 18.4741601,27.0859939 L18.7679987,28.1736953 L17.050173,28.1761729 Z" id="Shape" fill="#FCEA0D"></path>
            <path d="M88.5559214,28.1761729 L47.7073334,28.1761729 C51.9029301,23.207638 51.9029301,15.9917317 47.7073334,11.0231967 L83.9273356,11.0231967 L88.5559214,28.1761729 Z" id="Path" fill="#FFFFFF"></path>
            <path d="M6.19070209,4.17736788 L2.27285411,4.17736788 L1.44407858,1.09761208 L8.61926554,1.09761208 L14.4156714,22.6336036 C14.0196071,23.1575597 13.8055674,23.7936538 13.8053912,24.4472651 C13.8064806,25.6602371 14.5319985,26.7586495 15.6563233,27.2495207 L15.9074674,28.1761729 L12.642594,28.1761729 L6.19070209,4.17736788 Z" id="Path" fill="#D41317"></path>
            <path d="M19.3833017,14.1004749 L23.1705547,28.1761729 L19.9056814,28.1761729 L19.390836,26.2634042 C19.9528193,25.5172202 20.1395133,24.5590556 19.898001,23.660495 C19.6564887,22.7619345 19.0130947,22.0209202 18.1501842,21.6474871 L12.625014,1.09761208 L64.4887822,1.09761208 L65.3175578,4.17736788 L16.7186628,4.17736788 L18.5620605,11.0231967 L26.8322357,11.0231967 C26.0435017,11.957029 25.3870342,12.992257 24.8808461,14.1004749 L19.3833017,14.1004749 Z" id="Path" fill="#D41317"></path>
            <path d="M14.917958,24.4472651 C14.917292,24.9692212 15.127168,25.4699887 15.5012762,25.8390677 C15.8753843,26.2081467 16.3829754,26.4152013 16.9120438,26.4145443 L16.9120438,26.4145443 C17.4406771,26.4145443 17.9476224,26.2071979 18.321187,25.8381904 C18.6947516,25.4691829 18.9042831,24.9687916 18.9036181,24.4472651 L18.9036181,24.4472651 C18.9036181,23.362136 18.011959,22.4824635 16.9120438,22.4824635 L16.9120438,22.4824635 C16.3834108,22.4818074 15.8762011,22.6885222 15.5021654,23.057065 C15.1281297,23.4256077 14.917958,23.9257381 14.917958,24.4472651 L14.917958,24.4472651 Z" id="Path" fill="#D41317"></path>
            <polygon id="Path" fill="#D41317" points="62.818674 12.3165455 64.9634446 20.2822856 60.6588347 12.3165455 59.5337091 12.3165455 57.602411 12.3165455 61.5227704 26.8803465 63.4540685 26.8803465 61.2992521 18.8799189 65.6239536 26.8803465 66.7390334 26.8803465 68.4191874 26.8803465 64.498828 12.3165455"></polygon>
            <polygon id="Path" fill="#D41317" points="81.8001451 12.3165455 83.9449157 20.2822856 79.6403058 12.3165455 78.5151803 12.3165455 76.5838821 12.3165455 80.5042415 26.8803465 82.4355397 26.8803465 80.2807233 18.8799189 84.6054247 26.8803465 85.7205045 26.8803465 87.4006586 26.8803465 83.4802991 12.3165455"></polygon>
            <path d="M54.7644826,12.3165455 L58.26292,25.3070199 L56.8163299,25.3070199 L53.3204041,12.3165455 L50.2890948,12.3165455 L53.7900435,25.3070199 C54.0538317,26.1987189 54.859064,26.8292799 55.7991963,26.8803465 L58.9133832,26.8803465 C59.794899,26.8803465 60.3172787,26.1766855 60.0837147,25.3070199 L56.5877888,12.3165455 L54.7644826,12.3165455 Z" id="Path" fill="#D41317"></path>
            <path d="M73.9770064,12.3165455 L70.330394,12.3165455 C69.4488782,12.3165455 68.9239871,13.0202065 69.1600625,13.8898721 L70.694553,19.5885353 L72.2315549,25.2871985 C72.4959984,26.1784626 73.3008559,26.8087301 74.2407077,26.860525 L77.8998772,26.860525 C78.781393,26.860525 79.3037727,26.156864 79.0702087,25.2871985 L77.5357183,19.5885353 L75.9987164,13.8898721 C75.7320811,12.9949354 74.9212898,12.3639649 73.9770064,12.3165455 Z M75.1699408,19.598446 L76.7069427,25.2971092 L75.2628642,25.2971092 L75.1272463,24.8015733 L73.7258623,19.598446 L72.3244782,14.3953187 L72.1888604,13.8997828 L73.6304275,13.8997828 L75.1699408,19.598446 Z" id="Shape" fill="#D41317"></path>
            <polygon id="Path" fill="#D41317" points="71.6413662 26.8803465 69.4338096 26.8803465 65.5159616 12.3165455 67.7210068 12.3165455"></polygon>
            <path d="M39.7686684,12.4924608 C39.8387166,12.5591548 39.917224,12.6166192 40.0022324,12.6634207 C39.8741489,13.233287 40.2533765,13.7833319 40.2383078,14.3977964 C40.2257506,14.8759886 39.9042862,15.2922388 39.9444692,15.777864 C39.9645608,16.0107659 40.147896,16.2288017 40.1780333,16.4691366 C40.2634223,17.1554539 39.8264315,17.7649631 39.828943,18.4240258 C39.828943,19.7718836 40.67781,21.1494735 41.1700525,22.1108132 C41.2152584,22.3065499 40.95658,22.2074427 40.9364884,22.3412374 C41.1097779,23.2852333 41.1549838,24.3481579 41.5216542,25.1038502 C40.9942516,25.9289175 40.5346579,26.8184045 39.3618149,27.0042305 C39.3474017,26.8715113 39.2849882,26.7483624 39.1860141,26.6573553 L39.1860141,26.597891 C39.1301956,26.359835 39.0094822,26.1413594 38.8369238,25.9660827 C39.0127246,25.6613281 39.4321353,25.5944307 39.6531421,25.3317967 C39.2287086,24.6430018 38.4150017,24.3407248 38.2542694,23.3769075 C37.2873647,24.0334926 36.7323362,25.1112832 36.4460319,26.4294088 C35.5368903,26.4145427 34.3113071,26.2336721 33.7613015,25.6861049 C33.8994307,25.3813503 33.8692934,24.9105912 33.9923541,24.5934482 C34.5197567,24.5934482 34.760855,24.8709483 35.2204487,24.9378456 C34.9517245,23.1910815 35.7428284,21.7664157 37.0286862,21.1965494 C36.8478625,20.7976429 36.5590468,20.5077544 36.5615582,19.9304551 C35.1174796,20.673759 33.2966849,20.2129106 32.5959929,19.1252092 L32.5959929,19.1252092 C32.8600986,18.8010764 33.0945792,18.4544984 33.2966849,18.0895391 C33.6973166,18.2425514 34.0144169,18.5544899 34.1706664,18.9492939 C34.6729546,18.6792269 35.1451055,18.3769499 35.6900882,18.1465257 C34.4845965,17.2793379 32.7843509,16.9076859 32.6562674,14.9800511 C33.0028463,14.8066136 33.2590133,14.5415018 33.7060498,14.4622161 C33.8884445,14.7820502 34.0061494,15.1337837 34.0526286,15.4978862 C34.6905347,15.8274176 35.5770733,15.9141364 36.2727425,16.1891588 C36.697176,15.8769712 37.101518,15.5499175 37.5560888,15.267462 C37.1165867,15.3343593 35.9613238,14.8239573 36.9734345,14.6926403 L37.0311977,14.6926403 C37.294899,14.6604305 37.3953566,14.7942252 37.6741266,14.7496269 C37.7550683,14.6098106 37.7758719,14.4438348 37.7318897,14.2887785 L37.5560888,14.2887785 C37.0286862,13.9270373 35.9688581,14.0905641 35.9789039,13.1961218 C36.230048,12.9012779 36.6017413,13.0548941 36.91316,12.9656976 C37.6038062,12.7749163 38.1688805,12.1554963 39.1885255,12.5048492 L39.7686684,12.4924608 Z M39.4195781,12.722885 C39.2261971,12.7427064 39.168434,12.8963226 39.0704878,13.0102958 C39.1140016,13.0487108 39.1732861,13.064716 39.2305634,13.053512 C39.2878406,13.042308 39.33645,13.0051976 39.3618149,12.9533092 C39.4999442,12.9359654 39.5803103,12.8641127 39.7686693,12.8963226 C39.7689069,12.8146749 39.7223658,12.7399019 39.6484492,12.7031781 C39.5745325,12.6664543 39.4859286,12.6740835 39.4195781,12.722885 M37.5535774,12.8963226 C37.4330282,13.0078181 37.4606541,13.2654968 37.3777765,13.4116799 C37.420471,13.426546 37.4933028,13.4116799 37.4958143,13.4711442 C37.6942181,13.5157425 37.591249,13.2580638 37.7293783,13.2431977 C37.7293783,13.3844254 37.7168211,13.5206978 37.8423931,13.5281309 C37.8599732,13.4092022 38.0935372,13.5157425 38.0784686,13.3546933 C37.8850876,13.2208986 37.8976448,12.8814565 37.5535774,12.8963226" id="Shape" fill="#000000"></path>
            <path d="M32.7115191,17.8467265 C32.7567251,17.8467265 32.8848086,18.0350301 32.7692823,18.0201641 C32.7692823,17.9136238 32.5708784,17.9829989 32.5357183,17.9037131 C32.4854895,18.0870614 32.6261301,18.0821061 32.6512446,18.191124 C32.4227034,18.2183784 32.3498716,18.0697177 32.2443911,18.2481106 C32.3446312,18.2982591 32.4256985,18.3791058 32.4754437,18.4785348 L32.2443911,18.4785348 C32.2971314,18.7486019 32.3649403,18.6321509 32.2443911,18.8823966 C32.378829,18.9284583 32.4990292,19.0077989 32.5934814,19.1128208 L32.5934814,19.1128208 C32.858428,18.7892972 33.0929605,18.4426423 33.2941735,18.0771507 C33.251479,17.8863694 32.8898315,17.7104541 32.7115191,17.8467265" id="Path" fill="#D41317"></path>
            <path d="M39.4195781,12.722885 L39.4195781,12.722885 C39.2261971,12.7427064 39.168434,12.8963226 39.0679763,13.0102958 C39.1115447,13.0478954 39.1702175,13.0636434 39.2270892,13.0530024 C39.2839609,13.0423614 39.3327148,13.0065132 39.3593035,12.9557869 L39.3593035,12.9557869 C39.4974327,12.9359654 39.5777989,12.861635 39.7661569,12.8963226 C39.7657024,12.8155557 39.7195197,12.7418164 39.646507,12.7052788 C39.5734943,12.6687413 39.485904,12.6755369 39.4195781,12.722885 Z" id="Path" fill="#FFFFFF"></path>
            <path d="M38.0784686,13.357171 C38.103583,13.5157425 37.8599732,13.4092022 37.8423931,13.5306085 C37.7168211,13.5306085 37.7193325,13.3844254 37.7268668,13.24072 C37.591249,13.2580638 37.6942181,13.5132648 37.4958143,13.4711442 C37.4958143,13.4166353 37.4229825,13.426546 37.3777765,13.4141576 C37.4606541,13.2654968 37.4330282,13.0078181 37.5535774,12.8963226 C37.8976448,12.8814565 37.8850876,13.2208986 38.0784686,13.357171" id="Path" fill="#FFFFFF"></path>
            <path d="M37.7168211,14.2714348 L37.5410202,14.2714348 C36.8980913,14.2565687 36.0517357,14.4374393 36.0843844,13.7560774 C35.4088068,14.2243588 36.3229713,14.7694484 36.9583659,14.6752965 L36.9583659,14.6752965 C37.0362206,14.6034438 37.6741266,14.5241581 37.6590579,14.7322832 C37.7437563,14.5937236 37.764757,14.4261749 37.7168211,14.2714348" id="Path" fill="#D41317"></path>
            <path d="M32.8270454,13.9319926 C32.88732,14.0286222 33.0555866,14.316033 32.9450832,14.3928411 C32.8295569,14.3284214 32.6813819,14.0038454 32.5357183,14.1624169 C32.7064963,14.2962116 32.6236187,14.377975 32.420192,14.2763901 C32.4076348,14.4795599 32.6160844,14.4646938 32.6512446,14.6232653 C32.4503293,14.6678635 32.4001005,14.5142474 32.3021543,14.6232653 C32.3021543,14.8437788 32.6638018,14.7471493 32.6512446,14.9676627 L32.6512446,14.9676627 C33.0003349,14.7942252 33.2590133,14.5291134 33.7035383,14.4498277 C33.4875544,14.130207 33.143487,13.6668809 32.8270454,13.9319926" id="Path" fill="#D41317"></path>
            <path d="M33.4096997,24.4646088 C33.3594709,24.6504348 33.5628976,24.5860151 33.5855006,24.695033 C33.4122112,24.695033 33.228876,24.695033 33.2338989,24.8684706 L33.4096997,24.8684706 C33.4096997,24.9725332 33.3519366,25.004743 33.2338989,24.9824439 C33.1736243,25.198002 33.4549057,25.074118 33.4096997,25.2723324 C33.2866391,25.2723324 33.0103806,25.4061271 33.1761357,25.5002789 C33.1485099,25.4259485 33.4473714,25.5002789 33.4699743,25.5572655 C33.399654,25.5423995 33.2665476,25.7257478 33.4096997,25.7307031 C33.4096997,25.6043415 33.6608438,25.7059263 33.75879,25.6737165 C33.8994307,25.3689619 33.8692934,24.8982028 33.9948655,24.5810598 C33.7437214,24.5934482 33.6784239,24.4299213 33.4096997,24.4646088" id="Path" fill="#D41317"></path>
            <path d="M39.1860141,26.659833 L39.1860141,26.6028464 C39.1302607,26.364041 39.0095699,26.1447498 38.8369238,25.9685604 C38.6411048,26.0486654 38.4771052,26.1895836 38.3697957,26.3699445 C38.3421699,26.5161276 38.6385199,26.2311944 38.6611229,26.4294088 C38.4099788,26.721775 38.764092,26.6102794 38.5455966,26.8902572 C38.6937716,26.9521992 38.8243666,26.7143419 38.8946869,26.8902572 C38.826878,26.976976 38.7289318,27.0314849 38.718886,27.177668 C38.9850988,27.1182037 39.0252818,27.2569538 39.3618149,27.0042305 L39.3618149,27.0042305 C39.3463921,26.8725182 39.2840957,26.7504781 39.1860141,26.659833" id="Path" fill="#D41317"></path>
            <path d="M37.9227592,28.3347444 C34.4753611,28.3398766 31.3313752,26.3913267 29.8397306,23.3251213 C28.3480861,20.2589159 28.7739335,16.6200949 30.9345626,13.9698967 C33.0951917,11.3196986 36.6065354,10.1292149 39.9620493,10.9092235 L39.0729992,7.61390955 C38.4759071,7.527446 37.8732737,7.48355992 37.2697846,7.4825918 C31.8874325,7.48075861 27.1310506,10.9367544 25.5361506,16.0082725 C23.9412506,21.0797906 25.8795251,26.5849099 30.3177271,29.5889849 C34.755929,32.5930599 40.6597321,32.3959887 44.8819623,29.1028251 L44.0305838,25.956172 C42.3755168,27.4867612 40.1912879,28.3373663 37.9227592,28.3347444 Z" id="Path" fill="#D41317"></path>
            <path d="M42.8150463,10.0023927 C43.1496364,9.75431568 43.5021796,9.53072741 43.8698515,9.33341923 C44.0054694,9.25908884 44.1209956,9.20457988 44.191316,9.16989237 L44.299308,9.12033878 L43.9251032,8.25562858 C43.8874316,8.28288306 40.871191,9.51181216 39.7360196,12.3289339 L40.6250698,12.6708537 L40.6250698,12.6708537 C41.0905939,11.598511 41.8487372,10.6747222 42.8150463,10.0023927 L42.8150463,10.0023927 Z" id="Path" fill="#000000"></path>
            <path d="M44.3495368,14.3308991 C46.5495591,16.0058105 49.0183056,20.0518614 48.9931912,24.0582694 L49.9475388,24.0582694 C49.9299587,19.7718836 47.5139525,15.661413 45.0879004,13.7114792 C45.8967802,13.1067166 46.8013519,12.6379076 47.7650966,12.3239786 L47.4637236,11.4295362 C44.1988503,12.4899831 41.6120661,15.0568592 40.7782677,19.0508788 L41.7125237,19.2441378 L41.7125237,19.2441378 C41.7677754,18.9815038 41.8330729,18.7312581 41.9033932,18.4834902 C43.422815,19.6777317 45.0200915,21.9150765 45.6705547,25.2302118 L46.6073222,25.0493412 L46.6073222,25.0493412 C45.8664471,21.3328218 44.0230494,18.840276 42.2148119,17.5394942 C42.6772614,16.3274513 43.4063284,15.231628 44.3495368,14.3308991 Z" id="Path" fill="#000000"></path>
            <path d="M30.4863824,18.4091598 L29.6977899,18.9443386 C30.5140083,20.1113257 31.907858,20.998335 33.6382409,21.3625539 L33.8366447,20.4433348 L33.8366447,20.4433348 C32.3147115,20.1237141 31.1343342,19.343245 30.4863824,18.4091598 Z" id="Path" fill="#000000"></path>
        </g>
    </g>
</svg>