<?xml version="1.0" encoding="UTF-8"?>
<svg width="103px" height="138px" viewBox="0 0 103 138" version="1.1" xmlns="http://www.w3.org/2000/svg" xmlns:xlink="http://www.w3.org/1999/xlink">
    <title>soccer-tema-wolfsburg-color</title>
    <g id="soccer-tema-wolfsburg-color" stroke="none" stroke-width="1" fill="none" fill-rule="evenodd">
        <rect id="Rectangle" fill="#FFFFFF" x="0" y="0" width="103.235294" height="138"></rect>
        <g id="Wolfsburg" transform="translate(16.000000, 34.000000)" fill="#56AF31" fill-rule="nonzero">
            <path d="M0.0137985103,35.459803 C0.725048995,13.371901 15.9648764,4.5100995 25.9123479,1.37353449 C30.4633475,-0.0615445391 34.3570362,-0.260093126 34.3394745,0.265180984 C34.3269304,0.715056895 30.9124263,0.338065908 26.0854565,2.08604745 C17.6683652,5.130878 5.74645233,12.7058836 5.02140334,32.0869903 C5.02140334,49.9148941 19.4584083,64.3662153 37.259741,64.3662153 C55.0610737,64.3662153 69.4980787,49.9148941 69.4980787,32.0869903 C69.5457463,28.2793813 68.8583296,25.2621967 67.9927867,22.6622156 C66.4874946,18.0805184 64.2182669,16.0120945 65.0675025,15.9919884 C65.6420223,15.9806786 67.7155621,19.5243939 68.9386118,22.882127 C70.3611128,26.7877536 71.0184237,30.3352388 71,35.4623162 C71,55.0909803 55.1049781,71 35.4998038,71 C15.8946294,71 0,55.0909803 0,35.4623162" id="Path"></path>
            <path d="M31.982438,24.2707104 C31.982438,17.9510849 42.3300663,18.5479872 42.3300663,18.5479872 L42.3300663,41.089535 C42.3300663,42.6653574 43.3335944,43.6028083 45.1148566,43.6028083 C47.9749115,43.6028083 47.7804779,41.089535 47.7804779,41.089535 C47.7804779,42.6653574 47.7666794,24.7105333 47.7666794,17.902076 C47.7666794,12.2472112 58.0465696,12.2472112 58.0465696,12.2472112 L58.0465696,42.2431275 L58.0026652,44.1067196 C57.1245782,49.7691242 52.2323791,54.099494 46.4432768,54.099494 C42.7646611,54.0938211 39.3104827,52.3265365 37.1493529,49.344381 C34.9864765,52.3258151 31.5319781,54.0927865 27.8529202,54.099494 C22.0650724,54.099494 17.2656996,49.7691242 16.3913758,44.1067196 L16.2383378,42.2406142 C16.2383378,42.2406142 16.2383378,25.6982496 16.2383378,17.902076 C16.2383378,12.2472112 26.5245,12.2472112 26.5245,12.2472112 L26.5245,41.0983315 C26.5245,42.6917467 27.653469,43.6116047 29.1863581,43.6116047 C30.7192471,43.6116047 31.9962366,42.6427379 31.9962366,41.0983315 C31.9962366,41.0983315 31.982438,29.5862834 31.982438,24.275737" id="Path"></path>
        </g>
    </g>
</svg>