<svg width="46" height="46" viewBox="0 0 46 46" fill="none" xmlns="http://www.w3.org/2000/svg">
<path fill-rule="evenodd" clip-rule="evenodd" d="M1.0222 6.89058C3.98552 5.17585 7.08758 3.83292 10.3506 2.86179C14.7956 1.54106 19.3071 0.919538 23.9408 1.00833C26.0939 1.05272 29.6788 1.40233 30.2837 1.6354C30.3058 1.67979 30.2615 1.70754 30.2115 1.70754C30.0062 1.80188 29.7731 1.86847 29.5622 1.96281C25.7443 3.561 23.0363 6.91833 22.2483 10.9915C22.1317 11.663 22.0651 12.3344 22.0429 13.0059C22.0207 14.027 21.9264 15.0425 21.6267 16.0358C20.6057 19.6262 17.6701 22.4231 14.0353 23.261C9.26291 24.3431 4.44611 21.9847 2.36513 17.5619C2.24859 17.3066 2.1598 17.0513 2.10986 16.7961C1.76025 15.2922 1.51054 13.7884 1.32186 12.2568C1.11654 10.5698 1 8.87723 1 7.19025C1.0222 7.07371 1.0222 7.00712 1.0222 6.89058Z" stroke="#020D1F"/>
<path fill-rule="evenodd" clip-rule="evenodd" d="M35.096 34.6413C35.1404 34.2029 35.1903 33.8089 35.2125 33.3927C35.3291 31.1009 34.8407 28.9255 33.7531 26.9112C32.7098 24.9911 31.2503 23.4595 29.3802 22.3052C29.2193 22.1887 29.0306 22.0999 28.8697 21.9834C26.3004 20.363 24.7244 18.0711 24.1694 15.0856C23.1761 9.71388 26.5556 4.53083 31.8552 3.25449C33.7309 2.8161 35.5566 2.86049 37.3879 3.43762C38.8917 3.90376 40.329 4.52528 41.7607 5.19675C42.754 5.66289 43.703 6.16788 44.6574 6.70061C44.774 6.77275 44.8628 6.81714 45.007 6.90593C45.007 7.00027 45.0292 7.06686 45.0292 7.1612C45.0292 8.3876 44.9571 9.63619 44.8683 10.8626C44.7074 12.6661 44.4299 14.4752 44.0581 16.2343C42.9205 21.4673 40.9117 26.3063 37.9927 30.7957C37.1825 32.0443 36.3057 33.2485 35.379 34.4083C35.2847 34.4804 35.2347 34.5692 35.096 34.6413V34.6413Z" stroke="#020D1F"/>
<path fill-rule="evenodd" clip-rule="evenodd" d="M23.0179 45C22.6683 44.8613 21.6084 44.212 20.4708 43.4518C17.9459 41.7648 15.6096 39.817 13.4787 37.6416C11.3533 35.4608 9.45543 33.0801 7.82948 30.5108C6.30342 28.1246 5.03263 25.6274 4.01156 22.9859C3.98937 22.9138 3.96717 22.8694 3.93942 22.7529C4.05596 22.825 4.10035 22.8472 4.17249 22.8916C4.98269 23.5187 5.83728 24.0514 6.76402 24.4399C7.94602 24.9504 9.17241 25.3 10.4654 25.411C13.0791 25.6662 15.5319 25.1335 17.8515 23.835C19.0557 23.1635 20.3543 22.7251 21.7194 22.5364C26.5584 21.9371 31.3752 24.8061 32.879 29.806C33.6448 32.3753 33.4118 34.8725 32.2298 37.3087C32.0688 37.6305 31.9301 37.9357 31.7636 38.2354C31.6693 38.4185 31.5583 38.6072 31.3918 38.7459C28.9446 41.0656 26.2587 43.1021 23.3453 44.8169C23.2288 44.8835 23.1123 44.9556 23.0179 45V45Z" stroke="#020D1F"/>
</svg>
