<svg width="36" height="36" viewBox="0 0 36 36" fill="none" xmlns="http://www.w3.org/2000/svg">
<path fill-rule="evenodd" clip-rule="evenodd" d="M0.45208 4.7784C2.81811 3.40929 5.29491 2.33704 7.9002 1.56166C11.4492 0.507136 15.0515 0.0108903 18.7512 0.0817826C20.4703 0.117229 23.3326 0.396367 23.8155 0.58246C23.8332 0.617906 23.7978 0.64006 23.7579 0.64006C23.594 0.715383 23.4079 0.768552 23.2395 0.843875C20.1912 2.11994 18.0289 4.80055 17.3998 8.05274C17.3067 8.58886 17.2536 9.12498 17.2358 9.66111C17.2181 10.4764 17.1428 11.2872 16.9035 12.0803C16.0883 14.947 13.7444 17.1801 10.8422 17.8492C7.03177 18.7132 3.18586 16.8301 1.52433 13.2988C1.43128 13.095 1.36039 12.8911 1.32051 12.6873C1.04137 11.4866 0.841987 10.2858 0.691341 9.06295C0.527403 7.716 0.434357 6.36461 0.434357 5.01766C0.45208 4.92461 0.45208 4.87144 0.45208 4.7784Z" fill="#062455"/>
<path fill-rule="evenodd" clip-rule="evenodd" d="M27.6579 26.9356C27.6933 26.5856 27.7332 26.271 27.7509 25.9387C27.844 24.1088 27.4541 22.372 26.5856 20.7636C25.7527 19.2305 24.5874 18.0076 23.0942 17.086C22.9657 16.993 22.8151 16.9221 22.6866 16.8291C20.6351 15.5353 19.3768 13.7054 18.9337 11.3216C18.1406 7.03263 20.8389 2.8943 25.0703 1.87522C26.5679 1.52519 28.0256 1.56063 29.4878 2.02143C30.6885 2.39362 31.8361 2.88986 32.9792 3.42599C33.7723 3.79817 34.53 4.20137 35.2921 4.62673C35.3851 4.68433 35.456 4.71977 35.5712 4.79066C35.5712 4.86599 35.589 4.91916 35.589 4.99448C35.589 5.97368 35.5314 6.9706 35.4605 7.9498C35.332 9.3898 35.1104 10.8342 34.8136 12.2388C33.9053 16.417 32.3013 20.2806 29.9707 23.8651C29.3239 24.862 28.6238 25.8235 27.8839 26.7496C27.8085 26.8072 27.7687 26.878 27.6579 26.9356V26.9356Z" fill="#FFF4C8"/>
<path fill-rule="evenodd" clip-rule="evenodd" d="M18.0143 35.2064C17.7352 35.0956 16.8889 34.5772 15.9806 33.9702C13.9646 32.6232 12.0992 31.068 10.3978 29.3312C8.70084 27.5899 7.18552 25.6891 5.8873 23.6376C4.66884 21.7324 3.6542 19.7385 2.83893 17.6295C2.82121 17.5719 2.80349 17.5365 2.78133 17.4434C2.87438 17.501 2.90983 17.5187 2.96743 17.5542C3.61432 18.0549 4.29666 18.4802 5.0366 18.7904C5.98035 19.198 6.95955 19.4771 7.99192 19.5657C10.0788 19.7696 12.0372 19.3442 13.8893 18.3074C14.8508 17.7713 15.8876 17.4213 16.9775 17.2706C20.8412 16.7921 24.6871 19.0828 25.8878 23.0749C26.4992 25.1264 26.3132 27.1202 25.3694 29.0653C25.2409 29.3223 25.1301 29.566 24.9972 29.8053C24.9219 29.9515 24.8333 30.1021 24.7004 30.2129C22.7464 32.0649 20.6019 33.691 18.2757 35.0601C18.1827 35.1133 18.0896 35.1709 18.0143 35.2064V35.2064Z" fill="#FCD435"/>
</svg>
