<svg width="72" height="72" viewBox="0 0 72 72" fill="none" xmlns="http://www.w3.org/2000/svg">
<path d="M36 72C55.8823 72 72 55.8823 72 36C72 16.1177 55.8823 0 36 0C16.1177 0 0 16.1177 0 36C0 55.8823 16.1177 72 36 72Z" fill="#020D1F"/>
<path fill-rule="evenodd" clip-rule="evenodd" d="M18.4521 25.7784C20.8181 24.4093 23.2949 23.337 25.9002 22.5617C29.4492 21.5071 33.0515 21.0109 36.7512 21.0818C38.4703 21.1172 41.3326 21.3964 41.8155 21.5825C41.8332 21.6179 41.7978 21.6401 41.7579 21.6401C41.594 21.7154 41.4079 21.7686 41.2395 21.8439C38.1912 23.1199 36.0289 25.8006 35.3998 29.0527C35.3067 29.5889 35.2536 30.125 35.2358 30.6611C35.2181 31.4764 35.1428 32.2872 34.9035 33.0803C34.0883 35.947 31.7444 38.1801 28.8422 38.8492C25.0318 39.7132 21.1859 37.8301 19.5243 34.2988C19.4313 34.095 19.3604 33.8911 19.3205 33.6873C19.0414 32.4866 18.842 31.2858 18.6913 30.063C18.5274 28.716 18.4344 27.3646 18.4344 26.0177C18.4521 25.9246 18.4521 25.8714 18.4521 25.7784Z" fill="#062455"/>
<path fill-rule="evenodd" clip-rule="evenodd" d="M45.6579 47.9356C45.6933 47.5856 45.7332 47.271 45.7509 46.9387C45.844 45.1088 45.4541 43.372 44.5856 41.7636C43.7527 40.2305 42.5874 39.0076 41.0942 38.086C40.9657 37.993 40.8151 37.9221 40.6866 37.8291C38.6351 36.5353 37.3768 34.7054 36.9337 32.3216C36.1406 28.0326 38.8389 23.8943 43.0703 22.8752C44.5679 22.5252 46.0256 22.5606 47.4878 23.0214C48.6885 23.3936 49.8361 23.8899 50.9792 24.426C51.7723 24.7982 52.53 25.2014 53.2921 25.6267C53.3851 25.6843 53.456 25.7198 53.5712 25.7907C53.5712 25.866 53.589 25.9192 53.589 25.9945C53.589 26.9737 53.5314 27.9706 53.4605 28.9498C53.332 30.3898 53.1104 31.8342 52.8136 33.2388C51.9053 37.417 50.3013 41.2806 47.9707 44.8651C47.3239 45.862 46.6238 46.8235 45.8839 47.7496C45.8085 47.8072 45.7687 47.878 45.6579 47.9356V47.9356Z" fill="#FFF4C8"/>
<path fill-rule="evenodd" clip-rule="evenodd" d="M36.0143 56.2064C35.7352 56.0956 34.8889 55.5772 33.9806 54.9702C31.9646 53.6232 30.0992 52.068 28.3978 50.3312C26.7008 48.5899 25.1855 46.6891 23.8873 44.6376C22.6688 42.7324 21.6542 40.7385 20.8389 38.6295C20.8212 38.5719 20.8035 38.5365 20.7813 38.4434C20.8744 38.501 20.9098 38.5187 20.9674 38.5542C21.6143 39.0549 22.2967 39.4802 23.0366 39.7904C23.9803 40.198 24.9595 40.4771 25.9919 40.5657C28.0788 40.7696 30.0372 40.3442 31.8893 39.3074C32.8508 38.7713 33.8876 38.4213 34.9775 38.2706C38.8412 37.7921 42.6871 40.0828 43.8878 44.0749C44.4992 46.1264 44.3132 48.1202 43.3694 50.0653C43.2409 50.3223 43.1301 50.566 42.9972 50.8053C42.9219 50.9515 42.8333 51.1021 42.7004 51.2129C40.7464 53.0649 38.6019 54.691 36.2757 56.0601C36.1827 56.1133 36.0896 56.1709 36.0143 56.2064V56.2064Z" fill="#FCD435"/>
</svg>
