<svg width="36" height="36" viewBox="0 0 36 36" fill="none" xmlns="http://www.w3.org/2000/svg">
<path fill-rule="evenodd" clip-rule="evenodd" d="M0.45208 4.77846C2.81811 3.40935 5.29491 2.33711 7.9002 1.56172C11.4492 0.507198 15.0515 0.0109513 18.7512 0.0818436C20.4703 0.11729 23.3326 0.396428 23.8155 0.582521C23.8332 0.617967 23.7978 0.640121 23.7579 0.640121C23.594 0.715444 23.4079 0.768613 23.2395 0.843936C20.1912 2.12 18.0289 4.80061 17.3998 8.0528C17.3067 8.58892 17.2536 9.12504 17.2358 9.66117C17.2181 10.4764 17.1428 11.2873 16.9035 12.0804C16.0883 14.9471 13.7444 17.1802 10.8422 17.8492C7.03177 18.7132 3.18586 16.8302 1.52433 13.2988C1.43128 13.095 1.36039 12.8912 1.32051 12.6874C1.04137 11.4866 0.841987 10.2859 0.691341 9.06301C0.527403 7.71606 0.434357 6.36467 0.434357 5.01772C0.45208 4.92467 0.45208 4.87151 0.45208 4.77846Z" fill="#FCD435"/>
<path fill-rule="evenodd" clip-rule="evenodd" d="M27.6579 26.9357C27.6933 26.5857 27.7332 26.2711 27.7509 25.9388C27.844 24.1089 27.4541 22.372 26.5856 20.7636C25.7527 19.2306 24.5874 18.0077 23.0942 17.0861C22.9657 16.9931 22.8151 16.9222 22.6866 16.8291C20.6351 15.5353 19.3768 13.7054 18.9337 11.3217C18.1406 7.03269 20.8389 2.89436 25.0703 1.87528C26.5679 1.52525 28.0256 1.56069 29.4878 2.02149C30.6885 2.39368 31.8361 2.88993 32.9792 3.42605C33.7723 3.79823 34.53 4.20143 35.2921 4.62679C35.3851 4.68439 35.456 4.71983 35.5712 4.79073C35.5712 4.86605 35.589 4.91922 35.589 4.99454C35.589 5.97374 35.5314 6.97066 35.4605 7.94986C35.332 9.38986 35.1104 10.8343 34.8136 12.2388C33.9053 16.4171 32.3013 20.2807 29.9707 23.8652C29.3239 24.8621 28.6238 25.8236 27.8839 26.7496C27.8085 26.8072 27.7687 26.8781 27.6579 26.9357V26.9357Z" fill="#FFF4C8"/>
<path fill-rule="evenodd" clip-rule="evenodd" d="M18.0143 35.2065C17.7352 35.0957 16.8889 34.5773 15.9806 33.9703C13.9646 32.6233 12.0992 31.0681 10.3978 29.3313C8.70084 27.59 7.18552 25.6892 5.8873 23.6377C4.66884 21.7325 3.6542 19.7387 2.83893 17.6296C2.82121 17.572 2.80349 17.5366 2.78133 17.4435C2.87438 17.5011 2.90983 17.5189 2.96743 17.5543C3.61432 18.055 4.29666 18.4803 5.0366 18.7905C5.98035 19.1981 6.95955 19.4773 7.99192 19.5659C10.0788 19.7697 12.0372 19.3443 13.8893 18.3075C14.8508 17.7714 15.8876 17.4214 16.9775 17.2707C20.8412 16.7922 24.6871 19.0829 25.8878 23.075C26.4992 25.1265 26.3132 27.1203 25.3694 29.0654C25.2409 29.3224 25.1301 29.5661 24.9972 29.8054C24.9219 29.9516 24.8333 30.1022 24.7004 30.213C22.7464 32.0651 20.6019 33.6912 18.2757 35.0603C18.1827 35.1134 18.0896 35.171 18.0143 35.2065V35.2065Z" fill="#FCD435"/>
</svg>
