<svg width="38" height="37" viewBox="0 0 38 37" fill="none" xmlns="http://www.w3.org/2000/svg">
<path fill-rule="evenodd" clip-rule="evenodd" d="M1.45208 5.7784C3.81811 4.40929 6.29491 3.33704 8.9002 2.56166C12.4492 1.50714 16.0515 1.01089 19.7512 1.08178C21.4703 1.11723 24.3326 1.39637 24.8155 1.58246C24.8332 1.61791 24.7978 1.64006 24.7579 1.64006C24.594 1.71538 24.4079 1.76855 24.2395 1.84387C21.1912 3.11994 19.0289 5.80055 18.3998 9.05274C18.3067 9.58886 18.2536 10.125 18.2358 10.6611C18.2181 11.4764 18.1428 12.2872 17.9035 13.0803C17.0883 15.947 14.7444 18.1801 11.8422 18.8492C8.03177 19.7132 4.18586 17.8301 2.52433 14.2988C2.43128 14.095 2.36039 13.8911 2.32051 13.6873C2.04137 12.4866 1.84199 11.2858 1.69134 10.063C1.5274 8.716 1.43436 7.36461 1.43436 6.01766C1.45208 5.92461 1.45208 5.87144 1.45208 5.7784Z" stroke="#FCD435"/>
<path fill-rule="evenodd" clip-rule="evenodd" d="M28.6579 27.9356C28.6933 27.5856 28.7332 27.271 28.7509 26.9387C28.844 25.1088 28.4541 23.372 27.5856 21.7636C26.7527 20.2305 25.5874 19.0076 24.0942 18.086C23.9657 17.993 23.8151 17.9221 23.6866 17.8291C21.6351 16.5353 20.3768 14.7054 19.9337 12.3216C19.1406 8.03263 21.8389 3.8943 26.0703 2.87522C27.5679 2.52519 29.0256 2.56063 30.4878 3.02143C31.6885 3.39362 32.8361 3.88986 33.9792 4.42599C34.7723 4.79817 35.53 5.20137 36.2921 5.62673C36.3851 5.68433 36.456 5.71977 36.5712 5.79066C36.5712 5.86599 36.589 5.91916 36.589 5.99448C36.589 6.97368 36.5314 7.9706 36.4605 8.9498C36.332 10.3898 36.1104 11.8342 35.8136 13.2388C34.9053 17.417 33.3013 21.2806 30.9707 24.8651C30.3239 25.862 29.6238 26.8235 28.8839 27.7496C28.8085 27.8072 28.7687 27.878 28.6579 27.9356V27.9356Z" stroke="#FCD435"/>
<path fill-rule="evenodd" clip-rule="evenodd" d="M19.0143 36.2064C18.7352 36.0956 17.8889 35.5772 16.9806 34.9702C14.9646 33.6232 13.0992 32.068 11.3978 30.3312C9.70084 28.5899 8.18552 26.6891 6.8873 24.6376C5.66884 22.7324 4.6542 20.7385 3.83893 18.6295C3.82121 18.5719 3.80349 18.5365 3.78133 18.4434C3.87438 18.501 3.90983 18.5187 3.96743 18.5542C4.61432 19.0549 5.29666 19.4802 6.0366 19.7904C6.98035 20.198 7.95955 20.4771 8.99192 20.5657C11.0788 20.7696 13.0372 20.3442 14.8893 19.3074C15.8508 18.7713 16.8876 18.4213 17.9775 18.2706C21.8412 17.7921 25.6871 20.0828 26.8878 24.0749C27.4992 26.1264 27.3132 28.1202 26.3694 30.0653C26.2409 30.3223 26.1301 30.566 25.9972 30.8053C25.9219 30.9515 25.8333 31.1021 25.7004 31.2129C23.7464 33.0649 21.6019 34.691 19.2757 36.0601C19.1827 36.1133 19.0896 36.1709 19.0143 36.2064V36.2064Z" stroke="#FCD435"/>
</svg>
